<?xml version="1.0" encoding="UTF-8"?>
<!DOCTYPE svg PUBLIC "-//W3C//DTD SVG 1.1//EN" "http://www.w3.org/Graphics/SVG/1.1/DTD/svg11.dtd">
<!-- Creator: CorelDRAW -->
<svg xmlns="http://www.w3.org/2000/svg" xml:space="preserve" width="64.9715mm" height="64.9715mm" version="1.1" style="shape-rendering:geometricPrecision; text-rendering:geometricPrecision; image-rendering:optimizeQuality; fill-rule:evenodd; clip-rule:evenodd"
viewBox="0 0 6658.17 6658.17"
 xmlns:xlink="http://www.w3.org/1999/xlink"
 xmlns:xodm="http://www.corel.com/coreldraw/odm/2003">
 <defs>
  <style type="text/css">
   <![CDATA[
    .fil0 {fill:#CCCCCC;fill-rule:nonzero}
   ]]>
  </style>
 </defs>
 <g id="Layer_x0020_1">
  <metadata id="CorelCorpID_0Corel-Layer"/>
  <path class="fil0" d="M3329.09 0c919.26,0 1751.56,372.64 2354,975.08 602.44,602.44 975.08,1434.74 975.08,2354.01 0,919.26 -372.64,1751.56 -975.08,2354 -602.44,602.44 -1434.74,975.08 -2354,975.08 -919.27,0 -1751.57,-372.64 -2354.01,-975.08 -602.44,-602.44 -975.08,-1434.74 -975.08,-2354 0,-919.27 372.64,-1751.57 975.08,-2354.01 602.44,-602.44 1434.74,-975.08 2354.01,-975.08zm2133.98 1195.1c-546.1,-546.11 -1300.6,-883.91 -2133.98,-883.91 -833.38,0 -1587.89,337.8 -2133.99,883.91 -546.11,546.1 -883.91,1300.6 -883.91,2133.99 0,833.37 337.8,1587.88 883.91,2133.98 546.1,546.11 1300.6,883.91 2133.99,883.91 833.37,0 1587.88,-337.8 2133.98,-883.91 546.11,-546.1 883.91,-1300.6 883.91,-2133.98 0,-833.38 -337.8,-1587.89 -883.91,-2133.99z"/>
 </g>
</svg>
