<?xml version="1.0" encoding="UTF-8"?>
<!DOCTYPE svg PUBLIC "-//W3C//DTD SVG 1.1//EN" "http://www.w3.org/Graphics/SVG/1.1/DTD/svg11.dtd">
<!-- Creator: CorelDRAW -->
<svg xmlns="http://www.w3.org/2000/svg" xml:space="preserve" width="2.1802mm" height="1.7348mm" version="1.1" style="shape-rendering:geometricPrecision; text-rendering:geometricPrecision; image-rendering:optimizeQuality; fill-rule:evenodd; clip-rule:evenodd"
viewBox="0 0 4.31 3.43"
 xmlns:xlink="http://www.w3.org/1999/xlink"
 xmlns:xodm="http://www.corel.com/coreldraw/odm/2003">
 <defs>
  <style type="text/css">
   <![CDATA[
    .str1 {stroke:#828282;stroke-width:0.15;stroke-miterlimit:2.61313}
    .str0 {stroke:#828282;stroke-width:0.35;stroke-linecap:round;stroke-linejoin:round;stroke-miterlimit:2.61313}
    .fil0 {fill:none;fill-rule:nonzero}
   ]]>
  </style>
 </defs>
 <g id="Layer_x0020_1">
  <metadata id="CorelCorpID_0Corel-Layer"/>
  <g id="_105553185997024">
   <g>
    <path class="fil0 str0" d="M0.2 1.82c-0.04,-0.06 -0.04,-0.14 0,-0.21 0.42,-0.77 1.18,-1.44 1.95,-1.44 0.77,0 1.54,0.67 1.95,1.44 0.04,0.06 0.04,0.14 0,0.21 -0.42,0.77 -1.19,1.44 -1.95,1.44 -0.77,0 -1.54,-0.67 -1.95,-1.44z"/>
   </g>
   <path class="fil0 str0" d="M2.64 2.04c0.26,0 0.26,0.01 0,0.01 -0.26,0 -0.68,0 -0.93,0 -0.26,-0 -0.26,-0.01 0,-0.01 0.26,-0 0.68,-0 0.93,0"/>
   <g>
    <g>
     <path class="fil0 str1" d="M0.92 1.43c0,0.07 0.19,0.42 0.26,0.47 0.09,0.06 0.1,0.08 0.22,0.13 0.04,0.01 0.12,0.04 0.16,0.04"/>
    </g>
    <g>
     <path class="fil0 str1" d="M1.21 1.32c0,0.22 0.03,0.33 0.18,0.52 0.03,0.03 0.16,0.15 0.22,0.17 0.03,0.01 0.1,0.03 0.14,0.02"/>
    </g>
    <g>
     <path class="fil0 str1" d="M1.67 1.24c-0.09,0.21 -0.04,0.33 -0.06,0.53 -0,0.05 0.15,0.23 0.19,0.22"/>
    </g>
    <g>
     <path class="fil0 str1" d="M1.99 1.22c-0.08,0.14 -0.18,0.32 -0.21,0.47 -0.02,0.12 0.06,0.23 0.16,0.31"/>
    </g>
    <g>
     <path class="fil0 str1" d="M2.29 1.31c-0.06,0.17 -0.26,0.3 -0.26,0.51 0,0.17 0.11,0.18 0.13,0.21"/>
    </g>
    <g>
     <path class="fil0 str1" d="M2.13 2.03c0.1,-0 0.25,0 0.33,-0.05 0.11,-0.07 0.15,-0.12 0.17,-0.22 0.02,-0.11 0.05,-0.13 0.05,-0.25 -0,-0.05 0.01,-0.12 0.01,-0.18 0,-0.01 0,-0.02 0,-0.03"/>
    </g>
    <g>
     <path class="fil0 str1" d="M2.17 1.95c0.3,0 0.58,0.05 0.77,-0.17 0.08,-0.08 0.17,-0.23 0.22,-0.32l0.01 -0.01"/>
    </g>
    <g>
     <path class="fil0 str1" d="M2.49 2.04c0.1,0.05 0.37,-0 0.47,-0.04 0.04,-0.02 0.14,-0.09 0.16,-0.12 0.01,-0.02 0.09,-0.12 0.09,-0.13"/>
    </g>
    <g>
     <path class="fil0 str1" d="M2.15 1.97c-0.03,0.08 0.09,-0.06 0.12,-0.13 0.07,-0.17 0.17,-0.33 0.24,-0.5 0.01,-0.03 0.01,-0.02 0.01,-0.05"/>
    </g>
   </g>
  </g>
 </g>
</svg>
