<?xml version="1.0" encoding="UTF-8"?>
<!DOCTYPE svg PUBLIC "-//W3C//DTD SVG 1.1//EN" "http://www.w3.org/Graphics/SVG/1.1/DTD/svg11.dtd">
<!-- Creator: CorelDRAW -->
<svg xmlns="http://www.w3.org/2000/svg" xml:space="preserve" width="133.431mm" height="116.383mm" version="1.1" style="shape-rendering:geometricPrecision; text-rendering:geometricPrecision; image-rendering:optimizeQuality; fill-rule:evenodd; clip-rule:evenodd"
viewBox="0 0 13054.37 11386.43"
 xmlns:xlink="http://www.w3.org/1999/xlink"
 xmlns:xodm="http://www.corel.com/coreldraw/odm/2003">
 <defs>
  <style type="text/css">
   <![CDATA[
    .fil0 {fill:#D6FFE6}
    .fil4 {fill:#011621;fill-rule:nonzero}
    .fil5 {fill:#03283D;fill-rule:nonzero}
    .fil3 {fill:#181549;fill-rule:nonzero}
    .fil11 {fill:#1C1857;fill-rule:nonzero}
    .fil2 {fill:#2C8751;fill-rule:nonzero}
    .fil1 {fill:#32AB62;fill-rule:nonzero}
    .fil18 {fill:#6BA638;fill-rule:nonzero}
    .fil12 {fill:#95A0A5;fill-rule:nonzero}
    .fil7 {fill:#994842;fill-rule:nonzero}
    .fil6 {fill:#AF5652;fill-rule:nonzero}
    .fil10 {fill:#B3B3B3;fill-rule:nonzero}
    .fil8 {fill:#BC5B57;fill-rule:nonzero}
    .fil17 {fill:#BDE377;fill-rule:nonzero}
    .fil15 {fill:#C8D4DB;fill-rule:nonzero}
    .fil16 {fill:#E6E6E6;fill-rule:nonzero}
    .fil13 {fill:#E6E9EF;fill-rule:nonzero}
    .fil9 {fill:#F68577;fill-rule:nonzero}
    .fil14 {fill:white;fill-rule:nonzero}
   ]]>
  </style>
 </defs>
 <g id="Layer_x0020_1">
  <metadata id="CorelCorpID_0Corel-Layer"/>
  <g id="_105553253966176">
   <circle class="fil0" cx="7361.15" cy="5693.21" r="5693.21"/>
   <g>
    <path class="fil1" d="M-0 2937.16c1115.65,-184.49 2231.28,-368.98 3346.94,-553.48l-460.12 2335.19c-962.26,-593.91 -1924.53,-1187.81 -2886.81,-1781.71z"/>
    <path class="fil2" d="M411.94 3190.73c-0.13,0 -0.47,0.34 -0.47,0.47l1031.32 637.74 1443.45 890.77 231.63 -1168.33 20.71 -104.55 -5.71 1.73 -7.26 3.34c-85.81,39.2 -173.33,73.1 -260.12,100.8 -176.03,56.25 -360.75,92.94 -549.07,109.09 -78.61,6.77 -158.92,10.17 -238.69,10.17 -110.4,0 -222.02,-6.43 -331.72,-19.16 -104.13,-11.95 -198.19,-27.31 -287.46,-46.99 -96.74,-21.23 -194.19,-48.36 -289.58,-80.61 -87.83,-29.65 -176.14,-63.55 -270.02,-103.62 -80.73,-34.68 -167.52,-74.48 -265.35,-121.73 -65.17,-31.52 -130.02,-63.64 -194.86,-95.86l-26.58 -13.15c-0.05,-0.05 -0.17,-0.13 -0.22,-0.13z"/>
    <path class="fil3" d="M3306.51 2386.79c-111.02,566.22 -222.15,1132.31 -333.16,1698.52 -118.19,601.96 -236.29,1204.01 -354.37,1806 -104.04,530.13 -208.1,1060.28 -312.03,1590.42 -0.21,1.18 -0.52,2.5 -0.72,3.83 -4.14,20.71 10.7,41.32 31.32,45.04 21.02,3.76 40.91,-10.6 44.98,-31.32 1.36,-6.96 2.76,-13.91 4.08,-20.87 100.99,-515.21 202.13,-1030.28 303.18,-1545.39 118.11,-601.67 236.09,-1203.42 354.19,-1805.1 111.2,-566.5 222.33,-1133.11 333.55,-1699.63 1.73,-9.28 3.54,-18.47 5.35,-27.78 4.14,-20.72 -10.7,-41.3 -31.31,-45.05 -2.26,-0.41 -4.51,-0.59 -6.71,-0.59 -18.4,0 -34.64,13.41 -38.34,31.9z"/>
    <path class="fil4" d="M5789.08 1243.32c-18.88,0 -37.99,0.7 -56.79,2.12 -74.94,5.64 -144.82,22.14 -207.69,49.04 -68.48,29.27 -125.26,68.68 -168.76,117.12 -28.01,31.24 -50.72,66.67 -67.45,105.33 -12.23,-10.99 -26.58,-22.03 -43.45,-33.85 -73.16,-51.54 -159.56,-85.57 -249.83,-98.42 -28.89,-4.16 -58.78,-6.25 -88.84,-6.25 -141.53,0 -289.12,45.87 -426.83,132.67 -78.01,49.13 -148.96,109.57 -210.87,179.65 -62.04,70.36 -110.89,146.69 -145.23,226.84 -35.95,84.41 -54.15,169.68 -54.05,253.46 0.11,42.62 5.46,85.96 15.96,128.76 10.32,41.88 26.77,84.35 48.93,126.22 5.25,9.8 10.81,19.43 16.58,28.92 -11.72,7.98 -23.4,17.58 -34.7,28.16 -49.19,46.22 -82.95,112.26 -95.05,186.02 -11.3,68.32 -3.39,139.91 22.24,201.58 26.7,64.24 71.41,112.96 125.9,137.22l-6.15 11.95c-37.58,59.17 -56.48,133.86 -54.7,215.91 0.75,36.13 6.39,74.74 16.76,114.71 9.24,35.93 22.96,71.82 40.84,106.73 37.06,72.35 87.51,132.13 145.96,172.85 26.84,18.68 54.46,33.23 82.07,43.27 30.41,11.07 62.17,17.61 94.45,19.39 5.68,0.33 11.4,0.49 17.08,0.49 26.3,0 52.97,-3.33 81.46,-10.18 3.96,-0.91 7.79,-1.92 11.64,-3.02 2.12,18.33 6,36.67 11.2,54.25 13.63,46.66 38.76,89.74 72.69,124.56 34.08,34.79 79.05,58.92 130.02,69.78 7.3,1.53 14.67,2.64 22.06,3.55 0.99,0.12 1.99,0.18 2.96,0.18 10.15,0 18.22,-6.28 20.05,-15.64 60.67,-6.99 123.92,-23.2 187.93,-49.43 33.54,-13.76 67.11,-30 102.66,-49.59 33.44,-18.59 66.1,-39.65 97.71,-60 124.03,-80.09 252.29,-170.83 392.18,-277.4 56.78,-43.26 115.07,-88.83 173.24,-135.48 1,-0.69 1.81,-1.42 2.74,-2.22 193.73,-155.37 383.68,-319.72 560.14,-474.18 92.24,-80.71 181.77,-160.59 262.77,-250.46 45.23,-50.19 83.33,-98.94 116.5,-149 34.86,-52.58 62.86,-107.42 83.24,-163.02 20.92,-56.72 32.25,-115.83 33.67,-175.65 0.65,-28.69 -1.65,-58.89 -7.08,-92.27 -4.01,-24.46 -10.94,-49.26 -20.61,-73.7 -18.38,-46.22 -45.89,-88.52 -81.76,-125.74 -32.66,-33.74 -73.81,-63.05 -118.99,-84.82 -59.3,-28.63 -125.13,-43.75 -190.43,-43.75 -14.96,0 -30.08,0.83 -44.99,2.43 -19.57,2.07 -39.51,5.66 -59.24,10.71 -7.87,2.02 -15.57,4.33 -23.25,6.98 2.92,-16.92 4.58,-34.68 5.3,-52.47 2.87,-70.41 -13.81,-139.26 -48.23,-199.05 -31.19,-54.07 -77.95,-101.25 -138.98,-140.21 -54.91,-35.12 -119.84,-61.22 -193.02,-77.61 -51.96,-11.53 -105.77,-17.39 -159.97,-17.39z"/>
    <path class="fil4" d="M6428.42 2320.66c-9.7,0 -19.5,0.11 -29.29,0.31 -103.77,2.3 -207.72,17.59 -309,45.46 -100.13,27.64 -192.76,67.65 -275.33,118.93 -90.79,56.35 -164.35,124.94 -218.58,203.81 -16.89,24.59 -32.14,50.89 -45.38,78.12 -12.37,25.5 -22.8,53.01 -31.85,84.1 -7.96,27.46 -13.34,55.81 -15.95,84.2 -36.9,3.21 -75.77,11.43 -115.29,24.21 -65.4,21.33 -131.35,54.85 -196.04,99.64 -108.65,75.37 -204.17,176.21 -276.24,291.62 -72.15,115.55 -119.1,246 -135.72,377.21 -7.66,60.98 -8.1,123.02 -1.32,184.41 5.59,50.28 16.75,102.67 33.25,155.71 28.19,90.82 68.22,170.01 118.94,235.35 25.03,32.23 53.04,60.02 83.19,82.57 -12.7,9.98 -25.24,21.96 -37.32,35.2 -21.28,23.42 -40.34,50.42 -56.61,80.25 -14.12,25.75 -25.86,54.91 -35.87,89.17 -17.17,58.18 -24.62,122.44 -22.13,190.99 2.27,62.01 13.39,127.46 33.05,194.52 17.79,60.9 43.42,123.43 76.16,185.83 29.46,55.96 65.64,111.41 107.53,164.79 40.29,51.35 80.04,92.63 121.54,126.22 45.07,36.29 95.73,67.89 150.59,93.98 86.76,41.2 172.75,63.23 255.58,65.48 3.7,0.1 7.45,0.15 11.17,0.15 39.35,0 77.71,-5.42 113.97,-16.1 5.73,20.61 14.24,40.32 25.26,58.26 18.98,30.86 46.29,57.88 81.2,80.3 30.64,19.8 67.42,35.01 109.36,45.17 34.16,8.22 70.47,12.4 107.91,12.4 5.35,0 10.68,-0.08 16.02,-0.26 72.57,-2.35 140.88,-20.85 197.62,-53.49 28.66,-16.41 54.29,-37.47 74.09,-60.84 19.86,-23.23 34.81,-49.54 44.41,-78.28 4.01,-0.28 9.95,-2.36 12.8,-6.59 124.56,-182.93 275.49,-354.63 448.57,-510.31l-2.74 1.81c191.45,-170.93 404.45,-317.98 632.22,-435.54l-0.78 0.34c186.9,-95.84 379.77,-169.47 573.31,-218.91 0.88,0.15 1.83,0.23 2.79,0.23 2.3,0 4.75,-0.41 7.94,-1.34 145.51,-42.75 265.56,-176.6 321.19,-358.09 26.33,-85.83 35.58,-172.05 27.48,-256.28 -8.17,-86.16 -36.51,-164.66 -81.97,-227 -24.21,-33.34 -55.32,-63.1 -89.98,-86.14 -3.23,-2.12 -6.46,-4.25 -9.8,-6.26 7.94,-16.99 14.6,-35.66 19.95,-55.19 12.46,-46.63 14.84,-96.82 7.05,-149.18 -6.75,-46.22 -23.66,-94.06 -48.93,-138.41 -24.41,-42.75 -57.33,-81.72 -95.21,-112.71 -35.49,-28.93 -74.86,-51.09 -117.07,-65.88 0.46,-28.25 -3.03,-59.14 -10.42,-94.27 -12.62,-58.97 -38.33,-119.68 -76.42,-180.51 -34.27,-54.8 -77.19,-105.05 -127.65,-149.37 -47.35,-41.77 -101.95,-76.08 -162.28,-101.97 -74.83,-32.06 -157.62,-49.01 -239.31,-49.01 -35.36,0 -70.27,3.05 -103.71,9.08 -29.46,5.33 -58.29,12.76 -85.7,22.03 -26.19,8.92 -52.94,20.56 -81.74,35.58 -22.19,11.64 -44.33,25.48 -65.79,41.15 -18.24,-14.27 -38.57,-28.48 -60.13,-42.16 -77.76,-49.39 -169.79,-87.22 -273.51,-112.44 -87.16,-21.26 -181.04,-32.04 -279.1,-32.04z"/>
    <path class="fil5" d="M6282.31 2303.53c-64.24,6.06 -127.77,17.59 -190,34.65 -63.05,17.28 -124.36,40.71 -183.04,69.4 -59.61,29.09 -116.37,63.84 -168.6,104.75 -51.73,40.42 -98.79,87.28 -138.5,139.59 -19.9,26.38 -37.77,54.57 -53.65,83.56 -7.96,14.64 -15.06,29.69 -22.01,44.84 -8.37,18.29 -16.05,36.87 -22.51,56.06 -5.08,14.96 -9.32,30.21 -12.24,45.79 -1.42,7.57 -2.33,15.25 -2.93,22.92 -0.79,9.71 -0.51,19.17 -0.21,28.79 0.31,8.97 7.99,16.76 16.69,18.29 5.34,1.01 10.88,-0.31 15.33,-3.44 3.95,-2.83 7.79,-7.99 8.2,-12.93 2.32,-26.9 8.04,-53.58 15.77,-79.23 14.27,-43.63 34.83,-85.01 58.8,-124.06 34.59,-54.83 76.48,-104.45 123.83,-148.65 -1.54,1.3 -2.95,2.72 -4.45,4.03 57.77,-53.43 122.83,-98.49 192.42,-135.27 -1.7,0.93 -3.43,1.73 -5.15,2.63 81.82,-42.92 169.1,-74.45 259.21,-94.75 -0.29,0.03 -0.57,0.11 -0.86,0.17 53.02,-11.52 106.7,-19.4 160.88,-24.41 57.62,-5.39 115.65,-7.01 173.47,-4.46 -0.39,-0.03 -0.77,-0.05 -1.13,-0.08 1.13,0.05 2.24,0.11 3.39,0.19 0.13,0 0.23,0 0.34,0 -0.03,0 -0.08,0 -0.11,0 19.47,1.09 38.89,2.35 58.29,4.45 20.4,2.22 40.73,5.35 61.03,8.4 39.69,6.15 78.9,15.05 117.28,27.04 -0.8,-0.18 -1.62,-0.49 -2.43,-0.68 41.71,13.23 82.22,30 120.4,51.4 4.34,2.44 10.01,-0.18 12.02,-4.34 2.11,-4.74 -0.21,-9.6 -4.45,-12 -56.34,-31.62 -116.96,-54.56 -179.28,-71.42 -32.84,-9 -65.97,-16.37 -99.51,-21.51 -33.93,-5.25 -68.2,-9.21 -102.43,-11.61 -30.62,-2.2 -61.28,-3.34 -91.94,-3.34 -37.36,0 -74.68,1.67 -111.92,5.24zm222.95 28.37c-0.09,0 -0.16,0 -0.23,0 -0.75,-0.02 -1.5,-0.08 -2.25,-0.11 0.86,0.06 1.68,0.11 2.49,0.11z"/>
    <path class="fil5" d="M5507.58 2916.12c-16.68,2.53 -33.23,5.15 -49.8,8.37 -18.5,3.54 -36.79,8.1 -54.86,13.14 -34.56,9.49 -68.3,21.72 -101.22,35.76 -66.28,28.19 -128.81,65.28 -185.68,109.32 -54.43,42.3 -103.02,91.91 -144.55,146.96 -40.71,53.95 -75.26,112.85 -104.76,173.66 -76.37,157.69 -111.92,336.99 -89.2,511.44 0.42,3.55 3.44,6.18 7.09,5.77 3.41,-0.31 6.15,-3.54 5.73,-7.06 -4.74,-36.56 -6.35,-73.45 -5.35,-110.22l0 1.81c2.41,-74.55 15.75,-148.39 36.9,-219.89 0,0.03 -0.02,0.05 -0.02,0.08l0.07 -0.26c0.23,-0.82 0.5,-1.62 0.73,-2.45 -0.03,0.15 -0.09,0.33 -0.14,0.49 24.72,-80.87 59.14,-159.33 103.66,-231.3 44.6,-70.62 97.77,-136.41 159.03,-193.43 51.03,-46.39 108.05,-85.78 169,-117.93 -1.42,0.8 -2.93,1.61 -4.45,2.44 31.82,-16.67 64.55,-31.32 98.19,-43.96 32.85,-12.31 66.6,-22.27 100.74,-30.47 20.84,-4.83 41.82,-9.23 62.91,-12.86 5.15,-0.91 9.71,-2.84 13.14,-7.08 3.44,-4.03 5.04,-9.39 4.55,-14.65 -1.03,-9.45 -9.46,-17.89 -19.11,-17.89 -0.86,0 -1.76,0.08 -2.61,0.22zm-685.65 668.88c0,0.06 -0.02,0.12 -0.05,0.19 0.23,-0.72 0.47,-1.42 0.65,-2.14 -0.18,0.67 -0.39,1.31 -0.6,1.96z"/>
    <path class="fil6" d="M8121.89 4098.54c-11.43,0 -22.7,0.86 -33.46,2.53 -26.45,4.09 -50.56,13.24 -71.61,27.21 -4.3,2.94 -8.43,5.97 -12.37,9.31 -1.09,-1.4 -2.71,-2.64 -4.58,-3.65 -2.74,-1.43 -5.66,-2.12 -8.74,-2.12 -7.24,0 -14.07,4.09 -17.77,10.7 -30.94,55.42 -50.48,121.11 -56.51,190 -2.52,29.79 -3.4,62.24 -2.61,99.23 0.88,40.52 3.99,82.04 9.19,123.39 6.23,48.12 14.79,90.54 26.17,129.63 12.48,43.45 28.22,79.32 48.02,109.67 21.23,32.56 47.82,56.35 76.89,68.79 17.22,7.32 35.97,11.02 55.75,11.02 19.1,0 38.54,-3.39 57.91,-10.12 23.3,-8.14 45.51,-21.97 69.87,-43.47 18.68,-16.42 35.77,-36.83 55.49,-66.23 29.95,-44.58 53.02,-97.02 68.53,-155.83 6.31,-23.7 10.58,-49.48 13.01,-78.83 2.63,-30.54 2.84,-61.47 0.62,-91.99 -4.69,-66.9 -20.43,-127.57 -46.8,-180.3 -13.27,-26.69 -30.18,-51.35 -50.23,-73.31 -16.5,-18 -37.34,-33.78 -62.01,-46.91 -21.36,-11.33 -45.26,-19.58 -71.1,-24.57 -14.45,-2.77 -29.15,-4.17 -43.67,-4.17z"/>
    <path class="fil7" d="M8138.86 4208.37c-9.9,1.41 -19.71,3.43 -29.41,5.65 -10.99,2.61 -21.9,5.54 -32.51,9.28 -20.5,7.27 -39.9,16.57 -58.59,27.68 -18.9,11.32 -35.77,25.65 -51.31,41.11 -15.78,15.67 -29.1,33.44 -40.73,52.42 -23.12,38.09 -36.85,81.44 -39.28,125.99 -0.31,5.95 0.21,11.09 3.83,16.16 3.34,4.84 8.69,8.06 14.56,9.08 5.57,0.79 11.41,-0.5 16.16,-3.83 4.44,-3.24 8.48,-8.8 8.98,-14.57 1.52,-17.5 4.65,-34.64 9.27,-51.53 6.94,-22.63 16.52,-44.15 28.76,-64.4 6.52,-10.09 13.52,-19.86 21.07,-29.12 8.56,-10.45 18,-20.18 27.72,-29.39 19.55,-17.71 40.89,-33.27 64.03,-46.03 18.29,-9.23 37.42,-16.62 57.3,-21.69 -0.18,0.06 -0.36,0.08 -0.57,0.13 0.29,-0.07 0.55,-0.13 0.83,-0.19 0.83,-0.2 1.65,-0.43 2.51,-0.62 -0.63,0.16 -1.24,0.34 -1.9,0.5 24.69,-5.43 50.06,-7.87 75.33,-7.38 -0.06,-0.03 -0.08,-0.03 -0.13,-0.03 15.3,0.68 30.62,3.24 45.39,7.41 3.02,0.9 6.55,-1.51 7.65,-4.14 1.53,-3.24 0.22,-8.38 -3.62,-9.49 -20.4,-6.09 -41.01,-11.12 -62.15,-13.84 -8.94,-1.18 -17.99,-1.7 -27.01,-1.7 -12.11,0 -24.21,0.93 -36.21,2.51zm-57.74 48.71c-0.66,0.34 -1.27,0.68 -1.95,0.98 0.65,-0.33 1.29,-0.67 1.95,-0.98zm57.87 -21.93c-0.08,0 -0.19,0.03 -0.26,0.06 0.31,-0.06 0.63,-0.13 0.88,-0.18 -0.18,0.02 -0.39,0.07 -0.62,0.12z"/>
    <path class="fil8" d="M7466.69 3168.38c-28.39,0 -58.55,0.75 -89.64,2.22 -72.95,3.41 -148.77,10.91 -231.75,22.94 -83.09,11.95 -167.48,27.85 -250.82,47.27 -176.39,41.06 -342.98,96.4 -495.15,164.47 -165.84,74.11 -296.8,156.56 -400.39,251.99 -110.95,102.25 -180.07,218.31 -199.91,335.62 -10.91,64.46 -7.7,131.42 9.52,199.02 8.51,33.41 21.13,67.99 38.62,105.72 21.17,45.77 48.59,88.78 75.04,128.42 15.44,23.01 31.16,45.83 46.91,68.61 18.67,27.07 37.39,54.12 55.52,81.59 -50.5,-22.44 -103.08,-34.92 -155.94,-37.36 -5.66,-0.22 -11.3,-0.41 -17.09,-0.41 -30.44,0 -61.55,3.95 -92.47,11.74 -27.95,7.1 -54.77,18.02 -79.79,32.44 -44.43,25.82 -81.15,63.94 -106.25,110.22 -23.41,43.01 -37.06,93.08 -40.55,148.81 -3.08,50.88 3.72,105.61 19.73,158.18 17.3,56.81 45.28,110.4 83.16,159.28 34.65,44.53 78.75,82.96 131.09,114.19 46.08,27.68 100.26,49.74 161.09,65.61 62.81,16.46 131.36,25.78 209.57,28.61l16.78 21.59 -2.61 -4.24c103.08,134.34 184.46,270.5 241.48,405.05 40.97,97.89 66.99,189.64 79.58,280.22 8.97,69.02 9.41,136.03 1.31,199.16 -7.86,55.44 -22.46,109.15 -43.41,159.63 -21.64,50.17 -49.98,98.09 -84.26,142.49l-0.16 0.21 0.33 -0.05 -0.18 -0.16c0.08,-0.07 0.98,-1.07 1.13,-1.07l0.03 0c0.16,0 0.96,-0.87 1.32,-1.29 -6.21,7.17 -11.99,14.49 -18.18,21.62 -5.64,6.55 -12,12.42 -18.33,18.24l-4.5 4.19c-4.01,3.72 -6.06,9.16 -5.65,14.97 -3.25,1.32 -6.15,3.98 -8.23,7.4 -2.32,4.04 -3.92,10.5 -1.93,15.21 29.84,71.37 77.19,132.37 115.1,177.52 52.66,62.9 114.95,124.47 190.43,188.34 76.09,64.37 157.03,122.76 240.56,173.58 88.12,53.43 175.54,95.43 259.76,124.85 84.79,29.72 164.39,44.77 236.6,44.77 88.54,0 164.29,-22.97 225.09,-68.22 31.29,-23.28 59.24,-52.88 83.09,-87.93 31.11,-45.62 57.22,-101.68 79.82,-171.41 18.76,-57.77 33.25,-122.91 44.38,-199.17 8.87,-61.39 15,-127.36 18.68,-201.74 1.11,-24.46 1.94,-49.01 2.53,-73.54 1.11,-1.01 2.06,-2.25 2.79,-3.52 2.61,-4.47 3.29,-10.01 1.89,-15.2 -1.4,-5.09 -4.58,-9.26 -8.94,-11.72 -22.86,-12.69 -44.56,-26.84 -64.43,-41.99 -35.02,-27.35 -67.12,-59.55 -95.43,-95.63 -32.44,-42.19 -60.8,-91.11 -85.63,-148.23l-1.34 -2.41 0.23 -0.11c-33.49,-80.72 -56.42,-168.44 -70.49,-269.16l-0.58 -3.87c-0.02,-0.11 -0.02,-0.18 -0.02,-0.28l-0.25 0.05 0.25 -0.05c-0.03,-0.02 -0.03,-0.08 -0.03,-0.13 -4.42,-34.16 -7.65,-68.33 -9.77,-102.56 126.72,-28.71 246.39,-79.32 355.56,-150.18 29.92,-19.55 59.71,-41.22 91.03,-66.27 27.47,-21.95 53.02,-45.07 76,-68.74 44,-45.07 82.9,-96.71 115.63,-153.49 29.71,-51.77 54.51,-109.69 73.65,-172.18 17.22,-56.75 29.04,-117.3 36.18,-185.13 12.34,-117.41 5.64,-246.27 -19.92,-383.03 -11.3,-60.69 -26.84,-123.4 -46.15,-186.4 -5.28,-17.12 -10.87,-34.14 -16.46,-51.18 -5.59,-17.01 -11.12,-34.04 -16.4,-51.16 -10.6,-34.58 -21.07,-71.99 -32.01,-114.46 -26.72,-103.82 -48.39,-210.65 -69.36,-314 -10.07,-49.54 -20.14,-99.12 -30.75,-148.54 -26.43,-123.27 -51.93,-221.54 -80.23,-309.24 -34.73,-107.76 -77.42,-207.22 -126.79,-295.61 -3.31,-5.92 -10.01,-9.74 -17.1,-9.74 -4.27,-1.04 -6.35,-2.04 -8.72,-2.82 -45.38,-14.02 -95.18,-22.69 -161.47,-28.09 -35.49,-2.88 -73.15,-4.34 -112.05,-4.34z"/>
    <path class="fil6" d="M7377.08 3169.99c-73.52,3.65 -149.41,11.12 -231.73,22.94 -81.91,11.82 -166.37,27.67 -251.01,47.37 -176.18,41.01 -342.75,96.49 -495.18,164.55 -165.69,73.96 -296.69,156.49 -400.55,252.04 -111.01,102.26 -180.22,218.43 -200.11,336.01 -10.91,64.66 -7.67,131.61 9.6,199.2 8.38,33.23 21.03,67.78 38.68,105.77 4.12,8.87 8.44,17.61 12.91,26.23l0.33 0.02c28.16,2.82 56.4,3.93 84.78,3.05 0.23,-0.03 0.46,-0.03 0.69,-0.03 -0.23,0 -0.49,0.03 -0.69,0.03 -0.22,0 -0.39,0.03 -0.63,0.08 24.33,-1.01 48.5,-3.24 72.33,-7.05 23.7,-3.99 47.1,-9.42 70.14,-16.3 0.13,-0.05 0.28,-0.13 0.47,-0.18 -0.08,0.05 -0.22,0.1 -0.31,0.13 0.39,-0.11 0.75,-0.21 1.12,-0.34 21.72,-6.74 43.14,-14.84 63.84,-24.44 20.11,-9.38 39.59,-19.8 58.4,-31.62 12.62,-8.17 25.06,-16.86 36.67,-26.45 10.71,-8.9 20.72,-18.29 30.31,-28.4 -0.11,0.11 -0.21,0.31 -0.31,0.42 0.16,-0.19 0.31,-0.33 0.47,-0.52 -0.05,0.05 -0.11,0.08 -0.16,0.1 0.16,-0.18 0.33,-0.33 0.5,-0.49l0.1 -0.1c-0.03,0.02 -0.05,0.05 -0.1,0.1 0.05,-0.05 0.07,-0.08 0.1,-0.1 0.1,-0.11 0.1,-0.19 0.18,-0.21 7.91,-8.72 15.45,-17.85 22.14,-27.47 6.67,-9.4 12.75,-19.22 18.39,-29.19 -0.12,0.11 -0.12,0.19 -0.19,0.28 8.17,-15.15 15.23,-31 21,-47.27 5.35,-15.15 9.8,-30.58 13.55,-46.27l0 0.11c7.58,-32.23 12.31,-65.06 16.24,-97.98 0.21,-2.22 1.63,-4.25 3.65,-5.25 1.7,-0.72 3.34,-0.72 5.04,-0.1 4.45,1.32 8.89,2.61 13.34,3.72 0.21,0.05 0.42,0.08 0.6,0.13 -0.18,-0.08 -0.34,-0.13 -0.49,-0.13 0.15,0 0.31,0.05 0.49,0.13 7.19,1.58 14.45,2.93 21.73,3.52 7.37,0.63 14.76,0.8 22.13,0.69l-1.73 0c8.4,-0.28 16.89,-1.11 25.26,-2.61 7.06,-1.42 14.05,-3.02 21,-5.15 -0.59,0.19 -1.11,0.39 -1.7,0.61 9.18,-2.93 18.29,-6.27 26.88,-10.51 7.26,-3.54 14.35,-7.37 21.09,-11.71l-0.27 0.27c0.2,-0.18 0.38,-0.27 0.59,-0.38 0.22,-0.13 0.33,-0.25 0.52,-0.36l-0.3 0.16c7.78,-5.15 15.57,-10.61 22.63,-16.68 6.46,-5.64 12.61,-11.41 18.48,-17.56 6.26,-6.88 12.42,-14.04 17.77,-21.62 5.76,-7.98 11.02,-16.26 15.77,-24.95 -0.21,0.51 -0.52,1.01 -0.71,1.53 6.35,-12.02 11.74,-24.36 16.05,-37.3 0.62,-1.75 1.99,-3.02 3.59,-3.65 0.11,-0.13 0.16,-0.27 0.26,-0.38 1.01,-1.43 2.52,-2.33 4.14,-2.64 1.8,-0.28 3.34,0.21 4.85,1.12 5.25,3.12 10.51,6.08 15.86,9 -0.41,-0.31 -0.91,-0.52 -1.43,-0.8 17.07,8.89 34.76,16.65 53.04,22.73 14.35,4.94 29,9.08 43.84,12.62 49.6,11.61 100.41,16.16 151.23,14.74l-1.7 0c52.21,-1.81 103.82,-9.91 153.71,-25.07l-0.11 0 0.22 0 -0.11 0c0.41,-0.08 0.82,-0.27 1.32,-0.38 20.02,-6.26 39.8,-13.74 58.99,-22.52 18.19,-8.31 35.76,-17.69 52.73,-28.29 -0.19,0.1 -0.28,0.21 -0.5,0.3 0.42,-0.3 0.81,-0.62 1.22,-0.79 0.1,0 0.1,-0.11 0.21,-0.11 -0.11,0 -0.11,0.11 -0.21,0.11 13.83,-8.8 27.26,-18.31 39.91,-28.81 13.03,-10.7 25.23,-22.22 36.86,-34.55l-1.2 1.21c9.98,-10.81 19.49,-22.21 28.07,-34.24 7.97,-11.4 15.34,-23.15 22.02,-35.35 -0.22,0.39 -0.5,0.91 -0.7,1.4 6.67,-12.52 12.62,-25.45 17.86,-38.69 1.12,-2.5 3.76,-4.14 6.37,-4.14 1.83,0 3.54,0.72 4.66,2.33 6.67,8.89 13.93,17.17 21.93,24.85 6.25,5.66 12.62,11.12 19.5,15.86 6.83,4.83 13.99,9.26 21.24,13.47 -0.03,0 -0.03,-0.03 -0.03,-0.03 0.1,0 0.1,0 0.1,0.11l0.11 0c0.1,0.1 0.18,0.1 0.28,0.18 0.3,0.21 0.62,0.42 0.93,0.52 -0.11,-0.1 -0.22,-0.1 -0.31,-0.21 9.8,5.25 19.99,10.01 30.52,13.83 10.47,3.93 20.95,7.17 31.7,9.98 -0.02,-0.08 -0.1,-0.08 -0.1,-0.08 0,0 0.08,0 0.1,0.08 0.06,0 0.08,0.03 0.11,0.03l0.21 0c0.21,0 0.39,0.11 0.6,0.11l-0.39 0c0.29,0 0.58,0.08 0.86,0.18 -0.06,-0.02 -0.08,-0.08 -0.16,-0.08 10.7,2.44 21.62,4.45 32.53,5.57 11.61,1.11 23.23,1.59 34.94,1.39l-1.7 0c11.02,-0.38 22.11,-1.18 32.92,-3.23 8.28,-1.51 16.31,-3.41 24.38,-5.71 -0.08,0.02 -0.13,0.08 -0.13,0.08 0.21,-0.11 0.39,-0.11 0.6,-0.22 -0.1,0 -0.29,0.11 -0.39,0.11 0.1,-0.11 0.29,-0.11 0.39,-0.11 0.1,0 0.1,-0.1 0.21,-0.1l0.11 0c11.82,-3.83 23.32,-8.48 34.44,-14.04 10.3,-5.15 20.41,-10.81 30.32,-16.69 21.09,-12.62 41.91,-25.75 63.84,-37.05 1.51,-0.8 3.41,-0.8 5.05,-0.21 1.42,0.6 3.02,1.81 3.54,3.34 5.46,16.65 12.83,32.12 22.11,46.85 10.91,16.79 23.74,31.84 38.3,45.57 17.17,15.77 36.04,29.29 56.34,40.43 -0.49,-0.22 -0.9,-0.53 -1.4,-0.73 10.92,5.76 22.11,11.12 33.63,15.47 10.11,3.75 20.32,6.88 30.72,9.38l-0.11 0c9.8,2.22 19.7,4.06 29.69,5.08 8.89,0.8 17.79,1.18 26.69,1l-1.73 0c8.79,-0.3 17.58,-1 26.27,-2.53 1.32,-0.2 2.71,-0.52 4.03,-0.69 -23.32,-104.56 -46.26,-190.72 -71.32,-268.51 -34.55,-107.37 -77.26,-206.87 -126.77,-295.68 -3.43,-6.16 -10.29,-10.1 -17.58,-10.1 -2.93,-0.62 -4.94,-1.32 -6.65,-2.02 -46.29,-14.45 -96.69,-23.25 -163.46,-28.91 -36.86,-2.82 -74.55,-4.34 -112.12,-4.34 -27.88,0 -57.99,0.82 -89.61,2.22zm-850.24 747.04l-0.22 0.21c-0.11,0 -0.21,0.11 -0.31,0.11 0.21,-0.11 0.42,-0.21 0.53,-0.31z"/>
    <path class="fil6" d="M7374.56 3659.84c-0.02,-0.03 -0.05,-0.03 -0.08,-0.05 0,0.02 0.03,0.05 0.08,0.05z"/>
    <polygon class="fil6" points="7437.8,3684.18 7437.9,3684.18 7437.8,3684.18 7437.8,3684.15 "/>
    <path class="fil6" d="M7439.22 3684.48c0,0 -0.03,-0.03 -0.05,-0.03 0,0.03 0.02,0.03 0.05,0.03z"/>
    <path class="fil6" d="M7045.14 3827.93c0.1,-0.11 0.31,-0.11 0.41,-0.21 -0.21,0.1 -0.31,0.1 -0.41,0.21z"/>
    <path class="fil6" d="M6277.9 4191.8c-0.05,0.05 -0.1,0.13 -0.18,0.21 0.08,-0.08 0.16,-0.16 0.21,-0.21l-0.03 0z"/>
    <path class="fil6" d="M6086.63 4303.9c-0.1,0.02 -0.21,0.08 -0.34,0.13 0.19,-0.08 0.34,-0.13 0.5,-0.18 -0.06,0.02 -0.11,0.05 -0.16,0.05z"/>
    <path class="fil6" d="M7374.54 3659.84c0.1,0.03 0.21,0.05 0.31,0.1 -0.08,-0.02 -0.14,-0.07 -0.22,-0.1l-0.1 0z"/>
    <path class="fil6" d="M7562.73 3682.18l-0.08 0.03c0.05,-0.03 0.13,-0.03 0.18,-0.05 -0.02,0 -0.08,0.02 -0.1,0.02z"/>
    <path class="fil6" d="M7437.87 3684.18c0.12,0 0.19,0 0.26,0 -0.03,0 -0.03,0 -0.05,0l-0.22 0z"/>
    <path class="fil7" d="M6624.56 5811.11c-0.31,-0.41 -0.7,-0.9 -1.02,-1.32 18.08,21.13 37.47,40.92 58.4,59.3 19.99,17.59 40.92,33.96 62.63,49.22 0,-0.11 -0.11,-0.11 -0.21,-0.21 61.28,42.2 128.52,75.02 198.33,100.31l-0.24 -0.11 0.24 0.11 0.09 0.05c0.11,0.03 0.18,0.05 0.25,0.05 -0.08,0 -0.15,-0.02 -0.25,-0.05 0.33,0.1 0.65,0.21 0.99,0.34 95.85,33.84 196.35,53.83 297.6,61.31 -0.52,0 -1.12,-0.11 -1.73,-0.11 81.84,5.9 164.39,3.9 245.54,-8.15 -7.26,-32.69 -13.32,-66.64 -18.26,-102.04l-0.6 -3.85c-4.34,-33.13 -7.57,-67.67 -9.79,-102.61 -10.81,2.11 -21.84,4.24 -32.75,5.95 -18.98,3.13 -38.07,5.56 -57.18,7.57 -39.17,4.25 -78.59,7.17 -117.97,8.59 -76.99,2.71 -154.16,0.21 -230.74,-8.59 -77.09,-8.89 -153.63,-23.53 -228.29,-44.84 -70.8,-20.19 -139.88,-45.75 -206.73,-76.53 12.73,19.35 26.64,37.89 41.67,55.6z"/>
    <path class="fil7" d="M5945.52 4717.4c-5.87,0.7 -13.24,4.04 -16.48,9.29 -12.73,20.21 -22.22,41.42 -28.99,64.37 -6.56,22.32 -10.4,45.04 -11.71,68.38 -1.32,22.93 -0.41,46.15 2.33,68.98 2.71,22.84 8.06,45.37 14.64,67.51 13.03,43.52 34.86,84.04 61.02,120.99 26.25,36.98 57.98,70.31 92.53,99.71 3.93,3.44 10.4,2.44 13.53,-1.62 3.34,-4.34 2.32,-10.18 -1.6,-13.63 -7.47,-6.37 -14.56,-12.93 -21.42,-19.81 0.03,0.08 0.11,0.16 0.16,0.23 -21.47,-22.42 -39.82,-47.14 -55.6,-73.91 -21.39,-37.74 -37.36,-78.21 -48.47,-120.25 -7.26,-30.39 -11.4,-61.19 -11.37,-92.46 0.75,-27.12 5.04,-53.92 12.18,-80.19 6.56,-21.75 15.3,-42.55 25.1,-63.16 4.66,-10.01 1.01,-22.63 -7.47,-29.4 -4.45,-3.39 -9.82,-5.22 -15.34,-5.22 -1,0 -2.03,0.05 -3.04,0.18zm0.41 272.16c0.26,1.06 0.54,2.12 0.8,3.23 -0.28,-1.08 -0.54,-2.14 -0.8,-3.23z"/>
    <path class="fil7" d="M5776.09 4664.81c-32.53,6.08 -64.47,18.6 -92.85,35.49 -28.28,16.75 -53.56,38.87 -73.75,64.93 -2.23,2.74 -1.51,6.99 1.21,9 2.82,2.22 6.88,1.53 9.1,-1.21 4.34,-5.62 9.08,-11.03 13.99,-16.08 11.33,-10.97 23.72,-20.33 37.22,-28.48 -0.36,0.22 -0.7,0.39 -1.12,0.63 0.41,-0.23 0.83,-0.47 1.24,-0.7l0.68 -0.41c-0.13,0.1 -0.28,0.19 -0.44,0.28 16.75,-9.46 34.47,-17.03 52.91,-22.52 19.81,-5.35 40.08,-8.33 60.57,-9.08 21.51,-0.08 42.67,2.25 63.66,7.17 16.92,4.57 33.13,10.74 48.64,19.08 6.1,3.65 12,7.55 17.83,11.74 8.17,5.95 15.54,12.73 23.22,19.39 8.27,7.27 22.14,6.26 30.42,-0.31 5.35,-4.03 8.79,-10.28 9.49,-16.96 0.69,-5.86 -0.91,-13.65 -5.16,-18.07 -24.25,-25.87 -56.68,-42.85 -90.82,-51.54 -16.96,-4.34 -33.93,-6.75 -51.51,-7.05 -1.68,-0.06 -3.39,-0.06 -5.07,-0.06 -16.65,0 -33.08,1.78 -49.47,4.78zm-104.95 63.56c-0.03,0.03 -0.08,0.05 -0.13,0.08 0.13,-0.08 0.26,-0.13 0.36,-0.21 -0.07,0.05 -0.16,0.11 -0.23,0.13z"/>
    <path class="fil4" d="M7057.72 5171.89l-0.11 0.11c-8.4,48.63 -10.65,93.48 -6.8,134.37 58.41,7.4 116.06,24.99 167.52,53.61 26.65,14.87 51.72,32.42 73.83,53.56 11.53,11.02 22.44,22.83 31.93,35.66 4.45,5.95 8.69,11.92 12.62,18.18 3.03,4.94 5.93,9.96 8.9,15 17.42,-11.2 34.42,-25.89 51.41,-44.3 21.02,-23.05 38.89,-52.73 54.46,-90.82 13.01,-31.82 22.11,-68.79 27.05,-110.19 -24.13,1.92 -47.38,2.93 -69.28,2.93 -43.04,0 -88.29,-3.96 -134.66,-11.93 -65.28,-11.02 -136.08,-29.3 -216.47,-56.06 -0.11,0 -0.31,-0.11 -0.31,-0.11l-0.1 0z"/>
    <path class="fil7" d="M7307.3 4162.9l-0.02 0 -1.81 0.22c-2.03,0.62 -3.84,2.17 -4.86,4.16 -0.82,1.56 -0.96,3.39 -0.31,4.86 5.66,13.97 11.56,27.93 17.41,41.84l3.39 8.06c5.56,13.14 11.11,26.39 16.57,39.5 17.97,43.63 33.9,84.04 48.69,123.54 40.62,109.42 66.65,200.96 81.82,288.06 1.81,10.21 3.34,20.4 4.74,30.62l0.28 -1.87c5.87,49.29 6.65,88.57 2.46,123.51 -2.77,19.03 -6.91,35.58 -12.72,50.67 -4.42,10.31 -9.81,19.69 -15.96,27.89 -4.97,6.26 -10.79,12.13 -17.23,17.43 -5.74,4.25 -12.48,8.17 -20.63,12.1 -8.53,3.05 -17.09,5.27 -26.09,6.83 -7.35,0.82 -14.64,1.11 -21.98,1.11 -10.91,0 -22.16,-0.72 -34.42,-2.19 -19.81,-2.9 -40.94,-7.4 -64.62,-13.77 -2.83,-0.79 -5.79,-1.2 -8.75,-1.2 -15.25,0 -28.68,10.14 -32.69,24.64 -2.41,8.64 -1.16,18.11 3.36,25.94l5.25 6.92c4.27,4.13 9.1,6.93 14.93,8.58 14.89,6.13 29.09,10.42 43.33,13.14 16.61,3.2 33.8,4.86 51.08,4.86l5.66 0c16.6,-0.31 33.85,-2.88 51.26,-7.61 16.55,-4.29 33.21,-11.71 48.25,-21.44 14.9,-9.72 28.06,-22.78 40.29,-39.99 9,-12.51 16.3,-27.97 22.24,-47.24 6.1,-18.83 8.59,-38.77 10.24,-55.82 1.56,-17.94 1.58,-36.92 0.1,-59.73 -2.73,-41.15 -10.26,-84.76 -23.63,-137.24 -22.4,-88.68 -55.06,-174.37 -87.02,-253.8 -17.07,-42.7 -35.56,-85.72 -53.41,-127.34 -9.93,-23.06 -19.84,-46.21 -29.62,-69.33l-1.12 -2.74 -7.57 -17.87c-1.24,-3.21 -3.98,-5.3 -6.91,-5.3z"/>
    <path class="fil9" d="M7054.76 5338.8c5.25,28.29 14.35,54.36 27.19,77.3 13.32,24.54 31.59,45.53 54.44,62.42 10.31,7.68 22.63,14.43 38.78,21.42 15.58,6.56 32.95,11.02 51.52,13.14 5.65,0.6 11.43,0.91 17.17,0.91 24.36,0 50.71,-5.98 76.19,-17.18 10.47,-4.66 20.74,-10.4 30.86,-17.36 -3.21,-5.78 -6.57,-11.48 -10.15,-17.09l0.19 0.22c-0.08,-0.22 -0.19,-0.31 -0.29,-0.53 0,0.11 0.11,0.22 0.11,0.31 -0.11,-0.21 -0.21,-0.41 -0.41,-0.62l0.3 0.3 -0.62 -0.9 0.31 0.6c-8.48,-12.93 -17.8,-25.24 -28.09,-36.85 -9.59,-10.7 -19.7,-20.71 -30.31,-30.31l0.22 0.22c-13.04,-11.44 -26.78,-22.14 -41.23,-31.66 -14.64,-9.59 -29.68,-18.29 -45.36,-26.04 0.52,0.29 1.01,0.5 1.53,0.81 -15.57,-7.58 -31.52,-14.35 -48,-19.92 -15.13,-5.04 -30.39,-9.18 -45.95,-12.51 0.52,0.11 1.01,0.21 1.62,0.31 -18.26,-3.62 -36.59,-5.93 -55.08,-6.75 1.04,13.68 2.72,26.91 5.07,39.77z"/>
    <path class="fil4" d="M6765.31 4870.7c34.26,-5.95 51.96,-69.18 39.49,-141.16 -12.46,-71.94 -50.43,-125.51 -84.7,-119.58 -34.29,5.92 -51.98,69.18 -39.49,141.12 12.46,71.97 50.42,125.55 84.7,119.61z"/>
    <path class="fil4" d="M7761.25 4672.24c32.64,-5.66 49.48,-65.86 37.6,-134.37 -11.87,-68.5 -47.99,-119.53 -80.66,-113.89 -32.63,5.66 -49.48,65.89 -37.6,134.4 11.9,68.5 48.02,119.53 80.66,113.86z"/>
    <path class="fil4" d="M6636.57 4143.67c102.85,-57.43 170.81,-131.91 151.68,-166.2 -19.14,-34.26 -118.21,-15.47 -221.06,41.97 -102.85,57.43 -170.8,131.88 -151.64,166.17 19.14,34.29 118.18,15.5 221.02,-41.94z"/>
    <path class="fil4" d="M7654.03 3976.97c107.09,20.43 199.57,8.03 206.37,-27.68 6.83,-35.68 -74.58,-81.25 -181.69,-101.68 -107.12,-20.43 -199.6,-8.04 -206.37,27.65 -6.83,35.71 74.58,81.28 181.69,101.71z"/>
    <path class="fil4" d="M7440.07 2968.63c-19.08,0 -38.19,0.52 -57.18,1.32 -116.29,5.32 -240.37,26.48 -390.49,66.57 -106.42,28.34 -220.92,65.97 -350.04,115.07 -116.04,44.07 -215.55,87.93 -304.2,134.06 -111.69,58.01 -205.9,118.39 -288.03,184.59 -44.84,36.29 -85.68,74.31 -121.34,112.96 -36.08,38.94 -68.79,81.75 -97.24,127.24 -57,91.16 -90.18,193.54 -95.89,296.07 -3.05,56.28 1.5,113.97 13.52,171.51 6.26,30.1 14.72,61.04 25.06,91.97 3.88,11.51 8.64,23.35 14.56,36.18 15.5,33.44 33.21,64.86 48.52,91.15 20.59,35.22 42.41,69.49 64.87,101.84 24.56,35.44 47.94,65.02 71.45,90.44 11.69,12.61 21.93,22.41 32.25,30.82 7.45,6.03 18.82,14.62 31.47,19.56 7.6,3 14.73,4.47 21.83,4.47 4.63,0 9.3,-0.65 13.91,-1.94 12.56,-3.62 21.02,-14.87 25.91,-23.66 3,-5.54 4.81,-11.86 6.55,-17.98 2.09,-7.45 3,-15.02 3.7,-22.14 1.81,-18.4 1.68,-38.34 -0.41,-64.69 -6.15,-77.33 -25.4,-154.61 -57.2,-229.7 -14.25,-33.85 -31.91,-67.94 -52.55,-101.24 10.75,-1.63 21.47,-4.17 32.09,-7.19 45.59,-13.04 90.72,-39.65 130.49,-76.94 36.26,-33.9 66.64,-75.97 90.38,-125.03 22.68,-47.09 37.16,-99.08 41.84,-150.31 14.51,2.64 30.31,4.25 46.71,4.25 7.18,0 14.35,-0.31 21.44,-0.88 44.43,-3.54 89.37,-20.71 129.95,-49.65 37.68,-26.9 69.36,-64.21 91.6,-107.96 2.63,-5.18 5.07,-10.32 7.39,-15.67 11.62,11.4 24.67,21.61 39.53,31.32 35.55,23.45 78.33,39.33 123.66,45.89 16.94,2.46 34.51,3.71 52.14,3.71 71.19,0 146.05,-19.48 222.47,-57.88 69.67,-35.04 132.46,-84.68 181.59,-143.51 15.2,-18.18 29.02,-37.44 41.05,-57.2 13.38,12.81 29.29,24.7 48.22,36.44 40.78,24.96 90.84,40.65 144.76,45.41 12.38,1.09 24.67,1.63 37.01,1.63 39.21,0 80.01,-5.46 121.29,-16.19 50.2,-13.01 98.94,-34.26 144.95,-63.17 0.67,17.63 3.9,36.54 9.77,59.24 5.71,21.54 14.5,43.01 26.91,65.62 10.79,19.69 24.47,37 40.65,51.4 15.7,13.94 34.66,23.61 54.78,27.93 6.1,1.31 12.51,1.97 19.11,1.97 14.59,0 30.13,-3.29 44.98,-9.44 10.26,-4.37 20.84,-10.53 32.37,-18.82 12.23,-9 22.86,-18.99 31.58,-29.63 15.13,-18.8 25.13,-43.24 28.93,-70.66 3.18,-22.5 2.03,-47.29 -3.43,-73.73 -5.13,-25.13 -13.55,-49.98 -25.04,-73.91 -11.12,-23.35 -24.6,-45.08 -40.05,-64.61 -12.13,-15.3 -24.88,-28.28 -37.91,-38.52 5.04,-28.37 4.16,-57.28 -2.56,-85.7 -6.96,-29.22 -20.3,-57.96 -39.61,-85.47 -17.43,-24.78 -40.11,-47.74 -67.45,-68.25 -21.93,-16.42 -48.1,-31.05 -79.96,-44.76 -84.67,-36.46 -183.01,-54.18 -300.63,-54.18z"/>
    <path class="fil10" d="M7711.15 6990.2c-55.24,0 -110.46,17.04 -161.92,35.48 -17.91,6.44 -35.76,13.37 -53.6,20.27 -46.6,18.06 -94.75,36.73 -144.56,46.68 -12.09,2.44 -24.2,4.25 -36.43,6.06 -0.14,0.02 -1.5,0.31 -1.5,0.44 0.02,0.16 -1.13,0.41 -1.02,0.41 -33.12,3.84 -66.71,6.96 -99.22,10.01 -74.8,7.01 -152.16,14.25 -225.79,35.53 -58.07,16.76 -102.7,40.38 -136.5,72.17 -19.94,18.85 -36.14,42.65 -46.93,68.8 -10.05,24.46 -15.17,52.33 -15.17,82.82 0.1,4.87 0.2,9.63 0.51,14.35 -1.29,-3.07 -3.36,-5.17 -6.08,-6.69 -2.99,-1.76 -6.47,-2.68 -10.03,-2.68 -1.73,0 -3.46,0.2 -5.13,0.64 -4.93,1.46 -9.23,4.76 -11.76,9.11 -2.41,4.11 -3.85,10.63 -1.94,15.17 53.78,128.51 120.42,256.59 203.77,391.58 79.02,128.19 168.45,253.95 265.76,373.71 46.79,57.6 94.99,112.83 143.27,164.14 15.8,16.98 31.93,33.65 48.07,50.35l10.74 11.09c18.87,19.61 38.1,38.9 57.77,57.8 32.56,31.29 76.42,70.98 127.13,100.72 22.35,12.98 44.4,22.42 65.63,28.11 9.72,2.64 20.61,4.39 32.38,5.28 2.87,0.25 5.71,0.36 8.56,0.36 7.42,0 15.22,-0.75 25.45,-2.38 20.3,-3.37 40.13,-12.96 60.64,-29.38 8.23,-6.55 16.11,-14.67 24.78,-25.58 9.38,-11.65 18.15,-24.95 26.06,-39.43 7.6,-13.94 13.83,-28.89 19.89,-43.29 7.73,-18.68 14.09,-35.33 20.24,-52 11.52,-31.22 22.16,-63.88 32.53,-99.83 37.66,-130.2 61.71,-275.28 71.46,-431.1 4.41,-70.8 5.48,-143.7 3.02,-216.71 -1.92,-57.1 -6.64,-117.35 -14.84,-189.64 -9.94,-87.8 -21.21,-187.29 -54.98,-278.57 -18.57,-50.38 -41.53,-89.76 -70.16,-120.51 -30.91,-33.25 -71.94,-54.9 -115.52,-60.98 -11.02,-1.55 -22.63,-2.32 -34.6,-2.32z"/>
    <path class="fil7" d="M3104.29 5085.83c-0.11,-0.11 -0.21,-0.11 -0.21,-0.11 -0.11,0 -0.21,-0.02 -0.31,-0.05 0.19,0.05 0.36,0.11 0.52,0.16z"/>
    <path class="fil7" d="M3105.2 5086.02c0,-0.03 -0.03,-0.08 -0.11,-0.08 0.05,0.05 0.08,0.08 0.11,0.08z"/>
    <polygon class="fil7" points="3024.18,5078.13 3024.12,5078.13 "/>
    <path class="fil7" d="M3024.37 5078.16c-0.06,0 -0.12,0 -0.19,0 0.07,0 0.13,0 0.19,0z"/>
    <path class="fil7" d="M3025.01 5078.21c-0.21,0 -0.42,0 -0.6,0 0.18,0 0.39,0 0.6,0z"/>
    <path class="fil7" d="M2918.54 5089c0.31,-0.03 0.55,-0.1 0.8,-0.18 -0.25,0.08 -0.49,0.15 -0.8,0.18z"/>
    <path class="fil8" d="M2980.78 5077.64c-27.67,2.54 -54.15,7.17 -78.58,13.84 -18.19,4.96 -37.69,11.92 -61.42,22.03 -21.1,8.8 -42.62,19.29 -63.85,31.21 -5.95,3.34 -11.93,6.75 -17.67,10.29 -1.32,-2.5 -4.44,-4.55 -8.3,-5.45 -23.64,-5.46 -48.98,-8.28 -75.16,-8.28 -44.55,0 -92.52,7.57 -151.33,23.95 -67.89,18.77 -118.67,41.5 -159.89,71.6 -10.5,7.58 -21.02,16.27 -31.32,25.87 -9.6,9.1 -18.6,19.81 -27.57,32.53 -7.18,10.12 -13.14,21.2 -18.2,33.96 -4.64,11.71 -7.76,24.54 -9.71,40.6 -1.7,14.35 -0.08,28.39 1.73,40.29 2.51,16.78 8.59,32.42 14.84,46.78 9.6,22.04 24.55,41.92 43.15,57.6 9.48,7.76 19.39,14.32 29.5,19.58 -37.39,36.67 -20.81,104.07 -14.76,123.84 2.85,9.63 7.19,20.12 12.75,31.03 6.06,11.83 14.64,23.74 26.25,36.46 13.03,14.05 29.19,26.25 48,36.46 -8.4,25.46 -11.02,50.12 -7.99,73.03 3.03,23.43 11.02,44.66 23.74,62.84 23.15,33.43 61.73,58.78 111.51,73.44 21.12,6.37 44.14,10.1 70.31,11.61 5.06,0.32 10.11,0.52 15.15,0.52 16.37,0 34.64,-1.73 54.36,-4.96l3.83 -1.21c-0.21,5.46 -0.49,11.22 -0.69,17.06 1.11,1.32 1.5,2.64 1.7,4.34 0.62,4.97 1.32,10.01 1.92,14.98l0 -0.31c10.7,78.8 24.15,157.39 31.52,236.58 2.11,4.54 4.24,8.99 6.56,13.44 11.51,21.83 27.18,41.39 45.15,56.84 18.39,15.45 40.81,26.96 68.61,35.16 21.31,6.26 44.53,9.38 71.01,9.38l5.74 -0.1c23.95,-0.28 49.81,-4.03 81.33,-11.82 39.28,-9.28 80.09,-25.13 128.18,-49.89 39.81,-20.19 79.3,-45.14 120.83,-76.15 36.87,-27.7 71.91,-58.1 104.03,-90.41 29.72,-30.1 53.54,-58.92 72.86,-88 3.3,3.43 6.96,4.96 11.19,4.96 1.92,0 3.75,-0.41 5.46,-1.01 5.24,-1.43 10.32,-5.56 12.93,-10.8 1.52,-2.83 2.27,-5.8 2.27,-8.72 -1.16,-0.85 -2.09,-2.07 -2.49,-3.52 -2.84,-9.71 -5.62,-19.42 -8.37,-29.12 -16.84,-46.88 -29.93,-87.62 -40.81,-126.56 -13.34,-47.27 -23.64,-96.47 -30.62,-146.07 -4.73,-36.66 -7.86,-73.83 -9.07,-110.5l-0.52 -16.57 -0.22 -5.57c-0.69,-21.62 -1.5,-43.23 -3.23,-64.76 -4.63,-55.85 -13.74,-109.18 -27.16,-158.6 -14.24,-51.9 -33.84,-98.37 -58.29,-138.16 -25.75,-42.33 -58.17,-77.3 -96.48,-103.96 -18.08,-12.73 -39,-23.53 -63.75,-33.03 -21.1,-8.2 -44.84,-13.83 -74.83,-17.89 -14.84,-1.7 -29.51,-2.71 -43.35,-2.71 -12.41,0 -26.17,0.69 -40.81,2.01z"/>
    <path class="fil7" d="M3119.32 5390.48c-3.44,-2.94 -8.07,-2.12 -11.12,0.91 -3.08,3.18 -6.28,6.35 -9.62,9.34 -24.22,21.77 -51.87,39.59 -80.53,54.91 -39.94,21.12 -82.26,37.21 -126.22,47.69 -29.37,6.6 -59.3,10.26 -89.62,9.69 -19.09,-0.8 -37.88,-3.34 -56.17,-8.8 -11.4,-3.83 -22.21,-8.79 -32.51,-15.06 -8.79,-5.83 -16.89,-12.51 -24.25,-19.99 -0.21,-0.2 -0.38,-0.41 -0.6,-0.71 -7.46,-8.69 -13.94,-18.08 -19.6,-28.2 -6.57,-13.32 -11.61,-27.26 -15.15,-41.61 -3.03,-14.84 -4.34,-29.59 -4.03,-44.74 1,-16.36 3.92,-32.33 8.37,-48.09 6.96,-21.52 16.76,-41.62 28.47,-60.9 15.57,-23.74 33.96,-45.26 54.56,-64.56 22.74,-20.4 47.79,-37.77 74.56,-52.54 15.85,-8.28 31.91,-15.75 48.49,-22.22 17.67,-6.88 35.84,-12.24 54.23,-16.76 0.62,-0.1 1.11,-0.21 1.62,-0.41l-0.1 0c34.24,-7.69 68.99,-11.33 104.03,-10.4 -0.1,0 -0.18,0 -0.27,-0.1 5.43,0.28 10.89,0.67 16.42,1.16 0.38,0.03 0.77,0.03 1.13,0.05 3.18,0 6.55,0.11 9.7,0.28 9.52,0.52 19.01,1.12 28.29,2.53 2.12,0.31 4.25,0.7 6.36,1.01l8.21 1.21c3.31,0.42 6.54,0.91 9.76,1.51 -17.45,-5.36 -35.35,-9.71 -53.32,-12.62 -16.68,-2.61 -33.43,-4.34 -50.3,-5.05l0.21 0c-4.97,-0.2 -9.9,-0.31 -14.87,-0.31 -14.04,0 -28.19,0.73 -42.12,2.23 -0.91,0.11 -1.92,0.21 -2.83,0.31 -17.38,2.71 -34.65,6.47 -51.73,10.91 -36.15,9.28 -71.11,23.01 -104.44,39.7 -14.15,7.05 -27.88,14.84 -40.92,23.74 -14.15,9.6 -27.18,20.72 -39.8,32.33 -24.64,22.74 -45.15,49.91 -61.21,79.3 -15.67,28.8 -25.48,61.41 -27.99,94.15 -2.22,30.59 2.42,61.91 13.64,90.41 2.89,7.21 6.5,14.18 10.34,20.97 -11.81,6.54 -23.6,13.06 -35.51,19.22 -11.98,6.18 -24.13,11.64 -36.54,16.89 -31,12.71 -63.16,22.54 -96.38,27.46 -24.86,3.13 -49.64,3.4 -74.5,0.27 -13.81,-2.12 -27.34,-5.1 -40.58,-9.68 -3.52,-1.22 -7.47,1.42 -8.37,4.75 -1.01,3.72 1.21,7.16 4.75,8.37 11.99,4.14 24.23,7.79 36.67,10.4 11.72,2.53 23.64,4.06 35.56,4.96 26.56,2.22 53.12,0.11 79.38,-3.75 27.19,-3.93 53.64,-11.3 79.3,-20.9 11.71,-4.34 23.34,-9.41 34.75,-14.76 12.62,-5.95 24.86,-12.73 36.57,-20.3 0.13,-0.09 0.2,-0.22 0.33,-0.31 3.5,4.12 7.2,8.07 11,11.87 13.42,13.53 30.31,23.81 47.87,31 19.11,7.77 39.31,12.02 59.72,13.84 42.09,3.75 83.96,-3.77 124.38,-15.03 -0.58,6.51 -1.04,13.02 -1.78,19.51 -2.87,16.86 -8.01,33.36 -14.43,49.21 -8.36,19.29 -18.41,37.39 -31.05,54.16 -11.79,14.58 -25.09,27.64 -39.64,39.38 -23.15,17.74 -48.67,31.63 -75.49,43.14 1.32,-0.52 2.63,-1.12 3.95,-1.63 -1.94,0.81 -3.85,1.63 -5.81,2.44 -0.05,0.02 -0.1,0.04 -0.15,0.06 -0.59,0.25 -1.18,0.49 -1.77,0.74 0.28,-0.14 0.55,-0.25 0.82,-0.36 -16.54,6.72 -33.46,12.31 -50.68,16.94 -18.88,5.05 -38.1,8.38 -57.49,11.09 0.21,-0.02 0.42,-0.02 0.62,-0.05 -23.55,3 -47.06,4.6 -70.8,4.39 -23.35,-0.18 -46.79,-1.91 -69.82,-4.9 -14.82,-2.2 -29.62,-5.13 -44.05,-9.22 -3.43,-1.01 -7.06,1.12 -7.97,4.53 -0.93,3.43 1.13,6.98 4.54,7.89 22.24,6.47 44.76,11.71 67.59,15.85 24.33,4.34 49.4,5.87 73.93,6.36 25.75,0.41 51.31,-0.49 76.78,-3.72 25.55,-3.24 50.99,-7.79 75.84,-14.67 48.11,-13.42 93.64,-36.85 130.42,-71.01 8.31,-7.76 15.78,-16.27 22.83,-25.14 4.62,-5.86 8.87,-11.92 12.91,-18.12 2.16,2.58 4.33,5.16 6.45,7.8 6.67,8.99 12.31,18.28 17.01,28.44 6.47,15.93 11.14,32.22 13.58,49.21 1.37,13.3 1.21,26.44 -0.33,39.69 0.05,-0.27 0.08,-0.57 0.13,-0.82 -0.05,0.28 -0.11,0.6 -0.13,0.91 -0.11,0.95 -0.23,1.94 -0.36,2.92 0.07,-0.91 0.18,-1.78 0.3,-2.64 -2.17,13.91 -5.92,27.39 -11.27,40.47 -3.21,7.11 -6.75,14.07 -10.65,20.95 -4.01,7.09 -8.77,13.79 -13.63,20.22 -13.67,17.41 -29.48,32.74 -46.84,46.4 -24.53,18.58 -51.47,33.57 -79.74,45.44 -23.29,9.61 -47.42,16.94 -72.23,20.98 -3.44,0.61 -5.36,4.87 -4.56,8 1.02,3.61 4.56,5.04 7.99,4.42 43.14,-6.97 84.85,-20.31 123.32,-40.92 18.8,-9.98 36.4,-22.01 53.05,-35.24 17.06,-13.64 32.22,-29.49 45.46,-46.86 5.87,-7.69 11.11,-15.78 16.06,-24.05 5.35,-9.19 9.59,-19.09 13.52,-29 7.99,-20.19 11.33,-42.43 11.43,-64.15 0.1,-10.71 -1.21,-21.21 -2.74,-31.82 -1.92,-12.43 -5.25,-24.54 -9.38,-36.36 -4.45,-12.65 -10.61,-24.65 -18.61,-35.35 -5.93,-7.84 -13.14,-14.45 -21.1,-20.07 2.45,-5.93 4.62,-11.97 6.54,-18.07 5.15,-16.16 7.58,-33.23 8.87,-49.99 0.52,-6.15 0.52,-12.23 0.31,-18.38 -0.12,-2.93 -0.5,-5.87 -0.91,-8.8l-0.62 -4.55c-0.26,-1.66 -0.99,-3.12 -1.51,-4.67 35.04,-12.02 68.9,-27.64 101.04,-45.78 33.96,-19.22 66.47,-41.83 93.64,-69.82 2.93,-3.03 2.12,-8.38 -0.9,-11z"/>
    <path class="fil7" d="M2732.43 5732.33c-0.34,0.13 -0.66,0.24 -0.97,0.38 0.32,-0.14 0.64,-0.26 0.95,-0.38 0.01,0 0.01,0 0.02,0z"/>
    <path class="fil7" d="M2932.83 5778.08c-0.03,0.14 -0.06,0.26 -0.06,0.36 0,-0.1 0.03,-0.18 0.06,-0.27l0 -0.09z"/>
    <path class="fil1" d="M3369.43 5935.53c0.6,-0.11 1.12,-0.22 1.71,-0.32 -74.25,12.55 -147.69,30.52 -219.82,52.24 -65.94,19.78 -131.01,43.14 -193.64,71.81 -36.26,16.79 -71.82,35.25 -105.99,56.18 -34.62,21.2 -67.78,44.55 -99.27,70.31 0.39,-0.3 0.9,-0.71 1.29,-1.01 -16.13,13.3 -31.7,27.18 -46.73,41.72 0.03,0.21 0.05,0.42 0.08,0.6 19.28,156.37 33.33,315.98 46.85,470.35 13.94,159.09 28.29,323.56 48.6,484.78 49.08,390.23 122.14,676.62 236.78,928.45 35.06,76.99 67.18,136.98 100.93,188.6 29.89,45.56 65.04,88.29 104.64,126.89 37.77,36.96 79.8,70.19 125.06,99 42.32,26.97 89.91,51.2 141.63,72.02 93.15,37.58 197.39,62.02 318.61,74.74 57.79,6.09 116.99,9.01 181.02,9.01 53.24,0 108.51,-2.03 168.83,-6.27 243.93,-16.78 479.92,-65.45 698.51,-115.47 57.8,-13.13 115.37,-26.77 173.06,-40.49l100.31 -23.64 31.01 -7.19c15.53,-3.61 30.99,-7.16 46.57,-10.91 42.02,-9.98 83.94,-20.58 125.76,-31.32l52.94 -13.63c61.52,-15.96 125.05,-32.53 187.98,-47.59 15.77,34.56 31.51,69.51 46.78,104.56l-0.11 0.11c100.92,233.96 161.53,431.65 190.62,621.97 9.9,67.18 15.77,135.06 17.59,201.11 1.7,68.3 -1.43,139.42 -9.5,211.23 -8.4,70.21 -21.93,141.75 -40.1,212.55 -19.09,73.93 -43.94,149 -76.17,229.2l1.29 -2.02c-20.68,49.4 -43.23,99.72 -67.67,149.32 -26.87,54.64 -55.44,106.86 -79.91,150.72 -56.25,101.01 -116.58,200.81 -169.79,288.8l-11.22 18.68c-53.13,87.9 -108.07,178.7 -159.8,269.52 -21.39,37.57 -42.01,75.01 -61.63,111.74 31.09,12.93 62.33,25.59 93.69,37.98l1.34 0.54 2.34 0.92c9.11,3.59 18.24,7.16 27.38,10.71l5.15 1.99 23.14 8.9 11.79 4.49 6.15 2.33 6.15 2.32 6.15 2.32 0.4 0.16 18.1 6.75 6.17 2.29 6.17 2.29c59.72,22.02 119.92,43.08 180.55,63.15l-0.01 0.03c562.85,186.36 1164.57,287.39 1789.94,287.39 537.7,0 1057.96,-74.62 1551.07,-213.94 -7.33,-42.9 -19.72,-85.82 -35.51,-135.07 -8.07,-24.95 -16.65,-49.8 -25.13,-74.55 -5.46,-15.55 -10.82,-31.11 -16.06,-46.76 -11.53,-34.26 -23.35,-68.5 -35.38,-102.64 -14.54,-41.33 -29.19,-82.62 -43.93,-123.95 -11.41,-32.12 -22.94,-64.24 -34.24,-96.39 -51.41,-146.06 -104.87,-303.94 -148.21,-468.51 -54.85,-210.61 -79.78,-383.67 -78.28,-543.67l-0.49 3.12c2.02,-98.39 13.83,-186.48 36.56,-269.21 12.32,-42.54 28.69,-86.07 48.67,-129.3 13.96,-29.93 30.41,-61.14 52.03,-98.2 71.22,145.06 152.56,309.43 243.35,462.76 68.41,115.26 136.49,213.56 208,300.52 80.42,97.81 167.99,182.65 260.34,252.24 100.49,75.57 211.92,135.98 331.12,179.42 45.56,16.66 95.17,30.59 151.43,42.82 51.73,11.23 105.67,19.51 165.08,25.37 54.74,5.47 111.41,8.18 168.58,8.18 61.63,0 125.38,-3.13 189.33,-9.5 122.1,-11.92 242.82,-36.28 358.7,-72.12 18.31,-5.68 36.36,-11.65 54.15,-17.91 140.19,-104.59 275.25,-215.63 405.06,-332.41 -33.52,-16.83 -66.53,-34.25 -98.59,-51.93 -198.19,-110.01 -374.87,-239.42 -525.29,-384.68 -52.01,-50.91 -100.81,-103.33 -146.66,-157.49 -51.65,-61 -98.82,-125.86 -134.06,-175.46 -79.39,-111.72 -158.6,-234.56 -242.12,-375.19l0.1 -0.1c-131.74,-222.95 -253.15,-456.49 -370.63,-682.36 -67.99,-130.73 -138.2,-265.9 -209.73,-397.61 -112.03,-206.19 -210.61,-372.76 -310.12,-524.29 -57.38,-87.18 -116.47,-170.71 -175.57,-248.49 -32.54,-42.83 -60.31,-78.39 -90.62,-112.35 -28.28,-31.9 -59.71,-63.02 -95.87,-95.17 -130.82,-116.55 -288.28,-200.91 -455.68,-244.04 -81.61,-21.1 -164.86,-31.84 -247.39,-31.84l-6.08 0.11 -5.95 0c-42.65,0.52 -85.98,4.06 -129.02,10.42 -42.62,6.36 -86.35,16.45 -133.54,30.69 -4.95,1.53 -8.98,6.78 -10.71,11.02 -1.81,4.84 -1.71,10.12 0.31,14.85 2.02,4.75 6.06,8.69 11.01,10.61 -8.37,63.35 -12.64,129.71 -12.72,197.18 -0.21,65.97 3.62,137.2 12,224.16 6.47,67.59 15.05,136.07 23.34,202.36 9.91,79.49 20.1,161.7 26.97,242.93 0.5,5.98 2.23,10.32 5.74,13.83 -6.74,145.99 -21.2,298.82 -43.72,467.61 -22.63,168.62 -53.14,349.02 -93.05,551.56 -182.32,-186.07 -339.71,-365.08 -480.43,-547.31l0 0.11c-146.27,-190.01 -267.09,-373.56 -369.14,-560.94 -3.23,-5.87 -9.9,-9.71 -17.06,-9.71 -57.08,-90.3 -126.56,-196.28 -209.42,-297.08 -57.97,-70.42 -115.64,-129.93 -176.48,-181.64 -57.46,-48.8 -118.98,-90.82 -182.92,-124.97 10.39,-1.11 21.02,-2.61 31.62,-4.03 6.05,-0.8 10.29,-2.74 13.53,-6.47 3.54,-3.75 5.35,-8.89 5.14,-14.04 -0.49,-10.11 -9.18,-18.9 -18.48,-18.9 -346.98,47.59 -680.66,148.2 -932.69,230.63 -154.36,50.5 -304.66,103.43 -457.91,157.79l-54.04 19.2c-56.17,19.91 -112.42,39.8 -168.59,59.61 -76.08,26.66 -154.46,54.14 -231.03,82.93 -109.29,41.02 -216.69,84.54 -319.23,129.41 -44.04,-108.2 -94.85,-221.73 -154.64,-346.71 -64.55,-134.83 -133.44,-270.32 -200.11,-401.33 -69.62,-136.87 -141.64,-278.41 -208.71,-419.32 -40.82,-85.55 -77.28,-165.76 -111.31,-245.27 -0.36,-0.82 -0.8,-1.58 -1.34,-2.3 -32.51,3.18 -64.87,7.5 -97.06,12.81zm766.54 2702.72l-2.22 -0.1c13.73,-0.63 27.56,-1.43 41.71,-2.34 -13.14,0.91 -26.17,1.71 -39.2,2.54l-0.28 0.18 0 -0.28z"/>
    <path class="fil2" d="M8875.38 8648.42c-8.06,23.95 -17.28,47.38 -27.67,70.22 -21.42,47.27 -46.99,92.43 -73.76,136.77 -47.79,79 -99.46,156.57 -136.75,241.22 72.1,148.62 150.3,305.6 237.97,453.57 67.99,114.77 136.08,213.04 208.1,300.74 80.4,97.77 167.98,182.65 260.31,252.24 100.94,75.77 212.34,136.18 331.35,179.39 45.26,16.58 94.85,30.61 151.41,42.96 52.24,11.3 106.29,19.58 165.17,25.44 55.27,5.35 112.03,8.18 168.72,8.18 61.81,0 125.56,-3.24 189.3,-9.49 122.14,-12.03 242.86,-36.26 358.81,-72.33 99.69,-30.91 191.93,-70.39 274.15,-117.38 42.96,-24.44 83.77,-51.31 121.23,-80.09 36.37,-27.98 71.43,-59.82 104.25,-94.47 3.54,-3.73 4.44,-10.5 3.85,-15.05 -0.63,-3.62 -2.23,-7.17 -4.75,-10.4 0.51,-2.85 0,-6.15 -1.44,-9.49 -2.4,-5.87 -6.96,-8.8 -11.08,-10.92 -38.3,-18.79 -76.48,-38.48 -113.55,-58.7 -66.68,32.04 -136.19,58.4 -207.38,78.49 -60.72,17.17 -122.56,30.41 -185.08,38.99 -63.13,8.59 -126.78,12.93 -190.62,13.04 -126.67,0.21 -253.36,-16.66 -375.67,-49.29 -125.58,-33.54 -246.9,-83.25 -359.52,-148.21 -57.9,-33.44 -113.87,-70.39 -166.8,-111.31 -53.22,-41.21 -103.65,-85.95 -150.61,-134.37 -45.46,-46.76 -87.88,-96.56 -126.98,-148.98 -38.38,-51.42 -73.86,-105.07 -106.67,-160.33 -65.77,-110.81 -121.52,-227.08 -173.55,-344.84 -26.66,-60.62 -52.63,-121.55 -78.39,-182.55l-39.41 -92.73 -20.9 -48.5c-1.81,-4.19 -3.62,-8.37 -5.43,-12.59 -4.71,23.94 -10.89,47.64 -18.62,70.77zm1886.95 1610.73c79.01,-27.79 152.8,-61.13 219.9,-99.46 43.55,-24.86 84.26,-51.83 121.13,-80.12 36.26,-27.88 71.32,-59.61 104.14,-94.44 3.44,-3.54 4.34,-10.11 3.76,-14.67 -0.63,-3.62 -2.22,-7.06 -4.66,-9.98 0.41,-3.24 -0.1,-6.57 -1.42,-9.7 -2.41,-5.77 -6.86,-8.59 -10.89,-10.7 -8.99,-4.4 -17.96,-8.85 -26.9,-13.34 -129.81,116.78 -264.87,227.82 -405.06,332.41z"/>
    <path class="fil2" d="M2752.04 6185.3c-14.84,12.34 -30.52,26.38 -45.46,40.7 19.61,159.91 33.44,318.21 46.79,471.36l0.49 4.83c13.76,157.09 27.87,319.44 48.11,479.95 49.18,390.41 122.31,676.9 236.88,928.65 35.14,77.16 67.26,137.09 101.01,188.6 30.21,46.05 65.35,88.78 104.66,127.08 37.78,36.95 79.92,70.22 125.17,98.99 42.41,27.08 90.1,51.31 141.72,72.03 93.04,37.57 197.29,62.04 318.73,74.97 58.57,5.95 117.77,8.97 181.1,8.97 52.65,0 107.79,-2.12 168.82,-6.26 243.35,-16.75 479.63,-65.45 698.62,-115.68 57.8,-13.1 115.37,-26.76 173.06,-40.49l100.31 -23.63 31.01 -7.17 14.14 -3.23 32.43 -7.68c42.02,-10.01 83.94,-20.61 125.76,-31.32l52.94 -13.66 10.39 -2.61c56.87,-14.76 117.37,-30.51 177.59,-44.94l5.45 12.62c13.55,30.3 27.38,61 40.73,91.72 101.02,234.55 161.53,432.15 190.42,621.87 9.79,66.25 15.74,133.93 17.58,201.12 1.81,68.48 -1.42,139.49 -9.52,211.23 -8.17,69.2 -21.62,140.6 -40.01,212.33 -19.19,74.36 -44.14,149.3 -76.17,229.2 -20.09,49.02 -42.4,98.51 -66.35,147.28 -26.66,54.36 -54.15,104.56 -79.9,150.74 -57.88,104.04 -122.53,210.82 -169.8,288.79l-11.22 18.69 -2.34 3.86c-46.67,77.06 -104.75,172.93 -157.49,265.66 -20.63,36.16 -41.33,73.63 -61.67,111.78l0.52 0.22 0.01 -0.01c31.35,13.03 62.84,25.8 94.46,38.29l0.57 0.23 1.94 0.76c9.17,3.62 18.35,7.21 27.54,10.77l3.11 1.21 6.14 2.37 18.96 7.28 11.8 4.5 6.15 2.33 11.69 4.41 12.98 4.86 6.17 2.29 6.19 2.3 1.18 0.44c9.91,3.66 19.83,7.3 29.77,10.92l6.19 2.25c49.62,17.98 99.57,35.28 149.82,51.92l1.33 -3.05c33.65,-77.16 69.61,-153.22 106.59,-228.9 72.61,-148.19 148.39,-294.89 213.95,-446.4l-0.6 1.53c36.46,-84.95 70.01,-171.22 96.98,-259.72 13.82,-44.98 26.45,-90.41 36.85,-136.29 5.36,-23.32 10.42,-46.76 14.76,-70.31 4.53,-24.55 8.59,-49.08 12.32,-73.73l0 0.39c15.04,-102.72 23.83,-206.38 24.64,-310.34 0.42,-50.68 -0.59,-101.5 -3.51,-152.21 -3.05,-50.5 -7.47,-100.93 -13.24,-151.23 -12.34,-103.45 -30.31,-206.09 -52.84,-307.69 -13.55,-60.62 -26.55,-121.34 -40.31,-181.93 -27.78,-121.76 -58.19,-243.48 -104.73,-359.54 0.18,0.52 0.39,1.01 0.69,1.62 -14.46,-35.45 -30.2,-70.41 -48.6,-104.06 -8.8,-16.06 -17.97,-32.01 -27.98,-47.38 -8.69,-13.31 -17.68,-26.34 -27.28,-39.1l0 0.11c-12.52,-16.45 -25.87,-32.43 -40.29,-47.27 -7.9,-8.18 -16.06,-16.16 -24.58,-23.64 -7.06,-6.26 -14.22,-12.21 -21.61,-18.08 0.41,0.31 0.82,0.7 1.21,1.01 -13.32,-10.18 -27.16,-19.99 -41.72,-28.39 -13.13,-7.57 -26.45,-14.43 -40.29,-20.58l1.51 0.59c-16.06,-6.88 -32.43,-12.92 -49.19,-17.47 -7.68,-2.12 -15.47,-4.14 -23.26,-5.74 -7.95,-1.73 -15.96,-3.16 -24.02,-4.45l0.28 0c-20.79,-2.94 -41.71,-4.86 -62.71,-4.96 -11.43,0 -22.83,0.1 -34.26,0.8 -11.41,0.72 -22.81,1.73 -34.23,2.94 0.07,0 0.13,-0.02 0.2,-0.08 -0.25,0.08 -0.44,0.08 -0.69,0.08l0.5 0c-0.22,0 -0.44,0.06 -0.68,0.08 -0.18,0.03 -0.39,0.03 -0.54,0.03l0.1 0 -0.3 0 0.21 0c-17.06,2.22 -34.14,4.74 -50.99,8.17 -18.21,3.75 -36.29,8.09 -54.26,12.51 -34.24,8.4 -68.4,17.1 -102.43,26.28 -74.35,19.91 -148.39,41.11 -222.53,62.12 -77.19,21.83 -154.37,43.45 -232.05,63.36 -78.48,20.2 -157.28,38.9 -236.88,54.12 -70.42,13.45 -141.23,24.86 -212.55,31.93 -71.81,7.06 -144.14,10.82 -216.28,8.08 -36.77,-1.32 -73.45,-3.84 -109.91,-8.49 -31.1,-4.03 -62.03,-8.89 -92.73,-15.54 -35.46,-7.68 -70.63,-16.79 -104.97,-28.5 -29.68,-10.11 -59.09,-21.31 -87.67,-34.45 -33.74,-15.47 -66.79,-32.74 -98.19,-52.42 -27.98,-17.58 -55.16,-36.39 -81.13,-56.89 -45.67,-36.15 -88.19,-76.26 -126.48,-120.09 -37.47,-42.93 -71.92,-88.6 -102.53,-136.68 -32.41,-50.92 -61.51,-103.96 -87.18,-158.6 -52.94,-112.83 -93.54,-231.15 -125.55,-351.34 -34.06,-127.49 -59.61,-257.01 -80.12,-387.31 -20.1,-127.68 -35.77,-255.97 -49.98,-384.47 -13.45,-121.63 -25.57,-243.46 -39.8,-364.86 -0.03,-0.14 -0.05,-0.23 -0.05,-0.36l-0.05 -0.19c-0.06,-0.41 -0.11,-0.77 -0.11,-1.06 0,0.31 0.11,0.59 0.11,0.9 0,-0.31 -0.11,-0.59 -0.11,-1l0 0.1c-4.3,-35.93 -8.8,-71.73 -13.63,-107.47 -30.18,19.19 -58.97,39.93 -85.78,61.8zm3301.56 3695.62c-0.1,0.41 -0.1,0.8 -0.2,1.21 0.1,-0.41 0.1,-0.8 0.2,-1.21z"/>
    <path class="fil11" d="M5366.15 8065.63c0.07,-0.03 0.18,-0.03 0.28,-0.03 0.05,-0.03 0.1,-0.05 0.16,-0.08 -0.16,0.05 -0.28,0.08 -0.44,0.11z"/>
    <polygon class="fil11" points="5365.98,8065.63 5366.14,8065.63 "/>
    <path class="fil2" d="M6227.37 9157.45c-13.93,16.06 -11.82,40.7 3.93,54.64 29.92,26.28 63.96,48.39 97.71,69.31 31.21,19.29 63.22,37.09 96.24,53.05 65.87,31.9 135.67,56.34 206.5,74.73 66.98,17.39 135.56,28.4 204.45,34.56 71.12,6.36 142.41,6.08 213.63,1.42 61.63,-4.03 122.64,-12.62 183.46,-23.84 31.32,-5.76 62.53,-12.02 93.64,-19.09 30.31,-6.88 60.51,-14.73 90.62,-22.63 122.42,-31.62 241.64,-74.24 361.14,-115.56 9.6,-3.34 4.25,-18.08 -5.35,-14.84 -45.05,15.54 -90.72,29.3 -136.68,42.02 -45.97,12.83 -92.35,23.53 -138.9,33.75 0.26,-0.06 0.55,-0.11 0.83,-0.14 -43.53,9.31 -87.23,17.67 -131.17,24.88 -22.32,3.73 -44.84,6.16 -67.26,9.28 -23.84,3.23 -47.69,5.76 -71.53,7.89 -44.74,4.14 -89.61,6.37 -134.55,7.47 -43.86,1.16 -87.66,1.01 -131.63,-0.93 -60.59,-3.39 -121.1,-9.52 -180.99,-19.67 -59.63,-10.17 -118.31,-24.94 -175.8,-43.5 -56.43,-18.94 -111.15,-41.67 -164.63,-67.63 -27.8,-13.52 -55.16,-27.98 -81.93,-43.44 -28.8,-16.55 -56.69,-34.65 -85.47,-51.21 -4.94,-2.85 -10.47,-4.11 -16.08,-4.11 -11.32,0 -22.93,5.27 -30.18,13.6z"/>
    <path class="fil2" d="M8784.92 7826.9c-2.53,0 -5.18,1.52 -6.57,3.78 -1.18,2.11 -1.13,4.55 0.11,6.69 16.19,29 30.93,59.07 43.8,89.37 16.22,39.06 29.93,79.03 40.74,118.89 10.01,37.49 18.04,77.34 23.78,118.43 11.72,87.42 12.05,175.83 0.94,262.8 -6.18,45.05 -15.81,91.57 -28.68,138.25 -12.13,43.6 -27.73,87.8 -47.7,135.12l1.89 -2.09c-24.28,53.97 -52.6,107.03 -80.01,158.37l-1.45 2.72 -19.01 35.76 -2.28 4.31c-32.5,61.48 -66.13,125.02 -97.02,190.37 -33.57,70.36 -60.46,135.66 -82.24,199.64 -23.81,70 -40.73,141.28 -50.22,211.87 -5.02,37.93 -7.99,75.98 -8.8,113.06 -0.69,34.83 0.42,73.42 3.34,117.92 5.13,75.23 16.06,153.69 33.44,239.83 15.03,73.43 35.02,150.87 61.03,236.81 23.38,77.35 51.21,155.14 77.79,227.72l6.17 16.69 6.16 16.65c1.65,4.44 5.43,7.32 9.63,7.32 2.63,-0.29 2.74,-0.39 2.81,-0.47 2.49,-0.57 4.86,-2.49 6.21,-5.1 1.21,-2.27 1.45,-4.88 0.63,-7.18 -18.26,-54.98 -32.62,-100.31 -45.16,-142.63 -15.64,-53.45 -29.87,-105.46 -42.33,-154.54 -27.93,-110.9 -48.17,-213.04 -61.89,-312.32l-0.41 -3.51c-8.37,-63.88 -13.47,-121.46 -15.56,-176.16 -1.41,-30.61 -1.61,-60.43 -0.61,-88.71 0.99,-26.47 3.32,-53.86 6.89,-81.41l0.28 -2.6c12.41,-87.69 38.4,-179.22 77.26,-272.07 41.28,-97 93.46,-191.02 143.92,-281.94l6.86 -12.39c16.45,-29.68 32.92,-59.37 48.93,-89.31 8.48,-15.96 16.96,-31.92 25.06,-48.08 8.43,-16.9 16.48,-34.6 25.26,-55.68 14.41,-34.06 27.16,-69.67 37.86,-105.8 20.61,-69.1 34.14,-142.66 40.25,-218.65 8.01,-101.6 0.57,-203.03 -22.14,-301.4 -22.06,-95.5 -60.24,-191.98 -113.48,-286.87 -1.14,-2.19 -3.12,-3.46 -5.48,-3.46z"/>
    <path class="fil12" d="M7832.34 9518.85l1447.07 0c80.29,0 148.09,67.81 148.09,148.1 0,80.33 -67.8,148.14 -148.09,148.14l-1447.07 0c-80.29,0 -148.11,-67.81 -148.11,-148.14 0,-80.29 67.82,-148.1 148.11,-148.1z"/>
    <path class="fil12" d="M8732.48 9821.49l3223.45 -23.38 583.78 -2115.54c25.26,-91.56 -43.62,-182.02 -138.59,-182.02l-2897.92 0c-111.21,0 -208.17,75.66 -235.19,183.53l-535.53 2137.42z"/>
    <path class="fil13" d="M8870.48 9821.49l3106.77 -23.38 562.65 -2115.54c24.35,-91.56 -42.03,-182.02 -133.58,-182.02l-2793.03 0c-107.18,0 -200.62,75.66 -226.67,183.53l-516.14 2137.42z"/>
    <path class="fil14" d="M10096.82 9812.25l-1226.34 9.24 516.14 -2137.42c26.04,-107.87 119.49,-183.53 226.67,-183.53l2520.97 0c-93.1,468.19 -485.12,1747.59 -2037.45,2311.71z"/>
    <path class="fil15" d="M10898.44 8192.19c111.93,18.22 182.18,160.26 156.66,316.98 -25.49,156.76 -137.07,269.26 -249.03,251.04 -111.98,-18.18 -182.18,-160.22 -156.69,-316.98 25.49,-156.75 137.1,-269.25 249.07,-251.04z"/>
    <path class="fil15" d="M10591.35 8109.54c41.51,6.75 67.52,59.4 58.05,117.48 -9.43,58.08 -50.77,99.78 -92.28,93.03 -41.51,-6.75 -67.49,-59.4 -58.05,-117.48 9.43,-58.1 50.78,-99.77 92.28,-93.03z"/>
    <path class="fil8" d="M11427.77 9249.08c-39.17,0 -75.38,18.85 -102.56,35.27 -20.12,12.13 -40.96,26.97 -63.66,45.4 0.13,-5.25 -1.02,-10.87 -3.03,-16.95 -3.98,-11.9 -15.49,-22.05 -28.55,-25.23 -5.68,-1.32 -11.71,-2.03 -17.86,-2.03 -7.99,0 -16.58,1.09 -25.51,3.24 -14.87,3.48 -30.88,9.1 -50.35,17.71 -35.06,15.42 -68.09,34.45 -106.91,58.29 -23.85,14.67 -47.95,30.41 -73.68,48.2 -63.82,43.96 -115.06,80.92 -161.21,116.27 -70.22,53.87 -125.09,102.2 -172.67,152.07 -25.84,27.09 -62.12,69.02 -78.77,119.7 -5.88,18.11 -8.59,36.81 -7.97,55.52 0.47,15.62 3.99,31.47 10.43,47.17 11.41,27.81 33.49,53.85 65.63,77.41 13.55,9.9 29.51,19.42 50.12,29.92 16.47,8.33 34.65,16.11 55.62,23.87 36.68,13.42 78.4,24.66 127.5,34.34 40.39,7.93 83.17,13.73 127.11,17.17l9.9 0.72c63.16,-52.16 125.18,-105.65 186.05,-160.4 8.93,4.49 17.9,8.94 26.9,13.34 4.03,2.11 8.48,4.93 10.89,10.7 1.32,3.12 1.83,6.46 1.42,9.7 2.44,2.92 4.03,6.36 4.66,9.98 0.59,4.56 -0.31,11.12 -3.76,14.67 -32.81,34.83 -67.88,66.56 -104.14,94.44 -3.62,2.78 -7.28,5.56 -10.99,8.31 15.96,-1.08 31.95,-2.8 47.52,-4.49 71.9,-7.91 144.88,-19.05 216.81,-33.15 45.29,-8.82 86.69,-18.29 126.59,-28.88 45.46,-12.05 84.98,-24.58 120.74,-38.27 37.89,-14.57 69.81,-30.44 97.54,-48.52 12.71,-8.37 24.17,-17.5 34.07,-27.13 11.46,-11.19 19.56,-21.41 25.53,-32.17 6.75,-12.44 10.75,-23.97 12.54,-36.37 1.65,-11.69 0.75,-24.28 -2.64,-36.48 -2.5,-9.11 -5.48,-16.22 -9.62,-23.07 -4.14,-6.77 -9.88,-12.75 -17.03,-17.87 -12.76,-9.07 -30.1,-14.04 -51.55,-14.79l-6.15 -0.1c-15.77,0 -33.02,2.03 -54.33,6.37 -24.63,5.11 -48.08,12.25 -67.81,18.58 -15.75,5.05 -31.42,10.51 -46.96,16.06l7.47 -11.63 2.61 -4.45c41.4,-70.68 71.53,-135.77 92.05,-198.94 22.12,-67.99 31.4,-131.33 27.47,-188.22 -0.63,-9.44 -2.06,-18.36 -4.24,-26.5 -2.64,-9.72 -6.03,-17.58 -11.03,-25.5 -7.43,-11.52 -21.29,-19.32 -35.38,-19.94 -13.8,0 -26.53,3.83 -39.74,11.35 -13.25,7.45 -26.41,17.22 -41.46,30.72 -5.97,5.35 -11.81,10.94 -17.47,16.6 1.53,-3.39 2.55,-7.03 3.46,-10.68 5.4,-21.26 6.75,-38.37 4.25,-53.84 -2.88,-16.92 -11.85,-31.81 -25.38,-41.97 -16.88,-12.8 -38.86,-15.13 -50.45,-15.41l-2.02 -0.11z"/>
    <path class="fil7" d="M11264.06 9341.4c-8.59,30 -19.4,59.08 -32.12,87.49l0.23 -0.55c-15.15,33.03 -32.66,64.71 -52.26,95.37 -19.78,31.14 -42.02,60.73 -65.45,89.23 0.41,-0.63 0.9,-1.22 1.42,-1.84 -53.24,64.16 -113.66,122.03 -176.88,176.19 -5.47,4.73 -5.36,13.52 -0.7,18.59 4.94,5.25 13.33,5.45 18.57,0.69 16.48,-15.15 32.84,-30.52 48.7,-46.16 17.16,-16.89 33.84,-34.24 50.32,-51.82 32.61,-34.86 63.12,-71.64 91.62,-110.01 56.66,-76.58 102.51,-161.64 128.89,-253.46 1.01,-3.34 -0.91,-6.96 -4.34,-7.96 -0.6,-0.18 -1.21,-0.25 -1.81,-0.25 -2.79,0 -5.41,1.75 -6.18,4.5zm-31.88 86.94c0.16,-0.38 0.33,-0.72 0.49,-1.09 -0.21,0.34 -0.36,0.7 -0.49,1.09z"/>
    <path class="fil7" d="M11492.75 9381.36c-9.6,28.58 -20.52,56.66 -32.84,84.15 0.31,-0.63 0.52,-1.12 0.83,-1.62 -35.28,77.68 -81.14,149.9 -135.18,215.78l0.7 -0.75c-38.79,46.74 -81.3,90.38 -127.47,129.96 -5.56,4.75 -5.56,13.83 -0.63,19.11 4.76,5.15 14.05,6.06 19.12,0.69 30.59,-32.01 60.48,-64.54 88.88,-98.5 28.6,-34.34 55.68,-70 80.71,-107.06 49.7,-73.65 90.13,-153.55 118.22,-238 1.11,-3.34 -1.04,-7.08 -4.34,-7.99 -0.68,-0.23 -1.3,-0.3 -1.95,-0.3 -2.71,0 -5.17,1.83 -6.05,4.55z"/>
    <path class="fil16" d="M7654.68 6435.63c-4.14,15.64 -9.49,32.74 -17.28,55.37 -6.77,19.5 -13.63,38.97 -20.6,58.37 -12.31,34.55 -26.45,70.83 -43.35,111.02 -65.14,153.87 -146.85,303.06 -242.93,443.59 -13.25,-6.09 -26.97,-11.54 -40.71,-16.99l-3.75 -1.4 -4.24 -1.73c-15.86,-6.36 -31.81,-12.62 -47.7,-19.29 -28.46,-12.02 -56.66,-24.75 -84.75,-37.68 -56.58,-26.07 -113.94,-54.64 -170.41,-84.75 -96.28,-51.93 -189.3,-108.7 -276.37,-168.61 -92.56,-63.93 -176.78,-131.52 -250.33,-200.92 -20.92,-19.91 -39.9,-38.78 -59.71,-59.6 -4.14,-4.35 -8.17,-6.57 -13.03,-7.27 -7.76,8.27 -15.75,16.37 -24.03,24.22 -21.12,21.63 -43.96,41.54 -67.88,59.83 -4.56,3.43 -9,6.77 -13.55,10.11 -5.85,4.83 -11.82,9.49 -17.77,14.04 -16.16,12.31 -32.95,23.92 -50.33,34.34 -7.96,4.74 -16.16,9.39 -24.34,13.63 -0.1,1.71 0.11,3.24 0.61,4.75 44.16,132.93 103.65,269.12 192.66,441.45 9.93,19.35 20.04,38.71 30.25,58.06 33.75,55.19 63.41,112.88 93.59,170.04 11.3,21.41 22.63,42.82 34.34,64.05 11.03,19.99 22.42,39.79 33.93,59.58 24.67,42.23 49.92,84.15 76.09,125.58l-0.91 -1.53c65.25,103.29 136.05,203.18 216.58,295.11 2.09,-0.88 4.06,-2.11 5.74,-3.67 99.09,-89.81 189.42,-199.41 276.3,-334.87 73.72,-114.77 141.42,-244.56 201.1,-385.68l1.54 -3.54 1.5 -3.54c107.19,82.34 224.26,155.27 347.51,216.68 114.15,56.97 227.6,100.73 337.71,130.42 28.37,4.15 56.97,7.69 85.45,10.62 0.62,-0.39 1.11,-0.8 1.52,-1.22 -15.05,-40.08 -28.98,-80.71 -41.91,-121.62 -48.39,-152.63 -84.57,-308.59 -122.64,-463.97 -37.3,-151.82 -76.78,-302.95 -110.73,-455.4 -28.19,-2.12 -56.28,-5.46 -83.94,-11 -12.92,-2.64 -25.76,-5.56 -38.38,-9.21 -6.47,-1.5 -13.03,-3.02 -19.5,-4.74 -3.54,-0.82 -6.98,-1.73 -10.39,-2.63 -9.9,-2.72 -19.7,-5.57 -29.4,-9.11 -2.64,2.44 -4.56,5.46 -5.57,9.11z"/>
    <g>
     <path class="fil17" d="M8706.53 7220.18c0,0 69.36,-100.04 193.66,-160.12 100.84,-48.75 404.53,-157.15 483.28,-199.06 143.96,-76.58 238.26,-179.25 238.26,-179.25l393.94 241.67c0,0 -80.25,98.31 -188.24,177.12 -109.36,79.8 -400.49,120.36 -544.35,236.09 -93.14,74.93 -199.88,271.58 -199.88,271.58l-376.67 -388.05z"/>
     <path class="fil18" d="M8784.27 7216.93l279.2 298.9c22.64,-38.54 88.98,-146.35 151.51,-198.11 99.45,-82.32 210.6,-115.3 318.09,-147.2 73.99,-21.96 143.88,-42.71 208.59,-78.33 112.49,-61.93 183.19,-133.39 206.96,-159.47l-320.59 -193.52c-26.33,22.9 -125.19,107.15 -197.32,145.37 -57.09,30.26 -160.46,72.18 -260.43,112.73 -75.09,30.46 -146.03,59.23 -194.61,81.84 -78.22,36.41 -127.47,73.89 -155.02,98.93 -18.92,17.19 -30.47,31.01 -36.4,38.86zm283.85 338.25l-313.52 -335.63 4.52 -7.57c1.96,-3.28 49.71,-81.07 206.66,-154.12 49.11,-22.86 120.32,-51.74 195.69,-82.31 99.42,-40.32 202.23,-82.03 258.26,-111.72 79.67,-42.21 198.05,-146.85 199.24,-147.9l6.46 -5.72 358.84 216.62 -8.49 10.47c-0.79,0.99 -19.96,24.49 -57.12,57.98 -34.11,30.77 -90.57,76.12 -165.69,117.47 -66.92,36.85 -137.99,57.94 -213.23,80.26 -105.23,31.24 -214.05,63.53 -309.8,142.79 -71.94,59.55 -153.17,203.9 -153.98,205.35l-7.85 14.03z"/>
     <path class="fil18" d="M9230.38 6960c-49.7,24.37 -82.09,85.69 -12.86,167.32 69.23,81.62 201.48,98.33 259.35,78.25 57.87,-20.08 74.59,-124.13 18.18,-180.47 -56.42,-56.32 -151.92,-120.39 -264.68,-65.1z"/>
     <path class="fil18" d="M9081 7216.51c12.08,15.23 13.12,34.52 2.32,43.09 -10.8,8.55 -29.35,3.15 -41.42,-12.09 -12.07,-15.23 -13.12,-34.52 -2.31,-43.09 10.79,-8.55 29.33,-3.15 41.41,12.09z"/>
     <path class="fil18" d="M9703.66 6891.24c14.23,13.25 18.15,32.16 8.76,42.25 -9.38,10.09 -28.54,7.52 -42.76,-5.72 -14.23,-13.25 -18.15,-32.17 -8.77,-42.26 9.4,-10.08 28.54,-7.51 42.77,5.73z"/>
     <path class="fil17" d="M9425.99 7161.84l28.4 -13.34 -13.91 -14.28c39.44,-21.01 40.72,-50.77 18.32,-75.56 -30.09,-33.3 -80.48,-21.24 -100.2,-12.89 -19.72,8.35 -37.58,13.65 -50.85,5.6 -10.94,-6.64 -3.88,-26.16 12.95,-36.18 24.83,-14.75 33.53,-3.38 33.53,-3.38l31.95 -12.71c0,0 -32.21,-30.56 -73.66,-10.58l-13.35 -10.4 -20.32 10.26 11.83 11.24c-24.5,16.07 -27.58,50.22 -16.39,65.69 25.85,35.71 71.35,21.69 88.93,11.7 21.02,-11.95 40.51,-14.85 49.05,-7.77 26.9,22.34 12.89,35.58 -10.15,47.02 -31.05,15.41 -44.41,-3.99 -44.41,-3.99l-44.85 22.66c0,0 15.12,42.42 101.13,12.14l11.98 14.76z"/>
     <path class="fil18" d="M8801.8 7177.96c44.05,-3.42 73.85,66.47 27.84,84.37 -18,7.01 -38.61,-6.91 -49.52,-22.23 -17.53,-24.62 5.23,-34.61 9.55,-50.01l12.13 -12.13z"/>
     <path class="fil18" d="M9060.69 7440.68c-26.59,0.27 -35.62,21.74 -28.16,46.7l39.89 44.25 23.46 -49.16c22.87,-5.66 -16.6,-41.98 -35.19,-41.79z"/>
     <path class="fil18" d="M9925.44 6909.18l-4.04 2.03c-52.86,-2.17 -43.77,55.34 4.04,52.54 13.5,-0.78 38.5,-10.36 40.5,-28.19 2.12,-18.75 -25.9,-26.22 -40.5,-26.38z"/>
     <path class="fil18" d="M9635.89 6733.86c-14.47,-4.24 -20.69,2.82 -29.76,17.69l-6.07 0c-0.67,20.94 5.13,35.17 28.29,36.42 14.79,0.8 35.32,-7.92 35.93,-24.74 0.47,-12.96 -15.8,-25.68 -28.39,-29.37z"/>
    </g>
    <g>
     <path class="fil17" d="M11498.65 6515.1c0,0 121.43,-8.53 246.1,50.8 101.14,48.14 375.77,217.13 457.73,252.32 149.84,64.34 288.93,73.62 288.93,73.62l58.1 458.49c0,0 -126.9,-1.04 -255.95,-35.94 -130.71,-35.33 -344.55,-237 -524.85,-276.76 -116.74,-25.74 -336.91,14.1 -336.91,14.1l66.86 -536.63z"/>
     <path class="fil18" d="M11549.85 6573.69l-58.34 404.85c44.22,-6.47 169.82,-22.21 249.33,-5.85 126.44,26.04 221.75,92.08 313.91,155.94 63.44,43.96 123.35,85.48 191.65,113.66 118.69,48.97 218.67,59.38 253.9,61.59l-49.73 -371.16c-34.35,-6.19 -161.94,-30.55 -236.89,-62.88 -59.33,-25.59 -156.72,-79.96 -250.92,-132.55 -70.76,-39.51 -137.59,-76.82 -185.63,-100.56 -77.36,-38.21 -137.42,-53.16 -174.19,-58.98 -25.25,-3.99 -43.25,-4.34 -53.09,-4.06zm-86.13 433.09l65.52 -454.58 8.75 -1.21c3.78,-0.53 94.33,-11.98 249.54,64.7 48.57,23.99 115.65,61.45 186.67,101.1 93.68,52.29 190.55,106.37 248.78,131.48 82.79,35.71 238.5,62.55 240.06,62.81l8.5 1.45 55.67 415.45 -13.47 -0.08c-1.26,0 -31.59,-0.23 -80.97,-8.25 -45.35,-7.35 -116.06,-22.99 -195.33,-55.69 -70.62,-29.14 -131.55,-71.35 -196.06,-116.05 -90.21,-62.53 -183.51,-127.17 -305.27,-152.24 -91.47,-18.83 -254.89,8.17 -256.53,8.45l-15.86 2.65z"/>
     <path class="fil18" d="M12029.46 6760.79c-50.11,-23.51 -118.23,-10.39 -138.55,94.7 -20.31,105.09 49.44,218.68 101.32,251.24 51.88,32.58 143.5,-19.53 152.12,-98.78 8.62,-79.26 -1.2,-193.83 -114.89,-247.16z"/>
     <path class="fil18" d="M11735.92 6804.85c-4.32,18.95 -18.72,31.84 -32.16,28.77 -13.43,-3.06 -20.82,-20.92 -16.5,-39.87 4.32,-18.96 18.72,-31.85 32.15,-28.77 13.44,3.06 20.83,20.91 16.51,39.87z"/>
     <path class="fil18" d="M12379.33 7086.86c-1.42,19.39 -13.73,34.28 -27.46,33.27 -13.75,-1.01 -23.74,-17.55 -22.31,-36.94 1.42,-19.38 13.73,-34.28 27.46,-33.26 13.75,1.01 23.74,17.54 22.31,36.93z"/>
     <path class="fil17" d="M11994.49 7039.68l28.18 13.8 2.44 -19.8c41.07,17.61 65.09,-0.01 70.4,-33 7.12,-44.31 -33.81,-76.06 -52.67,-86.21 -18.85,-10.16 -34.16,-20.76 -36.19,-36.14 -1.66,-12.69 17.97,-19.41 36.33,-12.54 27.04,10.12 23.62,24.03 23.62,24.03l29.91 16.96c0,0 3.68,-44.26 -37.85,-64.06l-0.25 -16.94 -20.72 -9.41 -1.36 16.26c-27.86,-9.05 -56.44,9.92 -61.49,28.32 -11.67,42.52 27.75,69.23 46.54,76.69 22.48,8.92 36.95,22.31 36.76,33.38 -0.58,34.97 -19.68,32.33 -43.02,21.51 -31.45,-14.58 -24.68,-37.12 -24.68,-37.12l-45.74 -20.8c0,0 -23.62,38.34 53.83,86.48l-4.01 18.58z"/>
     <path class="fil18" d="M11591.22 6562.98c30.24,32.21 -5.62,99.21 -48.38,74.52 -16.73,-9.66 -18.77,-34.43 -13.65,-52.54 8.21,-29.07 30.25,-17.58 44.98,-23.85l17.05 1.87z"/>
     <path class="fil18" d="M11548.36 6929.32c-16.86,-20.57 -39.24,-14.18 -54.04,7.27l-9.54 58.81 53.04 -12.47c18.73,14.28 22.34,-39.22 10.55,-53.6z"/>
     <path class="fil18" d="M12504.14 7271.05l-4.1 -1.89c-31.4,-42.58 -70.55,0.51 -38.45,36.04 9.08,10.05 32.19,23.55 47.34,13.95 15.95,-10.09 4.24,-36.62 -4.79,-48.11z"/>
     <path class="fil18" d="M12459.65 6935.5c-5.75,-13.94 -15.16,-14.37 -32.43,-12.14l-3.8 -4.73c-16.75,12.58 -24.22,26.01 -10.69,44.86 8.63,12.03 28.28,22.59 41.79,12.53 10.4,-7.75 10.14,-28.39 5.14,-40.52z"/>
    </g>
    <g>
     <path class="fil17" d="M10317.54 6766.56c0,0 41.91,-114.29 147.05,-203.76 85.3,-72.59 351.87,-254.03 417.53,-314.42 120.01,-110.4 185.39,-233.52 185.39,-233.52l442.14 134.59c0,0 -52.89,115.36 -137.54,218.85 -85.71,104.79 -357.22,217.41 -467.28,365.66 -71.24,95.98 -125,313.18 -125,313.18l-462.3 -280.59z"/>
     <path class="fil18" d="M10391.94 6743.82l345.53 218.89c12.2,-42.99 49.23,-164.04 96.69,-229.89 75.5,-104.72 174.75,-164.67 270.73,-222.63 66.06,-39.9 128.47,-77.58 182.11,-128.36 93.26,-88.28 143.66,-175.24 160.09,-206.48l-359.01 -106.48c-19.71,28.79 -94.14,135.25 -154.31,190.41 -47.63,43.66 -137.09,110.29 -223.61,174.73 -65,48.4 -126.39,94.12 -167.7,128.24 -66.52,54.93 -104.74,103.63 -125.1,134.8 -13.96,21.41 -21.65,37.7 -25.42,46.78zm359.94 255.8l-387.98 -245.78 2.47 -8.47c1.07,-3.66 27.68,-90.97 161.15,-201.22 41.77,-34.5 103.39,-80.39 168.63,-128.98 86.06,-64.07 175.03,-130.33 221.77,-173.19 66.46,-60.93 154.66,-192.02 155.54,-193.34l4.81 -7.16 401.84 119.19 -5.58 12.27c-0.52,1.15 -13.14,28.72 -40.65,70.5 -25.26,38.37 -68.47,96.49 -130.73,155.44 -55.48,52.52 -118.95,90.83 -186.12,131.41 -93.97,56.74 -191.13,115.42 -263.82,216.25 -54.61,75.76 -96.84,235.92 -97.26,237.54l-4.06 15.55z"/>
     <path class="fil18" d="M10758.9 6382.75c-41.94,36.1 -57.85,103.62 29.72,165.17 87.57,61.53 219.77,44.37 270.71,10.35 50.94,-34.01 40.9,-138.93 -27.89,-179.22 -68.8,-40.3 -177.36,-78.22 -272.54,3.7z"/>
     <path class="fil18" d="M10678.99 6668.63c15.53,11.7 21.4,30.1 13.1,41.12 -8.3,11 -27.6,10.44 -43.14,-1.26 -15.53,-11.7 -21.4,-30.1 -13.09,-41.11 8.29,-11.01 27.6,-10.44 43.13,1.25z"/>
     <path class="fil18" d="M11199.59 6196.94c17.11,9.23 25.66,26.54 19.12,38.67 -6.54,12.13 -25.71,14.47 -42.82,5.23 -17.11,-9.24 -25.67,-26.55 -19.13,-38.67 6.55,-12.13 25.72,-14.48 42.83,-5.23z"/>
     <path class="fil17" d="M10999.07 6528.78l24.13 -20.08 -17.06 -10.31c32.86,-30.27 26.62,-59.39 -1.31,-77.73 -37.52,-24.64 -83.23,-0.28 -100.22,12.78 -16.97,13.04 -32.91,22.68 -47.78,18.23 -12.26,-3.67 -10.35,-24.34 3.41,-38.27 20.31,-20.53 31.59,-11.72 31.59,-11.72l27.73 -20.35c0,0 -38.88,-21.47 -73.95,8.33l-15.55 -6.69 -17.07 15.06 14.28 7.89c-19.67,21.73 -14.05,55.56 0.68,67.7 34.02,28.04 74.51,3.01 89.02,-11.08 17.33,-16.86 35.47,-24.59 45.49,-19.88 31.67,14.84 21.45,31.19 2.03,48.06 -26.17,22.74 -43.98,7.33 -43.98,7.33l-37.7 33.23c0,0 25.33,37.24 100.94,-13.74l15.31 11.26z"/>
     <path class="fil18" d="M10399.08 6701.7c41.78,-14.41 88.23,45.71 48.21,74.63 -15.65,11.32 -39.1,3.04 -53.53,-9.03 -23.17,-19.4 -3.66,-34.81 -3.36,-50.81l8.67 -14.79z"/>
     <path class="fil18" d="M10715.84 6890.7c-25.67,6.96 -29,30 -15.48,52.28l49.75 32.76 10.32 -53.48c20.7,-11.25 -26.65,-36.44 -44.59,-31.56z"/>
     <path class="fil18" d="M11418.72 6158.41l-3.4 2.97c-51.7,11.22 -28.4,64.58 17.16,49.83 12.88,-4.17 34.65,-19.73 32.09,-37.49 -2.67,-18.68 -31.67,-18.84 -45.85,-15.31z"/>
     <path class="fil18" d="M11094.35 6061.71c-15.08,-0.45 -19.32,7.95 -24.35,24.63l-5.86 1.53c4.63,20.43 13.82,32.75 36.55,28.12 14.51,-2.95 32.19,-16.57 28.53,-33.01 -2.81,-12.65 -21.76,-20.86 -34.87,-21.26z"/>
    </g>
   </g>
  </g>
 </g>
</svg>
