<?xml version="1.0" encoding="UTF-8"?>
<!DOCTYPE svg PUBLIC "-//W3C//DTD SVG 1.1//EN" "http://www.w3.org/Graphics/SVG/1.1/DTD/svg11.dtd">
<!-- Creator: CorelDRAW -->
<svg xmlns="http://www.w3.org/2000/svg" xml:space="preserve" width="146.474mm" height="117.018mm" version="1.1" style="shape-rendering:geometricPrecision; text-rendering:geometricPrecision; image-rendering:optimizeQuality; fill-rule:evenodd; clip-rule:evenodd"
viewBox="0 0 16018.63 12797.27"
 xmlns:xlink="http://www.w3.org/1999/xlink"
 xmlns:xodm="http://www.corel.com/coreldraw/odm/2003">
 <defs>
  <style type="text/css">
   <![CDATA[
    .fil0 {fill:#D6FFE6}
    .fil8 {fill:#011621;fill-rule:nonzero}
    .fil4 {fill:#263238;fill-rule:nonzero}
    .fil5 {fill:#32AB62;fill-rule:nonzero}
    .fil1 {fill:#41BA71;fill-rule:nonzero}
    .fil10 {fill:#455A64;fill-rule:nonzero}
    .fil15 {fill:#6BA638;fill-rule:nonzero}
    .fil7 {fill:#994842;fill-rule:nonzero}
    .fil11 {fill:#A6A6A6;fill-rule:nonzero}
    .fil9 {fill:#AD6359;fill-rule:nonzero}
    .fil3 {fill:#BC5B57;fill-rule:nonzero}
    .fil14 {fill:#BDE377;fill-rule:nonzero}
    .fil12 {fill:#C7C7C7;fill-rule:nonzero}
    .fil13 {fill:white;fill-rule:nonzero}
    .fil6 {fill:black;fill-rule:nonzero;fill-opacity:0.101961}
    .fil2 {fill:white;fill-rule:nonzero;fill-opacity:0.501961}
   ]]>
  </style>
 </defs>
 <g id="Layer_x0020_1">
  <metadata id="CorelCorpID_0Corel-Layer"/>
  <g id="_105553251216672">
   <circle class="fil0" cx="9802.45" cy="6216.18" r="6216.18"/>
   <g>
    <path class="fil1" d="M9788.43 3796.48c99.02,198.24 179.45,405.26 240.19,618.39 55.18,192.29 69.42,394.01 41.7,592.15 -14.13,96.34 -40.45,190.51 -78.39,280.21 -38.68,94.11 -86.29,184.31 -142.21,269.35 -112.16,178.06 -258.09,345.32 -409.02,527.09 231.02,-66.73 441.45,-190.8 611.68,-360.68 89.95,-87.87 165.86,-188.98 225.22,-299.85 14.58,-28.31 29.6,-56.68 41.7,-86.28l35.01 -90.1c19.59,-61.93 34.61,-125.21 45.02,-189.32 19.19,-127.93 16.77,-258.15 -7.09,-385.28 -23.16,-123.27 -64.47,-242.47 -122.58,-353.64 -56.47,-107.6 -126.54,-207.51 -208.51,-297.32 -78.54,-88.7 -170.57,-164.57 -272.72,-224.72z"/>
    <path class="fil2" d="M9788.43 3796.48c99.02,198.24 179.45,405.26 240.19,618.39 55.18,192.29 69.42,394.01 41.7,592.15 -14.13,96.34 -40.45,190.51 -78.39,280.21 -38.68,94.11 -86.29,184.31 -142.21,269.35 -112.16,178.06 -258.09,345.32 -409.02,527.09 231.02,-66.73 441.45,-190.8 611.68,-360.68 89.95,-87.87 165.86,-188.98 225.22,-299.85 14.58,-28.31 29.6,-56.68 41.7,-86.28l35.01 -90.1c19.59,-61.93 34.61,-125.21 45.02,-189.32 19.19,-127.93 16.77,-258.15 -7.09,-385.28 -23.16,-123.27 -64.47,-242.47 -122.58,-353.64 -56.47,-107.6 -126.54,-207.51 -208.51,-297.32 -78.54,-88.7 -170.57,-164.57 -272.72,-224.72z"/>
    <path class="fil3" d="M10231.73 7300.89c-212.28,1486.58 -735.21,3392.25 -1227.64,3808.83 -397.83,336.5 -2570.77,1052.46 -2693.4,1076.26 -303.57,56.73 -1089.99,-2055.38 -779.78,-2168.39 390.33,-144.29 2285.99,-363.62 2384.82,-483.71 98.83,-120.1 715.13,-1121.73 1406.94,-2272.21 477.46,-795.21 1041.2,-883.62 909.06,39.22z"/>
    <path class="fil3" d="M6546.71 12046.3c-35.01,21.66 -530.81,325.63 -843.15,445.33 -233.11,89.25 -911.14,328.6 -1035,83.4 -83.41,-166.8 297.31,-355.68 564.62,-494.57 140.92,-72.93 307.73,-240.59 256.86,-330.69 -88.81,-157.58 -450.79,38.39 -685.52,202.66 -454.1,317.79 -1048.34,870.73 -1360.23,653.04 -118.01,-83.4 -3.76,-260.23 169.73,-439.08 -288.15,215.99 -598.84,399.46 -733.52,313.14 -77.15,-48.8 -86.72,-125.11 -53.8,-214.32 -91.28,38.33 -174.69,39.62 -237.67,-16.71 -107.6,-95.06 -72.15,-250.15 22.91,-416.96 -18.7,-0.49 -37,-5.4 -53.46,-14.33 -16.46,-8.93 -30.54,-21.58 -41.21,-37 -235.97,-301.48 733.92,-1305.19 1088.81,-1421.52 1042.48,-342.78 2185.04,-345.66 2185.04,-345.66 446.61,296.86 756.42,2032.81 755.58,2033.26z"/>
    <path class="fil4" d="M4897.49 11197.3c-250.3,61.08 -484.69,174.78 -687.6,333.55 -255.22,201.02 -417.01,424.51 -625.47,653.89 -5.46,5.81 3.73,14.58 9.18,8.73 99.62,-109.23 515.39,-522.08 625.47,-617.14 195.56,-175.34 428.62,-303.71 681.36,-375.31 1.24,0 0,-4.18 -2.93,-3.72z"/>
    <path class="fil4" d="M4659.39 10761.93c-273.51,100.07 -554.17,201.82 -802.69,356.13 -272.32,168.89 -474.98,423.66 -674.71,669.7 -120.1,147.62 -236.72,297.87 -349.83,450.74 -4.62,6.3 4.16,15.03 9.16,8.39 202.36,-253.53 412.26,-500.82 629.64,-741.86 200.13,-224.87 442.75,-408 713.88,-538.75 155.16,-74.63 315.66,-136.8 475.83,-199.33 0.3,-0.1 0.59,-0.25 0.89,-0.44 0.25,-0.21 0.5,-0.46 0.7,-0.75 0.14,-0.24 0.24,-0.59 0.3,-0.94 0.05,-0.34 0.05,-0.65 -0.05,-1 -0.04,-0.34 -0.2,-0.65 -0.39,-0.89 -0.2,-0.3 -0.45,-0.49 -0.74,-0.7 -0.3,-0.2 -0.65,-0.3 -0.94,-0.34 -0.35,-0.05 -0.69,-0.05 -1.04,0.04z"/>
    <path class="fil4" d="M4328.75 10392.07c-267.32,78.8 -500.43,146.38 -729.37,312.35 -302.71,219.71 -583.76,570.83 -681.75,695.08 -108.44,137.65 -212.27,278.58 -314.02,420.79 -4.17,5.8 5.85,13.33 10.02,7.48 234.05,-313.28 488.07,-611.09 760.59,-891.54 127.73,-135.58 275.7,-250.46 438.68,-340.66 166.07,-81.81 338.73,-149.3 516.24,-201.86 0,0 0.84,-2.08 -0.39,-1.64z"/>
    <path class="fil5" d="M9803.01 9821.63l-1647.54 -922.84c0,0 641.34,-1139.63 1299.34,-1998.64 658.06,-859.03 920.31,-364.46 825.66,566.71 -94.66,931.12 -477.46,2354.77 -477.46,2354.77z"/>
    <path class="fil4" d="M8406.53 8668.23c471.7,233.95 931.01,492.14 1376.05,773.48 6.69,4.22 0,15.03 -7.1,11.7 -472.7,-233.4 -933,-491.2 -1378.98,-772.29 -5.01,-4.56 2.48,-16.67 10.03,-12.89z"/>
    <path class="fil6" d="M8446.54 9061.84l1356.47 759.79c0,0 383.25,-1423.2 477.46,-2354.77 60.04,-589.23 -23.36,-1003.32 -259.33,-1010.41l-1574.6 2605.38z"/>
    <path class="fil5" d="M14441.15 12384.37c0,1.12 -0.03,2.18 -0.07,3.2l0.07 -3.2zm-0.14 5.09c-0.07,1.32 -0.16,2.56 -0.28,3.71 0.12,-1.15 0.22,-2.38 0.28,-3.71zm-0.38 4.51c-0.15,1.25 -0.33,2.37 -0.55,3.39 0.22,-1.02 0.39,-2.14 0.55,-3.39zm-0.63 3.82c-0.25,1.09 -0.54,2.05 -0.86,2.87 0.33,-0.82 0.61,-1.78 0.86,-2.87zm-0.89 2.92c-0.34,0.85 -0.73,1.56 -1.17,2.12 0.44,-0.56 0.83,-1.26 1.17,-2.12zm-4029.82 2.12l-1213.64 0c-338.02,-32.75 -668.05,-92.64 -988.02,-177.34 -1.21,11.57 -2.32,22.62 -3.31,33.13 71.23,-757.32 736.88,-4289 1559.93,-5597.8 171.82,-272.73 994.99,-689.69 1639.2,-195.57 1194.81,916.54 2094.43,2913.17 2593.66,4338.15 -909.17,831.8 -2066.41,1396.72 -3347.85,1571.33l-0.01 0.09c-79.52,10.84 -159.5,20.22 -239.95,28.02zm-2211.13 -54.63c0.07,-2.74 0.17,-5.64 0.3,-8.58 -0.12,2.96 -0.22,5.82 -0.3,8.58zm1.14 -25.6c0.28,-4.92 0.61,-10.09 0.98,-15.44 -0.37,5.36 -0.7,10.51 -0.98,15.44zm2.07 -30.06c0.6,-7.68 1.29,-15.77 2.06,-24.19 -0.77,8.43 -1.45,16.49 -2.06,24.19z"/>
    <path class="fil3" d="M11581.5 6639.97c956.75,1085.22 2079.44,2774.85 2667.11,4002.29 -8.76,-18.3 -17.62,-36.68 -26.62,-55.18 -939.55,949.94 -2183.11,1598.28 -3572.73,1787.64 47.65,-575.85 790.61,-2331.47 1049.02,-2277.04 265.18,55.88 494.12,111.72 503.29,75.03 9.18,-36.7 -782.27,-1206.33 -1264.33,-2890.99 -331.49,-1148.41 329.85,-996.23 644.26,-641.75zm2679.54 4028.37c10.11,21.27 20.05,42.4 29.82,63.39 -9.78,-20.99 -19.72,-42.12 -29.82,-63.39zm42.49 90.68c7.86,17.03 15.64,33.97 23.26,50.78 -7.62,-16.81 -15.4,-33.75 -23.26,-50.78zm40.75 89.59c7.21,16.11 14.32,32.12 21.29,48.02 -6.98,-15.9 -14.09,-31.91 -21.29,-48.02zm38.64 87.78c6.11,14.15 12.13,28.19 18.06,42.18 -5.93,-13.99 -11.94,-28.03 -18.06,-42.18zm35.71 84.12c4.82,11.56 9.57,23.06 14.25,34.5 -4.68,-11.44 -9.43,-22.94 -14.25,-34.5zm31.89 78.11c4.69,11.72 9.33,23.37 13.87,34.95 -4.54,-11.58 -9.18,-23.23 -13.87,-34.95zm31.22 79.79c4.12,10.78 8.17,21.5 12.15,32.14 -3.98,-10.64 -8.03,-21.36 -12.15,-32.14zm29.13 78.27c3.08,8.53 6.14,17.02 9.13,25.46 -3,-8.44 -6.05,-16.93 -9.13,-25.46zm26.7 75.94c2.3,6.76 4.57,13.47 6.8,20.17 -2.23,-6.69 -4.51,-13.41 -6.8,-20.17zm24.03 73.05c1.85,5.82 3.63,11.58 5.42,17.36 -1.79,-5.77 -3.58,-11.54 -5.42,-17.36zm20.29 66.61c1.71,5.83 3.39,11.64 5.03,17.41 -1.64,-5.77 -3.32,-11.58 -5.03,-17.41zm18.54 66.52c1.15,4.32 2.31,8.68 3.42,12.97 -1.12,-4.29 -2.27,-8.65 -3.42,-12.97zm29.54 126.72c0.57,2.88 1.09,5.71 1.65,8.57 -0.56,-2.87 -1.08,-5.7 -1.65,-8.57zm-3932.46 888.23c-0.62,-0.14 -1.22,-0.3 -1.84,-0.47 0.6,0.16 1.21,0.33 1.84,0.47z"/>
    <path class="fil3" d="M13028.9 11266.51c0,0 -110.52,-113.45 -595.87,-805.22 -333.61,-478.7 -1459.5,-1429.91 -3055.77,-1042.49 -611.29,148.86 -774.33,642.98 -111.32,601.33 467.05,-29.65 787.72,-90.09 942.82,-56.73 0,0 -531.26,479.95 -482.46,891.95 42.54,360.35 110.67,717.26 203.89,1067.93 68.23,-2.62 136.16,-9.47 203.5,-20.43 33.81,160.71 112.31,308.62 226.55,426.69 24.26,25.08 49.92,48.59 76.83,70.45 71.07,-7.21 141.81,-15.61 212.15,-25.19l0.01 -0.09c239.86,-32.68 475.36,-79.06 705.7,-138.29l1673.96 -969.91zm-2588.31 1136.3c6.65,5.35 13.39,10.6 20.18,15.74 -6.8,-5.14 -13.53,-10.38 -20.18,-15.74zm26.3 20.33c4.18,3.11 8.38,6.16 12.6,9.19 -4.23,-3.03 -8.42,-6.08 -12.6,-9.19z"/>
    <path class="fil3" d="M12040.22 10055.54c-297.76,-73.39 -930.72,-218.08 -1489.95,-156.34 -620.87,68.77 -1798.48,368.17 -1743.44,826.04 41.7,333.62 500.36,261.07 500.36,261.07 0,0 -460.74,226.41 -357.76,521.65 93.82,268.94 446.17,189.71 446.17,189.71 0,0 -256.02,185.55 -115.49,427.43 166.81,291.91 677.19,-145.54 1102.94,0 95.1,34.21 1657.15,-2069.55 1657.15,-2069.55z"/>
    <path class="fil4" d="M10732.09 10543.46c-291.91,-22.96 -965.78,94.22 -1420.28,430.75 -10.41,7.48 -10.01,19.59 0,14.58 453.06,-203.36 929.14,-350.98 1417.8,-439.53 6.26,-0.4 5.41,-5.41 2.48,-5.81z"/>
    <path class="fil4" d="M10782.97 11172.25c-253.13,5.85 -943.27,158.03 -1391.92,515 -10.02,7.93 -8.78,19.59 0,14.17 442.4,-226.46 909.1,-402.04 1391.07,-523.32 0.79,0.1 1.59,-0.1 2.18,-0.55 0.66,-0.49 1.05,-1.19 1.15,-1.99 0.15,-0.73 -0.05,-1.53 -0.55,-2.18 -0.45,-0.59 -1.14,-1.04 -1.94,-1.14z"/>
    <path class="fil4" d="M13472.16 10944.16c-178.47,-231.02 -718.45,-651.75 -1273.07,-762.29 -12.49,-2.47 -21.27,5.86 -10.41,10.47 455.65,199.33 885.35,453.36 1279.75,756.43 2.48,2.08 5.81,-2.09 3.73,-4.62z"/>
    <path class="fil5" d="M13329.99 8712l-1764.75 671.74c0,0 -462.83,-1223.43 -699.71,-2278.86 -236.87,-1055.39 310.66,-939.9 964.94,-270.19 654.23,669.7 1499.52,1877.31 1499.52,1877.31z"/>
    <path class="fil4" d="M11018.55 8017.26c-0.19,-0.45 -0.34,-0.94 -0.34,-1.49 -0.05,-0.49 0.05,-0.98 0.25,-1.49 0.14,-0.49 0.39,-0.94 0.73,-1.29 0.35,-0.39 0.8,-0.69 1.25,-0.94 0.49,-0.2 1,-0.35 1.49,-0.35 0.49,-0.04 1.04,0.05 1.54,0.21 0.44,0.2 0.89,0.44 1.28,0.79 0.4,0.35 0.7,0.8 0.9,1.25l91.34 172.2c-31.68,-116.72 -61.14,-234.34 -88.41,-352.75 0,-3.77 5.45,-6.26 6.69,-2.53 89.5,255.22 177.21,510.68 263.1,766.44 83.4,256.45 182.67,509.15 265.22,766.44 50.88,-10.01 78.4,-18.34 116.33,-24.6 8.78,0 14.18,8.33 6.26,12.5 -45.72,24.65 -94.51,43.04 -145.09,54.65 -111.77,-246.04 -202.26,-522.09 -289.43,-777.71 -41.71,-125.1 -83.41,-252.29 -117.58,-379.88 -42.85,-74.92 -81.37,-152.18 -115.54,-231.46z"/>
    <path class="fil4" d="M11549.41 9043.09c482.42,-212.41 975.55,-399.61 1477.41,-560.85 7.48,-2.48 11.65,10.01 4.56,12.94 -482.32,212.97 -975.45,400.6 -1477.4,562.1 -7.94,2.93 -14.18,-10.86 -4.57,-14.18z"/>
    <path class="fil3" d="M11039.42 6544.02c0,102.2 -320.67,833.98 -767.68,913.66 -145.99,25.44 -320.28,-763.12 -320.28,-763.12l-26.28 -55.45 -366.09 -773.93 938.21 -943.27c0,0 542.12,1579.15 542.12,1622.1z"/>
    <path class="fil7" d="M9559.1 5865.19l366.09 773.5 26.28 55.88c0,0 31.68,142.6 79.23,304.85 583.77,-225.61 756.43,-741.01 806.47,-1080.47 -153.86,-458.66 -339.42,-996.63 -339.42,-996.63l-938.65 942.88z"/>
    <path class="fil3" d="M8065.43 4643.36c193.47,1824.35 1307.67,1914.84 1701.32,1872.75 356.92,-38.38 1567.91,-213.51 1564.59,-2048.28 -3.38,-1834.77 -913.23,-2321.4 -1734.32,-2277.22 -821.03,44.23 -1726.77,628.45 -1531.59,2452.76z"/>
    <path class="fil4" d="M8530.79 4917.36c-201.03,30.4 -125.11,430.75 60.89,402.39 185.95,-28.36 107.99,-427.82 -60.89,-402.39z"/>
    <path class="fil4" d="M9461.12 4784.32c200.12,-37.93 261.41,364.85 76.3,399.91 -185.15,35.01 -243.56,-369.06 -76.3,-399.91z"/>
    <path class="fil4" d="M8354.41 4688.42c39.96,-13.83 79.19,-29.7 117.56,-47.55 43.69,-10.96 82.57,-36 110.53,-71.3 6.65,-12.8 8.87,-27.43 6.3,-41.6 -2.58,-14.23 -9.77,-27.12 -20.48,-36.8 -47.94,-38.77 -108.44,-29.59 -163.49,-9.16 -56.12,18.39 -103.34,57.27 -132.2,108.84 -5.89,12.1 -8.18,25.63 -6.59,39.02 1.64,13.4 7.1,25.98 15.77,36.31 8.63,10.36 20.13,17.95 32.97,21.91 12.89,3.92 26.63,4.07 39.62,0.35z"/>
    <path class="fil4" d="M9592.02 4529.11c-41.7,2.53 -83.4,-2.47 -125.1,-4.17 -44.77,4.77 -89.95,-5.3 -128.42,-28.76 -10.56,-9.77 -17.65,-22.7 -20.13,-36.89 -2.53,-14.13 -0.25,-28.76 6.4,-41.5 17.01,-23.25 39.91,-41.6 66.39,-53.01 26.48,-11.45 55.48,-15.62 84.14,-12.04 59.11,-1.99 116.82,18.24 161.76,56.73 9.81,9.42 16.6,21.51 19.58,34.81 3.03,13.23 2.03,27.07 -2.72,39.81 -4.81,12.74 -13.19,23.75 -24.2,31.78 -11,7.99 -24.09,12.6 -37.69,13.24z"/>
    <path class="fil4" d="M9607.04 5883.09c-22.51,35.46 -41.7,83.41 -83.4,95.9 -45.47,9.82 -92.53,9.82 -138.05,0 -0.84,-0.05 -1.74,0.2 -2.53,0.65 -0.74,0.45 -1.39,1.09 -1.79,1.88 -0.39,0.8 -0.54,1.68 -0.44,2.58 0.1,0.9 0.44,1.74 1.04,2.43 23.01,19.84 51.07,33.03 81.03,38.08 30,5.06 60.79,1.84 89.11,-9.32 23.2,-12.35 42.19,-31.29 54.58,-54.5 12.4,-23.16 17.61,-49.49 15.03,-75.61 0,-6.65 -11.65,-7.1 -14.58,-2.09z"/>
    <path class="fil4" d="M9012.41 5531.98c0,0 7.94,188.08 23.76,274.8 0,7.94 22.96,8.33 52.95,4.62 0,0 2.08,0 3.37,0 76.76,-0.05 152.08,-21.17 217.68,-61.14 65.6,-39.92 118.95,-97.09 154.26,-165.31 4.17,-9.57 -8.32,-16.26 -15.42,-9.57 -98.82,104.67 -221,148.85 -356.13,175.97 -10.41,-22.96 -3.76,-326.13 -16.66,-321.51 -55.88,20.43 -152.63,64.22 -188.53,80.48 -7.88,-122.18 -13.34,-470.38 -28.31,-692.62 0,-13.78 -22.56,-14.62 -23.35,0 -25.39,260.48 -33.32,522.39 -23.81,783.96 0.85,18.73 168.05,-48.8 200.18,-69.67z"/>
    <path class="fil8" d="M11551.05 4559.55c-511.22,189.76 -966.18,-353.2 -990.76,-889.87 0,0 -1334.36,590.87 -1727.62,-504.53 -53.3,179.85 -150.24,343.72 -282.09,477.11 -131.9,133.43 -294.69,232.21 -473.89,287.64l-34.61 458.67c-154.71,0 -424.95,-359.84 -169.29,-779.35 0,0 -138.89,-562.94 173.01,-1016.2 82.46,-128.48 200.27,-230.43 339.32,-293.51 138.99,-63.12 293.24,-84.69 444.24,-62.23 190.55,-245.59 469.12,-407.54 776.85,-451.58 530.82,-83.4 875.68,320.67 875.68,320.67 0,0 726.44,-70.07 986.61,384.05 260.23,454.1 103.83,855.65 103.83,855.65 0,0 228.54,141.37 263.16,583.82 23.75,284.78 -130.96,572.52 -284.43,629.64z"/>
    <path class="fil4" d="M8834.36 3057.1c16.11,93.47 41.84,185.01 76.71,273.16 32.03,88.32 74.92,172.37 127.63,250.17 102.35,153.76 259.05,263.1 438.69,306.09 178.01,52.11 367.32,12.94 549.55,-21.27 89.25,-29.16 180.98,-52.12 269,-86.33 87.97,-34.16 174.69,-73.38 264.35,-107.56 -83.41,47.51 -166.81,91.3 -250.21,137.61 -83.36,46.26 -178.47,70.06 -268.11,105.91 -185.55,46.27 -383.65,87.58 -579.21,36.7 -194.68,-49.19 -362.27,-172.86 -466.6,-344.42 -99.02,-166.96 -154.6,-356.08 -161.79,-550.06z"/>
    <path class="fil4" d="M10483.57 2106.4c176.77,-50.19 362.03,-63.52 544.16,-39.22 188.77,21.82 363.75,109.53 494.16,247.68 59.9,72.58 107.9,154.2 142.17,241.88 36.99,85.98 59,177.66 65.05,271.03 14.53,186.05 -40.76,370.85 -155.1,518.32 89.64,-155.35 126.09,-335.74 103.83,-513.71 -22.01,-174.44 -93.67,-338.87 -206.43,-473.75 -57.16,-64.91 -126.09,-118.5 -203.05,-158.03 -79.53,-38.23 -163.63,-66.25 -250.21,-83.4 -176.52,-31.84 -356.91,-35.51 -534.58,-10.82z"/>
    <path class="fil4" d="M8829.35 2237.31c-145.05,-9.08 -290.57,5.01 -431.15,41.7 -137.3,34.67 -263.41,104.04 -366.14,201.42 -99.07,101.5 -170.82,226.46 -208.51,363.21 -39.08,139.98 -57.32,285.02 -54.2,430.31 -28.85,-146.48 -27.42,-297.32 4.17,-443.24 27.67,-151.14 101.3,-290.03 210.89,-397.74 109.53,-107.7 249.66,-178.95 401.25,-203.99 146.76,-29.3 298.15,-26.48 443.69,8.33z"/>
    <path class="fil4" d="M8307.7 3911.12c136.95,-96 256.8,-214.42 354.44,-350.28 47.4,-66.74 85.43,-139.73 113,-216.84 27.27,-79.43 45.71,-161.69 55.04,-245.2 16.31,85.88 14.48,174.25 -5.4,259.38 -19.5,86.72 -56.04,168.65 -107.61,241.04 -50.37,72.09 -111.71,135.81 -181.83,188.87 -68.53,53.35 -145.48,94.96 -227.65,123.02z"/>
    <path class="fil9" d="M10224.19 5009.89c1.68,3.52 4.01,6.59 6.89,9.18 2.88,2.57 6.19,4.56 9.86,5.85 3.62,1.28 7.49,1.83 11.36,1.63 3.81,-0.24 7.58,-1.19 11.1,-2.88 3.47,-1.68 6.59,-4.01 9.12,-6.89 2.58,-2.88 4.56,-6.2 5.85,-9.86 1.29,-3.62 1.84,-7.49 1.64,-11.35 -0.25,-3.83 -1.19,-7.6 -2.88,-11.07 -3.37,-7.04 -9.37,-12.45 -16.77,-15.03 -7.34,-2.57 -15.42,-2.12 -22.41,1.25 -7.04,3.37 -12.45,9.42 -15.03,16.75 -2.57,7.34 -2.13,15.42 1.25,22.42z"/>
    <path class="fil9" d="M9653.31 5251.77c2.87,5.01 7.09,9.02 12.14,11.66 5.11,2.62 10.87,3.76 16.57,3.17 5.7,-0.55 11.1,-2.78 15.56,-6.35 4.47,-3.57 7.79,-8.38 9.62,-13.83 1.78,-5.45 1.94,-11.25 0.5,-16.81 -1.5,-5.56 -4.52,-10.55 -8.74,-14.37 -4.25,-3.87 -9.51,-6.41 -15.17,-7.29 -5.65,-0.94 -11.45,-0.2 -16.71,2.13 -3.72,1.74 -7.09,4.21 -9.82,7.28 -2.77,3.08 -4.86,6.65 -6.15,10.56 -1.29,3.92 -1.74,8.04 -1.39,12.15 0.39,4.11 1.59,8.08 3.58,11.7z"/>
    <path class="fil9" d="M9943.99 5353.13c1.68,3.76 4.11,7.13 7.19,9.92 3.07,2.78 6.69,4.9 10.61,6.19 3.92,1.29 8.08,1.74 12.2,1.35 4.11,-0.4 8.08,-1.68 11.7,-3.72 3.41,-1.89 6.44,-4.42 8.92,-7.49 2.43,-3.02 4.21,-6.54 5.25,-10.37 1.09,-3.76 1.35,-7.68 0.85,-11.6 -0.5,-3.86 -1.79,-7.63 -3.77,-11 -1.68,-3.47 -4.07,-6.65 -6.99,-9.23 -2.89,-2.57 -6.3,-4.56 -9.97,-5.85 -3.66,-1.28 -7.59,-1.83 -11.45,-1.59 -3.93,0.21 -7.69,1.19 -11.21,2.93 -3.62,1.68 -6.84,4.07 -9.53,7.04 -2.62,2.97 -4.66,6.5 -5.89,10.26 -1.29,3.82 -1.74,7.83 -1.39,11.8 0.39,3.97 1.53,7.84 3.48,11.36z"/>
    <path class="fil9" d="M10103.25 4796.82c1.68,3.52 4.07,6.64 6.99,9.27 2.93,2.58 6.3,4.56 9.96,5.85 3.67,1.28 7.59,1.78 11.46,1.59 3.92,-0.25 7.73,-1.25 11.21,-2.93 5.25,-2.58 9.67,-6.65 12.59,-11.7 2.97,-5.05 4.36,-10.86 4.01,-16.71 -0.34,-5.8 -2.43,-11.4 -5.94,-16.12 -3.53,-4.66 -8.39,-8.17 -13.89,-10.06 -5.5,-1.94 -11.5,-2.18 -17.16,-0.69 -5.65,1.49 -10.76,4.56 -14.68,8.97 -3.87,4.36 -6.4,9.78 -7.19,15.57 -0.85,5.81 0.1,11.7 2.62,16.96z"/>
    <path class="fil9" d="M9913.53 5073.31c2.48,5.3 6.45,9.77 11.46,12.84 5.01,3.03 10.8,4.52 16.71,4.27 5.85,-0.25 11.5,-2.23 16.22,-5.7 4.76,-3.48 8.32,-8.29 10.3,-13.79 1.99,-5.5 2.34,-11.5 0.9,-17.2 -1.39,-5.71 -4.46,-10.86 -8.83,-14.77 -4.31,-3.97 -9.77,-6.55 -15.57,-7.39 -5.8,-0.84 -11.7,0.05 -17.01,2.53 -3.52,1.64 -6.69,3.93 -9.32,6.8 -2.64,2.82 -4.67,6.19 -6,9.81 -1.33,3.67 -1.88,7.54 -1.68,11.41 0.2,3.92 1.14,7.69 2.82,11.21z"/>
    <path class="fil9" d="M8353.96 5346.43c3.42,7.09 9.53,12.49 16.96,15.07 7.44,2.58 15.57,2.13 22.66,-1.29 7.1,-3.47 12.5,-9.57 15.07,-16.96 2.58,-7.44 2.13,-15.62 -1.28,-22.66 -3.48,-7.09 -9.58,-12.54 -16.96,-15.11 -7.44,-2.58 -15.62,-2.09 -22.66,1.33 -7.1,3.42 -12.54,9.51 -15.12,16.96 -2.58,7.44 -2.09,15.56 1.33,22.66z"/>
    <path class="fil9" d="M8635.01 5398.15c1.7,3.47 3.97,6.59 6.85,9.22 2.88,2.58 6.26,4.56 9.88,5.85 3.66,1.29 7.54,1.84 11.4,1.59 3.87,-0.25 7.64,-1.19 11.11,-2.93 3.77,-1.63 7.14,-4.11 9.92,-7.19 2.82,-3.02 4.91,-6.64 6.19,-10.61 1.3,-3.92 1.79,-8.08 1.35,-12.2 -0.39,-4.11 -1.68,-8.08 -3.72,-11.7 -1.64,-3.47 -3.97,-6.59 -6.85,-9.16 -2.88,-2.64 -6.2,-4.62 -9.86,-5.91 -3.67,-1.24 -7.49,-1.78 -11.35,-1.59 -3.87,0.25 -7.64,1.24 -11.11,2.92 -3.77,1.74 -7.1,4.22 -9.82,7.24 -2.78,3.07 -4.86,6.69 -6.15,10.62 -1.29,3.92 -1.74,8.03 -1.39,12.14 0.39,4.12 1.59,8.09 3.57,11.71z"/>
    <path class="fil9" d="M8665.91 5599.11c3.48,7.04 9.57,12.4 17.01,14.98 7.39,2.53 15.47,2.12 22.56,-1.19 5.16,-2.58 9.38,-6.65 12.25,-11.6 2.83,-4.97 4.12,-10.71 3.77,-16.42 -0.4,-5.7 -2.43,-11.21 -5.91,-15.77 -3.51,-4.56 -8.22,-7.98 -13.63,-9.86 -5.46,-1.88 -11.31,-2.13 -16.86,-0.7 -5.56,1.44 -10.56,4.47 -14.38,8.68 -3.87,4.27 -6.34,9.57 -7.24,15.22 -0.84,5.65 0,11.45 2.43,16.66z"/>
    <path class="fil9" d="M8426.11 5564.11c2.58,5.26 6.65,9.62 11.66,12.6 5.05,2.97 10.86,4.36 16.71,4.01 5.85,-0.35 11.45,-2.43 16.11,-5.95 4.67,-3.52 8.18,-8.38 10.12,-13.89 1.94,-5.54 2.19,-11.49 0.7,-17.2 -1.49,-5.65 -4.62,-10.76 -8.98,-14.62 -4.36,-3.93 -9.77,-6.4 -15.57,-7.24 -5.8,-0.8 -11.7,0.14 -16.95,2.67 -7.04,3.53 -12.4,9.62 -14.97,17.02 -2.58,7.38 -2.13,15.52 1.18,22.61z"/>
    <path class="fil10" d="M9922.71 5439.01c114.8,-34.86 217.53,-101.26 296.43,-191.6 78.95,-90.34 130.96,-201.07 150.04,-319.53 19.14,-118.41 4.62,-239.84 -41.85,-350.47 -46.51,-110.62 -123.07,-205.93 -221.1,-275.14 -97.98,-69.23 -213.42,-109.54 -333.21,-116.38 -119.81,-6.84 -239.11,20.09 -344.33,77.7 -105.22,57.62 -192.19,143.6 -250.95,248.18 -58.8,104.63 -87.02,223.58 -81.52,343.48 8.04,169.24 82.66,328.46 207.71,442.85 125.01,114.35 290.18,174.64 459.52,167.6 53.99,-2.23 107.5,-11.21 159.26,-26.67zm-347.79 -1144.24c44.14,-13.54 89.85,-21.37 135.96,-23.35 141.08,-6.45 279.28,41.15 386.53,133.08 107.21,91.89 175.34,221.25 190.55,361.63 15.18,140.43 -23.7,281.3 -108.78,394.06 -85.04,112.71 -209.9,188.77 -349.08,212.67 -139.14,23.91 -282.24,-6.15 -400.01,-84 -117.82,-77.89 -201.51,-197.74 -234.05,-335.14 -32.52,-137.46 -11.45,-282.1 58.96,-404.53 70.41,-122.42 184.81,-213.41 319.93,-254.42z"/>
    <path class="fil10" d="M8527.02 5675.43c234.79,-71.3 375.32,-375.26 315.27,-705.11 -25.59,-157.83 -99.97,-303.65 -212.68,-417.01 -46.75,-49.79 -104.82,-87.52 -169.28,-110.03 -64.51,-22.52 -133.43,-29.11 -201.02,-19.24 -128.43,22.96 -235.18,112.16 -301.88,250.21 -66.1,145.39 -84.94,307.86 -53.8,464.51 62.52,347.79 323.98,592.95 583.76,546.28 13.4,-2.38 26.63,-5.6 39.62,-9.62zm-283.98 -1159.21c10.23,-3.37 20.68,-5.85 31.3,-7.54 54.24,-7.38 109.48,-1.54 161.05,16.96 51.52,18.49 97.84,49.19 135.03,89.4 99.56,100.85 165.17,230.33 187.63,370.26 54.19,301.48 -73.79,577.57 -286.9,615.9 -213.08,38.38 -429.07,-175.99 -483.27,-477.01 -28.02,-138.99 -11.66,-283.24 46.66,-412.4 19.18,-45.37 47.65,-86.18 83.55,-119.85 35.95,-33.72 78.49,-59.5 124.95,-75.72z"/>
    <path class="fil10" d="M9124.18 4925.25l35.86 -62.97c-92.59,-52.96 -295.64,-110.48 -400.31,51.72l60.44 39.22c92.57,-145.53 295.67,-32.97 304,-27.96z"/>
    <path class="fil10" d="M11714.93 4600.86l57.13 -41.7c-20.44,-26.68 -205.14,-260.62 -368.63,-258.15 -152.63,3.32 -1089.15,263.95 -1128.77,275.25l19.14 69.23c268.56,-75.08 992.91,-270.24 1110.92,-271.93 107.99,-4.17 260.18,163.08 310.21,227.3z"/>
    <path class="fil3" d="M11002.28 4672.56c0,0 283.59,-638.41 565.87,-547.91 282.3,90.49 145.54,962.86 -132.19,1132.53 -34.07,24.3 -72.69,41.4 -113.56,50.38 -40.86,8.92 -83.09,9.53 -124.16,1.73 -41.11,-7.78 -80.17,-23.8 -114.94,-47.1 -34.76,-23.25 -64.41,-53.36 -87.27,-88.41l6.24 -501.22z"/>
    <path class="fil4" d="M11522.74 4374.01c4.97,0 7.1,5 3.32,7.48 -193.48,125.11 -266.02,341.94 -304.41,559.18 47.55,-90.05 125.11,-149.26 242.67,-95.06 6.24,2.93 2.53,12.5 -3.32,12.5 -39.22,-4.62 -78.89,3.07 -113.55,21.96 -34.66,18.9 -62.58,48.11 -79.93,83.55 -28.81,59.41 -51.07,121.73 -66.3,186 -6.24,20.43 -41.7,17.05 -39.22,-5.85 -0.2,-1.78 -0.2,-3.62 0,-5.41 -56.68,-266.47 78.84,-681.8 360.73,-764.35z"/>
    <polygon class="fil10" points="3322.11,12571.7 8353.96,12571.7 8353.96,12797.27 3322.11,12797.27 "/>
    <polygon class="fil11" points="5821.58,12571.7 8353.96,12571.7 8353.96,12797.27 5821.58,12797.27 "/>
    <polygon class="fil12" points="5880.38,12796.88 976.5,12796.88 283.46,9466.36 5187.32,9466.36 "/>
    <path class="fil13" d="M3462.24 11206.01c5.46,41.26 1.94,83.21 -10.31,122.98 -12.19,39.82 -32.93,76.47 -60.64,107.5 -27.67,31.04 -61.79,55.73 -99.91,72.4 -38.13,16.66 -79.44,24.84 -121.04,24.05 -89.46,-1.94 -175.19,-36.06 -241.53,-96.1 -66.35,-60.05 -108.79,-142.02 -119.61,-230.83 -5.46,-41.25 -1.98,-83.2 10.27,-122.97 12.25,-39.76 32.92,-76.41 60.64,-107.46 27.72,-31.04 61.83,-55.73 99.97,-72.39 38.13,-16.67 79.44,-24.89 121.03,-24.1 89.41,2.03 175.14,36.2 241.44,96.25 66.3,60 108.79,141.91 119.7,230.67z"/>
    <g>
     <g>
      <path class="fil14" d="M-0 8717.66c0,0 68.76,-99.18 192.01,-158.76 99.98,-48.34 401.08,-155.82 479.17,-197.35 142.73,-75.93 236.23,-177.72 236.23,-177.72l390.59 239.61c0,0 -79.57,97.47 -186.64,175.62 -108.43,79.12 -397.08,119.34 -539.72,234.08 -92.35,74.29 -198.17,269.27 -198.17,269.27l-373.46 -384.75z"/>
      <path class="fil15" d="M77.08 8714.43l276.83 296.36c22.44,-38.21 88.22,-145.11 150.22,-196.41 98.6,-81.62 208.8,-114.33 315.38,-145.97 73.37,-21.77 142.66,-42.33 206.83,-77.66 111.53,-61.4 181.62,-132.25 205.18,-158.12l-317.85 -191.88c-26.1,22.71 -124.13,106.25 -195.64,144.14 -56.61,30 -159.09,71.57 -258.21,111.77 -74.45,30.21 -144.78,58.73 -192.95,81.15 -77.56,36.1 -126.39,73.26 -153.71,98.09 -18.76,17.04 -30.21,30.75 -36.08,38.53zm281.43 335.38l-310.85 -332.78 4.48 -7.51c1.95,-3.25 49.29,-80.37 204.9,-152.8 48.7,-22.67 119.29,-51.3 194.03,-81.61 98.57,-39.98 200.5,-81.33 256.06,-110.77 78.98,-41.85 196.36,-145.59 197.54,-146.64l6.41 -5.68 355.79 214.78 -8.42 10.38c-0.79,0.98 -19.78,24.28 -56.63,57.49 -33.83,30.5 -89.8,75.47 -164.27,116.47 -66.36,36.53 -136.82,57.45 -211.42,79.58 -104.34,30.97 -212.23,62.99 -307.16,141.57 -71.33,59.06 -151.87,202.17 -152.67,203.61l-7.79 13.91z"/>
      <path class="fil15" d="M519.39 8459.68c-49.28,24.17 -81.4,84.97 -12.75,165.9 68.65,80.93 199.77,97.49 257.15,77.58 57.37,-19.9 73.95,-123.09 18.01,-178.94 -55.94,-55.84 -150.62,-119.36 -262.41,-64.55z"/>
      <path class="fil15" d="M371.27 8714.02c11.98,15.1 13.01,34.23 2.3,42.72 -10.71,8.49 -29.09,3.13 -41.07,-11.98 -11.98,-15.1 -13,-34.23 -2.3,-42.73 10.71,-8.48 29.09,-3.12 41.07,11.99z"/>
      <path class="fil15" d="M988.64 8391.52c14.11,13.12 18,31.88 8.68,41.89 -9.31,10 -28.29,7.45 -42.4,-5.68 -14.11,-13.13 -18,-31.9 -8.68,-41.9 9.31,-10 28.29,-7.46 42.4,5.69z"/>
      <path class="fil14" d="M713.34 8659.82l28.17 -13.23 -13.8 -14.16c39.11,-20.83 40.38,-50.34 18.17,-74.92 -29.83,-33.01 -79.79,-21.05 -99.34,-12.77 -19.55,8.28 -37.26,13.54 -50.4,5.56 -10.85,-6.58 -3.86,-25.94 12.84,-35.87 24.61,-14.63 33.24,-3.35 33.24,-3.35l31.68 -12.6c0,0 -31.93,-30.32 -73.03,-10.49l-13.24 -10.31 -20.14 10.17 11.73 11.14c-24.29,15.94 -27.35,49.8 -16.26,65.14 25.63,35.4 70.75,21.5 88.18,11.59 20.86,-11.84 40.18,-14.72 48.62,-7.7 26.68,22.16 12.8,35.29 -10.05,46.62 -30.8,15.28 -44.03,-3.96 -44.03,-3.96l-44.47 22.46c0,0 14.98,42.06 100.27,12.04l11.88 14.64z"/>
      <path class="fil15" d="M94.46 8675.79c43.68,-3.39 73.23,65.91 27.6,83.66 -17.85,6.94 -38.28,-6.85 -49.1,-22.05 -17.38,-24.39 5.19,-34.31 9.48,-49.58l12.02 -12.03z"/>
      <path class="fil15" d="M351.14 8936.28c-26.36,0.27 -35.31,21.56 -27.91,46.3l39.55 43.87 23.27 -48.74c22.67,-5.61 -16.47,-41.61 -34.91,-41.43z"/>
      <path class="fil15" d="M1208.53 8409.31l-4 2c-52.41,-2.15 -43.39,54.87 4,52.09 13.4,-0.79 38.18,-10.27 40.17,-27.95 2.1,-18.58 -25.69,-26 -40.17,-26.14z"/>
      <path class="fil15" d="M921.45 8235.47c-14.35,-4.2 -20.52,2.8 -29.51,17.54l-6.01 0c-0.67,20.76 5.07,34.88 28.05,36.11 14.67,0.8 35.02,-7.86 35.62,-24.53 0.47,-12.85 -15.67,-25.46 -28.15,-29.12z"/>
     </g>
     <g>
      <path class="fil14" d="M2768.36 8018.58c0,0 120.4,-8.46 244,50.36 100.28,47.73 372.57,215.28 453.84,250.18 148.56,63.78 286.46,72.99 286.46,72.99l57.61 454.6c0,0 -125.83,-1.04 -253.77,-35.64 -129.59,-35.03 -341.62,-234.98 -520.39,-274.4 -115.75,-25.51 -334.05,13.99 -334.05,13.99l66.3 -532.07z"/>
      <path class="fil15" d="M2819.12 8076.66l-57.85 401.4c43.85,-6.41 168.38,-22.03 247.21,-5.8 125.37,25.81 219.86,91.3 311.23,154.62 62.89,43.58 122.31,84.74 190.02,112.68 117.7,48.56 216.82,58.88 251.75,61.07l-49.31 -367.99c-34.06,-6.15 -160.55,-30.3 -234.88,-62.36 -58.81,-25.37 -155.39,-79.28 -248.78,-131.41 -70.16,-39.17 -136.43,-76.17 -184.06,-99.71 -76.7,-37.88 -136.25,-52.71 -172.7,-58.48 -25.03,-3.96 -42.89,-4.31 -52.64,-4.02zm-85.4 429.41l64.96 -450.71 8.67 -1.2c3.74,-0.52 93.53,-11.87 247.41,64.16 48.16,23.78 114.68,60.91 185.1,100.23 92.88,51.85 188.92,105.46 246.65,130.36 82.09,35.41 236.46,62.02 238.02,62.28l8.43 1.44 55.19 411.9 -13.36 -0.07c-1.25,0 -31.31,-0.23 -80.28,-8.18 -44.96,-7.29 -115.06,-22.79 -193.66,-55.21 -70.01,-28.89 -130.44,-70.76 -194.39,-115.07 -89.46,-62 -181.96,-126.09 -302.68,-150.95 -90.68,-18.67 -252.71,8.1 -254.33,8.39l-15.73 2.62z"/>
      <path class="fil15" d="M3294.65 8262.18c-49.68,-23.31 -117.21,-10.3 -137.36,93.89 -20.14,104.2 49.02,216.82 100.45,249.12 51.43,32.28 142.28,-19.37 150.82,-97.94 8.55,-78.59 -1.19,-192.18 -113.91,-245.06z"/>
      <path class="fil15" d="M3003.6 8305.85c-4.29,18.8 -18.56,31.57 -31.88,28.53 -13.33,-3.04 -20.66,-20.74 -16.37,-39.53 4.29,-18.8 18.56,-31.56 31.88,-28.52 13.32,3.03 20.65,20.72 16.37,39.52z"/>
      <path class="fil15" d="M3641.53 8585.47c-1.41,19.23 -13.6,33.99 -27.23,32.98 -13.63,-1 -23.52,-17.39 -22.11,-36.61 1.41,-19.23 13.6,-33.99 27.23,-32.99 13.63,1.01 23.52,17.39 22.11,36.63z"/>
      <path class="fil14" d="M3259.97 8538.69l27.94 13.69 2.42 -19.63c40.72,17.47 64.52,0 69.79,-32.72 7.08,-43.93 -33.52,-75.41 -52.22,-85.48 -18.7,-10.07 -33.88,-20.58 -35.88,-35.83 -1.65,-12.59 17.82,-19.25 36.01,-12.45 26.82,10.04 23.43,23.82 23.43,23.82l29.65 16.83c0,0 3.64,-43.89 -37.53,-63.53l-0.25 -16.78 -20.55 -9.34 -1.33 16.12c-27.64,-8.97 -55.97,9.83 -60.98,28.08 -11.57,42.16 27.52,68.65 46.15,76.04 22.29,8.85 36.64,22.11 36.45,33.1 -0.58,34.67 -19.52,32.04 -42.66,21.33 -31.19,-14.45 -24.48,-36.8 -24.48,-36.8l-45.34 -20.63c0,0 -23.43,38.01 53.37,85.74l-3.98 18.42z"/>
      <path class="fil15" d="M2860.13 8066.05c29.98,31.93 -5.57,98.36 -47.97,73.9 -16.59,-9.58 -18.61,-34.14 -13.54,-52.1 8.15,-28.83 30,-17.43 44.61,-23.65l16.9 1.86z"/>
      <path class="fil15" d="M2817.65 8429.27c-16.71,-20.39 -38.91,-14.05 -53.58,7.22l-9.46 58.3 52.57 -12.37c18.58,14.17 22.16,-38.89 10.47,-53.15z"/>
      <path class="fil15" d="M3765.29 8768.09l-4.07 -1.88c-31.12,-42.21 -69.96,0.51 -38.12,35.74 9,9.96 31.91,23.35 46.94,13.82 15.81,-9.98 4.2,-36.3 -4.75,-47.68z"/>
      <path class="fil15" d="M3721.17 8435.39c-5.71,-13.82 -15.04,-14.25 -32.15,-12.04l-3.76 -4.68c-16.6,12.48 -24.03,25.79 -10.6,44.48 8.55,11.93 28.04,22.39 41.43,12.42 10.3,-7.68 10.04,-28.15 5.09,-40.18z"/>
     </g>
     <g>
      <path class="fil14" d="M1597.3 8267.9c0,0 41.55,-113.32 145.79,-202.02 84.58,-71.97 348.88,-251.87 413.97,-311.75 118.99,-109.45 183.82,-231.52 183.82,-231.52l438.38 133.44c0,0 -52.44,114.38 -136.36,216.99 -84.99,103.9 -354.18,215.56 -463.3,362.55 -70.64,95.17 -123.93,310.53 -123.93,310.53l-458.36 -278.22z"/>
      <path class="fil15" d="M1671.06 8245.36l342.59 217.02c12.1,-42.63 48.81,-162.65 95.88,-227.93 74.85,-103.84 173.25,-163.26 268.42,-220.73 65.5,-39.56 127.38,-76.93 180.57,-127.28 92.47,-87.52 142.43,-173.75 158.73,-204.73l-355.95 -105.58c-19.55,28.55 -93.34,134.09 -153.01,188.79 -47.21,43.3 -135.92,109.35 -221.7,173.23 -64.45,47.99 -125.32,93.32 -166.28,127.16 -65.95,54.47 -103.84,102.76 -124.03,133.65 -13.85,21.23 -21.47,37.38 -25.21,46.39zm356.88 253.62l-384.68 -243.69 2.45 -8.4c1.06,-3.64 27.44,-90.2 159.78,-199.52 41.4,-34.2 102.5,-79.7 167.19,-127.88 85.31,-63.53 173.54,-129.22 219.88,-171.71 65.89,-60.41 153.33,-190.39 154.21,-191.7l4.77 -7.11 398.43 118.19 -5.53 12.16c-0.51,1.15 -13.03,28.48 -40.31,69.9 -25.04,38.05 -67.88,95.66 -129.62,154.12 -55.01,52.07 -117.92,90.05 -184.54,130.28 -93.17,56.27 -189.5,114.44 -261.58,214.42 -54.13,75.12 -96.01,233.91 -96.42,235.51l-4.02 15.42z"/>
      <path class="fil15" d="M2034.91 7887.35c-41.59,35.81 -57.36,102.75 29.47,163.76 86.82,61.01 217.88,44 268.41,10.27 50.5,-33.72 40.54,-137.74 -27.66,-177.69 -68.21,-39.95 -175.85,-77.55 -270.22,3.66z"/>
      <path class="fil15" d="M1955.68 8170.8c15.4,11.59 21.21,29.84 12.98,40.76 -8.22,10.91 -27.36,10.36 -42.76,-1.25 -15.4,-11.6 -21.22,-29.84 -12.99,-40.76 8.22,-10.91 27.37,-10.36 42.77,1.25z"/>
      <path class="fil15" d="M2471.84 7703.13c16.96,9.14 25.45,26.31 18.95,38.34 -6.49,12.03 -25.5,14.35 -42.45,5.19 -16.97,-9.16 -25.46,-26.33 -18.97,-38.34 6.49,-12.03 25.5,-14.36 42.48,-5.19z"/>
      <path class="fil14" d="M2273.03 8032.14l23.92 -19.9 -16.92 -10.23c32.59,-30.01 26.39,-58.89 -1.3,-77.08 -37.19,-24.43 -82.52,-0.27 -99.37,12.68 -16.83,12.94 -32.63,22.48 -47.38,18.08 -12.15,-3.64 -10.27,-24.14 3.39,-37.95 20.12,-20.36 31.32,-11.63 31.32,-11.63l27.48 -20.18c0,0 -38.55,-21.28 -73.32,8.26l-15.42 -6.64 -16.93 14.93 14.16 7.82c-19.49,21.54 -13.92,55.09 0.68,67.13 33.73,27.81 73.88,2.99 88.27,-10.99 17.18,-16.72 35.16,-24.37 45.11,-19.71 31.4,14.71 21.26,30.93 2.01,47.65 -25.95,22.55 -43.6,7.26 -43.6,7.26l-37.37 32.95c0,0 25.11,36.92 100.07,-13.62l15.19 11.17z"/>
      <path class="fil15" d="M1678.15 8203.58c41.42,-14.28 87.48,45.33 47.8,74.01 -15.52,11.21 -38.76,3.02 -53.06,-8.96 -22.98,-19.24 -3.63,-34.51 -3.34,-50.37l8.6 -14.68z"/>
      <path class="fil15" d="M1992.2 8390.97c-25.45,6.91 -28.75,29.76 -15.34,51.84l49.33 32.49 10.23 -53.03c20.53,-11.15 -26.42,-36.13 -44.22,-31.3z"/>
      <path class="fil15" d="M2689.1 7664.93l-3.37 2.94c-51.26,11.13 -28.16,64.03 17.01,49.41 12.77,-4.13 34.36,-19.56 31.82,-37.17 -2.65,-18.51 -31.4,-18.69 -45.46,-15.18z"/>
      <path class="fil15" d="M2367.49 7569.05c-14.95,-0.45 -19.15,7.88 -24.14,24.41l-5.82 1.51c4.59,20.26 13.7,32.47 36.24,27.89 14.39,-2.94 31.91,-16.43 28.29,-32.73 -2.8,-12.54 -21.58,-20.68 -34.58,-21.07z"/>
     </g>
    </g>
   </g>
  </g>
 </g>
</svg>
