<?xml version="1.0" encoding="UTF-8"?>
<!DOCTYPE svg PUBLIC "-//W3C//DTD SVG 1.1//EN" "http://www.w3.org/Graphics/SVG/1.1/DTD/svg11.dtd">
<!-- Creator: CorelDRAW -->
<svg xmlns="http://www.w3.org/2000/svg" xml:space="preserve" width="9.3328mm" height="9.3328mm" version="1.1" style="shape-rendering:geometricPrecision; text-rendering:geometricPrecision; image-rendering:optimizeQuality; fill-rule:evenodd; clip-rule:evenodd"
viewBox="0 0 133.19 133.19"
 xmlns:xlink="http://www.w3.org/1999/xlink"
 xmlns:xodm="http://www.corel.com/coreldraw/odm/2003">
 <defs>
  <style type="text/css">
   <![CDATA[
    .fil2 {fill:#BF8567}
    .fil0 {fill:#E4A788}
    .fil1 {fill:white}
   ]]>
  </style>
 </defs>
 <g id="Layer_x0020_1">
  <metadata id="CorelCorpID_0Corel-Layer"/>
  <g id="_105553197774240">
   <path class="fil0" d="M39.31 5.71c-0.29,0.37 -0.66,0.39 -1.14,0.63 -0.4,0.2 -0.75,0.4 -1.15,0.59 -0.82,0.38 -1.58,0.79 -2.42,1.19 -0.11,0.24 -0.53,0.37 -0.89,0.55 -0.38,0.18 -0.75,0.4 -1.1,0.64 -0.72,0.5 -1.42,1.05 -2.13,1.19 -0.82,1.01 -2.5,1.69 -3.36,2.45l-1.16 0.87c-1.35,0.85 -3.41,3.02 -4.36,3.5l-4.19 4.3 -5.26 6.61c-0.31,0.56 -1.12,1.92 -1.66,2.27 -0.12,0.61 -0.73,1.46 -1.19,2.13 -0.23,0.34 -0.39,0.58 -0.6,1 -0.15,0.31 -0.34,0.88 -0.6,0.99l-1.77 3.57c-0.26,0.52 -0.28,0.82 -0.63,1.14l-2.03 5.33c-1.51,4.01 -2.97,10.76 -3.36,15.16l-0.16 2.3c-0.01,0.13 -0.02,0.31 -0.04,0.43l-0.09 0.37c-0.01,0.03 -0.02,0.08 -0.04,0.11l0 6.97 0.16 0.65c0.02,0.14 0.04,0.58 0.05,0.73 0.03,0.56 0.04,0.93 0.09,1.44 0.26,2.62 0.66,5.35 1.21,7.9 0.38,1.78 2.11,8.48 2.9,9.39l2.99 -2.95c0.19,-0.21 0.29,-0.31 0.5,-0.51l0.58 -0.58c3.26,-3.45 7.87,-7.88 11.43,-11.44 0.39,-0.39 0.73,-0.82 1.12,-1 0.34,-0.64 11.01,-11.08 12.44,-12.66 0.9,-1 0.53,-0.74 0.82,-0.67 1.28,-1.05 2.43,-3.49 7,-4.23 2.89,-0.47 5.73,0.35 7.97,1.94 0.24,0.17 0.22,0.17 0.4,0.31l0.41 0.29c0.6,-0.36 1.08,-0.59 1.65,-0.93l5.23 -3.02c0.67,-0.39 6.38,-3.59 6.83,-4 -0.01,-0.25 0.5,-0.57 0.85,-0.92 0.38,-0.38 0.63,-0.65 1.01,-1.02 4.13,-4.14 9.26,-9.06 13.17,-13.18 0.27,-0.29 0.66,-0.85 0.92,-0.86 0.44,-0.29 0.3,-0.37 0.65,-0.76 1.67,-1.86 4.06,-3.11 6.7,-3.44 1.72,-0.22 3.54,0.05 5.02,0.62 2.67,1.04 4.9,3.12 5.96,5.74 1.2,2.96 1.19,6.75 -0.6,9.54 -0.43,0.67 -0.79,1.13 -1.21,1.68 -0.58,0.76 -1.03,0.79 -1.52,1.49l-25.47 25.51c-0.45,0.44 -1.44,1.28 -1.7,1.82 0.47,0.37 1.07,0.65 1.64,1 3.54,2.15 7.94,4.48 11.57,6.68 0.66,-0.41 1.28,-1.33 3.3,-2.2 9.86,-4.27 20.11,7.53 11.83,17.18 -0.61,0.71 -1.38,0.91 -1.53,1.31 -0.13,0.66 -1.05,1.34 -1.56,1.82l-11.25 11.21c-0.24,0.27 -0.49,0.62 -0.86,0.76 -0.34,0.54 -0.67,0.79 -1.08,1.19l-1.17 1.15c-0.47,0.47 -1.83,2.05 -2.32,2.18l-9.7 9.77c-0.62,0.63 -1.26,1.3 -1.98,2 -0.36,0.36 -0.64,0.65 -1.01,1.01 -0.35,0.34 -0.84,0.78 -1.1,1.11l2.14 0.15 4.33 0c0.09,-0.04 4.6,-0.36 5.28,-0.43 4.1,-0.45 8.56,-1.47 12.55,-2.65 0.79,-0.24 1.76,-0.65 2.51,-0.78 0.34,-0.37 1.44,-0.67 1.95,-0.68 0.34,-0.36 4.2,-1.94 4.57,-2.07 0.11,-0.13 3.93,-2.14 4.2,-2.21 0.78,-0.73 2.37,-1.51 3.28,-2.07 1.04,-0.64 2.23,-1.5 3.23,-2.3l2.11 -1.61c0.34,-0.3 0.69,-0.68 0.97,-0.91 1.91,-1.52 3.35,-2.93 5.15,-4.7 0.33,-0.32 0.53,-0.7 0.85,-1.03 1.34,-1.37 1.72,-1.97 2.74,-3.06 1.16,-1.26 2.3,-3.16 3.38,-4.42l2.34 -3.75c0.23,-0.37 0.15,-0.32 0.41,-0.6 0.16,-0.58 0.77,-1.57 1.09,-2.11 0.29,-0.49 0.35,-0.59 0.55,-1.05 0.16,-0.39 0.31,-0.8 0.58,-1.05l2.07 -4.57c0.02,-0.58 0.36,-1.49 0.68,-1.95 0.13,-0.72 1.09,-3.32 1.42,-4.75 0.92,-3.99 1.55,-6.05 2.02,-10.32 0.07,-0.69 0.39,-5.34 0.43,-5.42l0 -4.18c-0.03,-0.06 -0.37,-4.84 -0.46,-5.55 -0.23,-1.92 -0.51,-3.65 -0.88,-5.51 -0.37,-1.85 -0.78,-3.28 -1.24,-5.13 -0.4,-1.67 -1.08,-3.39 -1.58,-5.01 -0.32,-0.49 -0.66,-1.37 -0.68,-1.95 -0.49,-0.46 -0.8,-1.49 -1.04,-2.14 -0.27,-0.72 -0.68,-1.52 -1.1,-2.28 -0.39,-0.71 -0.62,-1.44 -1.05,-2.1 -0.31,-0.46 -1.08,-1.76 -1.08,-2.1l-1.22 -1.67c-0.65,-1.21 -3.24,-4.76 -3.35,-5.1 -0.37,-0.2 -2.07,-2.41 -2.5,-2.96l-7.99 -7.79c-0.29,-0.24 -0.2,-0.03 -0.29,-0.29 -1.18,-0.78 -2.12,-1.61 -3.34,-2.47 -0.77,-0.54 -2.88,-1.75 -3.47,-2.45 -0.28,0.01 -2.77,-1.47 -3.4,-1.81 -7.86,-4.26 -14.86,-6.6 -23.85,-7.68l-4.5 -0.5 -7.14 0 -0.35 0.1c-0.12,0.02 -0.3,0.04 -0.42,0.06l-2.31 0.15c-2.89,0.26 -6.78,1 -9.46,1.65 -1.85,0.45 -4.01,1.03 -5.74,1.67 -0.94,0.35 -1.83,0.65 -2.75,1.01 -0.91,0.36 -1.78,1.01 -2.69,1.06z"/>
   <path class="fil1" d="M79.74 34.68c-0.22,0.61 -0.62,1.04 -0.93,1.71 -0.89,1.87 -1.31,4.1 -0.93,6.22 -1.03,0.72 -2.4,1.39 -3.53,2.05 -1.01,0.6 -9.85,5.83 -10.55,5.99 -0.44,0.42 -6.15,3.61 -6.83,4l-5.23 3.02c-0.57,0.34 -1.05,0.57 -1.65,0.93l-0.41 -0.29c-0.18,-0.14 -0.17,-0.15 -0.4,-0.31 -2.25,-1.59 -5.09,-2.41 -7.97,-1.94 -4.58,0.74 -5.72,3.18 -7,4.23 -0.23,0.77 -0.78,1.4 -1.13,2.26 -1.05,2.62 -1.05,5.63 0.08,8.14 2.14,4.75 6.95,6.12 6.95,6.11 0.02,-0.03 0.08,0.04 0.11,0.06 0.75,-0.02 1.75,0.3 2.83,0.28 2.69,-0.05 5.23,-1.2 7.04,-2.87l24.21 13.9c1.08,0.64 2.49,1.52 3.5,2 -0.79,5.11 1.75,8.84 4.62,10.73 2.7,1.78 5.95,2.28 9.16,1.19 1.6,-0.54 1.79,-0.88 2.7,-1.26 0.15,-0.4 0.93,-0.6 1.53,-1.31 8.29,-9.66 -1.97,-21.45 -11.83,-17.18 -2.02,0.87 -2.64,1.79 -3.3,2.2 -3.63,-2.2 -8.03,-4.53 -11.57,-6.68 -0.57,-0.35 -1.17,-0.63 -1.64,-1 -0.68,-0.2 -9.32,-5.3 -10.68,-6.09 -1.14,-0.66 -2.44,-1.5 -3.53,-2.01 0.18,-2.18 0.26,-2.56 -0.09,-4.71 1.49,-0.71 5.13,-2.94 6.87,-3.93l20.5 -11.79c0.44,0.27 0.82,0.69 1.36,1.1 0.49,0.37 0.91,0.66 1.51,0.96 2.59,1.26 5.2,1.57 7.98,0.69 0.6,-0.19 1.2,-0.43 1.75,-0.71 0.53,-0.28 0.97,-0.69 1.51,-0.83 0.49,-0.7 0.94,-0.73 1.52,-1.49 0.42,-0.56 0.79,-1.01 1.21,-1.68 1.78,-2.79 1.8,-6.58 0.6,-9.54 -1.07,-2.62 -3.29,-4.7 -5.96,-5.74 -1.47,-0.57 -3.3,-0.84 -5.02,-0.62 -2.64,0.33 -5.03,1.59 -6.7,3.44 -0.35,0.39 -0.21,0.47 -0.65,0.76z"/>
   <path class="fil2" d="M67.57 76.88c0.27,-0.54 1.26,-1.38 1.7,-1.82l25.47 -25.51c-0.54,0.14 -0.98,0.55 -1.51,0.83 -0.55,0.29 -1.15,0.53 -1.75,0.71 -2.79,0.89 -5.4,0.58 -7.98,-0.69 -0.6,-0.29 -1.02,-0.59 -1.51,-0.96 -0.54,-0.41 -0.92,-0.84 -1.36,-1.1l-20.5 11.79c-1.74,0.99 -5.38,3.22 -6.87,3.93 0.35,2.14 0.28,2.52 0.09,4.71 1.09,0.51 2.4,1.35 3.53,2.01 1.36,0.79 10,5.89 10.68,6.09z"/>
   <path class="fil2" d="M80.71 114.62c0.37,-0.14 0.62,-0.49 0.86,-0.76l11.25 -11.21c0.51,-0.48 1.42,-1.15 1.56,-1.82 -0.91,0.37 -1.1,0.71 -2.7,1.26 -3.21,1.09 -6.46,0.59 -9.15,-1.19 -2.87,-1.89 -5.4,-5.62 -4.62,-10.73 -1.01,-0.48 -2.42,-1.36 -3.5,-2l-24.21 -13.9c-1.81,1.67 -4.36,2.82 -7.04,2.87 -1.08,0.02 -2.08,-0.3 -2.83,-0.28 -0.03,-0.02 -0.09,-0.09 -0.11,-0.06 -0.01,0.01 -4.81,-1.37 -6.95,-6.11 -1.13,-2.51 -1.13,-5.52 -0.08,-8.14 0.34,-0.86 0.9,-1.49 1.13,-2.26 -0.29,-0.06 0.08,-0.33 -0.82,0.67 -1.43,1.58 -12.1,12.02 -12.44,12.66 -0.4,0.17 -0.73,0.61 -1.12,1 -3.56,3.56 -8.17,7.98 -11.43,11.44l-0.58 0.58c-0.22,0.2 -0.31,0.3 -0.5,0.51l-2.99 2.95c0.1,1.6 2.67,6.08 3.28,7.63 0.38,0.58 2.27,3.91 2.34,4.23 0.38,0.25 0.02,-0.11 0.39,0.39 0.14,0.18 0.15,0.24 0.27,0.46l4.16 5.87c0.37,0.19 0.98,1.05 1.28,1.43 1.34,1.66 5.26,5.56 6.86,6.88 0.56,0.46 2.73,2.09 2.95,2.5l3.29 2.26c0.64,0.47 3.05,1.8 3.42,2.28 0.54,0.12 1.52,0.76 2.06,1.08 0.34,0.2 0.66,0.35 1.04,0.55 0.56,0.29 0.82,0.31 1.04,0.64l4.54 2.05 1.94 0.68c1.36,0.38 2.91,0.99 4.34,1.41 1.51,0.44 3.09,0.9 4.61,1.19 3.21,0.62 6.74,1.34 10.12,1.42 0.26,-0.32 0.75,-0.76 1.1,-1.11 0.38,-0.37 0.65,-0.66 1.01,-1.01 0.72,-0.7 1.36,-1.38 1.98,-2l9.7 -9.77c0.48,-0.13 1.84,-1.71 2.32,-2.18l1.17 -1.15c0.41,-0.4 0.74,-0.66 1.08,-1.19zm-19.74 -19.66l0 0.01 0.01 0 -0.01 -0.01 0 -0zm-11.66 -13.75l-0.64 -0.71 0.64 0.71 -0 0z"/>
   <path class="fil2" d="M63.79 50.65c0.7,-0.17 9.53,-5.4 10.55,-5.99 1.12,-0.66 2.5,-1.34 3.53,-2.05 -0.37,-2.12 0.04,-4.35 0.93,-6.22 0.32,-0.67 0.72,-1.1 0.93,-1.71 -0.26,0 -0.65,0.57 -0.92,0.86 -3.91,4.11 -9.04,9.04 -13.17,13.18 -0.37,0.37 -0.63,0.64 -1.01,1.02 -0.35,0.35 -0.85,0.67 -0.85,0.92z"/>
  </g>
 </g>
</svg>
