<svg width="582" height="532" viewBox="0 0 582 532" fill="none" xmlns="http://www.w3.org/2000/svg">
<path d="M137.147 233.546C136.787 233.306 136.383 233.138 135.959 233.053C135.959 233.053 135.959 233.053 135.959 233.053C136.295 233.21 136.967 233.389 137.147 233.546Z" fill="#EBEBEB"/>
<path d="M379.545 440.106C379.545 440.644 379.321 441.204 379.321 441.742C376.654 439.209 374.211 436.677 371.858 434.054C370.581 432.872 369.499 431.495 368.653 429.975C367.958 427.691 366.972 425.506 365.716 423.475C365.111 422.893 364.304 423.206 364.035 422.332C363.722 421.032 363.363 419.755 363.049 418.5C362.444 416.258 359.687 416.774 359.598 414.42C359.508 412.067 357.065 411.843 355.944 410.812C355.406 410.408 352.47 406.688 353.098 405.791C353.456 405.253 357.155 406.688 357.939 406.755C360.382 407.069 360.023 408.01 361.323 409.871C362.579 411.227 363.943 412.479 365.403 413.614C366.837 414.981 368.608 415.474 369.773 417.088C370.356 417.962 371.096 417.872 372.014 418.006C373.695 418.32 372.552 418.589 373.516 419.306C374.48 420.024 374.995 419.307 374.995 420.853C374.995 421.615 376.721 421.481 376.99 422.803C377.17 423.655 376.139 424.013 376.318 425.201C376.318 425.918 377.932 426.187 378.559 426.411C379.187 426.636 379.142 428.653 379.276 429.213C379.456 430.311 380.711 430.244 379.411 431.567C379.756 431.177 380.226 430.92 380.741 430.839C381.255 430.758 381.782 430.859 382.23 431.124C382.678 431.389 383.02 431.802 383.196 432.292C383.373 432.782 383.374 433.318 383.199 433.808C382.482 436.049 382.975 439.008 382.526 441.316C381.585 439.389 380.801 441.697 379.545 440.106Z" fill="#EBEBEB"/>
<path d="M70.9601 236.011H70.467C70.4898 235.689 70.6026 235.379 70.7929 235.117C70.9831 234.856 71.243 234.653 71.5429 234.532C71.6567 234.806 71.6596 235.113 71.5508 235.39C71.4421 235.666 71.2303 235.889 70.9601 236.011Z" fill="#EBEBEB"/>
<path d="M122.332 169.153C122.332 168.884 122.332 168.592 122.332 168.323C122.87 167.83 123.363 167.741 123.811 168.323C123.701 168.613 123.492 168.855 123.222 169.006C122.951 169.158 122.636 169.21 122.332 169.153Z" fill="#EBEBEB"/>
<path d="M69.2795 230.139C68.9661 229.787 68.7909 229.333 68.7864 228.862C69.4588 229.064 69.6605 229.512 69.2795 230.139Z" fill="#EBEBEB"/>
<path d="M423.991 372.799C424.26 371.746 423.318 371.477 423.453 370.558C423.767 368.832 424.036 367.062 424.305 365.358C424.439 364.663 425.672 364.26 426.255 364.35C428.115 364.753 427.151 365.851 429.28 364.798C429.953 366.255 428.742 366.748 428.967 367.801C429.37 369.729 430.177 368.787 429.46 371.051C429.367 371.659 429.201 372.253 428.967 372.822C428.698 373.225 427.644 372.441 427.689 373.18C427.689 375.063 426.434 374.391 427.465 376.475C428.025 377.551 427.465 378.963 428.922 379.053C429.415 379.053 429.549 377.91 430.267 378.111C430.847 378.186 431.405 378.385 431.903 378.694C432.431 379.111 433.011 379.457 433.629 379.725C434.077 379.86 434.166 378.604 434.704 379.187C435.892 380.397 434.928 381.137 433.584 380.442C433.584 382.258 435.466 381.72 434.57 383.67C434.032 383.311 432.329 382.527 432.329 381.899C432.329 380.039 432.015 380.263 430.423 379.658C430.423 380.42 430.199 381.159 430.065 381.899C429.748 381.283 429.286 380.752 428.72 380.353C427.129 379.411 427.577 380.353 426.322 380.353C425.067 380.353 423.655 378.47 425.47 377.506C424.596 377.192 423.229 377.103 423.027 376.027C422.825 374.951 421.974 372.822 422.646 371.544C423.094 372.015 423.543 372.374 423.991 372.799Z" fill="#EBEBEB"/>
<path d="M54.4644 245.022C54.9725 244.838 55.4547 244.59 55.8988 244.282C55.4505 244.282 55.0023 243.968 54.554 243.879C54.9279 243.816 55.2847 243.677 55.6012 243.468C55.9178 243.26 56.1871 242.987 56.3919 242.668C56.8626 241.996 58.4315 241.996 59.2159 241.839C58.068 241.617 56.8798 241.75 55.8092 242.22C56.5956 241.18 57.4896 240.226 58.4763 239.373C57.3189 239.275 56.1958 238.931 55.1816 238.365C55.585 237.961 56.5936 237.334 56.3919 236.729C56.0333 235.474 55.7195 235.339 56.8177 234.712C57.4005 234.398 58.297 234.891 58.9246 235.07C59.9332 235.294 60.3366 234.667 61.1659 234.017L59.2832 233.344C60.2246 231.731 62.1745 229.512 64.1469 230.677L63.7434 231.394C64.3262 231.26 65.9847 230.543 66.3658 231.036C67.0382 231.865 67.3295 233.479 68.2261 233.277C68.0468 235.518 67.464 235.518 65.7382 236.751C66.1779 237.246 66.5024 237.833 66.6884 238.468C66.8745 239.104 66.9174 239.773 66.8141 240.427C66.5451 241.368 66.2313 242.332 65.9623 243.273C65.6934 244.215 65.021 243.542 64.1469 243.811C61.659 244.484 58.1401 248.563 55.5626 246.344C55.8764 246.165 56.0557 245.761 56.3695 245.582C55.7643 245.335 55.1368 245.201 54.4644 245.022Z" fill="#EBEBEB"/>
<path d="M65.5812 228.548C65.8646 228.284 66.181 228.058 66.5225 227.875C66.926 228.637 66.8363 229.242 66.1191 229.467C65.8501 229.063 66.3432 228.727 65.5812 228.548Z" fill="#EBEBEB"/>
<path d="M340.838 96.8252C341.107 96.1528 341.847 93.6649 342.429 93.5305C343.012 93.396 345.545 93.0822 345.724 92.4322C346.172 90.5943 345.993 90.0788 347.629 89.5858C349.265 89.0927 350.476 88.6892 351.91 88.2858C353.344 87.8823 351.776 86.6048 353.905 86.6944C356.034 86.7841 358.656 89.8995 360.248 91.0426C357.805 91.7598 357.805 91.446 358.298 94.2029C358.522 95.458 361.144 95.3683 362.22 95.6597L359.979 98.0803C362.22 97.1838 363.52 96.1528 365.739 97.3631C366.725 97.9011 365.739 99.2683 365.336 100.254C364.932 101.241 365.918 102.653 366.142 103.415C365.248 103.848 364.277 104.101 363.285 104.159C362.292 104.217 361.298 104.078 360.36 103.751C358.265 102.9 355.968 102.674 353.748 103.101C351.507 103.325 350.632 100.86 349.265 99.0889C348.189 97.6321 344.984 98.6855 343.348 98.7752C342.833 98.3941 340.703 97.0718 340.838 96.8252Z" fill="#EBEBEB"/>
<path d="M437.596 448.937C436.162 450.237 433.113 449.385 431.41 449.43C430.603 449.43 429.998 450.685 428.743 450.461C428.16 450.461 428.026 450.954 427.51 451.044C426.995 451.133 426.703 450.237 425.672 451.044C425.067 450.416 421.189 450.819 422.669 449.206C424.148 447.592 426.658 450.102 427.981 449.34C428.608 448.982 429.281 450.013 429.819 449.564C430.827 448.668 430.962 448.556 432.172 448.668C434.256 448.847 435.512 448.152 437.596 448.937Z" fill="#EBEBEB"/>
<path d="M398.619 418.948C397.05 417.424 397.499 417.469 398.619 415.519C399.538 414.017 400.861 414.017 402.474 413.479C404.088 412.942 404.402 411.619 405.231 410.364C406.441 408.504 406.755 408.504 408.84 407.966C410.476 407.562 409.467 406.554 410.61 405.254C411.238 404.537 413.188 401.444 414.084 401.309C414.981 401.175 417.02 403.304 417.581 404.021C418.141 404.738 418.522 405.657 419.15 405.792C419.777 405.926 420.517 405.792 420.831 406.8L417.895 407.607C418.298 408.19 418.701 408.728 419.06 409.266C418.343 409.467 415.765 409.423 415.72 410.678C415.691 411.288 415.752 411.9 415.9 412.493C416.124 413.435 416.707 413.838 417.245 415.385C417.379 415.788 416.796 416.55 416.976 416.909C417.155 417.267 418.298 418.097 418.746 418.545C420.651 420.271 419.688 420.584 417.67 420.136C416.662 419.912 415.855 421.929 415.945 423.072C416.079 425.515 416.124 425.515 414.353 427.039C413.053 428.182 412.605 428.227 412.605 429.976C412.605 431.724 412.605 433.696 412.471 435.601C411.552 435.601 411.507 434.906 411.776 434.055L407.853 436.005C407.719 435.355 407.629 433.965 406.979 433.763C406.329 433.562 405.545 433.898 405.141 433.763C402.743 432.262 402.474 432.8 399.986 434.212C399.852 433.494 399.762 432.71 399.628 431.97C398.799 432.329 395.593 433.651 395.459 431.97C395.324 430.289 395.459 427.308 394.024 426.053C393.778 426.905 393.912 426.502 393.016 426.95C393.285 425.695 392.837 426.367 392.657 425.65C392.637 425.546 392.637 425.44 392.657 425.336C392.523 424.865 392.388 424.462 392.254 424.058C392.119 423.655 392.792 423.386 392.702 423.027C392.612 422.669 391.716 421.84 391.806 421.167C391.94 420.046 392.075 418.926 392.209 417.828C392.837 417.424 393.419 417.043 394.047 416.685C394.249 418.679 397.185 418.59 398.619 418.948Z" fill="#EBEBEB"/>
<path d="M420.875 427.039C421.368 425.56 423.117 424.798 421.951 423.072C422.517 421.495 423.559 420.132 424.932 419.172C426.21 418.365 428.608 419.755 429.863 420.226C431.118 420.696 430.782 419.912 431.634 420.002C432.485 420.091 433.449 420.764 434.077 420.36C435.242 419.576 436.318 417.558 437.64 417.514C436.654 420.27 434.839 423.789 431.723 421.996C430.401 421.279 428.563 421.862 427.241 421.996C425.918 422.131 424.798 420.831 423.901 421.996C421.996 424.238 424.574 429.056 427.061 426.479C428.07 425.358 427.51 426.479 428.518 426.3C429.527 426.12 429.415 425.627 430.491 425.582C431.566 425.538 433.247 424.215 432.732 426.479C430.491 424.977 429.527 430.132 426.949 429.191C427.667 429.998 428.272 429.953 428.855 431.051C429.168 431.724 429.527 432.351 429.885 433.024C430.244 433.696 429.168 434.167 429.303 434.525C429.885 435.893 431.746 435.018 431.073 436.767C431.073 436.363 428.63 438.336 428.989 438.336C427.891 438.582 426.994 438.336 427.398 436.856C427.801 435.377 426.187 435.713 425.739 434.368C425.605 433.786 426.591 431.432 425.313 431.567C423.072 431.836 424.596 432.598 424.462 433.808C424.327 435.018 424.596 436.386 424.462 437.417C424.462 437.955 423.879 438.425 423.834 438.963C423.789 439.501 424.462 440.487 424.237 440.801C423.879 441.585 421.615 441.272 421.212 440.622C421.224 439.005 421.466 437.397 421.929 435.848C422.198 433.763 420.719 434.929 420.113 434.077C419.038 432.486 419.486 432.262 420.36 430.513C420.786 429.034 420.472 428.227 420.875 427.039Z" fill="#EBEBEB"/>
<path d="M501.496 443.961L498.963 444.23C499.187 444.858 499.411 446.225 499.904 446.583C500.397 446.942 501.63 447.39 501.944 448.018C503.154 450.551 503.065 451.245 505.642 451.335C504.925 452.994 506.471 452.814 507.547 453.038C506.471 454.002 508.758 455.571 509.497 456.333C508.489 456.669 506.651 455.257 505.463 455.033C503.737 454.719 502.078 454.899 500.801 453.531C499.523 452.164 497.596 450.192 496.027 448.466C495.198 447.614 491.813 447.794 490.67 447.659C489.527 447.525 489.28 450.685 488.294 451.38C486.439 452.194 484.365 452.368 482.4 451.873C481.144 451.873 480.382 448.713 479.329 448.802L473.322 449.43C473.681 446.449 473.905 446.763 476.527 445.978C475.81 444.23 475.093 442.415 474.286 440.599C473.838 439.568 471.484 439.12 470.588 438.761L463.864 435.915C461.981 435.085 462.026 435.175 461.623 432.934C460.816 433.875 460.054 434.816 459.269 435.78C458.373 434.279 457.521 432.777 456.602 431.298C458.332 430.645 460.226 430.566 462.004 431.073C462.137 430.646 462.182 430.196 462.138 429.751C460.429 430.148 458.642 430.055 456.983 429.482C456.378 429.168 456.983 427.734 456.378 427.622L453.711 427.218C454.308 426.053 455.305 425.142 456.52 424.653C457.734 424.163 459.084 424.127 460.323 424.551C461.959 424.955 462.564 424.551 462.721 426.456C462.901 428.045 463.309 429.6 463.931 431.073C464.469 432.508 465.164 432.598 466.509 433.315C467.002 433.539 468.75 430.737 469.086 430.222C469.677 429.444 470.471 428.844 471.38 428.489C472.29 428.133 473.28 428.034 474.241 428.205C477.491 429.415 480.719 430.692 483.969 431.903C486.163 432.513 488.294 433.331 490.334 434.346C491.567 435.108 492.822 435.937 494.099 436.587C495.377 437.237 494.772 438.985 495.668 439.971C497.103 441.473 501.809 440.33 501.496 443.961Z" fill="#EBEBEB"/>
<path d="M407.629 450.506C406.531 450.013 405.388 449.52 404.312 449.071C402.883 449.172 401.446 449.051 400.054 448.713C399.74 448.713 399.605 449.206 399.179 449.161C398.754 449.116 398.014 448.982 397.386 448.937C396.613 448.757 395.862 448.494 395.145 448.152C394.289 447.752 393.396 447.437 392.478 447.211C391.626 447.211 390.618 447.794 389.766 447.614C388.085 447.301 386.471 446.27 384.701 445.933C384.739 445.645 384.799 445.361 384.88 445.082C383.378 444.723 381.047 444.589 382.795 442.549C383.378 441.832 383.423 441.473 384.297 441.652C385.171 441.832 385.956 442.504 386.292 441.473C386.919 441.877 389.811 442.549 389.945 442.863C391.111 444.858 392.657 444.409 394.787 444.633C395.324 444.633 396.042 445.082 396.266 444.409C396.58 443.311 397.05 442.773 397.857 443.827C398.468 444.24 399.163 444.51 399.893 444.619C400.622 444.728 401.366 444.671 402.071 444.454C401.645 446.314 403.595 447.39 405.007 447.076C407.988 446.471 406.307 448.847 407.629 450.506Z" fill="#EBEBEB"/>
<path d="M366.031 107.875C367.173 105.767 368.533 103.784 370.087 101.958C370.755 101.174 371.671 100.644 372.684 100.456C373.696 100.268 374.742 100.434 375.646 100.927C375.198 101.33 374.704 101.734 374.256 102.182C374.973 102.182 377.103 101.555 377.551 102.182C378.694 103.505 378.963 104.132 380.577 104.311C381.316 104.311 382.661 106.351 382.034 106.844C381.267 107.554 380.308 108.021 379.277 108.189L374.346 109.108C373.494 109.242 372.486 108.054 371.858 108.234C369.998 108.929 366.12 111.596 364.574 109.511C365.022 108.929 365.537 108.413 366.031 107.875Z" fill="#EBEBEB"/>
<path d="M67.7104 227.203C67.5223 227.644 67.2895 228.065 67.0156 228.458C66.5225 227.517 67.1276 227.024 67.7104 227.203Z" fill="#EBEBEB"/>
<path d="M438.649 394.921C438.515 394.114 438.358 393.285 438.223 392.478C438.639 392.576 439.018 392.79 439.315 393.096C439.613 393.402 439.817 393.786 439.904 394.204C440.666 393.89 440.89 394.921 440.756 395.639C440.577 395.863 440.352 396.042 440.173 396.266C440.397 396.266 440.532 396.557 440.935 396.557C441.002 396.898 441.002 397.248 440.935 397.588C442.213 397.588 441.137 400.928 440.935 401.847C440.77 401.757 440.619 401.644 440.487 401.511C440.487 402.206 440.487 402.833 440.487 403.506C439.77 402.385 440.263 401.264 439.501 400.166C437.865 401.331 438.739 402.25 439.053 403.64C439.411 405.5 437.237 406.307 437.909 404.2H437.64C437.192 405.769 434.704 403.909 434.346 402.923C433.763 401.376 435.78 398.44 432.71 398.844C432.687 399.284 432.687 399.725 432.71 400.166C432.037 399.718 432.037 399.987 431.948 399.09C431.544 399.583 431.454 399.359 431.186 400.076C430.625 397.095 429.46 401.197 428.832 401.713C427.42 399.763 429.818 398.216 431.186 397.813C431.903 397.588 431.41 395.728 432.754 395.818C434.099 395.907 434.077 397.32 433.404 398.059C434.57 397.611 435.153 395.482 436.385 396.445C436.385 395.302 436.609 394.63 437.506 395.213C437.865 394.63 437.685 394.764 438.649 394.921Z" fill="#EBEBEB"/>
<path d="M404.178 331.402C402.057 332.735 399.733 333.712 397.297 334.294C391.463 335.726 385.304 334.907 380.048 331.999C374.792 329.091 370.826 324.308 368.94 318.605C367.055 312.902 367.389 306.698 369.876 301.23C372.362 295.762 376.819 291.433 382.357 289.106C387.895 286.779 394.106 286.626 399.752 288.676C405.398 290.726 410.063 294.83 412.817 300.168C415.571 305.507 416.211 311.687 414.61 317.476C413.009 323.265 409.283 328.238 404.178 331.402Z" fill="#C7C7C7"/>
<path d="M398.888 308.406C398.888 309.843 398.462 311.248 397.663 312.443C396.864 313.637 395.728 314.568 394.4 315.117C393.072 315.666 391.611 315.809 390.201 315.527C388.792 315.245 387.498 314.551 386.484 313.533C385.469 312.515 384.779 311.219 384.501 309.809C384.224 308.399 384.371 306.938 384.924 305.611C385.477 304.285 386.411 303.152 387.608 302.357C388.805 301.562 390.212 301.14 391.649 301.144C392.601 301.144 393.545 301.332 394.424 301.697C395.304 302.063 396.103 302.598 396.776 303.272C397.448 303.947 397.981 304.748 398.344 305.629C398.706 306.51 398.891 307.453 398.888 308.406Z" fill="white"/>
<path d="M404.178 328.421V331.402C402.057 332.735 399.733 333.712 397.297 334.294C394.227 335.047 391.038 335.18 387.916 334.683C384.795 334.187 381.804 333.071 379.12 331.402V328.421C379.12 325.098 380.44 321.912 382.789 319.562C385.139 317.212 388.326 315.892 391.649 315.892C394.972 315.892 398.158 317.212 400.508 319.562C402.858 321.912 404.178 325.098 404.178 328.421Z" fill="white"/>
<path d="M402.138 275.167C401.622 269.9 398.014 264.678 391.648 264.678C385.283 264.678 381.675 269.9 381.159 275.167C380.352 283.259 385.821 290.61 391.648 297.289C397.476 290.61 402.945 283.259 402.138 275.167ZM391.648 280.995C390.509 280.995 389.395 280.657 388.448 280.024C387.501 279.391 386.763 278.491 386.327 277.439C385.891 276.386 385.777 275.228 385.999 274.111C386.221 272.993 386.77 271.967 387.575 271.162C388.381 270.356 389.407 269.807 390.525 269.585C391.642 269.363 392.8 269.477 393.853 269.913C394.905 270.349 395.805 271.087 396.438 272.034C397.071 272.982 397.409 274.095 397.409 275.235C397.409 276.762 396.802 278.227 395.721 279.308C394.641 280.388 393.176 280.995 391.648 280.995Z" fill="#3DCB76"/>
<path d="M254.368 229.422C250.084 232.071 245.072 233.296 240.049 232.922C235.027 232.547 230.251 230.592 226.408 227.336C222.565 224.08 219.852 219.692 218.657 214.799C217.462 209.906 217.846 204.76 219.756 200.1C221.665 195.439 225.001 191.502 229.286 188.854C233.57 186.206 238.583 184.983 243.605 185.359C248.628 185.736 253.403 187.693 257.244 190.95C261.086 194.207 263.798 198.596 264.992 203.49C266.199 208.38 265.82 213.528 263.91 218.189C262.001 222.85 258.659 226.784 254.368 229.422Z" fill="#C7C7C7"/>
<path d="M241.906 213.688C245.917 213.688 249.168 210.436 249.168 206.426C249.168 202.415 245.917 199.164 241.906 199.164C237.895 199.164 234.644 202.415 234.644 206.426C234.644 210.436 237.895 213.688 241.906 213.688Z" fill="white"/>
<path d="M254.368 226.418V229.422C250.596 231.741 246.256 232.969 241.828 232.969C237.4 232.969 233.059 231.741 229.288 229.422V226.418C229.424 223.184 230.805 220.128 233.142 217.888C235.479 215.648 238.591 214.397 241.828 214.397C245.065 214.397 248.177 215.648 250.513 217.888C252.85 220.128 254.231 223.184 254.368 226.418Z" fill="white"/>
<path d="M252.418 173.165C251.902 167.92 248.271 162.698 241.928 162.698C235.586 162.698 231.955 167.92 231.417 173.165C230.632 181.278 236.101 188.607 241.928 195.309C247.756 188.72 253.225 181.278 252.418 173.165ZM241.928 178.992C240.786 179.001 239.667 178.67 238.714 178.042C237.76 177.413 237.015 176.515 236.573 175.462C236.13 174.409 236.011 173.249 236.23 172.128C236.449 171.007 236.997 169.976 237.803 169.167C238.609 168.358 239.637 167.807 240.757 167.583C241.877 167.36 243.038 167.474 244.093 167.913C245.148 168.351 246.048 169.092 246.681 170.043C247.313 170.995 247.648 172.112 247.644 173.254C247.644 174.772 247.042 176.228 245.971 177.304C244.9 178.379 243.446 178.986 241.928 178.992Z" fill="#3DCB76"/>
<path d="M172.874 505.396C170.751 506.725 168.427 507.701 165.993 508.287C160.159 509.719 154 508.9 148.744 505.992C143.488 503.084 139.522 498.302 137.636 492.599C135.751 486.895 136.085 480.691 138.572 475.223C141.058 469.756 145.515 465.426 151.053 463.099C156.591 460.772 162.802 460.619 168.448 462.669C174.094 464.72 178.759 468.823 181.513 474.162C184.267 479.5 184.907 485.68 183.306 491.469C181.705 497.259 177.979 502.232 172.874 505.396Z" fill="#C7C7C7"/>
<path d="M167.584 482.332C167.588 483.77 167.166 485.178 166.369 486.375C165.573 487.573 164.439 488.507 163.111 489.059C161.783 489.612 160.321 489.758 158.911 489.478C157.5 489.199 156.204 488.507 155.187 487.49C154.17 486.473 153.478 485.177 153.199 483.766C152.919 482.355 153.065 480.893 153.617 479.565C154.17 478.237 155.104 477.104 156.301 476.307C157.499 475.511 158.906 475.088 160.344 475.093C162.263 475.099 164.101 475.863 165.457 477.22C166.813 478.576 167.578 480.414 167.584 482.332Z" fill="white"/>
<path d="M172.873 502.505V505.486C170.751 506.815 168.427 507.791 165.992 508.377C162.919 509.129 159.726 509.26 156.601 508.764C153.476 508.268 150.482 507.153 147.793 505.486V502.505C147.929 499.271 149.31 496.214 151.647 493.974C153.984 491.734 157.096 490.484 160.333 490.484C163.57 490.484 166.682 491.734 169.019 493.974C171.355 496.214 172.736 499.271 172.873 502.505Z" fill="white"/>
<path d="M170.834 449.161C170.318 443.916 166.687 438.672 160.344 438.672C154.001 438.672 150.37 443.916 149.832 449.161C149.048 457.252 154.517 464.604 160.344 471.305C166.172 464.604 171.641 457.252 170.834 449.161ZM160.344 454.988C159.204 454.993 158.088 454.659 157.138 454.029C156.188 453.398 155.446 452.5 155.007 451.448C154.567 450.396 154.45 449.237 154.67 448.118C154.889 446.999 155.436 445.971 156.241 445.163C157.046 444.355 158.072 443.805 159.19 443.58C160.308 443.356 161.467 443.469 162.521 443.904C163.575 444.34 164.476 445.078 165.11 446.026C165.744 446.974 166.082 448.088 166.082 449.228C166.082 450.752 165.478 452.214 164.403 453.293C163.327 454.373 161.868 454.983 160.344 454.988Z" fill="#3DCB76"/>
<path d="M0 285.298L3.33958 285.007L0.0224351 285.5L0 285.298Z" fill="#37474F"/>
<path d="M137.617 238.499L139.321 235.63L139.5 235.72L137.617 238.499Z" fill="#37474F"/>
<path d="M142.929 230.139L146.762 224.827L147.39 225.32L143.355 230.453L142.929 230.139Z" fill="#37474F"/>
<path d="M150.774 219.65L154.965 214.629L155.929 215.458L151.603 220.345L150.774 219.65Z" fill="#37474F"/>
<path d="M159.358 209.721L163.863 204.969L165.029 206.112L160.412 210.729L159.358 209.721Z" fill="#37474F"/>
<path d="M168.548 200.352L173.366 195.892L174.644 197.326L169.78 201.674L168.548 200.352Z" fill="#37474F"/>
<path d="M178.342 191.611L183.452 187.464L184.707 189.078L179.597 193.135L178.342 191.611Z" fill="#37474F"/>
<path d="M188.697 183.497L194.076 179.687L195.264 181.48L189.929 185.201L188.697 183.497Z" fill="#37474F"/>
<path d="M199.545 176.056L205.171 172.627L206.291 174.554L200.733 177.939L199.545 176.056Z" fill="#37474F"/>
<path d="M210.908 169.421L216.758 166.418L217.7 168.278L211.94 171.326L210.908 169.421Z" fill="#37474F"/>
<path d="M222.698 163.594L228.749 160.994L229.511 162.81L223.549 165.455L222.698 163.594Z" fill="#37474F"/>
<path d="M234.868 158.596L241.076 156.444L241.659 158.148L235.54 160.389L234.868 158.596Z" fill="#37474F"/>
<path d="M247.375 154.539L253.74 152.858L254.099 154.27L247.845 156.108L247.375 154.539Z" fill="#37474F"/>
<path d="M260.128 151.379L266.583 150.169L266.785 151.245L260.419 152.634L260.128 151.379Z" fill="#37474F"/>
<path d="M273.083 149.205L279.582 148.488L279.65 149.003L273.195 150.012L273.083 149.205Z" fill="#37474F"/>
<path d="M286.284 147.972L289.646 147.838L286.307 148.174L286.284 147.972Z" fill="#37474F"/>
<path d="M353.165 337.7L352.336 334.45L352.403 334.428L353.165 337.7Z" fill="#37474F"/>
<path d="M350.475 328.085L348.369 321.809L348.615 321.719L350.632 328.04L350.475 328.085Z" fill="#37474F"/>
<path d="M346.06 315.578L343.572 309.437L344.02 309.258L346.419 315.444L346.06 315.578Z" fill="#37474F"/>
<path d="M340.928 303.363L338.126 297.356L338.754 297.042L341.488 303.116L340.928 303.363Z" fill="#37474F"/>
<path d="M335.167 291.417L332.074 285.567L332.904 285.118L335.907 291.058L335.167 291.417Z" fill="#37474F"/>
<path d="M328.847 279.784L325.462 274.069L326.449 273.486L329.743 279.269L328.847 279.784Z" fill="#37474F"/>
<path d="M321.988 268.443L318.357 262.907L319.411 262.212L322.997 267.815L321.988 268.443Z" fill="#37474F"/>
<path d="M314.615 257.439L310.737 252.059L311.858 251.252L315.69 256.676L314.615 257.439Z" fill="#37474F"/>
<path d="M306.747 246.792L302.646 241.592L303.811 240.651L307.89 245.918L306.747 246.792Z" fill="#37474F"/>
<path d="M298.41 236.504L294.062 231.506L295.272 230.453L299.598 235.496L298.41 236.504Z" fill="#37474F"/>
<path d="M289.601 226.62L285.029 221.824L286.284 220.614L290.834 225.477L289.601 226.62Z" fill="#37474F"/>
<path d="M280.367 217.162L275.571 212.59L276.871 211.222L281.622 215.862L280.367 217.162Z" fill="#37474F"/>
<path d="M270.707 208.107L265.731 203.736L267.009 202.28L271.984 206.695L270.707 208.107Z" fill="#37474F"/>
<path d="M260.688 199.478L255.533 195.309L256.744 193.785L261.921 197.976L260.688 199.478Z" fill="#37474F"/>
<path d="M250.288 191.274L244.954 187.352L246.12 185.738L251.476 189.705L250.288 191.274Z" fill="#37474F"/>
<path d="M239.53 183.542L234.039 179.866L235.16 178.141L240.673 181.884L239.53 183.542Z" fill="#37474F"/>
<path d="M228.458 176.28L222.832 172.828L223.908 171.035L229.578 174.532L228.458 176.28Z" fill="#37474F"/>
<path d="M196.631 368.451L198.94 366.031L199.074 366.187L196.631 368.451Z" fill="#37474F"/>
<path d="M203.669 361.57L208.645 357.379L209.16 358.051L204.028 361.996L203.669 361.57Z" fill="#37474F"/>
<path d="M213.8 353.389L219.134 349.668L219.874 350.789L214.45 354.33L213.8 353.389Z" fill="#37474F"/>
<path d="M224.648 346.172L230.274 342.9L231.103 344.402L225.41 347.495L224.648 346.172Z" fill="#37474F"/>
<path d="M236.056 339.852L241.996 337.117L242.758 338.91L236.885 341.555L236.056 339.852Z" fill="#37474F"/>
<path d="M248.025 334.629L254.189 332.433L254.838 334.405L248.742 336.535L248.025 334.629Z" fill="#37474F"/>
<path d="M260.419 330.483L266.762 328.824L267.255 330.976L261.002 332.545L260.419 330.483Z" fill="#37474F"/>
<path d="M273.172 327.502L279.627 326.516L279.919 328.668L273.553 329.699L273.172 327.502Z" fill="#37474F"/>
<path d="M286.15 325.843L292.672 325.485L292.739 327.502L286.329 327.928L286.15 325.843Z" fill="#37474F"/>
<path d="M299.216 325.44L305.739 325.709L305.626 327.592L299.194 327.39L299.216 325.44Z" fill="#37474F"/>
<path d="M312.239 326.337L318.716 327.256L318.47 328.78L312.059 328.04L312.239 326.337Z" fill="#37474F"/>
<path d="M325.126 328.488L331.447 330.012L331.178 331.133L324.857 329.811L325.126 328.488Z" fill="#37474F"/>
<path d="M337.7 331.828L343.864 333.935L343.684 334.473L337.454 332.68L337.7 331.828Z" fill="#37474F"/>
<path d="M350.072 336.355L353.165 337.7L349.982 336.557L350.072 336.355Z" fill="#37474F"/>
<path d="M99.6717 232.201L101.218 235.182L99.5372 232.268L99.6717 232.201Z" fill="#37474F"/>
<path d="M529.692 338.933H337.745V530.879H529.692V338.933Z" fill="white"/>
<path d="M530.79 532H336.624V337.812H530.79V532ZM338.865 529.759H528.548V340.053H338.865V529.759Z" fill="#EBEBEB"/>
<path d="M358.813 350.341C358.809 351.457 358.474 352.547 357.851 353.473C357.227 354.399 356.344 355.119 355.311 355.543C354.279 355.967 353.144 356.076 352.05 355.855C350.955 355.635 349.951 355.095 349.163 354.305C348.376 353.514 347.84 352.507 347.624 351.412C347.408 350.317 347.521 349.183 347.949 348.152C348.377 347.121 349.101 346.24 350.03 345.621C350.958 345.001 352.049 344.67 353.165 344.67C353.909 344.67 354.645 344.817 355.332 345.102C356.019 345.388 356.642 345.806 357.167 346.333C357.692 346.86 358.107 347.485 358.39 348.173C358.672 348.861 358.816 349.597 358.813 350.341Z" fill="#A6A6A6"/>
<path d="M381.877 350.341C381.872 351.457 381.537 352.547 380.914 353.473C380.29 354.399 379.407 355.119 378.374 355.543C377.342 355.967 376.207 356.076 375.113 355.855C374.019 355.635 373.014 355.095 372.227 354.305C371.439 353.514 370.903 352.507 370.687 351.412C370.471 350.317 370.584 349.183 371.012 348.152C371.441 347.121 372.165 346.24 373.093 345.621C374.021 345.001 375.112 344.67 376.228 344.67C376.972 344.67 377.708 344.817 378.395 345.102C379.082 345.388 379.705 345.806 380.23 346.333C380.755 346.86 381.171 347.485 381.453 348.173C381.736 348.861 381.88 349.597 381.877 350.341Z" fill="#EBEBEB"/>
<path d="M404.94 350.341C404.935 351.457 404.6 352.547 403.977 353.473C403.354 354.399 402.47 355.119 401.438 355.543C400.405 355.967 399.27 356.076 398.176 355.855C397.082 355.635 396.078 355.095 395.29 354.305C394.502 353.514 393.967 352.507 393.75 351.412C393.534 350.317 393.647 349.183 394.076 348.152C394.504 347.121 395.228 346.24 396.156 345.621C397.084 345.001 398.176 344.67 399.292 344.67C400.035 344.67 400.772 344.817 401.458 345.102C402.145 345.388 402.769 345.806 403.293 346.333C403.818 346.86 404.234 347.485 404.516 348.173C404.799 348.861 404.943 349.597 404.94 350.341Z" fill="#3DCB76"/>
<path d="M529.692 360.27H337.745V362.511H529.692V360.27Z" fill="#EBEBEB"/>
<path d="M463.281 463.931C454.876 475.922 408.122 515.168 366.478 517.476C352.336 518.238 308.764 460.704 299.866 438.268C293.479 422.175 327.883 411.372 337.969 413.053C350.52 415.138 374.189 464.94 383.019 465.186C397.207 465.545 423.655 455.437 453.038 449.228C468.1 446.023 469.781 454.697 463.281 463.931Z" fill="#DD6A57"/>
<path d="M463.348 468.19C453.016 483.722 418.522 509.206 418.522 509.206L413.501 498.559L397.319 463.393C397.319 463.393 429.191 453.195 450.169 448.511C452.637 447.932 455.149 447.557 457.678 447.39C471.059 446.471 472.269 454.854 463.348 468.19Z" fill="#455A64"/>
<path d="M423.901 457.454C424.679 460.392 424.679 463.481 423.901 466.419C423.094 463.485 423.094 460.388 423.901 457.454Z" fill="white"/>
<path d="M419.598 475.608C416.66 476.385 413.571 476.385 410.633 475.608C412.088 475.184 413.6 474.987 415.115 475.025C416.63 474.998 418.141 475.195 419.598 475.608Z" fill="white"/>
<path d="M465.052 450.506C462.114 451.279 459.025 451.279 456.087 450.506C457.545 450.094 459.055 449.898 460.569 449.923C462.083 449.908 463.592 450.104 465.052 450.506Z" fill="white"/>
<path d="M440.24 468.727C442.872 470.252 445.058 472.439 446.583 475.07C443.952 473.545 441.765 471.359 440.24 468.727Z" fill="white"/>
<path d="M422.982 490.132C424.301 490.879 425.508 491.807 426.568 492.889C427.664 493.938 428.593 495.147 429.325 496.475C428.014 495.728 426.814 494.8 425.762 493.718C424.666 492.664 423.73 491.456 422.982 490.132Z" fill="white"/>
<path d="M463.348 468.19C453.016 483.722 418.522 509.206 418.522 509.206L413.501 498.559C426.344 483.453 446.18 460.457 457.588 447.39C471.059 446.471 472.269 454.854 463.348 468.19Z" fill="#263238"/>
<path d="M424.708 502.034C422.019 495.556 410.072 469.49 407.091 463.931C406.89 463.55 406.598 463.573 406.778 463.931C411.966 476.948 417.87 489.668 424.462 502.034C424.507 502.28 424.708 502.191 424.708 502.034Z" fill="#263238"/>
<path d="M301.01 440.756C298.387 435.982 288.301 412.964 286.934 405.926C285.567 398.888 283.079 378.38 288.369 376.789C293.658 375.197 294.846 381.271 294.846 381.271C294.846 381.271 295.182 372.44 300.629 371.297C306.075 370.154 307.666 379.501 307.666 379.501C307.666 379.501 308.675 370.535 314.189 369.729C319.702 368.922 319.725 378.694 319.725 378.694C319.725 378.694 320.263 370.378 325.059 371.701C330.842 373.27 328.152 388.488 330.236 396.154C330.707 397.879 342.384 430.67 342.384 430.67L301.01 440.756Z" fill="#DD6A57"/>
<path d="M319.702 377.662C317.752 388.869 318.828 394.091 323.087 404.446C323.087 404.648 322.885 404.827 322.773 404.626C317.685 394.853 315.399 388.488 319.164 377.55C319.366 376.99 319.814 377.147 319.702 377.662Z" fill="#263238"/>
<path d="M307.846 378.492C306.815 390.281 307.846 395.974 311.589 407.136C311.589 407.293 311.387 407.405 311.32 407.248C306.837 396.602 304.596 390.191 307.241 378.514C307.353 377.999 307.891 377.931 307.846 378.492Z" fill="#263238"/>
<path d="M295.047 381.697C294.89 393.195 295.854 399.471 300.785 409.87C300.812 409.918 300.819 409.974 300.804 410.027C300.789 410.079 300.754 410.124 300.707 410.15C300.659 410.177 300.603 410.184 300.55 410.169C300.498 410.154 300.453 410.119 300.426 410.072C294.869 401.74 292.816 391.554 294.711 381.719C294.823 381.002 295.07 380.957 295.047 381.697Z" fill="#263238"/>
<path d="M350.296 435.13C350.61 428.275 350.423 421.406 349.736 414.577C348.615 408.279 335.75 386.337 330.864 388.825C324.544 392.074 329.452 406.195 332.769 412.807C332.769 412.807 318.133 420.293 319.478 431.186C320.823 442.078 350.296 435.13 350.296 435.13Z" fill="#DD6A57"/>
<path d="M329.407 390.281C325.776 397.409 330.685 405.791 333.419 412.448C333.462 412.545 333.482 412.65 333.477 412.755C333.471 412.861 333.441 412.963 333.389 413.055C333.336 413.147 333.263 413.225 333.175 413.283C333.087 413.341 332.986 413.377 332.881 413.389C326.942 416.931 319.613 423.655 319.12 430.917C319.12 431.118 318.783 431.141 318.783 430.917C318.268 423.05 324.925 415.855 331.671 412.403C328.757 405.679 324.207 396.983 329.43 390.259C329.385 390.214 329.43 390.237 329.407 390.281Z" fill="#263238"/>
<path d="M528.705 529.669V519.493C517.118 493.987 498.986 462.586 473.883 443.154C467.966 438.671 455.414 440.532 447.458 445.171C444.611 446.807 435.041 462.272 432.934 476.438C431.88 483.632 429.28 507.48 427.532 529.669H528.705Z" fill="#455A64"/>
<path d="M457.207 481.929C457.416 483.416 457.416 484.924 457.207 486.411C457.023 487.913 456.615 489.379 455.997 490.76C455.775 489.274 455.775 487.763 455.997 486.277C456.184 484.776 456.592 483.31 457.207 481.929Z" fill="white"/>
<path d="M503.49 508.354C503.7 509.841 503.7 511.35 503.49 512.837C503.282 514.341 502.875 515.81 502.28 517.207C502.071 515.72 502.071 514.212 502.28 512.725C502.465 511.216 502.873 509.743 503.49 508.354Z" fill="white"/>
<path d="M483.61 496.094C482.123 496.305 480.614 496.305 479.127 496.094C477.623 495.889 476.153 495.482 474.757 494.884C476.244 494.675 477.753 494.675 479.239 494.884C480.744 495.088 482.215 495.495 483.61 496.094Z" fill="white"/>
<path d="M466.688 449.923C465.201 450.132 463.692 450.132 462.206 449.923C460.708 449.717 459.246 449.31 457.857 448.712C459.344 448.501 460.853 448.501 462.34 448.712C463.837 448.92 465.299 449.327 466.688 449.923Z" fill="white"/>
<path d="M481.324 457.88C482.526 458.808 483.59 459.902 484.484 461.13C485.421 462.319 486.177 463.641 486.726 465.052C485.524 464.131 484.46 463.045 483.565 461.824C482.636 460.622 481.882 459.294 481.324 457.88Z" fill="white"/>
<path d="M520.525 513.98C521.726 514.901 522.79 515.987 523.685 517.207C524.622 518.405 525.377 519.734 525.926 521.152C523.533 519.276 521.678 516.802 520.547 513.98H520.525Z" fill="white"/>
<path d="M445.799 508.735C448.182 510.636 450.041 513.112 451.201 515.93C448.818 514.03 446.959 511.554 445.799 508.735Z" fill="white"/>
<path d="M439.613 464.402C440.814 465.322 441.878 466.409 442.773 467.629C443.702 468.832 444.457 470.16 445.014 471.574C443.813 470.645 442.749 469.551 441.854 468.324C440.922 467.131 440.167 465.81 439.613 464.402Z" fill="white"/>
<path d="M431.006 498.022C431.927 496.821 433.014 495.756 434.234 494.861C435.431 493.924 436.761 493.169 438.179 492.62C437.25 493.822 436.156 494.886 434.929 495.78C433.731 496.705 432.411 497.459 431.006 498.022Z" fill="white"/>
<path d="M496.004 486.815C496.933 485.613 498.027 484.549 499.254 483.655C500.444 482.718 501.766 481.962 503.177 481.413C502.256 482.614 501.169 483.679 499.949 484.574C498.746 485.503 497.418 486.257 496.004 486.815Z" fill="white"/>
<path d="M476.617 522.676C477.545 521.475 478.64 520.411 479.867 519.516C481.059 518.584 482.38 517.829 483.789 517.275C482.869 518.476 481.782 519.54 480.562 520.435C479.359 521.364 478.031 522.119 476.617 522.676Z" fill="white"/>
<path d="M452.926 468.728C460.211 468.392 468.952 454.63 471.171 444.858C471.328 444.185 468.683 438.336 465.837 431.074C464.111 426.591 462.295 421.683 460.973 417.043C460.704 416.102 457.969 418.769 457.969 418.769L452.366 421.929L433.875 432.419C437.197 437.75 439.847 443.471 441.765 449.452C441.934 450.092 442.054 450.744 442.123 451.403C442.104 451.514 442.104 451.627 442.123 451.739C442.639 455.437 445.889 469.042 452.926 468.728Z" fill="#DD6A57"/>
<path d="M442.123 451.402C442.104 451.513 442.104 451.627 442.123 451.738C443.149 451.588 444.16 451.356 445.149 451.043C464.648 445.014 459.986 419.396 459.986 419.396L452.321 421.929L433.83 432.418C437.152 437.749 439.802 443.471 441.72 449.452C441.904 450.091 442.039 450.743 442.123 451.402Z" fill="#263238"/>
<path d="M454.854 384.252C460.681 393.845 462.833 425.313 457.095 433.897C448.825 446.337 431.499 451.828 419.979 440.935C408.772 430.468 406.71 389.385 413.434 381.249C423.363 369.168 446.247 370.087 454.854 384.252Z" fill="#DD6A57"/>
<path d="M431.185 411.081C431.185 411.081 431.365 411.081 431.365 411.26C431.365 413.367 431.903 415.743 433.875 416.348V416.482C431.432 416.326 430.916 413.098 431.185 411.081Z" fill="#263238"/>
<path d="M432.911 408.727C436.296 408.212 437.058 415.025 433.92 415.451C430.782 415.877 430.065 409.153 432.911 408.727Z" fill="#263238"/>
<path d="M418.208 412.246C418.208 412.246 418.051 412.381 418.074 412.448C418.365 414.555 418.365 416.931 416.527 417.939C416.527 417.939 416.527 418.074 416.527 418.051C418.858 417.469 418.836 414.196 418.208 412.246Z" fill="#263238"/>
<path d="M416.079 410.251C412.65 410.386 413.143 417.222 416.326 417.11C419.508 416.998 418.948 410.162 416.079 410.251Z" fill="#263238"/>
<path d="M435.242 405.321C434.301 405.186 433.427 404.895 432.508 404.671C431.514 404.59 430.575 404.18 429.841 403.505C429.646 403.251 429.541 402.94 429.541 402.62C429.541 402.3 429.646 401.989 429.841 401.735C430.311 401.299 430.89 400.997 431.516 400.859C432.142 400.721 432.794 400.752 433.404 400.95C434.694 401.172 435.858 401.857 436.677 402.878C436.843 403.123 436.936 403.411 436.946 403.707C436.955 404.003 436.881 404.296 436.731 404.552C436.581 404.808 436.361 405.016 436.098 405.152C435.834 405.288 435.538 405.346 435.242 405.321Z" fill="#263238"/>
<path d="M413.053 407.136C413.972 406.867 414.801 406.463 415.675 406.127C416.651 405.897 417.525 405.354 418.163 404.581C418.316 404.3 418.373 403.977 418.325 403.661C418.276 403.345 418.125 403.054 417.894 402.833C417.366 402.472 416.753 402.257 416.115 402.21C415.478 402.163 414.839 402.285 414.263 402.564C413.007 402.954 411.943 403.802 411.283 404.939C411.147 405.205 411.092 405.504 411.123 405.801C411.154 406.097 411.27 406.378 411.457 406.61C411.644 406.842 411.894 407.016 412.178 407.109C412.461 407.202 412.765 407.211 413.053 407.136Z" fill="#263238"/>
<path d="M435.108 429.774C434.66 430.334 434.234 431.051 433.472 431.208C432.714 431.275 431.951 431.184 431.23 430.939C431.23 430.939 431.096 430.939 431.23 431.051C431.576 431.434 432.02 431.715 432.513 431.865C433.007 432.015 433.532 432.028 434.032 431.903C434.45 431.742 434.81 431.459 435.065 431.092C435.321 430.724 435.461 430.288 435.466 429.841C435.332 429.729 435.175 429.684 435.108 429.774Z" fill="#263238"/>
<path d="M432.172 423.699C431.726 424.601 431.098 425.4 430.326 426.044C429.554 426.689 428.656 427.165 427.689 427.442C426.862 427.701 426.001 427.837 425.134 427.846H424.148C424.032 427.841 423.921 427.796 423.835 427.718C423.749 427.641 423.693 427.535 423.677 427.42C423.666 427.345 423.666 427.27 423.677 427.196V427.016C423.453 425.403 423.318 422.915 423.318 422.915C422.758 423.273 419.889 424.977 419.844 424.125C419.206 416.781 419.318 409.391 420.181 402.07C420.181 402.017 420.202 401.966 420.24 401.928C420.277 401.89 420.329 401.869 420.382 401.869C420.436 401.869 420.487 401.89 420.525 401.928C420.563 401.966 420.584 402.017 420.584 402.07C421.212 408.794 420.584 415.698 421.144 422.534C422.163 421.911 423.265 421.436 424.417 421.122C424.663 421.122 424.574 425.94 424.73 426.658C426.076 426.645 427.405 426.361 428.637 425.822C429.87 425.283 430.981 424.5 431.903 423.52C432.104 423.408 432.284 423.52 432.172 423.699Z" fill="#263238"/>
<path d="M426.031 426.927C427.061 427.977 428.342 428.748 429.751 429.168C430.495 429.351 431.276 429.304 431.993 429.034C433.629 428.406 433.517 426.792 433.046 425.56C432.792 424.882 432.461 424.235 432.06 423.632C430.445 425.335 428.336 426.487 426.031 426.927Z" fill="#263238"/>
<path d="M429.751 429.191C430.495 429.374 431.276 429.327 431.993 429.056C433.629 428.429 433.517 426.815 433.046 425.582C432.174 425.733 431.378 426.17 430.782 426.823C430.185 427.476 429.823 428.309 429.751 429.191Z" fill="#FF99BA"/>
<path d="M457.768 410.252C452.411 410.946 450.483 397.902 450.483 397.902C450.483 397.902 442.123 397.902 436.094 387.637C436.094 387.637 426.927 396.109 417.917 396.154C403.774 396.154 400.816 378.425 405.254 373.853C411.529 367.375 425.829 372.396 425.829 372.396C425.829 372.396 444.342 363.296 452.725 375.399C455.29 375.099 457.873 375.784 459.953 377.315C462.033 378.846 463.455 381.109 463.931 383.647C466.262 393.173 461.757 409.758 457.768 410.252Z" fill="#263238"/>
<path d="M452.658 399.067C448.623 399.106 444.687 397.823 441.451 395.414C439.717 394.079 438.327 392.349 437.395 390.369C436.463 388.389 436.017 386.215 436.094 384.028C436.094 383.804 435.736 383.782 435.736 384.028C435.53 386.33 435.835 388.648 436.629 390.818C437.424 392.987 438.687 394.955 440.33 396.58C441.966 398.107 443.973 399.177 446.152 399.685C448.331 400.192 450.606 400.118 452.747 399.471C452.904 399.404 452.904 399.067 452.658 399.067Z" fill="#263238"/>
<path d="M463.483 377.887C460.144 374.973 455.93 375.22 451.896 376.116C451.671 376.116 451.761 376.542 451.896 376.475C453.913 376.01 456.019 376.098 457.991 376.729C459.963 377.36 461.729 378.511 463.102 380.061C465.747 382.885 466.038 387.009 465.881 390.707C465.616 397.838 462.718 404.618 457.745 409.736C457.745 409.736 457.745 409.96 457.857 409.871C460.742 407.204 463.049 403.975 464.637 400.382C466.226 396.789 467.061 392.909 467.092 388.981C467.114 385.126 466.554 380.576 463.483 377.887Z" fill="#263238"/>
<path d="M426.501 372.934C424.263 370.493 421.21 368.955 417.917 368.608C413.905 368.271 409.911 369.437 406.711 371.88C405.452 372.893 404.485 374.22 403.906 375.728C403.327 377.236 403.158 378.87 403.416 380.464C404.1 384.132 406.032 387.45 408.885 389.856C408.885 389.856 409.064 389.856 408.885 389.743C406.542 387.394 404.978 384.382 404.402 381.114C404.15 379.55 404.345 377.946 404.963 376.487C405.582 375.028 406.599 373.773 407.898 372.866C413.031 369.325 421.346 368.182 426.053 373.203C426.389 373.359 426.658 373.113 426.501 372.934Z" fill="#263238"/>
<path d="M454.675 410.386C454.675 410.386 459.157 399.022 464.223 400.434C469.288 401.846 467.383 417.199 462.631 420.337C462.05 420.785 461.385 421.11 460.675 421.293C459.964 421.476 459.225 421.513 458.5 421.402C457.775 421.291 457.08 421.034 456.457 420.647C455.834 420.26 455.297 419.75 454.876 419.149L454.675 410.386Z" fill="#DD6A57"/>
<path d="M463.573 404.827C463.573 404.827 463.707 404.827 463.573 404.962C462.092 406.183 460.886 407.702 460.033 409.421C459.179 411.139 458.698 413.018 458.619 414.936C458.744 414.521 458.958 414.139 459.245 413.816C459.532 413.492 459.887 413.235 460.283 413.063C460.68 412.89 461.11 412.806 461.542 412.816C461.975 412.825 462.4 412.929 462.788 413.12C462.9 413.12 462.788 413.322 462.788 413.344C462.102 413.291 461.416 413.449 460.823 413.798C460.23 414.147 459.758 414.669 459.471 415.294C459.006 416.358 458.66 417.471 458.44 418.612C458.328 418.97 457.7 418.925 457.745 418.612C456.602 413.815 458.709 406.441 463.573 404.827Z" fill="#263238"/>
<path d="M505.978 529.669C502.011 502.145 493.539 470.7 485.313 460.322C478.433 451.626 467.024 454.697 467.248 486.546C467.248 498.335 466.195 515.145 464.805 529.669H505.978Z" fill="#DD6A57"/>
<path d="M467.45 471.865C470.947 441.921 484.439 444.97 494.167 470.095C500.565 487.664 505.806 505.633 509.856 523.887L461.107 526.128C461.107 526.128 465.231 491.029 467.45 471.865Z" fill="#455A64"/>
<path d="M503.49 508.354C503.7 509.841 503.7 511.35 503.49 512.837C503.282 514.341 502.875 515.81 502.28 517.207C502.071 515.72 502.071 514.212 502.28 512.725C502.465 511.216 502.873 509.743 503.49 508.354Z" fill="white"/>
<path d="M483.61 496.094C482.123 496.305 480.614 496.305 479.127 496.094C477.623 495.889 476.153 495.482 474.757 494.884C476.244 494.675 477.753 494.675 479.239 494.884C480.744 495.088 482.215 495.495 483.61 496.094Z" fill="white"/>
<path d="M481.324 457.88C482.526 458.808 483.59 459.902 484.484 461.13C485.421 462.319 486.177 463.641 486.726 465.052C485.524 464.131 484.46 463.045 483.565 461.824C482.636 460.622 481.882 459.294 481.324 457.88Z" fill="white"/>
<path d="M496.004 486.815C496.933 485.613 498.027 484.549 499.254 483.655C500.444 482.718 501.766 481.962 503.177 481.413C502.256 482.614 501.169 483.679 499.949 484.574C498.746 485.503 497.418 486.257 496.004 486.815Z" fill="white"/>
<path d="M476.617 522.676C477.545 521.475 478.64 520.411 479.867 519.516C481.059 518.584 482.38 517.829 483.789 517.275C482.869 518.476 481.782 519.54 480.562 520.435C479.359 521.364 478.031 522.119 476.617 522.676Z" fill="white"/>
<path d="M465.881 481.167C465.365 485.111 464.738 489.034 464.133 492.956C463.909 491.253 463.617 489.594 463.236 487.913C463.236 487.913 463.102 487.913 463.124 487.913C463.303 489.258 463.415 490.603 463.617 491.947L463.886 493.897C463.886 494.032 463.886 494.166 463.886 494.301C463.416 497.371 462.967 500.42 462.586 503.513C462.116 507.166 461.757 510.842 461.376 514.518C460.995 518.193 460.95 522.542 460.435 526.329C462.021 526.418 463.611 526.358 465.186 526.15C465.634 526.15 465.679 525.679 465.186 525.769C464.693 525.859 461.017 525.657 460.95 525.635C461.331 521.959 462.093 518.283 462.564 514.607C463.035 510.931 463.55 507.278 463.953 503.602C464.76 496.139 465.141 488.63 465.926 481.189C466.038 481.077 465.881 481.077 465.881 481.167Z" fill="#263238"/>
<path d="M501.675 486.12C501.675 487.577 501.675 489.056 501.832 490.603C501.832 491.208 501.832 491.791 501.989 492.396C500.584 487.734 499.165 483.087 497.73 478.455C499.658 486.21 501.563 493.942 503.625 501.63C505.337 509.045 507.425 516.369 509.878 523.573C508.434 523.715 507.002 523.969 505.597 524.335C507.274 524.466 508.962 524.383 510.618 524.088C508.961 516.258 506.911 508.515 504.477 500.89C503.871 498.784 503.244 496.699 502.616 494.592C502.437 493.225 502.37 491.858 502.28 490.468C502.19 489.079 501.966 487.555 501.787 486.098C501.832 486.031 501.675 486.031 501.675 486.12Z" fill="#263238"/>
<path d="M505.687 517.79C498.694 517.678 470.005 518.306 463.819 518.844C463.371 518.844 463.304 519.157 463.819 519.18C477.807 519.569 491.807 519.195 505.754 518.059C505.844 518.037 505.866 517.79 505.687 517.79Z" fill="#263238"/>
<path d="M487.824 1.12061H295.877V193.067H487.824V1.12061Z" fill="white"/>
<path d="M488.944 194.188H294.711V0H488.9L488.944 194.188ZM296.998 191.947H486.703V2.24132H296.953L296.998 191.947Z" fill="#EBEBEB"/>
<path d="M316.946 12.5065C316.946 13.6236 316.614 14.7156 315.994 15.6445C315.373 16.5733 314.491 17.2972 313.459 17.7247C312.427 18.1522 311.291 18.2641 310.196 18.0461C309.1 17.8282 308.094 17.2903 307.304 16.5004C306.514 15.7105 305.976 14.7041 305.758 13.6084C305.54 12.5128 305.652 11.3771 306.079 10.3451C306.507 9.31301 307.231 8.43091 308.16 7.81028C309.088 7.18966 310.18 6.8584 311.297 6.8584C312.795 6.8584 314.232 7.45347 315.291 8.5127C316.351 9.57193 316.946 11.0085 316.946 12.5065Z" fill="#C7C7C7"/>
<path d="M334.36 18.1547C337.48 18.1547 340.008 15.6259 340.008 12.5065C340.008 9.38714 337.48 6.8584 334.36 6.8584C331.241 6.8584 328.712 9.38714 328.712 12.5065C328.712 15.6259 331.241 18.1547 334.36 18.1547Z" fill="#EBEBEB"/>
<path d="M357.446 18.1547C360.565 18.1547 363.094 15.6259 363.094 12.5065C363.094 9.38714 360.565 6.8584 357.446 6.8584C354.327 6.8584 351.798 9.38714 351.798 12.5065C351.798 15.6259 354.327 18.1547 357.446 18.1547Z" fill="#3DCB76"/>
<path d="M487.824 22.4583H295.877V24.6996H487.824V22.4583Z" fill="#EBEBEB"/>
<path d="M487.824 1.12061H295.877V193.067H487.824V1.12061Z" fill="white"/>
<path d="M488.944 194.188H294.711V0H488.9L488.944 194.188ZM296.998 191.947H486.703V2.24132H296.953L296.998 191.947Z" fill="#EBEBEB"/>
<path d="M316.946 12.5065C316.946 13.6236 316.614 14.7156 315.994 15.6445C315.373 16.5733 314.491 17.2972 313.459 17.7247C312.427 18.1522 311.291 18.2641 310.196 18.0461C309.1 17.8282 308.094 17.2903 307.304 16.5004C306.514 15.7105 305.976 14.7041 305.758 13.6084C305.54 12.5128 305.652 11.3771 306.079 10.3451C306.507 9.31301 307.231 8.43091 308.16 7.81028C309.088 7.18966 310.18 6.8584 311.297 6.8584C312.795 6.8584 314.232 7.45347 315.291 8.5127C316.351 9.57193 316.946 11.0085 316.946 12.5065Z" fill="#A6A6A6"/>
<path d="M334.36 18.1547C337.48 18.1547 340.008 15.6259 340.008 12.5065C340.008 9.38714 337.48 6.8584 334.36 6.8584C331.241 6.8584 328.712 9.38714 328.712 12.5065C328.712 15.6259 331.241 18.1547 334.36 18.1547Z" fill="#EBEBEB"/>
<path d="M357.446 18.1547C360.565 18.1547 363.094 15.6259 363.094 12.5065C363.094 9.38714 360.565 6.8584 357.446 6.8584C354.327 6.8584 351.798 9.38714 351.798 12.5065C351.798 15.6259 354.327 18.1547 357.446 18.1547Z" fill="#3DCB76"/>
<path d="M487.824 22.4583H295.877V24.6996H487.824V22.4583Z" fill="#EBEBEB"/>
<path d="M380.868 31.1992C370.065 45.1402 369.123 65.9173 369.123 65.9173C369.123 65.9173 359.844 87.927 364.641 98.5733C365.925 101.618 367.93 104.304 370.484 106.401C373.037 108.498 376.063 109.942 379.299 110.609L377.326 104.625C377.326 104.625 382.325 111.999 396.064 113.59C409.803 115.181 426.904 108.682 435.489 102.854C440.578 99.4357 444.694 94.756 447.435 89.2718L445.194 98.6405C449.473 97.5941 453.428 95.5056 456.705 92.561C459.982 89.6164 462.479 85.9071 463.976 81.7634C469.893 67.0155 445.261 50.0711 442.84 46.0591C440.42 42.0472 434.054 11.2963 402.071 20.8667C401.981 20.7546 388.331 21.6063 380.868 31.1992Z" fill="#263238"/>
<path d="M374.413 110.43C370.419 108.839 367.003 106.072 364.618 102.496C362.102 99.0252 360.823 94.8105 360.987 90.5269C361.552 85.4466 363.033 80.5107 365.358 75.9583C367.442 71.1395 369.841 66.4775 371.88 61.6363C371.992 61.3673 371.589 61.2104 371.432 61.4121C368.97 65.1968 366.725 69.1179 364.708 73.1567C362.59 76.879 360.912 80.8354 359.71 84.946C358.59 88.7426 358.59 92.7819 359.71 96.5785C360.762 99.645 362.538 102.413 364.887 104.647C367.749 107.071 370.913 109.112 374.301 110.721C374.503 110.833 374.637 110.497 374.413 110.43Z" fill="#263238"/>
<path d="M464.805 67.15C459.426 56.2124 448.22 50.2953 440.689 41.1283C436.587 36.175 433.203 30.5269 428.205 26.4028C428.07 26.4028 427.868 26.5373 428.003 26.6494C432.149 30.3924 434.906 35.2112 438.134 39.6939C441.539 44.1607 445.375 48.2821 449.587 51.9987C457.073 58.9244 465.993 67.1052 465.926 78.1549C465.926 83.2651 463.685 89.2046 458.687 91.4236C458.507 91.4236 458.687 91.827 458.843 91.7149C460.768 90.6423 462.455 89.1889 463.799 87.4433C465.144 85.6977 466.119 83.6966 466.666 81.5618C467.817 76.6914 467.156 71.5684 464.805 67.15Z" fill="#263238"/>
<path d="M465.679 70.1535C465.457 65.7764 463.892 61.574 461.197 58.1176C458.284 54.9017 454.714 52.3488 450.73 50.6316C446.247 48.3903 441.652 46.4179 438.492 42.4284C438.358 42.2715 438.134 42.4284 438.268 42.6525C443.289 49.242 451.559 51.6178 457.611 56.8401C464.559 62.8917 465.836 72.8431 462.676 81.2032C460.643 86.3031 457.433 90.8497 453.307 94.4719V94.5839C460.569 88.51 466.307 79.8585 465.679 70.1535Z" fill="#263238"/>
<path d="M328.466 51.4831L340.233 102.921C340.748 104.423 339.964 105.633 338.484 105.589L312.104 105.006C311.298 104.933 310.529 104.63 309.89 104.133C309.25 103.637 308.766 102.967 308.495 102.204L296.751 50.7883C296.235 49.2642 297.02 48.0763 298.477 48.0987L324.879 48.6815C325.683 48.7562 326.448 49.0599 327.083 49.5565C327.719 50.0532 328.199 50.7218 328.466 51.4831Z" fill="#A6A6A6"/>
<path d="M325.35 51.3937L337.095 102.81C337.61 104.334 336.826 105.522 335.369 105.499L308.966 104.916C308.162 104.838 307.396 104.533 306.757 104.037C306.118 103.541 305.633 102.875 305.358 102.115L293.613 50.5644C293.098 49.0627 293.882 47.8524 295.361 47.8972L321.742 48.4799C322.561 48.5621 323.339 48.8816 323.98 49.3991C324.621 49.9166 325.097 50.6097 325.35 51.3937Z" fill="#DBDBDB"/>
<path d="M318.066 53.5677C318.066 54.011 318.198 54.4444 318.444 54.813C318.69 55.1815 319.04 55.4688 319.45 55.6385C319.859 55.8081 320.31 55.8525 320.745 55.766C321.179 55.6795 321.579 55.466 321.892 55.1526C322.206 54.8391 322.419 54.4398 322.506 54.005C322.592 53.5702 322.548 53.1196 322.378 52.71C322.209 52.3005 321.921 51.9504 321.553 51.7042C321.184 51.4579 320.751 51.3264 320.307 51.3264C319.713 51.3264 319.143 51.5626 318.723 51.9829C318.302 52.4032 318.066 52.9733 318.066 53.5677Z" fill="#455A64"/>
<path d="M411.843 130.804C396.467 162.429 362.399 203.288 348.503 203.288C341.891 203.288 330.079 204.7 321.607 197.012C302.915 180.202 287.539 148.331 284.558 130.154C283.505 123.721 314.883 110.273 319.545 115.473C330.214 127.89 342.496 152.186 344.424 152.074C351.529 151.625 379.613 128.854 399.224 112.828C423.005 93.3734 417.984 118.207 411.843 130.804Z" fill="#EB9481"/>
<path d="M284.155 96.8249C287.651 83.7804 290.543 80.9563 287.651 68.3825C285.746 60.1344 290.206 55.3829 295.944 62.062C305.335 72.9772 304.371 90.7509 302.242 96.8249H284.155Z" fill="#EB9481"/>
<path d="M285.948 135.802C285.948 135.802 280.345 117.49 282.698 103.213C284.312 93.3512 290.229 72.2828 318.066 61.4796C324.656 58.9245 335.885 59.9555 326.628 68.0467C320.038 73.8069 314.144 75.4655 310.939 79.4998C310.939 79.4998 325.059 82.5032 327.368 89.2272C329.384 95.0828 330.979 101.075 332.142 107.158C331.076 107.62 329.983 108.016 328.869 108.346C328.869 108.346 330.797 114.756 326.09 123.721L285.948 135.802Z" fill="#EB9481"/>
<path d="M285.746 94.046C289.78 90.7064 298.477 83.7807 307.554 80.598C317.618 77.0568 337.991 72.9327 340.546 80.3963C342.407 85.8876 334.764 88.1289 334.764 88.1289C334.764 88.1289 343.55 88.1289 344.155 93.5305C344.693 98.3717 338.686 99.7614 338.686 99.7614C338.686 99.7614 343.998 100.725 343.639 105.477C343.191 111.215 332.119 108.278 326.65 113.68C325.417 114.89 285.746 94.046 285.746 94.046Z" fill="#EB9481"/>
<path d="M309.527 91.8718C317.293 88.0417 326.045 86.6808 334.607 87.9719C334.809 87.9719 334.898 88.196 334.607 88.196C326.103 88.4274 317.658 89.6918 309.459 91.9615C309.459 91.9615 309.482 91.8942 309.527 91.8718Z" fill="#263238"/>
<path d="M313.404 101.935C321.452 98.8678 330.182 98.039 338.664 99.5372C338.888 99.5372 338.955 99.7838 338.664 99.7838C330.163 99.5643 321.666 100.316 313.337 102.025C313.337 102.025 313.359 101.958 313.404 101.935Z" fill="#263238"/>
<path d="M365.066 137.281L397.61 161.42C397.61 161.42 413.456 140.06 417.199 121.076C420.943 102.092 411.238 101.913 396.579 113.545C381.921 125.178 365.066 137.281 365.066 137.281Z" fill="#3DCB76"/>
<path d="M372.351 133.829C374.234 134.726 390.035 146.089 400.547 154.539C400.681 154.673 400.547 154.875 400.39 154.786C394.383 151.58 379.523 140.284 372.172 134.031C372.037 133.919 372.217 133.762 372.351 133.829Z" fill="#263238"/>
<path d="M417.2 120.964C413.479 140.06 397.61 161.308 397.61 161.308L375.87 145.193L408.66 106.082C415.989 103.706 419.777 107.875 417.2 120.964Z" fill="#263238"/>
<path d="M486.501 179.956C473.703 153.284 457.7 124.259 443.109 110.273C442.414 109.601 441.697 108.951 441.002 108.368L440.599 108.009C426.411 95.9736 411.462 101.711 401.891 111.618C399.65 114.083 374.435 154.763 373.359 169.399C372.687 178.544 377.483 187.576 380.352 192.104H486.501V179.956Z" fill="#3DCB76"/>
<path d="M486.501 140.665C472.829 127.957 458.597 116.84 449.273 111.371C438.738 105.208 420.247 101.151 438.066 129.078C448.511 145.395 465.477 175.316 473.546 192.104H486.456L486.501 140.665Z" fill="#EB9481"/>
<path d="M451.604 160.389L481.1 132.686C481.1 132.686 462.967 113.231 444.857 106.126C426.748 99.0214 424.932 108.525 433.651 125.021C442.37 141.517 451.604 160.389 451.604 160.389Z" fill="#3DCB76"/>
<path d="M449.363 152.634C450.573 150.931 464.626 137.438 474.824 128.63C474.981 128.518 475.16 128.63 475.048 128.831C470.79 134.166 457.006 146.762 449.52 152.836C449.363 152.858 449.363 152.858 449.363 152.634Z" fill="#263238"/>
<path d="M454.832 157.094C454.608 157.094 451.649 159.044 451.47 159.201C451.246 158.685 450.954 158.192 450.685 157.654L448.959 154.203C447.637 151.67 446.292 149.182 444.88 146.694C442.123 141.853 439.12 137.057 436.587 132.081C436.587 131.879 436.184 132.081 436.296 132.283C437.686 134.905 438.985 137.617 440.241 140.329C440.039 140.15 437.103 137.796 436.632 137.326C436.161 136.855 436.206 137.438 436.386 137.595C436.901 137.976 440.868 141.965 441.07 142.077L443.468 147.187C444.649 149.683 445.881 152.148 447.166 154.584C447.771 155.727 448.377 156.825 449.004 157.991C449.632 159.156 450.887 161.24 450.909 161.285C452.385 160.072 453.784 158.77 455.101 157.385C455.108 157.348 455.106 157.308 455.096 157.271C455.085 157.234 455.066 157.2 455.04 157.172C455.013 157.144 454.981 157.122 454.945 157.108C454.909 157.095 454.87 157.09 454.832 157.094Z" fill="#263238"/>
<path d="M419.799 98.4391C413.905 99.0442 406.957 103.191 401.443 110.654C396.602 117.221 392.164 126.568 395.503 128.585C399.336 130.826 406.934 122.376 406.934 122.376C406.934 122.376 405.007 136.116 412.313 135.421C420.853 134.614 428.653 122.735 430.087 114.689C431.611 105.992 430.065 97.3857 419.799 98.4391Z" fill="white"/>
<path d="M428.205 105.791C427.622 107.785 417.245 120.426 408.033 119.507C405.029 119.194 405.971 102.698 405.971 102.698L405.769 101.465L402.855 84.1842L423.587 72.3724L426.591 70.8259C426.591 70.8259 427.061 75.6 427.622 81.5619V82.4136C427.622 82.7498 427.622 83.0636 427.734 83.3773C427.734 84.2739 427.913 85.1704 427.98 86.0894C428.048 87.0083 427.98 87.4341 428.137 88.1738L428.272 90.4151C428.588 95.5361 428.565 100.672 428.205 105.791Z" fill="#EB9481"/>
<path d="M427.577 81.4945C425.594 86.1975 422.613 90.4134 418.84 93.85C415.067 97.2866 410.591 99.8619 405.724 101.397L402.81 84.1168L423.543 72.3051L426.546 70.7585C426.546 70.7585 426.949 75.5326 427.577 81.4945Z" fill="#263238"/>
<path d="M377.192 59.2157C375.623 89.9218 393.845 94.3148 400.479 94.651C406.486 94.9424 426.994 95.1889 431.701 64.819C436.408 34.4491 422.623 24.0046 408.929 22.5925C395.234 21.1805 378.738 28.5096 377.192 59.2157Z" fill="#EB9481"/>
<path d="M383.086 54.8228C383.783 54.7111 384.472 54.5539 385.149 54.3521C385.902 54.2854 386.611 53.97 387.166 53.4556C387.313 53.2666 387.393 53.0339 387.393 52.7944C387.393 52.5548 387.313 52.3221 387.166 52.1332C386.81 51.8049 386.373 51.5778 385.9 51.4753C385.427 51.3728 384.936 51.3988 384.476 51.5505C383.498 51.7015 382.615 52.2231 382.011 53.0073C381.876 53.1882 381.797 53.4049 381.785 53.6303C381.773 53.8556 381.828 54.0795 381.943 54.2736C382.058 54.4678 382.228 54.6235 382.432 54.7213C382.635 54.819 382.863 54.8543 383.086 54.8228Z" fill="#263238"/>
<path d="M404.379 55.0694C403.669 54.9804 402.965 54.8457 402.272 54.666C401.522 54.6292 400.805 54.3456 400.233 53.8591C400.086 53.6702 400.006 53.4375 400.006 53.1979C400.006 52.9584 400.086 52.7257 400.233 52.5368C400.573 52.1911 401.001 51.9441 401.471 51.8217C401.94 51.6994 402.434 51.7064 402.9 51.8419C403.88 51.9635 404.777 52.4521 405.41 53.2091C405.545 53.389 405.625 53.604 405.64 53.8283C405.656 54.0525 405.606 54.2765 405.497 54.4731C405.388 54.6697 405.225 54.8306 405.026 54.9364C404.828 55.0422 404.603 55.0884 404.379 55.0694Z" fill="#263238"/>
<path d="M400.435 62.9141C400.435 62.9141 400.592 62.9141 400.592 63.0934C400.592 65.1778 400.771 67.576 402.676 68.2933V68.4277C400.345 68.0915 400.054 64.8864 400.435 62.9141Z" fill="#263238"/>
<path d="M402.295 60.7397C405.68 60.4932 405.904 67.2396 402.788 67.4637C399.673 67.6878 399.471 60.9639 402.295 60.7397Z" fill="#263238"/>
<path d="M403.64 60.9639C404.245 61.345 404.85 61.9949 405.567 62.0398C406.285 62.0846 406.98 61.3674 407.495 60.6501H407.607C407.607 61.9277 407.226 63.2725 405.859 63.519C404.492 63.7656 403.618 62.6225 403.281 61.2777C403.214 61.2553 403.393 60.9639 403.64 60.9639Z" fill="#263238"/>
<path d="M387.278 62.4209C387.278 62.4209 387.121 62.4209 387.121 62.6002C387.278 64.7071 387.121 67.0829 385.261 67.8897C385.261 67.8897 385.261 68.0242 385.261 67.8897C387.569 67.688 387.771 64.3708 387.278 62.4209Z" fill="#263238"/>
<path d="M385.328 60.3139C381.944 60.2018 381.966 67.0378 385.104 67.0378C388.242 67.0378 388.152 60.4035 385.328 60.3139Z" fill="#263238"/>
<path d="M383.916 60.762C383.378 61.1206 382.863 61.7706 382.213 61.8154C381.563 61.8603 380.935 61.1431 380.465 60.4482H380.353C380.353 61.7482 380.756 63.093 381.989 63.3395C383.221 63.5861 383.961 62.443 384.23 61.0982C384.365 60.9637 384.14 60.6275 383.916 60.762Z" fill="#263238"/>
<path d="M400.053 79.0066C399.583 79.5221 399.134 80.2393 398.395 80.3738C397.631 80.4041 396.869 80.2822 396.154 80.0151C396.154 80.0151 396.019 80.0152 396.154 80.1272C396.487 80.5158 396.919 80.8066 397.405 80.9685C397.89 81.1303 398.411 81.1572 398.91 81.0462C399.323 80.898 399.683 80.6322 399.946 80.2816C400.208 79.9311 400.363 79.5112 400.39 79.0738C400.188 78.8945 400.053 78.8945 400.053 79.0066Z" fill="#263238"/>
<path d="M391.088 71.6326C391.088 71.6326 390.73 74.7704 390.752 76.2497C390.752 76.3842 391.111 76.4514 391.626 76.4514C392.894 76.6549 394.194 76.5029 395.381 76.0123C396.568 75.5217 397.596 74.7116 398.35 73.6722C398.462 73.5377 398.35 73.3808 398.126 73.4929C396.27 74.8145 394.039 75.5059 391.761 75.4652C391.649 75.0618 392.568 70.1085 392.321 70.1085C391.184 70.2412 390.069 70.5199 389.004 70.9378C389.564 64.3931 391.245 57.9829 391.626 51.4383C391.626 51.2141 391.29 51.1469 391.223 51.4383C389.297 58.2607 388.058 65.2585 387.525 72.3274C387.435 73.0895 390.438 71.9015 391.088 71.6326Z" fill="#263238"/>
<path d="M391.761 75.9136C392.653 77.0816 393.824 78.0065 395.168 78.6032C395.916 78.9031 396.74 78.958 397.521 78.7601C399.224 78.3342 399.269 76.7877 398.978 75.4429C398.811 74.7368 398.563 74.0523 398.238 73.4033C396.399 74.9051 394.131 75.7841 391.761 75.9136Z" fill="#263238"/>
<path d="M395.167 78.6029C395.916 78.9028 396.74 78.9577 397.521 78.7598C399.224 78.3339 399.269 76.7874 398.978 75.4426C398.081 75.4674 397.218 75.7921 396.527 76.365C395.836 76.9379 395.358 77.7259 395.167 78.6029Z" fill="#FF99BA"/>
<path d="M428.966 66.2983C421.413 66.2983 418.432 43.1679 418.096 40.3214C418.208 42.1145 418.791 51.6625 418.096 52.0659C417.282 52.0787 416.472 51.9576 415.698 51.7073C415.657 50.5637 415.53 49.4249 415.317 48.3005C415.317 47.7626 415.16 49.4436 414.936 51.528L413.524 51.1694C413.529 48.7239 413.205 46.2888 412.56 43.9299C412.313 43.0558 412.201 47.1126 411.462 50.6539C404.959 48.9838 398.292 48.0367 391.581 47.8298C389.699 47.8298 388.062 47.8298 386.628 48.0091C386.733 46.2849 386.733 44.5559 386.628 42.8317C386.122 44.5496 385.792 46.3143 385.642 48.0988L383.4 48.3453C383.087 44.3558 384.768 37.9456 384.162 38.9318C382.362 41.9923 381.167 45.371 380.644 48.8832C377.932 49.4884 377.192 50.0487 377.102 49.3539C377.649 41.4781 380.987 34.0554 386.516 28.42C395.66 19.2082 414.398 16.3617 425.47 29.6751C425.47 29.6751 434.435 35.0991 436.094 44.2437C437.752 53.3883 433.337 66.2983 428.966 66.2983Z" fill="#263238"/>
<path d="M425.627 66.2983C425.627 66.2983 431.993 56.4589 436.43 58.7002C440.868 60.9415 436.43 75.017 431.298 77.1014C430.669 77.4136 429.983 77.5956 429.282 77.6367C428.581 77.6779 427.879 77.5772 427.218 77.3408C426.557 77.1043 425.95 76.737 425.434 76.2607C424.918 75.7844 424.504 75.209 424.215 74.5688L425.627 66.2983Z" fill="#EB9481"/>
<path d="M435.041 62.7122C435.041 62.7122 435.041 62.7122 435.041 62.8466C433.428 63.7236 432.016 64.9285 430.897 66.3837C429.777 67.839 428.975 69.5124 428.541 71.2964C428.738 70.9301 429.012 70.6106 429.344 70.3599C429.677 70.1092 430.059 69.9332 430.465 69.8438C430.872 69.7544 431.293 69.7538 431.699 69.8421C432.106 69.9303 432.489 70.1053 432.822 70.3551C432.822 70.3551 432.822 70.5792 432.71 70.5568C432.072 70.382 431.396 70.4089 430.774 70.6336C430.152 70.8583 429.614 71.2699 429.236 71.8119C428.613 72.718 428.087 73.6872 427.667 74.7032C427.51 75.0394 426.927 74.8825 427.039 74.5015C426.815 69.9292 430.132 63.3397 435.041 62.7122Z" fill="#263238"/>
<path d="M195.309 238.499H3.36218V430.446H195.309V238.499Z" fill="white"/>
<path d="M196.43 431.566H2.24146V237.378H196.43V431.566ZM4.48278 429.325H194.188V239.62H4.48278V429.325Z" fill="#EBEBEB"/>
<path d="M24.4305 249.907C24.4261 251.023 24.0911 252.113 23.4678 253.039C22.8444 253.965 21.9608 254.685 20.9283 255.11C19.8959 255.534 18.761 255.642 17.6668 255.422C16.5727 255.201 15.5684 254.662 14.7807 253.871C13.993 253.08 13.4573 252.074 13.2412 250.979C13.0251 249.884 13.1382 248.749 13.5664 247.718C13.9945 246.688 14.7185 245.807 15.6468 245.187C16.5751 244.568 17.6662 244.237 18.7824 244.237C19.526 244.237 20.2623 244.384 20.949 244.669C21.6357 244.954 22.2594 245.372 22.7842 245.899C23.3089 246.426 23.7245 247.051 24.007 247.739C24.2895 248.427 24.4335 249.164 24.4305 249.907Z" fill="#A6A6A6"/>
<path d="M47.4936 249.907C47.4892 251.023 47.1541 252.113 46.5308 253.039C45.9075 253.965 45.0239 254.685 43.9914 255.11C42.959 255.534 41.824 255.642 40.7299 255.422C39.6357 255.201 38.6315 254.662 37.8438 253.871C37.0561 253.08 36.5204 252.074 36.3043 250.979C36.0882 249.884 36.2013 248.749 36.6295 247.718C37.0576 246.688 37.7815 245.807 38.7099 245.187C39.6382 244.568 40.7293 244.237 41.8455 244.237C42.5891 244.237 43.3254 244.384 44.0121 244.669C44.6988 244.954 45.3225 245.372 45.8472 245.899C46.372 246.426 46.7876 247.051 47.0701 247.739C47.3526 248.427 47.4965 249.164 47.4936 249.907Z" fill="#EBEBEB"/>
<path d="M64.9088 255.555C68.0281 255.555 70.5569 253.027 70.5569 249.907C70.5569 246.788 68.0281 244.259 64.9088 244.259C61.7894 244.259 59.2606 246.788 59.2606 249.907C59.2606 253.027 61.7894 255.555 64.9088 255.555Z" fill="#3DCB76"/>
<path d="M195.309 259.836H3.36218V262.078H195.309V259.836Z" fill="#EBEBEB"/>
<path d="M194.166 317.394C187.823 303.699 178.947 294.667 177.199 295.294C174.958 296.079 149.989 352.739 147.345 354.756C144.7 356.774 132.216 351.462 108.884 341.712C85.5514 331.962 86.6944 349.646 102.854 367.666C119.014 385.687 145.439 403.214 165.611 399.964C177.714 398.036 187.868 378.94 194.076 363.117L194.166 317.394Z" fill="#263238"/>
<path d="M145.708 397.633C130.131 392.366 114.016 380.151 102.854 367.666C88.734 351.977 86.0668 336.467 101.173 339.314L145.708 397.633Z" fill="#455A64"/>
<path d="M97.9461 355.182C91.2221 357.648 77.9311 348.324 72.1933 340.188C71.8123 339.628 72.014 333.262 71.8795 325.53C71.8795 320.823 71.5882 315.601 71.0502 310.827C70.9158 309.863 74.457 311.275 74.457 311.275L80.7776 312.059L101.712 314.704C100.69 320.842 100.419 327.081 100.905 333.285C100.983 333.947 101.126 334.6 101.33 335.235C101.337 335.339 101.337 335.444 101.33 335.548C102.429 339.179 104.536 352.829 97.9461 355.182Z" fill="#F7A9A0"/>
<path d="M101.33 335.235C101.337 335.339 101.337 335.444 101.33 335.548C100.327 335.791 99.3087 335.963 98.2819 336.064C78.11 337.879 72.7308 312.62 72.7308 312.62L80.7099 312.059L101.644 314.704C100.622 320.842 100.351 327.081 100.837 333.285C100.938 333.949 101.103 334.602 101.33 335.235Z" fill="#263238"/>
<path d="M64.1467 274.114C61.3451 284.894 68.2707 315.399 76.1378 321.921C87.5237 331.402 105.544 331.581 113.411 318.043C121.054 304.909 111.327 265.305 102.608 259.455C89.765 250.804 68.338 258.2 64.1467 274.114Z" fill="#F7A9A0"/>
<path d="M90.3253 292.358C90.3253 292.358 90.1908 292.493 90.2132 292.582C90.7287 294.622 90.9753 297.065 89.2719 298.141C89.2719 298.141 89.2719 298.275 89.2719 298.253C91.5132 297.424 91.1546 294.196 90.3253 292.358Z" fill="#263238"/>
<path d="M88.0169 290.61C84.6549 291.103 85.7756 297.782 88.9806 297.334C92.1857 296.886 90.7513 290.207 88.0169 290.61Z" fill="#263238"/>
<path d="M102.854 289.691C102.854 289.691 103.034 289.691 103.034 289.848C103.347 291.932 104.065 294.33 106.059 294.622V294.734C103.706 294.846 102.809 291.82 102.854 289.691Z" fill="#263238"/>
<path d="M104.311 287.203C107.584 286.351 109.063 292.986 106.015 293.77C102.966 294.555 101.554 287.92 104.311 287.203Z" fill="#263238"/>
<path d="M84.8118 288.032C85.6456 287.618 86.4539 287.154 87.2323 286.643C88.1691 286.284 88.9583 285.621 89.4737 284.76C89.5749 284.463 89.5772 284.14 89.4802 283.841C89.3833 283.542 89.1923 283.283 88.9358 283.101C88.3657 282.818 87.7296 282.693 87.0946 282.74C86.4595 282.788 85.849 283.005 85.3272 283.37C84.1601 283.948 83.2493 284.938 82.7721 286.15C82.6802 286.428 82.6703 286.726 82.7436 287.01C82.8169 287.293 82.9703 287.55 83.1854 287.748C83.4006 287.947 83.6683 288.079 83.9568 288.13C84.2452 288.18 84.542 288.146 84.8118 288.032Z" fill="#263238"/>
<path d="M106.284 283.37C105.32 283.37 104.446 283.236 103.504 283.146C102.514 283.217 101.529 282.956 100.703 282.407C100.476 282.182 100.329 281.89 100.284 281.574C100.24 281.258 100.3 280.937 100.456 280.658C100.855 280.162 101.379 279.781 101.973 279.552C102.568 279.324 103.212 279.257 103.841 279.358C105.142 279.375 106.389 279.879 107.337 280.77C107.548 280.982 107.692 281.251 107.752 281.544C107.811 281.838 107.783 282.142 107.67 282.419C107.558 282.696 107.367 282.934 107.12 283.103C106.873 283.272 106.583 283.365 106.284 283.37Z" fill="#263238"/>
<path d="M92.4545 311.566C93.0373 311.947 93.6648 312.53 94.4269 312.463C95.229 312.313 95.9919 312 96.6682 311.544C96.6682 311.544 96.8027 311.544 96.6682 311.544C96.4404 312.003 96.0936 312.393 95.6639 312.673C95.2343 312.953 94.7374 313.112 94.2252 313.135C93.7837 313.099 93.3629 312.932 93.0158 312.657C92.6687 312.382 92.411 312.01 92.2752 311.588C92.208 311.566 92.3649 311.499 92.4545 311.566Z" fill="#263238"/>
<path d="M93.508 304.954C94.1868 305.673 95.0073 306.244 95.9178 306.63C96.8282 307.015 97.8088 307.208 98.7976 307.196C99.661 307.207 100.522 307.094 101.353 306.859L101.823 306.703L102.272 306.568C102.375 306.523 102.463 306.447 102.523 306.351C102.583 306.255 102.613 306.143 102.608 306.03C102.621 305.964 102.621 305.895 102.608 305.828V305.649C102.361 304.035 101.779 301.637 101.779 301.637C102.406 301.817 105.611 302.623 105.432 301.794C103.927 294.636 101.712 287.646 98.82 280.927C98.82 280.726 98.3717 280.927 98.4389 281.062C99.7837 287.786 102.272 294.039 103.728 300.673C102.582 300.366 101.397 300.222 100.21 300.248C100.008 300.36 101.442 304.865 101.487 305.604C100.205 305.978 98.8608 306.087 97.5355 305.925C96.2102 305.763 94.9315 305.334 93.777 304.663C93.4856 304.641 93.3511 304.82 93.508 304.954Z" fill="#263238"/>
<path d="M100.255 306.523C99.5243 307.788 98.4827 308.845 97.2287 309.594C96.5456 309.972 95.7648 310.136 94.9874 310.065C93.2616 309.84 93.015 308.316 93.1495 306.972C93.2285 306.254 93.3863 305.548 93.6202 304.865C95.6006 306.105 97.9233 306.686 100.255 306.523Z" fill="#263238"/>
<path d="M97.2287 309.594C96.5456 309.972 95.7648 310.136 94.9874 310.065C93.2616 309.841 93.015 308.317 93.1495 306.972C94.0244 306.892 94.9007 307.107 95.6397 307.582C96.3786 308.057 96.9378 308.765 97.2287 309.594Z" fill="#FF99BA"/>
<path d="M66.9708 297.334C74.0085 295.967 72.9327 282.9 72.9327 282.9C72.9327 282.9 84.6772 278.596 84.6997 269.138C84.6997 269.138 97.5873 274.293 105.992 269.295C114.397 264.297 111.013 253.292 109.578 251.364C106.261 246.882 99.9855 254.681 99.9855 254.681C91.7886 251.93 82.9731 251.595 74.5913 253.718C64.2812 256.766 60.8968 267.681 60.8968 267.681C60.8968 267.681 55.4728 269.922 54.397 274.271C53.3211 278.619 62.4882 298.208 66.9708 297.334Z" fill="#263238"/>
<path d="M70.1085 283.527C79.7238 282.989 84.7444 275.571 84.3858 266.336H84.5651C85.8874 274.764 79.8583 285.567 70.1085 283.976C70.0491 283.976 69.9921 283.952 69.95 283.91C69.908 283.868 69.8844 283.811 69.8844 283.751C69.8844 283.692 69.908 283.635 69.95 283.593C69.9921 283.551 70.0491 283.527 70.1085 283.527Z" fill="#263238"/>
<path d="M61.0986 267.39C61.0986 267.39 61.3003 267.502 61.0986 267.569C58.7004 269.273 55.8763 270.774 54.4867 273.509C52.8057 276.826 54.016 280.524 55.4728 283.639C57.7142 288.481 61.6141 294.577 66.6795 296.684C66.7338 296.714 66.775 296.763 66.7947 296.822C66.8144 296.881 66.8112 296.945 66.7857 297.001C66.7603 297.058 66.7144 297.103 66.6574 297.127C66.6003 297.151 66.5361 297.153 66.4777 297.132C60.4038 294.891 55.6073 287.001 53.7246 281.174C51.7523 274.629 55.1815 270.012 61.0986 267.39Z" fill="#263238"/>
<path d="M95.4356 269.609C97.8454 270.564 100.484 270.781 103.018 270.235C105.552 269.688 107.866 268.402 109.668 266.538C113.904 261.809 111.708 255.825 108.637 251.073C108.48 250.849 108.771 250.513 108.973 250.714C112.716 254.681 114.218 261.54 110.923 266.224C109.081 268.483 106.567 270.096 103.746 270.83C100.925 271.563 97.9432 271.379 95.2339 270.303C94.7184 270.147 95.0098 269.407 95.4356 269.609Z" fill="#263238"/>
<path d="M89.5634 303.587C87.8526 303.77 86.1249 303.468 84.577 302.717C83.0291 301.966 81.7231 300.796 80.8076 299.339C79.8922 297.882 79.4041 296.198 79.3988 294.478C79.3936 292.757 79.8715 291.07 80.7781 289.607C81.6847 288.145 82.9836 286.967 84.5269 286.206C86.0703 285.446 87.7961 285.134 89.5079 285.306C91.2198 285.479 92.8489 286.128 94.2099 287.18C95.5709 288.233 96.6091 289.646 97.2063 291.26C98.0468 293.543 97.9478 296.066 96.931 298.276C95.9143 300.486 94.0627 302.202 91.7823 303.049C91.0656 303.313 90.3211 303.493 89.5634 303.587ZM87.7479 286.553C87.0884 286.617 86.4403 286.768 85.8204 287.001C83.9151 287.703 82.3489 289.105 81.4409 290.921C80.5328 292.737 80.3513 294.831 80.9332 296.776C81.515 298.721 82.8166 300.371 84.5727 301.39C86.3288 302.409 88.4073 302.721 90.3849 302.261C92.3625 301.801 94.0904 300.604 95.2167 298.915C96.3429 297.226 96.7827 295.17 96.4465 293.168C96.1104 291.166 95.0235 289.367 93.4073 288.138C91.7912 286.909 89.7673 286.342 87.7479 286.553Z" fill="#3DCB76"/>
<path d="M110.071 298.813C106.597 299.194 103.034 295.944 101.98 291.282C101.434 289.046 101.599 286.696 102.451 284.558C102.791 283.641 103.348 282.82 104.074 282.164C104.8 281.509 105.673 281.038 106.62 280.793C107.58 280.605 108.572 280.654 109.509 280.935C110.446 281.216 111.301 281.721 111.999 282.406C113.673 283.965 114.831 285.998 115.316 288.234C116.437 293.165 114.352 297.872 110.677 298.701L110.071 298.813ZM107.337 281.936H106.889C106.133 282.149 105.438 282.539 104.861 283.073C104.285 283.606 103.843 284.269 103.572 285.006C102.836 286.899 102.695 288.971 103.168 290.946C104.154 295.204 107.382 298.14 110.408 297.446C113.433 296.751 115.07 292.739 114.106 288.48C113.704 286.491 112.684 284.679 111.192 283.303C110.678 282.822 110.071 282.452 109.407 282.217C108.744 281.982 108.039 281.886 107.337 281.936Z" fill="#3DCB76"/>
<path d="M97.1391 292.358L96.153 291.618C97.2512 290.184 100.053 287.92 102.877 289.781L102.182 290.789C99.7167 289.131 97.2288 292.224 97.1391 292.358Z" fill="#3DCB76"/>
<path d="M59.6194 303.632L58.4315 303.318C58.566 302.758 59.9108 297.872 62.4883 296.841C65.0658 295.81 79.4327 293.815 80.1275 293.726L80.2844 294.936C74.4511 295.639 68.6601 296.657 62.9366 297.984C61.2332 298.656 59.9556 302.287 59.6194 303.632Z" fill="#3DCB76"/>
<path d="M71.7896 298.88C71.7896 298.88 64.214 289.399 59.8658 292.156C55.5176 294.913 61.6364 308.966 67.0604 310.625C67.7406 310.882 68.4658 310.998 69.1923 310.967C69.9187 310.936 70.6313 310.758 71.287 310.444C71.9428 310.13 72.5279 309.686 73.0073 309.139C73.4866 308.592 73.8501 307.954 74.0758 307.263L71.7896 298.88Z" fill="#F7A9A0"/>
<path d="M135.107 429.213C130.983 405.948 126.03 382.885 121.457 371.297C116.672 359.891 110.991 348.882 104.468 338.372C103.549 337.162 104.356 332.455 103.46 331.648C102.563 330.841 71.0053 329.564 70.0415 330.371C69.0777 331.178 70.8932 338.798 69.5036 340.838C54.935 352.537 39.8509 392.388 28.7563 429.191L135.107 429.213Z" fill="#263238"/>
<path d="M73.1344 332.478C73.5218 334.86 73.5218 337.29 73.1344 339.672C72.7757 337.287 72.7757 334.862 73.1344 332.478Z" fill="#455A64"/>
<path d="M77.0792 332.478C77.4667 334.86 77.4667 337.29 77.0792 339.672C76.7205 337.287 76.7205 334.862 77.0792 332.478Z" fill="#455A64"/>
<path d="M81.0238 332.478C81.3825 334.862 81.3825 337.287 81.0238 339.672C80.6651 337.287 80.6651 334.862 81.0238 332.478Z" fill="#455A64"/>
<path d="M84.9687 332.478C85.3274 334.862 85.3274 337.287 84.9687 339.672C84.5812 337.29 84.5812 334.86 84.9687 332.478Z" fill="#455A64"/>
<path d="M88.9131 332.478C89.2719 334.862 89.2719 337.287 88.9131 339.672C88.5257 337.29 88.5257 334.86 88.9131 332.478Z" fill="#455A64"/>
<path d="M92.8581 332.478C93.2168 334.862 93.2168 337.287 92.8581 339.672C92.4706 337.29 92.4706 334.86 92.8581 332.478Z" fill="#455A64"/>
<path d="M96.8027 332.478C97.1614 334.862 97.1614 337.287 96.8027 339.672C96.6055 338.487 96.508 337.287 96.5113 336.086C96.5183 334.878 96.6157 333.671 96.8027 332.478Z" fill="#455A64"/>
<path d="M100.748 332.478C101.106 334.862 101.106 337.287 100.748 339.672C100.55 338.487 100.453 337.287 100.456 336.086C100.463 334.878 100.561 333.671 100.748 332.478Z" fill="#455A64"/>
<path d="M52.1779 353.143C34.8948 369.083 18.9154 386.382 4.39294 404.872V429.213H61.7932C50.0711 426.568 34.8973 423.722 34.8973 423.722C48.8138 407.42 60.0968 389.044 68.3378 369.258C82.3909 335.705 71.1171 336.646 52.1779 353.143Z" fill="#263238"/>
<path d="M70.9379 373.382C69.3626 374.513 67.8651 375.749 66.4553 377.08C66.0518 377.461 65.6708 377.887 65.2898 378.268C67.1276 375.13 68.9431 371.992 70.6465 368.787C70.6733 368.74 70.68 368.684 70.6653 368.631C70.6506 368.578 70.6156 368.534 70.5681 368.507C70.5205 368.48 70.4643 368.474 70.4117 368.488C70.3592 368.503 70.3147 368.538 70.2879 368.586C65.1553 376.722 60.1347 384.902 54.89 392.971C49.6453 401.04 44.3558 408.817 39.0215 416.684C35.9957 421.167 33.082 425.65 30.0562 430.132C29.9441 430.289 30.2131 430.491 30.3251 430.334C33.2837 426.546 36.2871 422.87 39.1111 418.971C41.9352 415.071 44.5127 411.328 47.135 407.45C52.4694 399.471 57.602 391.357 62.4657 383.087L63.9002 380.621L65.1777 379.546C65.8725 378.941 66.5897 378.291 67.2621 377.641C68.5972 376.332 69.8474 374.939 71.0051 373.472C71.0051 373.472 71.0276 373.315 70.9379 373.382Z" fill="#455A64"/>
<path d="M222.16 270.685C224.401 276.714 216.019 275.929 216.019 275.929C216.019 275.929 227.808 279.986 227.741 287.136C227.674 294.286 217.543 292.672 216.826 292.582C217.431 292.806 228.189 296.796 227.36 303.946C226.531 311.096 216.601 308.294 215.952 308.092C216.489 308.473 223.303 313.785 221.443 319.075C218.26 328.04 200.442 315.063 192.821 316.564L193.404 328.869C193.404 329.273 193.404 329.878 193.292 330.259L187.532 331.066C185.668 327.167 183.503 323.42 181.054 319.859C178.118 315.376 175.451 310.894 175.182 307.599C175.004 306.096 175.316 304.575 176.071 303.263C176.826 301.95 177.984 300.917 179.373 300.315C179.373 300.315 173.411 297.02 173.882 291.349C174.128 288.458 178.97 286.284 178.97 286.284C177.655 285.471 176.59 284.31 175.894 282.929C175.198 281.549 174.897 280.003 175.025 278.462C175.585 274.495 180.359 272.926 180.359 272.926C180.359 272.926 177.132 268.107 179.037 264.229C182.847 256.475 217.319 257.797 222.16 270.685Z" fill="#F7A9A0"/>
<path d="M181.077 272.612C180.964 272.612 180.942 272.455 181.077 272.433C192.96 269.976 205.31 271.188 216.489 275.907C216.848 276.086 216.736 276.714 216.333 276.624C204.839 273.578 192.961 272.226 181.077 272.612Z" fill="#263238"/>
<path d="M178.79 286.284C178.656 286.284 178.656 286.06 178.79 286.038C191.924 283.445 205.551 285.639 217.207 292.224C217.61 292.47 217.722 293.098 217.207 292.851C209.115 288.75 189.93 285.746 178.79 286.284Z" fill="#263238"/>
<path d="M216.601 308.809C205.148 302.489 192.821 300.471 179.866 300.225C179.687 300.225 179.709 299.978 179.866 299.934C186.232 298.342 194.48 299.373 200.823 300.696C206.741 301.83 212.259 304.496 216.826 308.428C217.005 308.585 216.848 308.944 216.601 308.809Z" fill="#263238"/>
<path d="M193.852 322.571C193.426 320.33 193.135 318.357 192.754 316.183C192.754 315.982 192.395 316.049 192.395 316.183C192.395 319.254 192.754 322.257 192.843 325.35C192.947 328.516 192.515 331.675 191.566 334.697C190.712 337.325 189.366 339.767 187.599 341.891C186.741 343.126 185.648 344.179 184.383 344.99C183.117 345.802 181.704 346.356 180.225 346.621C179.548 346.632 178.877 346.495 178.259 346.22C177.641 345.945 177.091 345.538 176.647 345.027C176.202 344.517 175.875 343.916 175.688 343.266C175.501 342.615 175.458 341.932 175.563 341.264C176.006 338.432 177.095 335.74 178.745 333.397C180.261 330.798 181.379 327.988 182.063 325.059C182.429 322.434 181.891 319.762 180.538 317.483C179.732 315.87 178.88 314.256 178.051 312.642C177.231 311.337 176.59 309.927 176.145 308.451C175.764 306.911 175.897 305.289 176.524 303.832C177.151 302.375 178.239 301.163 179.619 300.382C179.642 300.373 179.662 300.36 179.679 300.344C179.696 300.327 179.709 300.307 179.719 300.285C179.728 300.263 179.733 300.24 179.733 300.216C179.734 300.192 179.729 300.169 179.72 300.147C179.712 300.125 179.698 300.105 179.682 300.088C179.665 300.071 179.645 300.057 179.624 300.048C179.602 300.038 179.578 300.033 179.554 300.033C179.531 300.033 179.507 300.037 179.485 300.046C177.108 301.141 175.251 303.118 174.308 305.56C173.958 306.897 173.902 308.294 174.142 309.656C174.381 311.017 174.912 312.311 175.697 313.449C176.549 315.085 177.401 316.699 178.275 318.313C179.353 319.927 179.944 321.818 179.978 323.759C179.309 327.452 177.89 330.969 175.809 334.092C174.139 336.654 173.352 339.692 173.568 342.743C173.674 344.022 174.157 345.241 174.954 346.246C175.752 347.251 176.829 347.997 178.051 348.391C184.147 350.027 189.593 343.348 191.902 338.552C193.297 335.231 193.91 331.635 193.695 328.04C193.911 326.225 193.964 324.395 193.852 322.571Z" fill="#263238"/>
<path d="M203.131 318.515C201.848 317.689 200.451 317.054 198.985 316.632C197.531 316.152 196.027 315.844 194.502 315.713C193.074 315.554 191.629 315.668 190.244 316.049C188.972 316.459 187.828 317.192 186.926 318.178C186.901 318.207 186.886 318.243 186.883 318.281C186.88 318.319 186.889 318.357 186.909 318.39C186.929 318.422 186.959 318.448 186.994 318.462C187.03 318.476 187.069 318.479 187.106 318.47C188.309 318.154 189.528 317.908 190.759 317.73C192.047 317.506 193.352 317.394 194.659 317.394C196.061 317.421 197.458 317.586 198.828 317.887C200.24 318.156 201.607 318.627 203.042 318.806C203.077 318.808 203.111 318.798 203.14 318.778C203.169 318.758 203.19 318.729 203.201 318.695C203.211 318.662 203.21 318.626 203.197 318.593C203.185 318.56 203.161 318.533 203.131 318.515Z" fill="#263238"/>
<path d="M179.082 299.867L178.476 299.463C178.069 299.15 177.687 298.805 177.333 298.432C176.975 298.051 176.594 297.67 176.257 297.267L175.697 296.661C175.606 296.559 175.508 296.462 175.406 296.37C175.308 296.233 175.218 296.091 175.137 295.944C175.002 295.743 174.689 295.944 174.823 296.124C174.958 296.303 175.025 296.415 175.092 296.549C175.154 296.688 175.207 296.83 175.249 296.975C175.361 297.244 175.495 297.513 175.63 297.782C175.922 298.308 176.275 298.797 176.683 299.239C177.078 299.649 177.551 299.977 178.073 300.203C178.317 300.333 178.583 300.416 178.857 300.449C179.092 300.517 179.34 300.517 179.575 300.449V300.292C179.431 300.128 179.265 299.985 179.082 299.867Z" fill="#263238"/>
<path d="M34.4044 407.069C36.0288 406.859 37.6779 407.169 39.1153 407.954C40.5528 408.739 41.7047 409.96 42.4059 411.44C42.4059 411.44 45.2973 404.985 51.192 404.985C54.2177 404.985 56.8625 409.848 56.8625 409.848C57.6021 408.417 58.7209 407.217 60.0965 406.379C61.4721 405.541 63.0515 405.098 64.6623 405.097C68.8311 405.388 70.8483 410.185 70.8483 410.185C70.8483 410.185 75.5775 406.464 79.8136 408.1C88.2634 411.417 89.7203 447.256 76.743 453.352C70.6914 456.176 70.8259 447.39 70.8259 447.39C70.8259 447.39 67.5984 459.987 60.2245 460.48C52.8505 460.973 53.6798 449.565 53.6798 449.565C53.6798 449.565 50.4523 461.735 42.7422 461.466C35.032 461.197 37.5199 449.946 37.5199 449.946C37.5199 449.946 32.4545 458.126 26.5822 456.669C16.9221 454.114 27.8598 437.148 25.6633 429.348H5.58105C5.58105 429.348 20.1272 408.929 34.4044 407.069Z" fill="#F7A9A0"/>
<path d="M80.7775 417.334C88.8462 418.656 96.3322 407.517 104.222 407.674C114.935 407.898 108.122 425.963 93.3737 429.146H80.8223L80.7775 417.334Z" fill="#F7A9A0"/>
<path d="M56.9297 409.669C56.9297 409.534 57.1538 409.512 57.1986 409.669C60.9632 423.076 59.8024 437.388 53.9263 450.013C53.7022 450.461 53.0746 450.64 53.2987 450.013C56.8848 441.316 58.3865 421.167 56.9297 409.669Z" fill="#263238"/>
<path d="M36.6905 450.73C42.2938 438.335 43.4144 425.381 42.5627 411.933C42.5627 411.753 42.8093 411.753 42.8541 411.933C45.0954 418.41 44.6696 427.039 43.7954 433.741C43.0964 439.967 40.7781 445.902 37.0715 450.954C36.9594 451.111 36.556 450.954 36.6905 450.73Z" fill="#263238"/>
<path d="M12.305 420.606C12.1705 420.741 12.305 420.942 12.5291 420.83C18.6031 415.541 36.4889 400.21 42.6749 411.865C42.899 412.268 43.3025 412.448 43.168 411.865C41.1284 404.603 33.4407 400.143 12.305 420.606Z" fill="#263238"/>
<path d="M49.3316 404.267C47.5641 404.762 45.9825 405.769 44.786 407.161C43.5895 408.553 42.8316 410.267 42.6077 412.089C42.6077 412.358 43.0111 412.493 43.1008 412.246C43.9032 409.709 45.6103 407.555 47.8972 406.195C51.7747 404.2 54.8677 406.822 56.8625 410.005C56.9042 410.059 56.9624 410.098 57.0282 410.116C57.094 410.134 57.1638 410.13 57.2272 410.104C57.2905 410.079 57.3439 410.034 57.3792 409.975C57.4145 409.917 57.4298 409.849 57.4228 409.781C57.0095 408.015 55.9489 406.47 54.4507 405.449C52.9525 404.428 51.1257 404.006 49.3316 404.267Z" fill="#263238"/>
<path d="M65.0208 404.245C63.2943 404.214 61.5986 404.704 60.1551 405.652C58.7117 406.599 57.5876 407.96 56.9296 409.557C56.6831 410.095 57.2658 410.095 57.3106 410.05C59.5519 407.808 61.7933 405.119 65.2225 405.791C67.6539 406.587 69.7156 408.235 71.0275 410.431C71.162 410.61 71.4085 410.431 71.3637 410.229C71.111 408.673 70.3527 407.244 69.2062 406.162C68.0596 405.081 66.5887 404.407 65.0208 404.245Z" fill="#263238"/>
<path d="M86.4702 429.258C86.4702 429.37 86.2685 429.392 86.2461 429.258C84.7893 422.803 84.2289 408.234 76.6757 408.234C74.6983 408.341 72.82 409.134 71.3637 410.476C71.3637 410.476 71.1844 410.476 71.2292 410.476C71.6553 409.591 72.2818 408.817 73.0588 408.217C73.8359 407.616 74.7422 407.205 75.7058 407.016C76.6695 406.827 77.664 406.865 78.6104 407.127C79.5569 407.389 80.4292 407.868 81.1583 408.526L81.3152 408.683C85.9771 412.851 86.784 425.223 86.4702 429.258Z" fill="#263238"/>
<path d="M129.369 264.924C126.369 260.487 124.747 255.263 124.707 249.907C124.707 230.856 145.619 215.413 171.416 215.413C197.214 215.413 218.081 230.856 218.081 249.907C218.081 268.958 197.191 284.379 171.416 284.379C159.955 284.575 148.711 281.242 139.209 274.831L123.116 278.932L129.369 264.924Z" fill="#3DCB76"/>
<path d="M188.204 249.884C188.204 250.842 188.488 251.778 189.02 252.574C189.552 253.37 190.308 253.991 191.192 254.357C192.077 254.724 193.05 254.82 193.989 254.633C194.929 254.446 195.791 253.985 196.468 253.308C197.145 252.631 197.606 251.768 197.793 250.829C197.98 249.89 197.884 248.916 197.518 248.032C197.151 247.147 196.531 246.391 195.735 245.859C194.938 245.327 194.002 245.043 193.045 245.043C192.408 245.04 191.777 245.163 191.189 245.406C190.6 245.648 190.065 246.004 189.615 246.455C189.165 246.905 188.808 247.44 188.566 248.028C188.324 248.617 188.201 249.248 188.204 249.884Z" fill="#263238"/>
<path d="M166.552 249.885C166.552 250.842 166.836 251.778 167.368 252.575C167.9 253.371 168.656 253.991 169.541 254.358C170.426 254.724 171.399 254.82 172.338 254.633C173.277 254.446 174.14 253.985 174.817 253.308C175.494 252.631 175.955 251.769 176.142 250.829C176.329 249.89 176.233 248.917 175.866 248.032C175.5 247.148 174.88 246.392 174.083 245.86C173.287 245.328 172.351 245.044 171.394 245.044C170.11 245.044 168.878 245.554 167.97 246.462C167.063 247.37 166.552 248.601 166.552 249.885Z" fill="#263238"/>
<path d="M144.924 249.885C144.924 250.842 145.207 251.778 145.739 252.575C146.271 253.371 147.028 253.991 147.912 254.358C148.797 254.724 149.77 254.82 150.709 254.633C151.648 254.446 152.511 253.985 153.188 253.308C153.865 252.631 154.326 251.769 154.513 250.829C154.7 249.89 154.604 248.917 154.238 248.032C153.871 247.148 153.251 246.392 152.454 245.86C151.658 245.328 150.722 245.044 149.765 245.044C148.481 245.044 147.249 245.554 146.342 246.462C145.434 247.37 144.924 248.601 144.924 249.885Z" fill="#263238"/>
<path d="M492.912 385.305C489.911 380.869 488.289 375.644 488.25 370.288C488.25 351.237 509.161 335.794 534.936 335.794C560.712 335.794 581.601 351.237 581.601 370.266C581.601 389.295 560.712 404.738 534.914 404.738C523.457 404.93 512.216 401.606 502.706 395.212L486.658 399.403L492.912 385.305Z" fill="#3DCB76"/>
<path d="M551.723 370.266C551.723 371.224 552.007 372.16 552.539 372.956C553.071 373.752 553.827 374.372 554.712 374.739C555.597 375.105 556.57 375.201 557.509 375.014C558.448 374.828 559.311 374.366 559.988 373.689C560.665 373.012 561.126 372.15 561.313 371.211C561.5 370.271 561.404 369.298 561.037 368.413C560.671 367.529 560.05 366.773 559.254 366.241C558.458 365.709 557.522 365.425 556.565 365.425C555.929 365.425 555.299 365.55 554.712 365.793C554.125 366.037 553.591 366.393 553.141 366.843C552.692 367.292 552.335 367.826 552.092 368.413C551.849 369.001 551.723 369.63 551.723 370.266Z" fill="#263238"/>
<path d="M530.05 370.266C530.05 371.224 530.334 372.16 530.866 372.956C531.398 373.752 532.154 374.372 533.039 374.739C533.923 375.105 534.897 375.201 535.836 375.014C536.775 374.828 537.638 374.366 538.315 373.689C538.992 373.012 539.453 372.15 539.64 371.211C539.826 370.271 539.73 369.298 539.364 368.413C538.998 367.529 538.377 366.773 537.581 366.241C536.785 365.709 535.849 365.425 534.891 365.425C534.256 365.425 533.626 365.55 533.039 365.793C532.451 366.037 531.918 366.393 531.468 366.843C531.018 367.292 530.662 367.826 530.419 368.413C530.175 369.001 530.05 369.63 530.05 370.266Z" fill="#263238"/>
<path d="M508.466 370.266C508.466 371.224 508.75 372.16 509.282 372.956C509.814 373.752 510.57 374.372 511.455 374.739C512.34 375.105 513.313 375.201 514.252 375.014C515.191 374.828 516.054 374.366 516.731 373.689C517.408 373.012 517.869 372.15 518.056 371.211C518.243 370.271 518.147 369.298 517.78 368.413C517.414 367.529 516.793 366.773 515.997 366.241C515.201 365.709 514.265 365.425 513.308 365.425C512.672 365.425 512.042 365.55 511.455 365.793C510.868 366.037 510.334 366.393 509.884 366.843C509.435 367.292 509.078 367.826 508.835 368.413C508.592 369.001 508.466 369.63 508.466 370.266Z" fill="#263238"/>
</svg>
