<?xml version="1.0" encoding="UTF-8"?>
<!DOCTYPE svg PUBLIC "-//W3C//DTD SVG 1.1//EN" "http://www.w3.org/Graphics/SVG/1.1/DTD/svg11.dtd">
<!-- Creator: CorelDRAW -->
<svg xmlns="http://www.w3.org/2000/svg" xml:space="preserve" width="6.1888mm" height="6.1857mm" version="1.1" style="shape-rendering:geometricPrecision; text-rendering:geometricPrecision; image-rendering:optimizeQuality; fill-rule:evenodd; clip-rule:evenodd"
viewBox="0 0 22.42 22.41"
 xmlns:xlink="http://www.w3.org/1999/xlink"
 xmlns:xodm="http://www.corel.com/coreldraw/odm/2003">
 <defs>
  <style type="text/css">
   <![CDATA[
    .fil0 {fill:#32AB62}
    .fil1 {fill:white}
   ]]>
  </style>
 </defs>
 <g id="Layer_x0020_1">
  <metadata id="CorelCorpID_0Corel-Layer"/>
  <g id="_105553187359168">
   <g>
    <circle class="fil0" cx="11.2" cy="11.23" r="11.18"/>
    <g>
     <path class="fil1" d="M2.59 18.38c0.24,-2.46 2.69,-3.87 4.7,-4.54 0.43,-0.14 0.23,0.04 1.08,0.62 2.01,1.37 4.32,1.12 6.17,-0.39 0.23,-0.18 0.18,-0.36 0.54,-0.24 0.49,0.16 0.9,0.32 1.34,0.53 1.49,0.7 3.19,2.01 3.39,4.02 0.18,-0.15 0.66,-0.83 0.83,-1.11 0.25,-0.41 0.5,-0.83 0.72,-1.3 0.43,-0.95 0.76,-1.95 0.93,-3.11 1.37,-9.64 -9.23,-16.28 -17.27,-10.99 -4.55,2.99 -6.35,8.9 -4,14.07 0.26,0.58 1.14,2.1 1.56,2.44z"/>
     <path class="fil0" d="M10.74 4.12c-2.37,0.31 -4.12,2.66 -3.86,5.46 0.22,2.41 2.15,4.76 4.81,4.41 2.35,-0.31 4.08,-2.69 3.84,-5.45 -0.06,-0.68 -0.24,-1.27 -0.49,-1.83 -0.45,-1 -1.29,-1.88 -2.32,-2.31 -0.6,-0.25 -1.27,-0.37 -1.98,-0.28z"/>
    </g>
   </g>
  </g>
 </g>
</svg>
