<?xml version="1.0" encoding="UTF-8"?>
<!DOCTYPE svg PUBLIC "-//W3C//DTD SVG 1.1//EN" "http://www.w3.org/Graphics/SVG/1.1/DTD/svg11.dtd">
<!-- Creator: CorelDRAW -->
<svg xmlns="http://www.w3.org/2000/svg" xml:space="preserve" width="6.1888mm" height="6.1859mm" version="1.1" style="shape-rendering:geometricPrecision; text-rendering:geometricPrecision; image-rendering:optimizeQuality; fill-rule:evenodd; clip-rule:evenodd"
viewBox="0 0 9.89 9.89"
 xmlns:xlink="http://www.w3.org/1999/xlink"
 xmlns:xodm="http://www.corel.com/coreldraw/odm/2003">
 <defs>
  <style type="text/css">
   <![CDATA[
    .fil1 {fill:#32AB62}
    .fil2 {fill:#F9F9F9}
    .fil0 {fill:white}
   ]]>
  </style>
 </defs>
 <g id="Layer_x0020_1">
  <metadata id="CorelCorpID_0Corel-Layer"/>
  <g id="_105553405240704">
   <circle class="fil0" cx="4.94" cy="4.95" r="4.93"/>
   <g>
    <path class="fil1" d="M1.14 8.11c0.11,-1.09 1.19,-1.71 2.07,-2 0.19,-0.06 0.1,0.02 0.48,0.27 0.89,0.6 1.91,0.49 2.72,-0.17 0.1,-0.08 0.08,-0.16 0.24,-0.11 0.21,0.07 0.4,0.14 0.59,0.23 0.66,0.31 1.41,0.89 1.5,1.77 0.08,-0.06 0.29,-0.37 0.37,-0.49 0.11,-0.18 0.22,-0.37 0.32,-0.57 0.19,-0.42 0.34,-0.86 0.41,-1.37 0.61,-4.25 -4.07,-7.18 -7.62,-4.85 -2.01,1.32 -2.8,3.93 -1.76,6.21 0.12,0.26 0.5,0.93 0.69,1.08z"/>
    <path class="fil2" d="M4.74 1.82c-1.05,0.14 -1.82,1.17 -1.7,2.41 0.1,1.06 0.95,2.1 2.12,1.95 1.04,-0.14 1.8,-1.19 1.7,-2.41 -0.03,-0.3 -0.11,-0.56 -0.22,-0.81 -0.2,-0.44 -0.57,-0.83 -1.02,-1.02 -0.27,-0.11 -0.56,-0.16 -0.88,-0.12z"/>
   </g>
  </g>
 </g>
</svg>
