<?xml version="1.0" encoding="UTF-8"?>
<!DOCTYPE svg PUBLIC "-//W3C//DTD SVG 1.1//EN" "http://www.w3.org/Graphics/SVG/1.1/DTD/svg11.dtd">
<!-- Creator: CorelDRAW -->
<svg xmlns="http://www.w3.org/2000/svg" xml:space="preserve" width="9.7312mm" height="9.7312mm" version="1.1" style="shape-rendering:geometricPrecision; text-rendering:geometricPrecision; image-rendering:optimizeQuality; fill-rule:evenodd; clip-rule:evenodd"
viewBox="0 0 260.88 260.88"
 xmlns:xlink="http://www.w3.org/1999/xlink"
 xmlns:xodm="http://www.corel.com/coreldraw/odm/2003">
 <defs>
  <style type="text/css">
   <![CDATA[
    .fil2 {fill:none}
    .fil1 {fill:#334C57}
    .fil0 {fill:#455A64}
    .fil3 {fill:white}
   ]]>
  </style>
    <clipPath id="id0">
     <path d="M130.44 0c72.04,0 130.44,58.4 130.44,130.44 0,72.04 -58.4,130.44 -130.44,130.44 -72.04,0 -130.44,-58.4 -130.44,-130.44 0,-72.04 58.4,-130.44 130.44,-130.44z"/>
    </clipPath>
 </defs>
 <g id="Layer_x0020_1">
  <metadata id="CorelCorpID_0Corel-Layer"/>
  <g id="_105553198005696">
   <path class="fil0" d="M130.44 0c72.04,0 130.44,58.4 130.44,130.44 0,72.04 -58.4,130.44 -130.44,130.44 -72.04,0 -130.44,-58.4 -130.44,-130.44 0,-72.04 58.4,-130.44 130.44,-130.44z"/>
   <g style="clip-path:url(#id0)">
    <g>
     <path id="_1" class="fil1" d="M229.08 173.79l-64.01 73.58 -18.72 -0.04 -17.26 19.84 -124.17 -0c-0.92,-9.47 2.17,-20.57 6.14,-29.41l-8.44 9.7c-10.71,-0.09 -24.26,0.36 -34.65,-0.14 -1.15,-9.07 3.6,-20.03 10.32,-27.76l12.73 -14.63c-5.96,-7.51 -6.69,-19.23 -0.15,-26.76l64.01 -73.58c2.72,-3.12 6.69,-5.52 12.06,-6.59 7.36,-1.47 13.82,1.26 18.14,5.87l21.86 -25.13c5.49,-6.31 13.28,-10.44 21.95,-11.28 19.17,-1.85 34.28,12.98 35.89,30.33 0.93,10.03 -2.39,19.11 -8.19,25.77l-12.69 14.59c2.05,-0.79 3.61,-1.64 4.86,-2.47l27.12 -31.17c2.68,-3.08 6.58,-5.46 11.83,-6.57 12.09,-2.54 21.94,6.47 23.71,16.26 1.22,6.75 -0.86,12.75 -4.62,17.08l-7.76 8.92c6.41,-2.63 4.08,-6.7 13.33,-0.11 8.93,6.36 15.97,17.44 16.71,33.69z"/>
    </g>
   </g>
   <path class="fil2" d="M130.44 0c72.04,0 130.44,58.4 130.44,130.44 0,72.04 -58.4,130.44 -130.44,130.44 -72.04,0 -130.44,-58.4 -130.44,-130.44 0,-72.04 58.4,-130.44 130.44,-130.44z"/>
   <g>
    <path class="fil3" d="M68.93 193.58l124.17 0c0.95,-12.09 -3.43,-23.77 -7.91,-33.02 -5.5,-11.4 -17.1,-23.19 -28.89,-28.56 -4.17,-1.9 -3.84,4.31 -16.7,7.47 -13.43,3.3 -24.17,-2.42 -30.98,-8.59 -9.83,2.57 -22,14.33 -27.93,23.03 -5.96,8.75 -13.1,25.92 -11.76,39.67z"/>
    <path class="fil3" d="M128.89 67.45c-17.67,1.71 -31.7,17.1 -30.02,36.79 1.5,17.47 16.87,32.56 36.54,30.5 17.11,-1.79 31.17,-17.59 29.37,-36.96 -1.61,-17.35 -16.73,-32.18 -35.89,-30.33z"/>
    <path class="fil3" d="M31.98 173.73c10.39,0.5 23.94,0.05 34.65,0.14 3.18,-6.86 2.75,-10.72 8.97,-19.91 4.35,-6.44 4.72,-6.94 9.7,-11.98 1.34,-1.35 2.13,-1.65 3.43,-3.35 -1.19,-0.87 -2.6,-1.76 -4.39,-2.25 -5.17,3.24 -10.37,7.34 -19.55,4.54 -9.65,-2.95 -5.66,-8.2 -16.03,-0.87 -9.81,6.94 -18.27,21.91 -16.78,33.69z"/>
    <path class="fil3" d="M66.94 97.99c-27.2,5.43 -18.52,44.92 7.2,40.13 9.86,-1.83 18.5,-11.72 16.27,-23.83 -1.82,-9.91 -11.44,-18.7 -23.47,-16.3z"/>
    <path class="fil3" d="M187.71 97.94c-26.83,5.63 -18.36,44.69 7.37,40.08 9.92,-1.78 18.55,-11.58 16.34,-23.83 -1.77,-9.79 -11.62,-18.79 -23.71,-16.26z"/>
    <path class="fil3" d="M173.49 137.91c0.42,0.52 0.3,0.39 0.84,0.9 7.35,6.95 13.62,13.87 17.9,23.99 1.29,3.04 2.57,8.5 4.23,10.92l32.61 0.07c-0.74,-16.25 -7.78,-27.33 -16.71,-33.69 -10.45,-7.45 -6.12,-1.28 -16.31,1.03 -3.68,0.83 -7.68,0.6 -11.05,-0.56 -4,-1.38 -5.77,-3.64 -8.18,-4.59l-2.32 1.18c-0.64,0.41 -0.67,0.45 -1.02,0.75z"/>
   </g>
  </g>
 </g>
</svg>
