<?xml version="1.0" encoding="UTF-8"?>
<!DOCTYPE svg PUBLIC "-//W3C//DTD SVG 1.1//EN" "http://www.w3.org/Graphics/SVG/1.1/DTD/svg11.dtd">
<!-- Creator: CorelDRAW -->
<svg xmlns="http://www.w3.org/2000/svg" xml:space="preserve" width="2.1802mm" height="1.7348mm" version="1.1" style="shape-rendering:geometricPrecision; text-rendering:geometricPrecision; image-rendering:optimizeQuality; fill-rule:evenodd; clip-rule:evenodd"
viewBox="0 0 4.14 3.3"
 xmlns:xlink="http://www.w3.org/1999/xlink"
 xmlns:xodm="http://www.corel.com/coreldraw/odm/2003">
 <defs>
  <style type="text/css">
   <![CDATA[
    .str0 {stroke:#828282;stroke-width:0.34;stroke-linecap:round;stroke-linejoin:round;stroke-miterlimit:2.61313}
    .fil0 {fill:none;fill-rule:nonzero}
   ]]>
  </style>
 </defs>
 <g id="Layer_x0020_1">
  <metadata id="CorelCorpID_0Corel-Layer"/>
  <g id="_105553186011232">
   <path class="fil0 str0" d="M0.19 1.75c-0.03,-0.06 -0.03,-0.14 0,-0.2 0.4,-0.74 1.14,-1.38 1.88,-1.38 0.74,0 1.48,0.64 1.88,1.38 0.03,0.06 0.03,0.14 0,0.2 -0.4,0.74 -1.14,1.38 -1.88,1.38 -0.74,0 -1.48,-0.64 -1.88,-1.38z"/>
   <path class="fil0 str0" d="M2.52 1.2c0.25,0.25 0.25,0.65 0,0.9 -0.25,0.25 -0.65,0.25 -0.9,0 -0.25,-0.25 -0.25,-0.65 0,-0.9 0.25,-0.25 0.65,-0.25 0.9,0"/>
  </g>
 </g>
</svg>
