<?xml version="1.0" encoding="UTF-8"?>
<!DOCTYPE svg PUBLIC "-//W3C//DTD SVG 1.1//EN" "http://www.w3.org/Graphics/SVG/1.1/DTD/svg11.dtd">
<!-- Creator: CorelDRAW -->
<svg xmlns="http://www.w3.org/2000/svg" xml:space="preserve" width="9.7312mm" height="9.7312mm" version="1.1" style="shape-rendering:geometricPrecision; text-rendering:geometricPrecision; image-rendering:optimizeQuality; fill-rule:evenodd; clip-rule:evenodd"
viewBox="0 0 55.89 55.89"
 xmlns:xlink="http://www.w3.org/1999/xlink"
 xmlns:xodm="http://www.corel.com/coreldraw/odm/2003">
 <defs>
  <style type="text/css">
   <![CDATA[
    .fil2 {fill:none}
    .fil1 {fill:#348C57}
    .fil0 {fill:#41BA71}
    .fil3 {fill:white}
   ]]>
  </style>
    <clipPath id="id0">
     <path d="M27.94 0c15.43,0 27.94,12.51 27.94,27.94 0,15.43 -12.51,27.94 -27.94,27.94 -15.43,0 -27.94,-12.51 -27.94,-27.94 0,-15.43 12.51,-27.94 27.94,-27.94z"/>
    </clipPath>
 </defs>
 <g id="Layer_x0020_1">
  <metadata id="CorelCorpID_0Corel-Layer"/>
  <g id="_105553195961856">
   <path class="fil0" d="M27.94 0c15.43,0 27.94,12.51 27.94,27.94 0,15.43 -12.51,27.94 -27.94,27.94 -15.43,0 -27.94,-12.51 -27.94,-27.94 0,-15.43 12.51,-27.94 27.94,-27.94z"/>
   <g style="clip-path:url(#id0)">
    <g>
     <path id="_1" class="fil1" d="M38.57 30.23c0.41,-0.3 0.91,-0.64 1.53,-1.05l0 7.16c0,2.18 0.55,5.53 -1.99,7.38l-18.53 13.5c-0.25,0.18 -0.54,0.35 -0.86,0.51 -2.43,1.16 -13.6,0.74 -17.21,0.71 -8.37,-0.07 -6.78,-6.5 -6.78,-14.66l0 -6.11c0,-5.75 -0.48,-3.63 3.67,-7.78l2.86 -2.86c0.64,-0.64 1.06,-1.26 1.7,-1.72l18.48 -13.47c0.01,-0.01 0.02,-0.01 0.03,-0.02l0.01 -0.01c0.35,-0.25 0.76,-0.47 1.32,-0.62 1.28,-0.35 8.72,-0.39 10.83,-0.23 3.19,0.24 5.64,1.13 6.46,4.64 -0.57,0.86 -1.41,1.57 -2.27,2.2l-18.53 13.5c-0.32,0.23 -0.64,0.45 -0.95,0.66 0,-2.5 -0.27,-3.61 -1.65,-4.08 0.07,0.82 0.14,1.6 0.14,2.41 0,1.3 -0.13,3.26 -0.17,5.18 0.52,-0.46 0.96,-0.84 1.24,-1.1 0.88,-0.78 1.25,-0.9 2.15,-1.79l6.17 -5.28 18.53 -13.5 4.65 5.37 -2.19 1.6c-0.67,0.61 -1.33,1.27 -2.15,1.93 -0.81,0.65 -1.23,1.25 -2.04,1.9 -2.76,2.21 -5.69,5.38 -8.66,7.54 -4.29,3.13 -8.58,6.25 -12.87,9.38 0.5,0.02 1.03,0.03 1.57,0.03l15.51 -11.31z"/>
    </g>
   </g>
   <path class="fil2" d="M27.94 0c15.43,0 27.94,12.51 27.94,27.94 0,15.43 -12.51,27.94 -27.94,27.94 -15.43,0 -27.94,-12.51 -27.94,-27.94 0,-15.43 12.51,-27.94 27.94,-27.94z"/>
   <path class="fil3" d="M16.83 30.27l-3.58 0c0,8.16 -1.58,14.59 6.78,14.66 3.61,0.03 14.78,0.45 17.21,-0.71 3.51,-1.68 2.85,-5.49 2.85,-7.89 -0,-2.39 0,-4.77 0,-7.16 -4.41,2.95 -3.07,2.25 -3.2,8.97 -0.04,1.96 -0.34,2.06 -1.1,3.2 -3.56,0 -16.55,0.63 -18.61,-0.36 -0.96,-2 -0.36,-7.89 -0.36,-10.71zm11.45 -1.81c0.58,0.87 1.18,1.51 1.92,2.37l1 1.15c0.8,0.85 0.63,0.06 1.02,1.49 3.7,-1.96 7.38,-6.16 10.79,-8.89 0.81,-0.65 1.23,-1.25 2.04,-1.9 1.62,-1.3 2.6,-2.6 4.35,-3.53l-4.65 -5.37 -6.17 5.28c-0.9,0.89 -1.27,1.01 -2.15,1.79 -1.51,1.34 -7.35,6.41 -8.15,7.6zm-15.03 -4.3l3.22 0c0,-2.62 0.75,-1.79 7.52,-1.79 0.55,-2.34 0.36,-5.35 0.36,-8.23 11.25,0 12.53,-1.16 12.53,4.29 1.18,-0.79 2.44,-1.69 3.22,-2.86 -0.82,-3.51 -3.26,-4.4 -6.46,-4.64 -2.11,-0.16 -9.55,-0.12 -10.83,0.23 -1.58,0.44 -2.03,1.35 -3.02,2.35 -1.04,1.04 -1.82,1.82 -2.86,2.86 -4.15,4.16 -3.67,2.03 -3.67,7.78zm0 6.11l3.58 -0c0,-1.91 -0.36,-3.63 -0.36,-6.11l-3.22 0 0 6.11zm12.17 4.98c1.26,-0.1 3.02,-0.63 3.94,-1.07 -0.5,-1.87 -1.29,-1 -1.79,-2.86l-0.72 0c-0.41,1.74 -1.28,2.08 -1.43,3.94z"/>
  </g>
 </g>
</svg>
