<?xml version="1.0" encoding="UTF-8"?>
<!DOCTYPE svg PUBLIC "-//W3C//DTD SVG 1.1//EN" "http://www.w3.org/Graphics/SVG/1.1/DTD/svg11.dtd">
<!-- Creator: CorelDRAW -->
<svg xmlns="http://www.w3.org/2000/svg" xml:space="preserve" width="50.6614mm" height="48.4024mm" version="1.1" style="shape-rendering:geometricPrecision; text-rendering:geometricPrecision; image-rendering:optimizeQuality; fill-rule:evenodd; clip-rule:evenodd"
viewBox="0 0 2596.4 2480.63"
 xmlns:xlink="http://www.w3.org/1999/xlink"
 xmlns:xodm="http://www.corel.com/coreldraw/odm/2003">
 <defs>
  <style type="text/css">
   <![CDATA[
    .fil1 {fill:#263238;fill-rule:nonzero}
    .fil5 {fill:#455A64;fill-rule:nonzero}
    .fil2 {fill:#F7A9A0;fill-rule:nonzero}
    .fil6 {fill:#FF9CBD;fill-rule:nonzero}
    .fil3 {fill:white;fill-rule:nonzero}
    .fil4 {fill:black;fill-rule:nonzero;fill-opacity:0.121569}
    .fil0 {fill:#116031;fill-rule:nonzero;fill-opacity:0.600000}
   ]]>
  </style>
 </defs>
 <g id="Layer_x0020_1">
  <metadata id="CorelCorpID_0Corel-Layer"/>
  <g id="_105553190075744">
   <path class="fil0" d="M1797.11 630.42c0,-348.17 -282.24,-630.42 -630.41,-630.42 -348.17,0 -630.42,282.25 -630.42,630.42 0,348.17 282.25,630.41 630.42,630.41 348.17,0 630.41,-282.24 630.41,-630.41z"/>
   <path class="fil1" d="M1475.88 675.06c-4.92,161.03 16.2,355 -63.71,502.09 -62.54,115.06 -180.87,186.7 -300.94,229.29 -263.97,93.67 -622.88,81.11 -782.81,-186.05 -63.72,-106.77 -59.9,-318.59 64.44,-386.94 63.72,-34.87 136.54,-38.5 207.17,-51.89 92.66,-17.48 162.02,-63.72 210.36,-144.73 94.57,-158.38 87.38,-280.17 116.6,-457.04 5.55,-32.77 15.74,-64.72 50.52,-90.11 31.4,-26.57 69.44,-44.07 110.04,-50.61 35.07,-12.16 72.58,-15.48 109.23,-9.65 78.19,14.2 148.37,92.76 205.9,142.64 57.53,49.88 83.01,100.67 81.92,178.5 -0.64,108.22 -5.46,216.37 -8.74,324.51z"/>
   <path class="fil1" d="M1489.99 752.24c-4.91,-148.01 -12.84,-295.56 -19.75,-443.38 0,-0.91 -1.36,-1 -1.36,0 2.09,121.79 2.63,243.49 6.37,365.28 3.65,119.34 15.57,241.76 9.11,361.1 -15.3,267.7 -298.48,355.63 -524.85,325.23 -10.28,-1.36 -11.29,15.21 -0.81,16.21 199.52,20.48 443.29,-29.67 520.21,-242.4 41.77,-116.42 15.2,-260.88 11.1,-382.03z"/>
   <path class="fil1" d="M941.65 166.77c-0.1,-0.52 -0.38,-0.98 -0.78,-1.31 -0.4,-0.33 -0.92,-0.51 -1.45,-0.51 -0.52,0 -1.03,0.18 -1.44,0.51 -0.4,0.33 -0.69,0.79 -0.79,1.31 -18.2,146.55 -25.03,318.59 -118.33,440.75 -46.14,59.74 -109.24,104.15 -181.05,127.43 -56.89,18.2 -115.6,15.74 -174.22,22.75 -229.02,27.31 -254.87,331.79 -99.4,463.14 3.19,2.74 8.1,-2.73 4.91,-5.73 -108.41,-100.76 -133.8,-270.89 -30.31,-386.49 83.01,-92.75 225.74,-50.42 332.79,-95.75 221.83,-93.95 258.33,-352.27 270.07,-566.09z"/>
   <path class="fil2" d="M965.23 791.48c-237.86,241.12 -537.05,748.4 -481.34,851.18 62.17,114.6 393.41,-223.47 392.13,-243.22 -1,-14.93 115.6,-323.04 203.99,-547.15 88.38,-224.11 -55.89,-120.8 -114.78,-60.81z"/>
   <path class="fil3" d="M878.21 1399.43c10.19,-32.95 168.76,-439.19 214.09,-567.72 45.33,-128.53 3.28,-168.22 -126.16,-50.52 -129.44,117.69 -413.25,510.74 -477.97,719.09 -62.45,200.99 41.05,200.99 177.59,108.32 111.78,-75.46 212.45,-209.17 212.45,-209.17z"/>
   <path class="fil3" d="M1109.32 762.35c0,2.36 -0.45,4.73 -0.81,7.28 -0.76,1.1 -1.79,2 -2.98,2.62 -1.19,0.62 -2.51,0.93 -3.85,0.93 -1.48,-0.01 -2.94,-0.42 -4.2,-1.18 -1.27,-0.78 -2.3,-1.88 -2.98,-3.2 -0.68,-1.32 -0.99,-2.8 -0.88,-4.27 0.1,-1.48 0.6,-2.91 1.46,-4.12 0.86,-1.21 2.03,-2.17 3.39,-2.76 1.36,-0.59 2.85,-0.8 4.32,-0.6 1.48,0.2 2.86,0.8 4.01,1.74 1.15,0.93 2.03,2.16 2.52,3.56l0 0zm-269.88 170.03c-1.63,-0.02 -3.22,0.45 -4.59,1.34 -1.36,0.89 -2.43,2.17 -3.06,3.67 -0.63,1.5 -0.8,3.15 -0.49,4.75 0.31,1.6 1.1,3.06 2.25,4.21 1.15,1.15 2.62,1.94 4.21,2.25 1.6,0.31 3.25,0.14 4.76,-0.49 1.5,-0.63 2.78,-1.69 3.67,-3.05 0.89,-1.36 1.36,-2.96 1.34,-4.59 0,-2.15 -0.86,-4.21 -2.37,-5.73 -1.52,-1.52 -3.58,-2.37 -5.72,-2.37l0 0zm131.07 0c-1.62,0 -3.21,0.49 -4.56,1.38 -1.35,0.91 -2.4,2.19 -3.02,3.7 -0.62,1.5 -0.77,3.15 -0.45,4.75 0.32,1.59 1.11,3.05 2.27,4.19 1.16,1.14 2.62,1.92 4.22,2.22 1.59,0.31 3.24,0.13 4.74,-0.5 1.5,-0.63 2.77,-1.7 3.66,-3.06 0.89,-1.35 1.35,-2.95 1.33,-4.57 0,-1.07 -0.21,-2.13 -0.63,-3.12 -0.41,-0.99 -1.01,-1.89 -1.78,-2.64 -0.76,-0.75 -1.67,-1.34 -2.66,-1.75 -0.99,-0.4 -2.06,-0.6 -3.13,-0.59l0 0zm-65.54 -84.02c-1.62,0 -3.21,0.49 -4.56,1.39 -1.34,0.9 -2.4,2.18 -3.02,3.69 -0.62,1.5 -0.77,3.15 -0.45,4.74 0.32,1.59 1.11,3.05 2.27,4.19 1.15,1.15 2.62,1.92 4.21,2.22 1.6,0.3 3.25,0.13 4.74,-0.51 1.5,-0.63 2.77,-1.7 3.66,-3.05 0.89,-1.37 1.36,-2.96 1.33,-4.58 0,-1.07 -0.21,-2.13 -0.62,-3.12 -0.42,-0.99 -1.02,-1.88 -1.78,-2.64 -0.76,-0.75 -1.67,-1.35 -2.66,-1.75 -0.99,-0.4 -2.06,-0.6 -3.13,-0.59l0 0zm131.17 0c-1.63,-0.02 -3.23,0.45 -4.59,1.35 -1.36,0.89 -2.42,2.17 -3.06,3.67 -0.63,1.5 -0.79,3.16 -0.48,4.76 0.31,1.6 1.1,3.06 2.24,4.22 1.15,1.14 2.62,1.93 4.22,2.24 1.6,0.31 3.25,0.15 4.76,-0.48 1.5,-0.64 2.78,-1.7 3.67,-3.06 0.9,-1.36 1.36,-2.96 1.35,-4.59 0,-2.15 -0.86,-4.21 -2.37,-5.73 -1.52,-1.52 -3.58,-2.37 -5.73,-2.37l0 0zm-327.69 259.42c-1.63,-0.02 -3.23,0.45 -4.59,1.34 -1.36,0.9 -2.42,2.17 -3.06,3.67 -0.64,1.5 -0.8,3.15 -0.49,4.75 0.31,1.6 1.1,3.07 2.24,4.21 1.15,1.15 2.62,1.94 4.22,2.25 1.6,0.31 3.25,0.14 4.76,-0.48 1.5,-0.64 2.78,-1.7 3.67,-3.06 0.89,-1.36 1.36,-2.96 1.34,-4.59 0,-1.07 -0.22,-2.13 -0.63,-3.12 -0.41,-0.99 -1.01,-1.89 -1.78,-2.64 -0.76,-0.75 -1.67,-1.34 -2.66,-1.74 -0.99,-0.4 -2.06,-0.6 -3.13,-0.59l0.09 0zm131.07 0c-1.63,-0.02 -3.22,0.45 -4.59,1.34 -1.36,0.9 -2.42,2.17 -3.05,3.67 -0.63,1.5 -0.8,3.15 -0.49,4.75 0.31,1.6 1.1,3.07 2.24,4.21 1.15,1.15 2.62,1.94 4.22,2.25 1.6,0.31 3.25,0.14 4.76,-0.48 1.5,-0.64 2.78,-1.7 3.66,-3.06 0.9,-1.36 1.36,-2.96 1.35,-4.59 0,-1.07 -0.21,-2.13 -0.63,-3.12 -0.4,-0.99 -1.01,-1.89 -1.78,-2.64 -0.76,-0.75 -1.67,-1.34 -2.65,-1.74 -0.99,-0.4 -2.06,-0.6 -3.13,-0.59l0.09 0zm131.08 0c-1.62,0 -3.21,0.49 -4.56,1.38 -1.35,0.91 -2.4,2.19 -3.01,3.7 -0.62,1.51 -0.78,3.15 -0.45,4.75 0.32,1.59 1.11,3.05 2.27,4.19 1.16,1.14 2.62,1.92 4.22,2.22 1.59,0.31 3.25,0.13 4.75,-0.5 1.49,-0.63 2.76,-1.7 3.65,-3.06 0.89,-1.35 1.35,-2.95 1.34,-4.57 0,-1.08 -0.22,-2.15 -0.64,-3.14 -0.43,-0.99 -1.04,-1.9 -1.8,-2.65 -0.77,-0.76 -1.69,-1.35 -2.69,-1.75 -1,-0.4 -2.08,-0.58 -3.16,-0.56l0.09 0zm-196.62 -84.01c-1.62,-0.02 -3.22,0.45 -4.59,1.34 -1.36,0.9 -2.42,2.17 -3.05,3.67 -0.63,1.5 -0.8,3.15 -0.49,4.75 0.31,1.6 1.1,3.06 2.24,4.22 1.15,1.15 2.62,1.93 4.22,2.24 1.6,0.32 3.25,0.14 4.75,-0.49 1.5,-0.64 2.78,-1.7 3.67,-3.06 0.89,-1.36 1.36,-2.96 1.34,-4.58 0,-1.08 -0.22,-2.14 -0.62,-3.12 -0.42,-0.99 -1.03,-1.89 -1.78,-2.64 -0.76,-0.75 -1.67,-1.35 -2.66,-1.75 -1,-0.4 -2.06,-0.6 -3.13,-0.59l0.09 0zm131.08 0c-1.62,0 -3.21,0.48 -4.56,1.39 -1.35,0.9 -2.4,2.19 -3.02,3.69 -0.62,1.5 -0.77,3.16 -0.45,4.75 0.33,1.59 1.11,3.05 2.27,4.19 1.15,1.14 2.62,1.91 4.22,2.22 1.6,0.31 3.24,0.13 4.74,-0.5 1.5,-0.63 2.77,-1.7 3.66,-3.05 0.89,-1.36 1.35,-2.96 1.33,-4.58 0,-1.08 -0.21,-2.15 -0.63,-3.14 -0.42,-1 -1.04,-1.9 -1.8,-2.65 -0.77,-0.75 -1.69,-1.35 -2.69,-1.75 -1,-0.39 -2.08,-0.58 -3.16,-0.56l0.09 0zm-196.7 259.24c-1.63,-0.02 -3.23,0.45 -4.59,1.34 -1.36,0.89 -2.42,2.17 -3.06,3.67 -0.63,1.5 -0.8,3.16 -0.48,4.75 0.31,1.6 1.1,3.06 2.24,4.22 1.15,1.15 2.62,1.93 4.22,2.24 1.6,0.32 3.25,0.15 4.75,-0.48 1.5,-0.63 2.78,-1.69 3.67,-3.06 0.9,-1.36 1.36,-2.95 1.35,-4.58 0,-2.15 -0.86,-4.21 -2.38,-5.73 -1.52,-1.52 -3.58,-2.37 -5.72,-2.37l0 0zm131.08 0c-1.63,-0.02 -3.22,0.45 -4.59,1.34 -1.36,0.89 -2.43,2.17 -3.06,3.67 -0.63,1.5 -0.8,3.16 -0.49,4.75 0.31,1.6 1.1,3.06 2.25,4.22 1.15,1.15 2.62,1.93 4.21,2.24 1.6,0.32 3.25,0.15 4.76,-0.48 1.5,-0.63 2.78,-1.69 3.67,-3.06 0.89,-1.36 1.36,-2.95 1.34,-4.58 0,-2.15 -0.86,-4.21 -2.37,-5.73 -1.52,-1.52 -3.58,-2.37 -5.72,-2.37l0 0zm-196.62 -83.83c-1.62,0 -3.21,0.49 -4.56,1.39 -1.35,0.91 -2.4,2.19 -3.02,3.69 -0.62,1.5 -0.77,3.16 -0.45,4.75 0.33,1.59 1.11,3.05 2.27,4.2 1.16,1.14 2.62,1.92 4.22,2.21 1.59,0.31 3.25,0.13 4.74,-0.5 1.5,-0.63 2.77,-1.7 3.66,-3.05 0.89,-1.36 1.35,-2.95 1.33,-4.58 0,-1.07 -0.21,-2.13 -0.63,-3.12 -0.42,-0.98 -1.01,-1.89 -1.78,-2.64 -0.76,-0.75 -1.67,-1.35 -2.65,-1.75 -0.99,-0.4 -2.06,-0.6 -3.13,-0.59zm131.16 0c-1.62,-0.02 -3.22,0.45 -4.59,1.34 -1.36,0.9 -2.42,2.17 -3.05,3.67 -0.63,1.5 -0.8,3.15 -0.49,4.75 0.31,1.6 1.1,3.06 2.24,4.22 1.15,1.15 2.62,1.93 4.22,2.24 1.6,0.32 3.25,0.14 4.75,-0.49 1.5,-0.63 2.78,-1.7 3.67,-3.05 0.89,-1.36 1.36,-2.96 1.34,-4.59 0,-1.07 -0.22,-2.13 -0.62,-3.12 -0.42,-0.98 -1.03,-1.89 -1.78,-2.64 -0.76,-0.75 -1.67,-1.35 -2.66,-1.75 -1,-0.4 -2.06,-0.6 -3.13,-0.59l0.09 0zm131.08 0c-1.62,0 -3.21,0.49 -4.56,1.39 -1.35,0.91 -2.4,2.19 -3.02,3.69 -0.62,1.5 -0.77,3.16 -0.45,4.75 0.33,1.59 1.11,3.05 2.27,4.2 1.15,1.14 2.62,1.92 4.22,2.21 1.6,0.31 3.24,0.13 4.74,-0.5 1.5,-0.63 2.77,-1.7 3.66,-3.05 0.89,-1.36 1.35,-2.95 1.33,-4.58 0,-1.08 -0.21,-2.15 -0.63,-3.14 -0.42,-0.99 -1.04,-1.9 -1.8,-2.65 -0.77,-0.75 -1.69,-1.35 -2.69,-1.74 -1,-0.4 -2.08,-0.59 -3.16,-0.57l0.09 0zm-327.69 259.42c-1.6,0.02 -3.16,0.51 -4.47,1.41 -1.32,0.9 -2.34,2.17 -2.94,3.65 -0.6,1.48 -0.75,3.11 -0.43,4.67 0.32,1.57 1.1,3 2.24,4.13 1.13,1.12 2.58,1.89 4.15,2.19 1.57,0.31 3.2,0.14 4.67,-0.48 1.48,-0.62 2.74,-1.66 3.62,-2.98 0.88,-1.33 1.36,-2.89 1.36,-4.49 0,-1.09 -0.22,-2.17 -0.64,-3.17 -0.42,-1 -1.05,-1.91 -1.82,-2.67 -0.78,-0.75 -1.71,-1.34 -2.72,-1.73 -1.01,-0.39 -2.1,-0.57 -3.18,-0.54l0.17 0zm131.17 0c-1.6,0 -3.17,0.48 -4.5,1.37 -1.33,0.89 -2.37,2.15 -2.98,3.63 -0.62,1.48 -0.78,3.11 -0.46,4.68 0.31,1.57 1.09,3.01 2.21,4.15 1.13,1.13 2.58,1.91 4.15,2.21 1.57,0.32 3.2,0.16 4.68,-0.45 1.48,-0.62 2.74,-1.66 3.63,-2.99 0.89,-1.33 1.37,-2.9 1.37,-4.5 0,-1.08 -0.22,-2.15 -0.64,-3.14 -0.42,-1 -1.03,-1.9 -1.8,-2.65 -0.77,-0.75 -1.68,-1.35 -2.69,-1.74 -1,-0.39 -2.08,-0.59 -3.15,-0.56l0.18 0zm-65.72 -84.02c-1.62,0 -3.21,0.49 -4.56,1.39 -1.35,0.91 -2.4,2.19 -3.02,3.69 -0.62,1.51 -0.77,3.16 -0.45,4.75 0.33,1.59 1.11,3.05 2.27,4.2 1.16,1.14 2.62,1.92 4.22,2.21 1.59,0.31 3.25,0.13 4.74,-0.5 1.5,-0.63 2.77,-1.7 3.66,-3.05 0.89,-1.36 1.35,-2.95 1.33,-4.58 0,-1.07 -0.21,-2.13 -0.63,-3.12 -0.42,-0.98 -1.01,-1.89 -1.78,-2.64 -0.76,-0.75 -1.67,-1.35 -2.65,-1.75 -0.99,-0.4 -2.06,-0.6 -3.13,-0.59zm131.16 0c-1.62,-0.02 -3.22,0.45 -4.59,1.35 -1.36,0.89 -2.42,2.17 -3.05,3.67 -0.63,1.5 -0.8,3.16 -0.49,4.75 0.31,1.6 1.1,3.07 2.24,4.22 1.15,1.15 2.62,1.93 4.22,2.25 1.6,0.31 3.25,0.14 4.75,-0.49 1.5,-0.64 2.78,-1.7 3.67,-3.06 0.89,-1.36 1.36,-2.95 1.34,-4.59 0,-1.07 -0.22,-2.13 -0.62,-3.12 -0.42,-0.98 -1.03,-1.89 -1.78,-2.64 -0.76,-0.75 -1.67,-1.35 -2.66,-1.75 -1,-0.4 -2.06,-0.6 -3.13,-0.59l0.09 0zm-196.71 259.42c-1.6,0.02 -3.15,0.51 -4.47,1.41 -1.32,0.9 -2.35,2.18 -2.95,3.65 -0.6,1.48 -0.75,3.11 -0.42,4.68 0.32,1.56 1.1,2.99 2.23,4.12 1.14,1.13 2.58,1.89 4.15,2.2 1.56,0.3 3.19,0.14 4.66,-0.48 1.48,-0.62 2.74,-1.66 3.62,-2.99 0.89,-1.33 1.36,-2.89 1.36,-4.49 0,-1.08 -0.21,-2.15 -0.64,-3.14 -0.42,-0.99 -1.03,-1.9 -1.8,-2.65 -0.77,-0.75 -1.68,-1.35 -2.69,-1.74 -1,-0.39 -2.08,-0.58 -3.15,-0.56l0.08 0zm-65.53 -84.02c-1.62,-0.02 -3.22,0.45 -4.59,1.35 -1.36,0.89 -2.42,2.17 -3.06,3.67 -0.63,1.51 -0.79,3.16 -0.48,4.76 0.31,1.59 1.09,3.06 2.24,4.21 1.15,1.15 2.62,1.93 4.22,2.24 1.6,0.31 3.25,0.14 4.75,-0.49 1.5,-0.64 2.78,-1.7 3.67,-3.06 0.89,-1.36 1.36,-2.95 1.34,-4.59 0,-1.07 -0.21,-2.13 -0.63,-3.12 -0.41,-0.98 -1.01,-1.88 -1.78,-2.63 -0.76,-0.75 -1.67,-1.35 -2.66,-1.75 -0.99,-0.4 -2.05,-0.6 -3.13,-0.59l0.09 0zm131.08 0c-1.62,0 -3.21,0.49 -4.56,1.39 -1.35,0.9 -2.4,2.18 -3.02,3.69 -0.62,1.5 -0.77,3.16 -0.45,4.74 0.33,1.59 1.11,3.05 2.27,4.2 1.16,1.14 2.62,1.92 4.22,2.22 1.59,0.3 3.25,0.13 4.74,-0.51 1.5,-0.63 2.77,-1.69 3.66,-3.05 0.89,-1.36 1.35,-2.96 1.33,-4.58 0,-1.07 -0.21,-2.13 -0.63,-3.12 -0.42,-0.98 -1.01,-1.88 -1.78,-2.63 -0.76,-0.75 -1.67,-1.35 -2.65,-1.75 -0.99,-0.4 -2.06,-0.6 -3.13,-0.59l0 0z"/>
   <path class="fil2" d="M784.18 1768.54l23.75 -142.45 34.14 -252.78c0,0 -80.38,-140.36 -33.77,-241.03 23.58,-51.07 230.11,-368.1 316.95,-431.82 81.93,-59.26 200.25,4.19 244.13,50.52 169.85,178.77 249.95,533.77 310.94,1017.29l-896.14 0.28z"/>
   <path class="fil3" d="M813.94 1581.39l28.13 -207.99c0,0 -80.38,-140.36 -33.77,-241.13 23.58,-51.07 230.11,-368.1 316.95,-431.82 81.93,-59.17 200.25,4.19 244.13,50.61 147.09,154.74 226.93,441.84 285.27,830.06l-840.71 0.28z"/>
   <path class="fil1" d="M1162.57 1369.12c-39.66,-3.47 -79.51,-3.99 -119.24,-1.55 -19.66,1.46 -39.24,3.82 -58.8,6.64 -9.74,1.37 -19.48,2.46 -29.3,3.46 -10.22,1.27 -20.56,1.27 -30.77,0 -0.11,-0.05 -0.23,-0.06 -0.35,-0.04 -0.11,0.01 -0.23,0.06 -0.32,0.13 -0.1,0.06 -0.17,0.15 -0.24,0.26 -0.05,0.1 -0.08,0.22 -0.08,0.33 0,0.12 0.03,0.24 0.08,0.34 0.06,0.11 0.14,0.19 0.24,0.26 0.09,0.07 0.21,0.11 0.32,0.13 0.12,0.01 0.24,0 0.35,-0.04 9.51,2.18 19.14,3.74 28.86,4.64 9.42,0.64 18.88,0.64 28.31,0 20.03,-1.28 39.96,-3.55 59.99,-5.01 40.32,-3.1 80.65,-6.1 121.15,-6.28 0.44,-0.02 0.84,-0.22 1.13,-0.54 0.29,-0.32 0.44,-0.75 0.42,-1.18 -0.02,-0.44 -0.22,-0.84 -0.54,-1.13 -0.32,-0.29 -0.75,-0.44 -1.18,-0.42l0 0z"/>
   <path class="fil1" d="M1252.68 1420.82c-31.54,-9.1 -63.57,-16.38 -95.94,-21.84 -16.2,-2.74 -32.41,-4.37 -48.79,-5.73 -7.83,-0.64 -15.66,-1.1 -23.48,-1.46 -7.83,-0.36 -17.3,0 -25.95,0 -0.91,0 -1.18,1.27 0,1.36 8.1,0.82 16.12,2.92 24.13,4.19l24.21 3.64c16.21,2.46 32.41,5.1 48.61,7.46 32.41,4.64 64.72,9.56 96.94,15.3 1.73,0.09 2.1,-2.46 0.27,-2.92z"/>
   <path class="fil1" d="M807.93 1626.08c4.56,-42.24 9.11,-84.56 14.48,-126.71 5.37,-42.14 10.01,-84.47 15.65,-126.61l0.83 3.01c-12.08,-17.2 -22.02,-35.82 -29.58,-55.44 -7.76,-19.45 -13.38,-39.69 -16.75,-60.35 -3.27,-20.74 -4.19,-41.77 -2.73,-62.71 2.36,-20.91 7.57,-41.4 15.48,-60.9 15.73,-38.27 35.28,-74.87 58.35,-109.23 22.51,-34.63 47.07,-67.88 73.54,-99.58 -24.48,33.14 -47.42,67.46 -68.9,102.5 -21.66,34.7 -40.21,71.25 -55.44,109.23 -7.48,18.81 -12.32,38.57 -14.38,58.71 -1.14,20.22 -0.13,40.51 3,60.53 3.09,20.08 8.37,39.77 15.75,58.71 7.1,18.98 16.52,37.02 28.03,53.7l0.91 1.36 0 1.55c-5.64,42.14 -12.28,84.11 -18.2,126.25 -5.92,42.14 -13.2,84.02 -20.03,125.98z"/>
   <path class="fil1" d="M868.29 1026.95c0.48,-5.66 1.61,-11.25 3.37,-16.66 1.66,-5.39 3.63,-10.68 5.91,-15.84 2.28,-5.09 4.64,-10.2 7.37,-15.11 2.72,-4.96 5.76,-9.73 9.1,-14.29 -3.46,10.82 -7.92,21.02 -12.29,31.22 -4.37,10.19 -9.19,20.21 -13.47,30.67z"/>
   <polygon class="fil3" points="130.71,2480.63 2465.69,2480.63 2552.71,2042.98 43.69,2042.98 "/>
   <polygon class="fil4" points="43.78,2042.98 74.91,2199.45 2521.48,2199.45 2552.62,2042.98 "/>
   <polygon class="fil3" points="-0,2145.75 2596.4,2145.75 2596.4,2012.58 -0,2012.58 "/>
   <path class="fil5" d="M2566.99 1970.52c-7.92,7.77 -17.96,13.05 -28.85,15.2 5.26,13.23 6.34,27.76 3.08,41.64 -3.26,13.87 -10.69,26.4 -21.29,35.92 3.07,6.9 4.08,14.55 2.91,22.01 -1.17,7.47 -4.47,14.44 -9.52,20.08 -5.04,5.63 -11.59,9.69 -18.88,11.68 -7.29,2 -15.01,1.85 -22.21,-0.44 -6.41,12.09 -15.29,22.69 -26.06,31.14 -10.76,8.44 -23.18,14.54 -36.45,17.9 -13.26,3.35 -27.09,3.88 -40.57,1.57 -13.49,-2.32 -26.34,-7.43 -37.73,-15.02 -6.03,10.75 -14.62,19.85 -25,26.49 -10.38,6.64 -22.25,10.61 -34.54,11.57 -12.29,0.95 -24.63,-1.14 -35.92,-6.09 -11.29,-4.96 -21.18,-12.62 -28.79,-22.31 -23.54,17.09 -52.52,24.95 -81.47,22.12 -28.96,-2.83 -55.86,-16.17 -75.64,-37.5 -10.93,10.07 -24.75,16.44 -39.5,18.2 -18.2,3.1 -37.32,1 -55.16,5.28 -25.31,6.1 -40.51,24.3 -60.08,39.5 -19.57,15.2 -54.62,20.94 -73.46,5.46 -20.4,36.17 -49.37,66.77 -84.37,89.14 -35,22.36 -74.94,35.79 -116.34,39.11 -71.09,5.46 -159.66,-28.5 -176.49,-101.31 -17.97,15.51 -39.39,26.51 -62.46,32.05 -23.08,5.56 -47.15,5.5 -70.21,-0.14 -23.05,-5.65 -44.42,-16.73 -62.33,-32.32 -17.9,-15.59 -31.82,-35.22 -40.58,-57.29 -55.8,23.3 -128.07,38.87 -163.84,-14.93 -15.02,17.35 -35.92,28.54 -58.67,31.43 -22.77,2.89 -45.79,-2.73 -64.67,-15.77 -56.8,60.17 -158.65,132.81 -225.83,53.25 -57.53,51.61 -153.56,85.65 -203.08,9.1 -48.15,28.31 -109.23,53.8 -162.21,25.94 -34.95,-18.2 -57.53,-55.53 -51.79,-93.66 -13.56,2.55 -27.56,1.06 -40.28,-4.28 -12.72,-5.34 -23.59,-14.3 -31.27,-25.76 -22.76,10.84 -35.68,-12.93 -53.61,-28.13 -34.5,-29.58 -80.1,-8.01 -116.06,-33.31 -58.26,-40.87 -8.19,-106.23 38.5,-127.44 -2.13,-14.75 -0.57,-29.8 4.53,-43.8 5.1,-14.01 13.6,-26.53 24.73,-36.44 11.12,-9.92 24.53,-16.93 39.03,-20.39 14.5,-3.47 29.63,-3.3 44.04,0.52 -3.39,-22.97 0.28,-46.43 10.52,-67.27 10.24,-20.83 26.57,-38.07 46.82,-49.42 62.08,-34.96 134.17,-4.46 179.68,43.05 22.49,-34.16 53.53,-61.83 90.04,-80.25 36.51,-18.41 77.21,-26.93 118.05,-24.71 50.79,2.74 118.33,32.59 142.91,79.92 16.73,-9.62 34.8,-16.7 53.61,-21.03 35.42,-8.3 72.45,-6.65 106.99,4.75 34.55,11.4 65.28,32.13 88.81,59.88 30.08,-11.11 62.64,-13.78 94.14,-7.72 31.49,6.06 60.73,20.63 84.54,42.13 14.64,-20.34 34.08,-36.74 56.6,-47.75 22.51,-11 47.4,-16.27 72.44,-15.32 25.04,0.94 49.46,8.07 71.08,20.74 21.62,12.68 39.77,30.5 52.84,51.88 23.87,-27.83 53.8,-49.84 87.47,-64.35 33.68,-14.51 70.22,-21.15 106.85,-19.39 36.63,1.76 72.38,11.85 104.51,29.53 32.14,17.67 59.81,42.44 80.91,72.43 44.6,-78.92 134.54,-83.47 220.74,-73.82 27.31,2.91 45.52,2.73 70.27,-8.65 9.11,-4.09 16.93,-10.01 25.94,-13.92 18.79,-8.37 38.85,-13.55 59.35,-15.29 41.26,-3.63 82.66,5.24 118.79,25.48 15.93,9.11 32.22,32.04 47.52,38.32 19.2,7.83 54.61,-3.37 76.73,-0.46 39.68,5.38 81.92,24.03 107.69,55.99 21.94,28.22 31.03,68.63 2.54,95.3z"/>
   <path class="fil3" d="M313.31 1933.48c18.2,-37.78 0,-105.32 -47.61,-124.71 -47.61,-19.39 -112.42,17.39 -122.97,58.98 -10.56,41.6 34.95,111.14 72.28,116.15 41.69,5.27 84.83,-22.67 98.3,-50.43z"/>
   <path class="fil4" d="M122.79 1877.77c33.77,28.95 89.85,54.62 135.72,52.7 -17.94,22.15 -38.34,42.18 -60.81,59.72 -1.27,1.09 0,3.46 1.73,2.45 52.61,-35.04 104.41,-98.39 106.68,-163.85 0,-0.91 -1.18,-0.91 -1.28,0 -2.23,18.35 -7.42,36.21 -15.38,52.88 -18.2,-39.13 -69.73,-68.54 -109.23,-77.82 -0.26,-0.08 -0.53,-0.07 -0.77,0.05 -0.24,0.12 -0.42,0.33 -0.51,0.59 -0.08,0.25 -0.06,0.53 0.06,0.76 0.12,0.24 0.33,0.43 0.58,0.51 12.09,4.88 23.91,10.41 35.41,16.56 -21.85,19.3 -38.32,56.89 -33.41,85.74 -19.94,-8.9 -38.85,-19.92 -56.44,-32.86 -1.18,-1.37 -3.92,1.28 -2.37,2.55zm137.72 50.43c-18.9,-1.31 -37.54,-5.1 -55.43,-11.29 27.04,1.55 53.87,-5.53 76.64,-20.2 -6.32,10.98 -13.41,21.5 -21.21,31.49zm27.31 -43.51c-1.46,3 -3,5.91 -4.64,9.1 -17.78,9.03 -37,14.85 -56.8,17.21 18.8,-11.81 33.47,-29.18 41.96,-49.7 7.19,7.2 13.71,15.03 19.48,23.4l0 0zm-20.57 -24.76c-7.24,12.79 -16.01,24.65 -26.12,35.32 -3.73,-0.83 -7.38,-1.91 -11.02,-3.1 5.88,-4.4 10.61,-10.16 13.78,-16.78 3.17,-6.63 4.69,-13.92 4.43,-21.26 5.1,0.64 10.28,1.55 15.56,2.64l3.37 3.18zm-38.78 -6.91c1.66,2.65 3,5.49 4,8.46 0.84,3.67 1.17,7.44 1,11.2 -6.06,0.86 -12.23,0.62 -18.2,-0.73 1.38,-6.28 3.49,-12.4 6.27,-18.2 2.55,-0.55 4.65,-0.64 6.92,-0.72l0 0zm3.37 0c5.08,-0.02 10.16,0.29 15.2,0.9 -1.32,6.08 -3.27,12 -5.83,17.66l-7.01 1c1.08,-3.23 1.44,-6.67 1.03,-10.06 -0.41,-3.39 -1.57,-6.63 -3.39,-9.51zm8.28 20.65c-3.4,6.52 -7.96,12.35 -13.47,17.21 -3.32,-1.32 -6.58,-2.81 -9.74,-4.46 -1.68,-3.96 -2.33,-8.28 -1.91,-12.56 3.93,1.84 8.23,2.77 12.58,2.74 4.35,-0.03 8.63,-1.03 12.54,-2.93l0 0zm-23.66 -50.7c15.54,8.36 30.07,18.47 43.33,30.12 -20.61,-6.82 -43.04,-5.51 -62.71,3.65 4.86,-12.11 11.39,-23.47 19.39,-33.77l0 0zm-20.48 36.41c7.69,-2.92 15.69,-4.9 23.85,-5.91 -3.54,4.1 -6.02,9.01 -7.21,14.3 -1.18,5.29 -1.06,10.79 0.39,16.01 -7.56,-4.42 -14.29,-10.16 -19.85,-16.93 0.91,-2.37 1.92,-4.83 2.82,-7.28l0 -0.18zm-4.19 11.47c5.87,7.24 13.13,13.23 21.36,17.62 8.22,4.39 17.24,7.1 26.52,7.95 -5.28,5.39 -11.04,10.29 -17.2,14.66 -8.01,1.09 -16.3,1.82 -25.04,2.64 -4.46,-1.73 -9.1,-3.46 -13.38,-5.37 1.39,-12.65 3.98,-25.15 7.74,-37.32l0 -0.18z"/>
   <path class="fil3" d="M1108.77 1919.37c18.21,-37.87 0,-105.31 -47.61,-124.8 -47.61,-19.48 -112.5,17.48 -123.07,58.98 -10.56,41.51 35.05,111.23 72.82,116.06 41.51,5.19 84.38,-22.12 97.85,-50.25z"/>
   <path class="fil4" d="M918.26 1863.66c33.77,28.85 89.75,54.61 135.72,52.71 -17.94,22.14 -38.34,42.18 -60.8,59.71 -1.28,1.09 0,3.37 1.73,2.45 52.61,-35.04 104.4,-98.49 106.68,-163.84 0,-0.17 -0.07,-0.34 -0.19,-0.45 -0.11,-0.12 -0.28,-0.19 -0.45,-0.19 -0.16,0 -0.33,0.07 -0.45,0.19 -0.12,0.11 -0.19,0.28 -0.19,0.45 -2.24,18.34 -7.44,36.19 -15.39,52.88 -18.2,-39.14 -69.72,-68.54 -109.23,-77.83 -0.25,-0.08 -0.52,-0.07 -0.76,0.06 -0.24,0.12 -0.42,0.33 -0.51,0.58 -0.09,0.25 -0.06,0.53 0.06,0.76 0.12,0.24 0.32,0.43 0.58,0.51 12.1,4.87 23.92,10.4 35.41,16.57 -21.84,19.3 -38.32,56.8 -33.4,85.65 -19.95,-8.84 -38.87,-19.83 -56.44,-32.77 -1.64,-1.37 -3.91,1.18 -2.37,2.55zm137.54 50.42c-18.9,-1.33 -37.54,-5.15 -55.43,-11.37 27.02,1.65 53.86,-5.44 76.55,-20.21 -6.23,11.04 -13.28,21.6 -21.12,31.58l0 0zm27.31 -43.51c-1.46,3 -3,5.92 -4.64,9.1 -17.78,9.03 -37,14.85 -56.8,17.2 18.8,-11.81 33.47,-29.18 41.96,-49.7 7.29,7.15 13.87,14.98 19.66,23.4l-0.18 0zm-20.66 -24.85c-7.16,12.85 -15.9,24.75 -26.04,35.41 -3.73,-0.84 -7.41,-1.91 -11.01,-3.19 5.88,-4.4 10.6,-10.16 13.78,-16.78 3.17,-6.63 4.69,-13.92 4.43,-21.26 5.09,0.6 10.29,1.51 15.56,2.73l3.28 3.09zm-38.68 -6.82c1.62,2.68 2.96,5.51 4,8.46 0.84,3.67 1.17,7.44 1,11.2 -6.06,0.83 -12.24,0.55 -18.2,-0.83 1.41,-6.28 3.52,-12.38 6.28,-18.2 2.55,-0.46 4.83,-0.63 7.1,-0.63l-0.18 0zm3.36 0c5.08,0.03 10.16,0.34 15.2,0.91 -1.29,6.09 -3.27,12.01 -5.91,17.66 -2.27,0 -4.64,0.82 -6.92,1.1 1.12,-3.25 1.51,-6.71 1.13,-10.12 -0.38,-3.42 -1.51,-6.71 -3.32,-9.63l-0.18 0.09zm8.29 20.75c-3.42,6.5 -7.99,12.33 -13.47,17.21 -3.32,-1.32 -6.57,-2.81 -9.74,-4.46 -1.67,-3.97 -2.32,-8.28 -1.91,-12.56 3.97,1.85 8.31,2.78 12.68,2.74 4.38,-0.05 8.7,-1.08 12.63,-3.01l-0.18 0.09zm-23.67 -50.7c15.54,8.33 30.08,18.41 43.33,30.03 -20.62,-6.79 -43.05,-5.45 -62.71,3.74 4.91,-12.15 11.51,-23.53 19.57,-33.86l-0.18 0.09zm-20.48 36.41c7.67,-2.96 15.68,-4.95 23.85,-5.91 -3.54,4.1 -6.02,9.01 -7.21,14.3 -1.19,5.29 -1.06,10.79 0.38,16.01 -7.48,-4.43 -14.11,-10.16 -19.57,-16.93l2.55 -7.47zm-4.19 11.47c5.88,7.23 13.15,13.22 21.37,17.61 8.22,4.39 17.24,7.1 26.51,7.97 -5.3,5.36 -11.06,10.27 -17.2,14.66 -8.01,1 -16.29,1.82 -25.03,2.54l-0.46 0c-4.46,-1.63 -9.1,-3.37 -13.38,-5.28 1.57,-12.7 4.38,-25.24 8.37,-37.41l-0.18 -0.09z"/>
   <path class="fil3" d="M1715.73 2090.95c41.14,-9.11 83.11,-64.72 69.36,-114.06 -13.75,-49.33 -82.74,-78.19 -122.07,-61.07 -39.32,17.11 -66.36,95.85 -47.24,128.43 21.29,36.14 69.81,53.07 99.94,46.7z"/>
   <path class="fil4" d="M1642.91 1906.35c-2.1,44.33 12.02,104.32 41.6,139.45 -28.46,-0.62 -56.77,-4.43 -84.38,-11.38 -1.74,0 -2.55,2.37 -0.91,2.91 59.89,20.02 141.73,22.03 194.98,-16.3 0.08,-0.12 0.12,-0.27 0.12,-0.42 -0.01,-0.15 -0.06,-0.29 -0.15,-0.41 -0.09,-0.12 -0.21,-0.21 -0.35,-0.26 -0.14,-0.05 -0.29,-0.05 -0.44,-0.01 -15.87,9.51 -33.17,16.36 -51.25,20.3 20.03,-38.14 11.38,-97.12 -5.46,-133.99 -0.09,-0.25 -0.27,-0.46 -0.5,-0.58 -0.24,-0.12 -0.52,-0.13 -0.77,-0.06 -0.26,0.09 -0.46,0.27 -0.58,0.51 -0.12,0.24 -0.14,0.52 -0.06,0.77 3.73,12.54 6.77,25.27 9.11,38.14 -28.67,-5.46 -68.37,4.65 -88.21,26.22 -5.32,-21.19 -8.37,-42.89 -9.1,-64.72 -0.09,-2.09 -3.55,-2.27 -3.64,-0.18zm44.51 139.54c-10.52,-15.74 -18.93,-32.78 -25.03,-50.7 15.3,22.32 37.34,39.17 62.9,48.06 -12.55,1.8 -25.2,2.68 -37.87,2.64l0 0zm51.25 -5c-3.27,0.73 -6.55,1.28 -9.83,1.73 -18.05,-8.48 -34.45,-20.11 -48.43,-34.31 20.86,7.62 43.57,8.57 64.99,2.73 -1.31,10.14 -3.56,20.14 -6.73,29.86l0 0zm6.92 -31.5c-14.52,2.18 -29.26,2.55 -43.88,1.1 -1.65,-3.45 -3.09,-7.01 -4.28,-10.65 7.09,1.91 14.53,2.08 21.69,0.49 7.16,-1.58 13.84,-4.87 19.45,-9.6 2.67,4.49 5.13,9.13 7.37,13.93 -0.09,1.63 -0.17,3.18 -0.36,4.73zm-18.2 -34.87c-1.12,2.95 -2.55,5.76 -4.28,8.38 -2.3,2.98 -5.06,5.56 -8.19,7.65 -4.37,-4.23 -7.92,-9.23 -10.47,-14.74 5.81,-2.81 11.91,-4.95 18.2,-6.37l4.74 5.09zm2.09 2.74c3.11,3.98 5.97,8.14 8.55,12.47 -5.56,2.77 -11.42,4.88 -17.48,6.28l-5.19 -4.92c3.22,-1.11 6.15,-2.93 8.58,-5.32 2.42,-2.4 4.28,-5.3 5.44,-8.51l0.09 0zm-11.2 19.21c-7.25,1.36 -14.68,1.36 -21.94,0 -1.01,-3.41 -1.8,-6.88 -2.37,-10.38 2.17,-3.79 5.31,-6.93 9.11,-9.11 0.92,4.17 2.75,8.07 5.37,11.43 2.61,3.37 5.94,6.11 9.74,8.05l0.09 0zm25.49 -49.79c2.91,17.38 3.82,35.03 2.73,52.61 -7.22,-20.44 -22.01,-37.32 -41.32,-47.15 12.52,-3.61 25.48,-5.45 38.5,-5.46l0.09 0zm-41.51 6.28c7.06,4.22 13.55,9.33 19.3,15.21 -5.41,-0.29 -10.81,0.76 -15.72,3.06 -4.9,2.3 -9.17,5.79 -12.41,10.13 -1.12,-8.71 -0.7,-17.56 1.28,-26.12l7.55 -2.28zm-11.56 3.74c-2.14,9.08 -2.43,18.49 -0.87,27.69 1.56,9.19 4.96,17.98 9.97,25.84 -7.5,-0.88 -14.9,-2.42 -22.12,-4.65 -5.73,-5.73 -11.47,-11.74 -17.38,-18.2 -1.46,-4.64 -2.74,-9.1 -4.01,-13.83 10.87,-6.73 22.36,-12.4 34.32,-16.93l0.09 0.09z"/>
   <path class="fil3" d="M2343.9 1990.63c-41.06,-9.1 -83.11,-64.72 -69.36,-114.05 13.74,-49.34 82.74,-78.19 122.06,-60.99 39.32,17.21 66.36,95.76 47.24,128.35 -21.21,36.14 -69.82,53.06 -99.94,46.69z"/>
   <path class="fil4" d="M2413.16 1806.22c-0.76,21.83 -3.82,43.52 -9.1,64.72 -19.75,-21.58 -59.53,-31.59 -88.2,-26.22 2.34,-12.87 5.38,-25.6 9.1,-38.14 0.04,-0.13 0.06,-0.27 0.05,-0.39 -0.01,-0.13 -0.05,-0.26 -0.1,-0.38 -0.06,-0.12 -0.14,-0.22 -0.25,-0.31 -0.1,-0.09 -0.22,-0.15 -0.34,-0.19 -0.12,-0.04 -0.26,-0.06 -0.38,-0.05 -0.13,0.01 -0.27,0.04 -0.38,0.1 -0.12,0.06 -0.23,0.14 -0.31,0.24 -0.09,0.1 -0.15,0.22 -0.19,0.34 -16.84,36.87 -25.39,95.85 -5.46,133.99 -18.08,-3.94 -35.38,-10.79 -51.25,-20.3 -0.07,-0.05 -0.15,-0.08 -0.24,-0.09 -0.08,-0.02 -0.17,-0.02 -0.26,0 -0.09,0.02 -0.16,0.05 -0.24,0.09 -0.07,0.05 -0.13,0.11 -0.18,0.18 -0.05,0.07 -0.09,0.15 -0.1,0.24 -0.02,0.08 -0.01,0.17 0,0.26 0.02,0.09 0.05,0.16 0.1,0.24 0.05,0.07 0.11,0.14 0.18,0.18 53.16,38.41 134.99,36.41 194.98,16.29 1.55,-0.54 0.73,-3.27 -0.91,-2.82 -27.66,6.85 -55.99,10.67 -84.47,11.38 29.59,-35.23 43.79,-95.21 41.6,-139.54 -0.18,-2.1 -3.64,-1.91 -3.64,0.18zm-78.83 136.54c25.56,-8.89 47.6,-25.73 62.9,-48.06 -6.06,17.93 -14.48,34.98 -25.03,50.7 -12.66,0.09 -25.32,-0.73 -37.87,-2.46l0 -0.18zm-20.02 -32.22c21.43,5.85 44.13,4.89 64.99,-2.73 -14.03,14.21 -30.45,25.86 -48.51,34.41 -3.27,-0.55 -6.55,-1.1 -9.74,-1.83 -3.18,-9.53 -5.43,-19.35 -6.73,-29.3l0 -0.55zm-0.64 -6.28c2.37,-4.82 4.82,-9.1 7.46,-13.93 5.61,4.73 12.29,8.02 19.45,9.6 7.16,1.58 14.61,1.41 21.69,-0.5 -1.24,3.62 -2.66,7.18 -4.27,10.64 -14.65,1.46 -29.42,1.09 -43.97,-1.09 -0.18,-1.46 -0.18,-3 -0.36,-4.55l0 -0.18zm23.21 -35.23c6.29,1.35 12.41,3.46 18.2,6.28 -2.59,5.54 -6.17,10.57 -10.56,14.83 -3.09,-2.17 -5.85,-4.77 -8.19,-7.73 -1.73,-2.59 -3.16,-5.38 -4.27,-8.28 1.73,-1.55 3.27,-3.27 4.82,-4.91l0 -0.18zm7.47 21.57c-1.65,1.73 -3.37,3.37 -5.1,4.92 -6.07,-1.4 -11.96,-3.47 -17.56,-6.19 2.57,-4.37 5.43,-8.57 8.56,-12.56 1.16,3.24 3.02,6.18 5.46,8.6 2.44,2.42 5.39,4.27 8.65,5.41l0 -0.18zm12.74 -14.29c3.79,2.16 6.93,5.3 9.1,9.11 -0.64,3.5 -1.46,6.96 -2.46,10.37 -7.22,1.37 -14.63,1.37 -21.84,0 3.78,-1.91 7.11,-4.63 9.73,-7.96 2.62,-3.34 4.49,-7.2 5.47,-11.33l0 -0.18zm-2.55 -24.67c-19.3,9.9 -34.08,26.8 -41.32,47.24 -1.1,-17.61 -0.18,-35.3 2.73,-52.71 13.06,0.07 26.06,1.97 38.59,5.64l0 -0.18zm10.47 3.19c2.04,8.52 2.51,17.34 1.37,26.03 -3.25,-4.35 -7.53,-7.83 -12.45,-10.11 -4.93,-2.29 -10.35,-3.32 -15.76,-3 5.74,-5.91 12.23,-11.05 19.3,-15.29 2.55,1 5.1,1.63 7.55,2.55l0 -0.18zm38.87 18.2c-1.18,4.64 -2.55,9.1 -4.01,13.84 -6.01,6.46 -11.65,12.47 -17.38,18.2 -7.25,2.21 -14.68,3.77 -22.21,4.64 5.01,-7.86 8.41,-16.65 9.97,-25.85 1.56,-9.19 1.27,-18.6 -0.88,-27.68 12.01,4.5 23.56,10.14 34.5,16.84l0 0z"/>
   <path class="fil3" d="M641 2160.31c-41.06,-8.65 -83.02,-64.72 -69.37,-114.06 13.66,-49.34 82.74,-78.19 122.07,-60.99 39.32,17.21 66.45,95.85 47.33,128.35 -21.29,36.23 -69.81,53.16 -100.03,46.7z"/>
   <path class="fil4" d="M710.27 1975.89c-0.68,21.84 -3.73,43.54 -9.11,64.72 -19.75,-21.58 -59.43,-31.59 -88.11,-26.21 2.19,-12.83 5.08,-25.53 8.65,-38.05 0.09,-0.26 0.08,-0.54 -0.03,-0.79 -0.11,-0.25 -0.32,-0.44 -0.57,-0.54 -0.26,-0.09 -0.54,-0.08 -0.78,0.03 -0.26,0.11 -0.45,0.31 -0.55,0.57 -16.92,36.87 -25.48,95.94 -5.46,133.99 -18.08,-3.92 -35.39,-10.78 -51.24,-20.3 -0.73,0 -1.46,0.63 -0.82,1.09 53.16,38.41 135.08,36.41 194.98,16.29 1.63,-0.55 0.72,-3.18 -0.91,-2.82 -27.61,6.95 -55.92,10.76 -84.38,11.38 29.59,-35.23 43.69,-95.21 41.6,-139.45 0.18,-2.1 -3.18,-1.91 -3.27,0.09zm-78.83 136.53c25.58,-8.94 47.64,-25.8 62.99,-48.15 -6.08,17.93 -14.5,34.97 -25.03,50.7 -12.69,0.21 -25.38,-0.56 -37.96,-2.28l0 -0.28zm-20.02 -32.31c21.41,5.88 44.12,4.96 64.99,-2.63 -14.02,14.21 -30.44,25.84 -48.52,34.32l-9.74 -1.74c-3.16,-9.66 -5.41,-19.59 -6.73,-29.67l0 -0.28zm-0.64 -6.19c2.37,-4.91 4.83,-9.56 7.46,-14.02 5.62,4.72 12.29,8.01 19.45,9.6 7.16,1.58 14.61,1.41 21.69,-0.5 -1.22,3.6 -2.64,7.12 -4.27,10.56 -14.61,1.48 -29.35,1.15 -43.88,-1 -0.28,-1.28 -0.28,-2.82 -0.46,-4.37l0 -0.27zm22.94 -35.41c6.29,1.42 12.4,3.56 18.2,6.38 -2.62,5.47 -6.16,10.46 -10.47,14.74 -3.09,-2.13 -5.85,-4.72 -8.19,-7.65 -1.8,-2.58 -3.24,-5.4 -4.28,-8.37 2,-1.36 3.46,-3.09 4.74,-5.09zm7.46 21.66l-5.1 4.83c-6.06,-1.42 -11.95,-3.51 -17.57,-6.19 2.64,-4.35 5.53,-8.55 8.65,-12.56 1.12,3.32 3,6.33 5.47,8.81 2.49,2.48 5.5,4.36 8.82,5.48l-0.27 -0.36zm12.75 -14.38c3.77,2.19 6.91,5.32 9.1,9.1 -0.54,3.55 -1.37,7.05 -2.45,10.47 -7.23,1.32 -14.62,1.32 -21.85,0 3.84,-1.86 7.22,-4.55 9.9,-7.87 2.68,-3.32 4.58,-7.2 5.58,-11.34l-0.27 -0.36zm-2.55 -24.67c-19.27,9.91 -34.03,26.81 -41.24,47.24 -1.09,-17.58 -0.17,-35.23 2.74,-52.61 13.22,-0.01 26.38,1.93 39.05,5.73l-0.55 -0.36zm10.56 3.19c1.97,8.57 2.4,17.41 1.27,26.13 -3.23,-4.38 -7.51,-7.87 -12.44,-10.18 -4.92,-2.31 -10.35,-3.34 -15.78,-3.02 5.79,-5.83 12.27,-10.94 19.3,-15.2l7.65 2.28zm38.77 18.21c-1.18,4.74 -2.54,9.1 -3.91,13.83 0,0 0,0 -0.45,0 -5.92,6.46 -11.66,12.47 -17.39,18.2 -7.25,2.15 -14.69,3.67 -22.21,4.56 5.02,-7.85 8.41,-16.62 9.97,-25.79 1.56,-9.18 1.27,-18.57 -0.87,-27.64 12.24,4.5 24.01,10.2 35.13,17.02l-0.28 -0.18z"/>
   <path class="fil2" d="M483.89 1642.29c53.52,76.64 199.24,91.03 562.89,162.47 50.25,9.83 215,-326.5 162.11,-339.71 -66.99,-16.74 -330.51,-67.17 -350.26,-68.44 -166.48,-10.65 -411.07,193.79 -374.75,245.68z"/>
   <path class="fil2" d="M1136.17 1448.4c0,0 154.11,23.21 231.2,60.53 103.31,49.88 171.95,135.54 198.53,172.94 55.52,78.56 135.44,306.75 73.64,341.25 -55.8,31.22 -125.71,-206.17 -125.71,-206.17 0,0 111.23,230.29 37.05,255.51 -74.18,25.22 -139.72,-254.87 -139.72,-254.87 0,0 109.23,239.12 28.4,253.05 -60.9,10.56 -134.53,-239.94 -134.53,-239.94 0,0 92.2,206.27 30.04,219.73 -68.72,15.38 -151.11,-212.18 -151.11,-212.18 -163.84,7.74 -245.03,-55.62 -297.47,-107.5 -12.65,-12.38 249.68,-282.36 249.68,-282.36z"/>
   <path class="fil1" d="M1480.25 1735.04c14.02,26.58 28.49,53.35 40.05,81.1 11.56,27.76 22.3,55.89 31.32,84.56 12.56,37.28 20.75,75.89 24.39,115.06 -11.65,-69 -51.79,-168.94 -63.72,-196.71 -11.92,-27.76 -21.84,-55.98 -33.49,-83.65 0.27,-0.73 1.46,-1.01 1.46,-0.37z"/>
   <path class="fil1" d="M1379.48 1775.18c16.48,34.78 34.14,68.63 49.06,104.05 14.93,35.4 25.86,70.08 38.23,106.31 1,2.73 -0.82,2.37 -1.92,-0.46 -13.83,-35.68 -29.4,-67.54 -43.6,-103.13 -14.2,-35.59 -27.3,-71.55 -42.6,-106.41 -0.27,-0.55 0.64,-1 0.82,-0.37z"/>
   <path class="fil1" d="M1286.73 1794.12c26.52,52.64 47.53,107.88 62.71,164.85 0.91,2.73 -1.46,2 -2.45,-0.81 -19.84,-55.17 -34.96,-98.58 -62.08,-163.03 -0.45,-1 1.18,-2.37 1.82,-1z"/>
   <path class="fil1" d="M1458.68 1567.55c17.96,11.67 34.73,25.09 50.06,40.05 15.57,14.76 29.94,30.74 42.96,47.79 6.64,8.47 12.56,17.39 18.75,26.21 6.19,8.83 11.57,18.2 16.21,27.31 10.29,18.83 18.64,38.65 24.94,59.17 -5.37,-9.11 -9.11,-19.21 -15.03,-28.22l-7.64 -13.93c-2.64,-4.55 -5.55,-9.1 -8.29,-13.47 -11.21,-17.95 -23.36,-35.3 -36.41,-51.97 -12.74,-16.75 -26.49,-32.86 -40.69,-48.43 -7.19,-7.83 -14.47,-15.48 -22.03,-22.94 -7.55,-7.46 -14.92,-14.38 -22.84,-21.57z"/>
   <path class="fil3" d="M1168.3 1448.4l-318.59 355c0,0 -322.14,-74.01 -369.56,-156.56 -31.22,-54.61 211.27,-274.63 394.32,-248.95l293.83 50.52z"/>
   <path class="fil3" d="M716.46 1466.7c0.02,1.62 -0.45,3.22 -1.35,4.58 -0.89,1.36 -2.17,2.42 -3.67,3.06 -1.5,0.63 -3.15,0.8 -4.75,0.49 -1.6,-0.32 -3.07,-1.1 -4.22,-2.25 -1.14,-1.15 -1.93,-2.62 -2.24,-4.22 -0.32,-1.6 -0.14,-3.25 0.48,-4.75 0.64,-1.5 1.7,-2.78 3.06,-3.67 1.36,-0.9 2.95,-1.36 4.59,-1.34 2.15,0 4.2,0.85 5.72,2.37 1.52,1.52 2.38,3.58 2.38,5.73l0 0zm122.97 -8.1c-1.6,0 -3.17,0.48 -4.5,1.37 -1.33,0.89 -2.37,2.15 -2.98,3.63 -0.62,1.48 -0.77,3.11 -0.46,4.68 0.31,1.57 1.08,3.01 2.22,4.15 1.13,1.13 2.57,1.91 4.15,2.21 1.57,0.32 3.2,0.16 4.68,-0.45 1.49,-0.62 2.74,-1.66 3.64,-2.99 0.89,-1.33 1.36,-2.9 1.36,-4.5 0,-2.15 -0.86,-4.21 -2.37,-5.73 -1.52,-1.52 -3.58,-2.37 -5.72,-2.37l0 0zm131.07 0c-1.6,0.02 -3.15,0.51 -4.47,1.41 -1.33,0.9 -2.35,2.17 -2.95,3.65 -0.6,1.48 -0.75,3.11 -0.43,4.67 0.33,1.57 1.1,3 2.24,4.13 1.13,1.12 2.58,1.89 4.15,2.19 1.57,0.31 3.19,0.14 4.67,-0.48 1.48,-0.62 2.73,-1.66 3.62,-2.98 0.88,-1.33 1.35,-2.89 1.35,-4.49 0,-1.07 -0.21,-2.13 -0.63,-3.12 -0.41,-0.99 -1.01,-1.89 -1.78,-2.64 -0.76,-0.75 -1.67,-1.35 -2.66,-1.75 -0.99,-0.4 -2.06,-0.6 -3.13,-0.59l0 0zm131.16 0c-1.6,0 -3.16,0.48 -4.5,1.37 -1.33,0.89 -2.37,2.15 -2.98,3.63 -0.61,1.48 -0.77,3.11 -0.46,4.68 0.31,1.57 1.08,3.01 2.22,4.15 1.13,1.13 2.58,1.91 4.15,2.21 1.58,0.32 3.2,0.16 4.68,-0.45 1.48,-0.62 2.74,-1.66 3.63,-2.99 0.89,-1.33 1.36,-2.9 1.36,-4.5 0,-2.15 -0.85,-4.21 -2.37,-5.73 -1.52,-1.52 -3.58,-2.37 -5.73,-2.37l0 0zm-524.48 175.4c-1.6,0.02 -3.16,0.51 -4.48,1.41 -1.32,0.9 -2.35,2.18 -2.95,3.65 -0.59,1.48 -0.74,3.11 -0.42,4.68 0.32,1.56 1.1,2.99 2.23,4.12 1.14,1.13 2.58,1.89 4.15,2.2 1.57,0.3 3.2,0.14 4.67,-0.48 1.48,-0.62 2.74,-1.66 3.62,-2.99 0.89,-1.33 1.36,-2.89 1.36,-4.49 0.01,-1.07 -0.21,-2.13 -0.62,-3.12 -0.42,-0.99 -1.02,-1.89 -1.78,-2.64 -0.76,-0.75 -1.67,-1.35 -2.65,-1.75 -0.99,-0.4 -2.06,-0.6 -3.13,-0.59l0 0zm131.16 0c-1.6,0 -3.17,0.48 -4.5,1.37 -1.33,0.89 -2.37,2.15 -2.98,3.63 -0.62,1.48 -0.78,3.11 -0.47,4.68 0.32,1.57 1.09,3.01 2.22,4.15 1.13,1.13 2.57,1.91 4.15,2.22 1.57,0.31 3.2,0.15 4.68,-0.46 1.48,-0.62 2.74,-1.66 3.63,-2.99 0.89,-1.33 1.37,-2.9 1.37,-4.5 0,-2.15 -0.86,-4.21 -2.38,-5.73 -1.52,-1.52 -3.58,-2.37 -5.72,-2.37zm131.08 0c-1.6,0 -3.17,0.48 -4.5,1.37 -1.33,0.89 -2.37,2.15 -2.98,3.63 -0.62,1.48 -0.77,3.11 -0.46,4.68 0.31,1.57 1.08,3.01 2.22,4.15 1.13,1.13 2.57,1.91 4.15,2.22 1.57,0.31 3.2,0.15 4.68,-0.46 1.49,-0.62 2.74,-1.66 3.64,-2.99 0.89,-1.33 1.36,-2.9 1.36,-4.5 0,-2.15 -0.86,-4.21 -2.37,-5.73 -1.52,-1.52 -3.58,-2.37 -5.72,-2.37l0 0zm131.07 0c-1.6,0.02 -3.15,0.51 -4.47,1.41 -1.33,0.9 -2.35,2.18 -2.95,3.65 -0.6,1.48 -0.75,3.11 -0.43,4.68 0.33,1.56 1.1,2.99 2.24,4.12 1.13,1.13 2.58,1.89 4.15,2.2 1.57,0.3 3.19,0.14 4.67,-0.48 1.48,-0.62 2.73,-1.66 3.62,-2.99 0.88,-1.33 1.35,-2.89 1.35,-4.49 0,-1.07 -0.21,-2.13 -0.63,-3.12 -0.41,-0.99 -1.01,-1.89 -1.78,-2.64 -0.76,-0.75 -1.67,-1.35 -2.66,-1.75 -0.99,-0.4 -2.06,-0.6 -3.13,-0.59l0 0zm-327.69 -84.02c-1.62,0 -3.21,0.49 -4.56,1.39 -1.35,0.9 -2.4,2.18 -3.02,3.69 -0.62,1.5 -0.77,3.15 -0.45,4.74 0.33,1.59 1.11,3.05 2.27,4.2 1.16,1.14 2.62,1.92 4.22,2.22 1.59,0.3 3.25,0.13 4.74,-0.51 1.5,-0.63 2.77,-1.69 3.66,-3.05 0.89,-1.36 1.35,-2.95 1.33,-4.58 0,-1.07 -0.21,-2.13 -0.63,-3.12 -0.42,-0.98 -1.01,-1.88 -1.78,-2.63 -0.76,-0.75 -1.66,-1.35 -2.66,-1.75 -0.99,-0.4 -2.06,-0.6 -3.13,-0.59zm131.16 0c-1.62,-0.02 -3.22,0.45 -4.58,1.35 -1.36,0.89 -2.43,2.17 -3.06,3.67 -0.63,1.5 -0.8,3.16 -0.49,4.76 0.31,1.59 1.1,3.06 2.24,4.21 1.15,1.15 2.62,1.93 4.22,2.24 1.6,0.31 3.25,0.14 4.75,-0.49 1.5,-0.64 2.78,-1.7 3.67,-3.06 0.89,-1.36 1.36,-2.95 1.34,-4.59 0,-1.07 -0.22,-2.13 -0.62,-3.12 -0.42,-0.98 -1.03,-1.88 -1.78,-2.63 -0.76,-0.75 -1.67,-1.35 -2.66,-1.75 -1,-0.4 -2.06,-0.6 -3.13,-0.59l0.09 0zm131.08 0c-1.62,0 -3.21,0.49 -4.56,1.39 -1.35,0.9 -2.4,2.18 -3.02,3.69 -0.62,1.5 -0.77,3.15 -0.45,4.74 0.33,1.59 1.11,3.05 2.27,4.2 1.15,1.14 2.62,1.92 4.22,2.22 1.6,0.3 3.24,0.13 4.74,-0.51 1.5,-0.63 2.77,-1.69 3.66,-3.05 0.89,-1.36 1.35,-2.95 1.33,-4.58 0,-1.08 -0.21,-2.14 -0.63,-3.14 -0.42,-1 -1.04,-1.9 -1.8,-2.65 -0.77,-0.75 -1.69,-1.35 -2.69,-1.74 -1,-0.39 -2.08,-0.59 -3.16,-0.57l0.09 0zm131.17 0c-1.63,-0.02 -3.23,0.45 -4.59,1.35 -1.36,0.89 -2.42,2.17 -3.05,3.67 -0.64,1.5 -0.8,3.16 -0.49,4.76 0.31,1.59 1.09,3.06 2.24,4.21 1.15,1.15 2.62,1.93 4.22,2.24 1.6,0.31 3.25,0.14 4.75,-0.49 1.5,-0.64 2.78,-1.7 3.67,-3.06 0.9,-1.36 1.36,-2.95 1.34,-4.59 0.01,-1.07 -0.21,-2.13 -0.63,-3.12 -0.41,-0.98 -1.01,-1.88 -1.78,-2.63 -0.76,-0.75 -1.67,-1.35 -2.66,-1.75 -0.99,-0.4 -2.06,-0.6 -3.13,-0.59l0.09 0zm-393.41 175.41c-1.62,0 -3.21,0.48 -4.56,1.38 -1.35,0.9 -2.4,2.19 -3.02,3.69 -0.62,1.5 -0.77,3.16 -0.45,4.75 0.33,1.59 1.11,3.04 2.27,4.19 1.16,1.14 2.62,1.91 4.22,2.22 1.59,0.3 3.25,0.13 4.74,-0.5 1.5,-0.64 2.77,-1.7 3.66,-3.06 0.89,-1.36 1.35,-2.95 1.33,-4.58 0,-1.07 -0.21,-2.13 -0.63,-3.12 -0.42,-0.99 -1.01,-1.89 -1.78,-2.64 -0.76,-0.75 -1.66,-1.35 -2.66,-1.75 -0.99,-0.4 -2.06,-0.6 -3.13,-0.59zm131.16 0c-1.62,-0.02 -3.22,0.44 -4.58,1.34 -1.36,0.9 -2.43,2.17 -3.06,3.67 -0.63,1.5 -0.8,3.16 -0.49,4.76 0.31,1.59 1.1,3.06 2.24,4.21 1.15,1.15 2.62,1.94 4.22,2.25 1.6,0.31 3.25,0.14 4.75,-0.49 1.5,-0.64 2.78,-1.7 3.67,-3.06 0.89,-1.36 1.36,-2.95 1.34,-4.58 0,-1.07 -0.22,-2.13 -0.62,-3.12 -0.42,-0.99 -1.03,-1.89 -1.78,-2.64 -0.76,-0.75 -1.67,-1.35 -2.66,-1.75 -1,-0.4 -2.06,-0.6 -3.13,-0.59l0.09 0zm131.16 0c-2.17,0 -4.25,0.86 -5.79,2.39 -1.54,1.54 -2.4,3.62 -2.4,5.8 0,1.07 0.22,2.13 0.63,3.12 0.41,0.99 1.01,1.89 1.78,2.63 0.76,0.75 1.67,1.35 2.66,1.75 0.99,0.4 2.06,0.6 3.13,0.59l8.01 -9.11c-0.22,-1.99 -1.17,-3.84 -2.67,-5.18 -1.49,-1.34 -3.43,-2.09 -5.43,-2.1l0.09 0.09z"/>
   <path class="fil1" d="M656.2 1455.32c29.49,-21.39 112.6,-71.27 218.46,-57.98 0.92,0 1,1.64 0,1.54 -79.91,-2.27 -187.78,39.51 -218.46,57.72 -0.09,0.45 -0.72,-0.64 0,-1.28z"/>
   <path class="fil1" d="M762.7 1743.69c32.95,-40.87 67.99,-79.92 103.22,-118.88 35.22,-38.96 70.36,-78.09 106.59,-116.24 20.39,-21.57 40.78,-43.24 61.99,-63.72 0.55,-0.54 1.55,0 1.1,0.91 -32.86,40.78 -67.91,80.1 -102.77,119.24 -34.86,39.14 -70.36,78.09 -106.04,116.69 -20.21,21.76 -40.78,43.15 -61.99,63.72 -1.1,1 -3.01,-0.55 -2.1,-1.73z"/>
   <path class="fil1" d="M1168.94 1443.76c-19.57,-5.88 -39.52,-10.42 -59.72,-13.56 -20.12,-3.82 -40.32,-7.2 -60.44,-10.47 -40.14,-6.46 -124.52,-24.67 -198.7,-24.49 -0.82,0 3.37,4.01 4.18,4.01 35.32,-1.91 288.37,48.43 309.48,49.88 -0.85,1.35 -1.6,2.75 -2.27,4.19 0,1.1 0.64,2.37 1.73,1.64 2.64,-1.73 4.46,-3.91 6.92,-5.83 0.47,-0.34 0.83,-0.81 1.04,-1.36 0.21,-0.54 0.25,-1.13 0.13,-1.7 -0.13,-0.57 -0.42,-1.09 -0.84,-1.5 -0.42,-0.4 -0.94,-0.69 -1.51,-0.8l0 0z"/>
   <path class="fil3" d="M1427.45 773.27c304.38,265.52 543.78,593.57 527.95,675.58 -28.67,152.74 -229.39,162.3 -260.15,129.26 -123.25,-133.54 -253.32,-392.23 -394.23,-680.87 -125.89,-257.96 26.21,-211.27 126.43,-123.97z"/>
   <path class="fil3" d="M1372.02 765.08c0.03,1.62 -0.45,3.22 -1.34,4.58 -0.89,1.36 -2.18,2.42 -3.67,3.05 -1.5,0.64 -3.16,0.8 -4.76,0.49 -1.59,-0.31 -3.06,-1.1 -4.21,-2.25 -1.15,-1.15 -1.94,-2.61 -2.25,-4.21 -0.31,-1.6 -0.14,-3.25 0.49,-4.75 0.64,-1.5 1.7,-2.78 3.06,-3.67 1.36,-0.9 2.95,-1.37 4.58,-1.34 2.15,0 4.21,0.85 5.73,2.37 1.52,1.52 2.37,3.58 2.37,5.73l0 0zm-8.1 167.3c-1.63,-0.02 -3.22,0.45 -4.58,1.34 -1.36,0.89 -2.42,2.17 -3.06,3.67 -0.64,1.5 -0.8,3.15 -0.49,4.75 0.31,1.6 1.1,3.06 2.25,4.21 1.15,1.15 2.62,1.94 4.21,2.25 1.6,0.31 3.25,0.14 4.76,-0.49 1.5,-0.63 2.78,-1.69 3.67,-3.05 0.89,-1.36 1.36,-2.96 1.34,-4.59 0,-2.15 -0.85,-4.21 -2.37,-5.73 -1.52,-1.52 -3.58,-2.37 -5.73,-2.37l0 0zm131.08 0c-1.62,0 -3.21,0.49 -4.56,1.38 -1.35,0.91 -2.4,2.19 -3.01,3.7 -0.63,1.5 -0.77,3.15 -0.45,4.75 0.32,1.59 1.11,3.05 2.27,4.19 1.15,1.14 2.62,1.92 4.21,2.22 1.6,0.31 3.25,0.13 4.75,-0.5 1.49,-0.63 2.76,-1.7 3.65,-3.06 0.89,-1.35 1.36,-2.95 1.34,-4.57 0,-1.07 -0.22,-2.13 -0.63,-3.12 -0.41,-0.99 -1.01,-1.89 -1.78,-2.64 -0.76,-0.75 -1.67,-1.34 -2.66,-1.75 -0.99,-0.4 -2.06,-0.6 -3.13,-0.59l0 0zm-196.8 -84.02c-1.62,-0.02 -3.22,0.45 -4.58,1.35 -1.36,0.89 -2.42,2.17 -3.06,3.67 -0.63,1.5 -0.8,3.16 -0.49,4.76 0.32,1.6 1.1,3.06 2.25,4.22 1.15,1.14 2.62,1.93 4.22,2.24 1.59,0.31 3.25,0.15 4.75,-0.48 1.5,-0.64 2.78,-1.7 3.67,-3.06 0.89,-1.36 1.36,-2.96 1.34,-4.59 0,-2.15 -0.85,-4.21 -2.37,-5.73 -1.52,-1.52 -3.58,-2.37 -5.73,-2.37zm131.08 0c-1.62,-0.02 -3.22,0.45 -4.59,1.35 -1.36,0.89 -2.42,2.17 -3.05,3.67 -0.64,1.5 -0.8,3.16 -0.49,4.76 0.31,1.6 1.1,3.06 2.25,4.22 1.15,1.14 2.61,1.93 4.21,2.24 1.6,0.31 3.25,0.15 4.76,-0.48 1.5,-0.64 2.77,-1.7 3.67,-3.06 0.89,-1.36 1.36,-2.96 1.34,-4.59 0,-2.12 -0.83,-4.15 -2.31,-5.67 -1.48,-1.51 -3.5,-2.38 -5.61,-2.43l-0.18 0zm65.54 259.42c-1.63,0 -3.21,0.49 -4.57,1.38 -1.35,0.91 -2.39,2.19 -3.01,3.7 -0.62,1.51 -0.77,3.15 -0.45,4.75 0.32,1.59 1.11,3.05 2.27,4.19 1.16,1.14 2.63,1.92 4.22,2.22 1.6,0.31 3.24,0.13 4.74,-0.5 1.5,-0.63 2.77,-1.7 3.65,-3.06 0.89,-1.35 1.36,-2.95 1.34,-4.57 0,-2.13 -0.84,-4.18 -2.34,-5.69 -1.5,-1.52 -3.54,-2.38 -5.67,-2.41l-0.18 0zm131.16 0c-1.62,-0.02 -3.22,0.45 -4.59,1.34 -1.36,0.9 -2.42,2.17 -3.06,3.67 -0.63,1.5 -0.8,3.15 -0.48,4.75 0.31,1.6 1.09,3.07 2.24,4.21 1.15,1.15 2.62,1.94 4.22,2.25 1.59,0.31 3.25,0.14 4.75,-0.48 1.5,-0.64 2.78,-1.7 3.67,-3.06 0.9,-1.36 1.36,-2.96 1.35,-4.59 0,-1.07 -0.22,-2.13 -0.63,-3.12 -0.41,-0.99 -1.01,-1.89 -1.78,-2.64 -0.76,-0.75 -1.67,-1.34 -2.66,-1.74 -0.99,-0.4 -2.06,-0.6 -3.13,-0.59l0.09 0zm128.25 0.46c-1.54,0.59 -2.88,1.63 -3.82,3 -0.94,1.36 -1.45,2.98 -1.45,4.64 0,2.15 0.86,4.21 2.37,5.73 1.52,1.52 3.58,2.37 5.72,2.37 1.4,-0.01 2.79,-0.37 4.01,-1.05 1.22,-0.69 2.26,-1.68 3,-2.86l-9.84 -11.83zm-324.96 -84.47c-1.62,-0.02 -3.22,0.45 -4.59,1.34 -1.36,0.9 -2.42,2.17 -3.05,3.67 -0.64,1.5 -0.8,3.15 -0.49,4.75 0.31,1.6 1.1,3.06 2.25,4.22 1.15,1.15 2.61,1.93 4.21,2.24 1.6,0.32 3.25,0.14 4.76,-0.49 1.5,-0.64 2.77,-1.7 3.67,-3.06 0.89,-1.36 1.36,-2.96 1.34,-4.58 0,-2.12 -0.83,-4.15 -2.31,-5.66 -1.48,-1.52 -3.5,-2.39 -5.61,-2.44l-0.18 0zm131.08 0c-1.62,0 -3.21,0.48 -4.56,1.39 -1.35,0.9 -2.4,2.19 -3.01,3.69 -0.62,1.5 -0.78,3.16 -0.45,4.75 0.32,1.59 1.11,3.05 2.27,4.19 1.15,1.14 2.61,1.91 4.21,2.22 1.6,0.3 3.25,0.13 4.74,-0.5 1.5,-0.63 2.77,-1.7 3.66,-3.05 0.89,-1.36 1.35,-2.96 1.33,-4.58 0,-2.14 -0.84,-4.18 -2.34,-5.7 -1.5,-1.52 -3.54,-2.38 -5.67,-2.4l-0.18 0zm124.25 3.82c-0.77,1.3 -1.18,2.77 -1.18,4.28 -0.02,1.07 0.18,2.13 0.59,3.13 0.4,0.99 1,1.9 1.75,2.66 0.75,0.76 1.65,1.37 2.63,1.78 0.99,0.41 2.06,0.63 3.12,0.63 1.16,0.02 2.32,-0.23 3.37,-0.73 -3.19,-4.01 -6.65,-7.83 -10.1,-11.74l-0.18 0zm-186.15 256.14c1.73,3.01 3.27,6.01 4.91,9.11 0.05,-0.46 0.05,-0.91 0,-1.37 0.08,-1.63 -0.36,-3.25 -1.24,-4.64 -0.88,-1.38 -2.16,-2.46 -3.67,-3.1l0 0zm127.43 -0.73c-1.62,-0.02 -3.22,0.45 -4.59,1.34 -1.36,0.89 -2.42,2.17 -3.06,3.67 -0.63,1.51 -0.79,3.16 -0.48,4.76 0.31,1.6 1.09,3.06 2.24,4.22 1.15,1.15 2.62,1.93 4.22,2.24 1.6,0.32 3.25,0.15 4.75,-0.48 1.5,-0.63 2.78,-1.69 3.67,-3.06 0.89,-1.36 1.36,-2.95 1.34,-4.59 0,-2.14 -0.86,-4.2 -2.37,-5.72 -1.52,-1.52 -3.58,-2.37 -5.73,-2.37l0 0zm131.08 0c-1.62,-0.02 -3.22,0.45 -4.59,1.34 -1.36,0.89 -2.42,2.17 -3.05,3.67 -0.64,1.51 -0.8,3.16 -0.49,4.76 0.32,1.6 1.1,3.06 2.25,4.22 1.15,1.15 2.62,1.93 4.22,2.24 1.59,0.32 3.25,0.15 4.75,-0.48 1.5,-0.63 2.78,-1.69 3.67,-3.06 0.89,-1.36 1.36,-2.95 1.34,-4.59 0,-2.1 -0.82,-4.12 -2.28,-5.63 -1.46,-1.52 -3.45,-2.4 -5.55,-2.47l-0.27 0zm127.98 0.54c-1.7,0.76 -3.08,2.09 -3.93,3.74 -0.85,1.65 -1.1,3.54 -0.73,5.36 0.37,1.82 1.34,3.46 2.77,4.65 1.42,1.19 3.21,1.87 5.06,1.91 2.05,0.01 4.02,-0.74 5.55,-2.1 -2.54,-4.27 -5.46,-8.83 -8.46,-13.38l-0.27 -0.18zm-324.69 -84.56c-1.62,0 -3.21,0.48 -4.56,1.38 -1.35,0.91 -2.4,2.19 -3.02,3.69 -0.61,1.51 -0.77,3.16 -0.45,4.75 0.32,1.59 1.11,3.05 2.27,4.2 1.15,1.14 2.62,1.92 4.22,2.22 1.59,0.31 3.24,0.13 4.74,-0.5 1.5,-0.64 2.77,-1.7 3.66,-3.06 0.89,-1.36 1.35,-2.95 1.33,-4.58 -0.05,-2.09 -0.89,-4.07 -2.37,-5.55 -1.48,-1.47 -3.46,-2.32 -5.55,-2.37l-0.27 -0.18zm131.16 0c-1.62,-0.02 -3.22,0.45 -4.58,1.34 -1.37,0.9 -2.43,2.17 -3.06,3.67 -0.64,1.5 -0.8,3.16 -0.49,4.75 0.31,1.6 1.1,3.06 2.25,4.22 1.15,1.15 2.62,1.93 4.21,2.25 1.6,0.31 3.25,0.14 4.76,-0.49 1.5,-0.63 2.78,-1.7 3.67,-3.05 0.89,-1.37 1.36,-2.97 1.34,-4.59 -0.05,-2.07 -0.88,-4.04 -2.33,-5.51 -1.46,-1.47 -3.42,-2.33 -5.49,-2.4l-0.28 -0.18zm139.18 6.46l-3.82 -5.01c-1.25,-0.73 -2.66,-1.11 -4.09,-1.09 -2.01,0.21 -3.88,1.16 -5.23,2.67 -1.35,1.51 -2.1,3.46 -2.1,5.48 0,2.02 0.75,3.97 2.1,5.47 1.35,1.51 3.22,2.45 5.23,2.67 2.14,-0.02 4.2,-0.88 5.73,-2.39 1.53,-1.51 2.4,-3.56 2.45,-5.71 0.06,-0.64 0.06,-1.28 0,-1.91l-0.27 -0.18zm-204.72 253.14c-1.6,0 -3.17,0.48 -4.5,1.37 -1.34,0.89 -2.37,2.15 -2.99,3.63 -0.61,1.48 -0.77,3.11 -0.46,4.68 0.32,1.57 1.09,3.01 2.22,4.15 1.13,1.13 2.58,1.91 4.15,2.21 1.57,0.32 3.2,0.16 4.67,-0.45 1.49,-0.62 2.75,-1.66 3.64,-2.99 0.89,-1.33 1.36,-2.9 1.36,-4.5 0,-2.15 -0.86,-4.21 -2.37,-5.73 -1.52,-1.52 -3.58,-2.37 -5.73,-2.37l0 0zm131.08 0c-1.6,0 -3.17,0.48 -4.5,1.37 -1.33,0.89 -2.37,2.15 -2.98,3.63 -0.61,1.48 -0.77,3.11 -0.46,4.68 0.31,1.57 1.09,3.01 2.22,4.15 1.14,1.13 2.58,1.91 4.15,2.21 1.57,0.32 3.2,0.16 4.68,-0.45 1.48,-0.62 2.75,-1.66 3.64,-2.99 0.89,-1.33 1.37,-2.9 1.37,-4.5 0,-2.11 -0.82,-4.13 -2.28,-5.64 -1.46,-1.51 -3.45,-2.39 -5.55,-2.47l-0.27 0zm131.16 0c-1.6,0 -3.17,0.48 -4.5,1.37 -1.33,0.89 -2.37,2.15 -2.98,3.63 -0.61,1.48 -0.77,3.11 -0.47,4.68 0.32,1.57 1.09,3.01 2.22,4.15 1.13,1.13 2.58,1.91 4.15,2.21 1.57,0.32 3.2,0.16 4.68,-0.45 1.48,-0.62 2.75,-1.66 3.64,-2.99 0.89,-1.33 1.36,-2.9 1.36,-4.5 0,-2.11 -0.81,-4.13 -2.28,-5.64 -1.46,-1.51 -3.45,-2.39 -5.56,-2.47l-0.27 0zm-327.69 -84.02c-1.62,0 -3.21,0.49 -4.56,1.39 -1.35,0.91 -2.4,2.19 -3.02,3.69 -0.62,1.51 -0.77,3.16 -0.45,4.75 0.33,1.59 1.11,3.05 2.27,4.2 1.15,1.14 2.62,1.92 4.22,2.21 1.6,0.31 3.25,0.13 4.74,-0.5 1.5,-0.63 2.77,-1.7 3.66,-3.05 0.89,-1.36 1.35,-2.95 1.33,-4.58 0,-2.15 -0.85,-4.21 -2.37,-5.72 -1.52,-1.52 -3.58,-2.38 -5.73,-2.38l-0.09 0zm131.16 0c-1.62,-0.02 -3.22,0.45 -4.58,1.35 -1.36,0.89 -2.42,2.17 -3.06,3.67 -0.63,1.5 -0.8,3.16 -0.49,4.75 0.31,1.6 1.1,3.07 2.24,4.22 1.15,1.15 2.62,1.93 4.22,2.25 1.59,0.31 3.25,0.14 4.75,-0.49 1.5,-0.64 2.78,-1.7 3.67,-3.06 0.9,-1.36 1.36,-2.95 1.34,-4.59 0,-2.13 -0.84,-4.18 -2.34,-5.69 -1.5,-1.52 -3.54,-2.38 -5.67,-2.41l-0.09 0zm131.08 0c-1.62,0 -3.21,0.49 -4.57,1.39 -1.34,0.91 -2.39,2.19 -3.02,3.69 -0.62,1.51 -0.77,3.16 -0.45,4.75 0.33,1.59 1.12,3.05 2.27,4.2 1.15,1.14 2.63,1.92 4.22,2.21 1.6,0.31 3.24,0.13 4.74,-0.5 1.5,-0.63 2.77,-1.7 3.65,-3.05 0.89,-1.36 1.36,-2.95 1.34,-4.58 0,-2.15 -0.85,-4.21 -2.37,-5.72 -1.52,-1.52 -3.58,-2.38 -5.73,-2.38l-0.09 0zm-131.08 175.4c-1.62,-0.02 -3.22,0.45 -4.58,1.35 -1.36,0.89 -2.42,2.17 -3.06,3.67 -0.63,1.5 -0.8,3.16 -0.49,4.76 0.31,1.59 1.1,3.06 2.24,4.21 1.15,1.15 2.62,1.93 4.22,2.24 1.59,0.31 3.25,0.14 4.75,-0.49 1.5,-0.64 2.78,-1.7 3.67,-3.06 0.9,-1.36 1.36,-2.95 1.34,-4.59 0,-2.13 -0.84,-4.17 -2.34,-5.69 -1.5,-1.52 -3.54,-2.38 -5.67,-2.41l-0.09 0zm131.08 0c-1.62,0 -3.21,0.49 -4.57,1.39 -1.34,0.9 -2.39,2.18 -3.02,3.69 -0.62,1.5 -0.77,3.15 -0.45,4.74 0.33,1.59 1.12,3.05 2.27,4.2 1.15,1.14 2.63,1.92 4.22,2.22 1.6,0.3 3.24,0.13 4.74,-0.51 1.5,-0.63 2.77,-1.69 3.65,-3.05 0.89,-1.36 1.36,-2.96 1.34,-4.58 0,-2.14 -0.85,-4.2 -2.37,-5.72 -1.52,-1.52 -3.58,-2.38 -5.73,-2.38l-0.09 0z"/>
   <path class="fil1" d="M1645 1518.49c-22.3,-34.59 -43.32,-70.27 -64.63,-105.59 -21.3,-35.32 -42.41,-70.82 -63.17,-106.5 -40.96,-70.55 -79.01,-142.64 -115.69,-215.46 -20.76,-41.23 -41.87,-81.92 -61.63,-123.97 -0.64,-1.37 -2.82,0 -2.36,1 19.11,48.55 39.68,96.31 61.71,143.27l-0.91 -1.18c-4.91,-6.64 -9.83,-13.28 -14.65,-20.02 -9.56,-13.29 -18.2,-26.86 -27.31,-40.78 -0.64,-1.09 -2.37,0 -1.73,1.1 9.85,18.94 20.98,37.18 33.32,54.61 6.02,8.14 12.53,15.92 19.48,23.3l0.64 0.55c10.1,20.93 20.39,41.78 31.22,62.44 37.78,73.4 79.22,144.85 124.16,214.09 12.74,19.39 25.58,38.69 38.96,57.71 13.38,19.02 27.31,37.41 41.51,56.16 0.18,1.18 1.82,0.45 1.09,-0.73z"/>
   <path class="fil2" d="M1745.68 1548.53c-57.71,-82.74 -28.77,-247.32 34.95,-642.36 9.11,-54.62 423.63,-58.89 417.26,0 -8.01,74.09 -81.92,366.92 -101.13,409.61 -94.39,211.18 -312.04,288.91 -351.08,232.75z"/>
   <path class="fil2" d="M2184.42 957.14c17.2,-44.24 96.3,-289.46 100.12,-351.63 3.82,-62.18 2.46,-241.95 -44.87,-249.78 -47.33,-7.83 -51.06,44.79 -51.06,44.79 0,0 -12.66,-75.83 -60.99,-79.47 -48.33,-3.64 -51.53,78.56 -51.53,78.56 0,0 -18.66,-76.92 -67.17,-77.01 -48.52,-0.09 -37.14,82.92 -37.14,82.92 0,0 -13.84,-71.08 -53.8,-54.62 -48.06,20.03 -7.83,148.28 -17.38,216.55 -2.19,15.57 -66.27,311.3 -66.27,311.3l350.08 78.38z"/>
   <path class="fil1" d="M1970.5 398.43c29.41,94.39 25.95,140.72 0.83,234.66 -0.46,1.91 2.18,3 2.82,1.18 32.95,-89.84 45.51,-147.36 0.91,-237.48 -2.19,-4.46 -5.92,-2.83 -4.56,1.63z"/>
   <path class="fil1" d="M2073.82 392.14c21.94,100.68 18.66,151.01 0,251.42 0,1.36 2.19,2 2.55,0.54 27.31,-96.85 38.32,-154.74 3.18,-252.23 -2.09,-4.46 -6.73,-4.28 -5.73,0.27z"/>
   <path class="fil1" d="M2187.7 405.53c14.2,99.04 12.93,154.74 -18.2,249.41 -0.18,0.47 -0.17,0.97 0.02,1.43 0.2,0.45 0.56,0.8 1.03,0.98 0.46,0.18 0.97,0.17 1.42,-0.02 0.45,-0.2 0.81,-0.57 0.99,-1.03 41.05,-93.84 43.15,-162.84 17.67,-250.86 -1.65,-6.01 -3.83,-6.1 -2.92,0.09z"/>
   <path class="fil2" d="M1774.62 956.14c0,0 -32.86,-119.33 -35.68,-175.03 -2.82,-55.71 62.9,-266.8 109.23,-254.87 59.98,15.02 46.06,144.45 30.95,206.9 0,0 138.72,34.59 148.83,129.62 10.1,95.03 -253.32,93.39 -253.32,93.39z"/>
   <path class="fil1" d="M1863.46 535.42c44.78,53.07 19.66,133.81 9.1,195.52 -0.2,0.9 -0.17,1.84 0.06,2.73 0.25,0.89 0.69,1.71 1.32,2.39 0.63,0.68 1.41,1.2 2.28,1.51 0.87,0.31 1.8,0.41 2.72,0.29 57.16,18.2 132.53,60.9 151.1,121.43 0.12,0.32 0.35,0.59 0.65,0.76 0.3,0.17 0.66,0.23 0.99,0.16 0.34,-0.06 0.65,-0.25 0.86,-0.52 0.22,-0.27 0.33,-0.6 0.32,-0.95 -11.11,-67.72 -81.93,-115.6 -145.64,-131.62 11.38,-63.17 33.04,-145.64 -23.76,-192.16 0.09,-0.27 -0.36,0.09 0,0.46z"/>
   <path class="fil3" d="M2204.44 1039.98l-481.07 136.54c0,0 -95.94,315.31 -34.95,394.41 65.27,84.56 368.1,-46.51 428.36,-230.75l87.66 -300.2z"/>
   <path class="fil3" d="M2027.58 1115.89c0,1.6 -0.47,3.17 -1.36,4.5 -0.89,1.34 -2.16,2.37 -3.63,2.98 -1.49,0.62 -3.11,0.78 -4.68,0.46 -1.57,-0.31 -3.01,-1.08 -4.15,-2.21 -1.13,-1.13 -1.91,-2.57 -2.22,-4.15 -0.3,-1.57 -0.14,-3.2 0.47,-4.68 0.62,-1.48 1.65,-2.74 2.98,-3.64 1.33,-0.89 2.9,-1.36 4.5,-1.36 2.15,0 4.21,0.86 5.73,2.37 1.52,1.52 2.37,3.58 2.37,5.73l0 0zm122.97 -8.1c-1.62,0 -3.21,0.49 -4.56,1.38 -1.34,0.91 -2.4,2.19 -3.02,3.7 -0.62,1.51 -0.77,3.15 -0.45,4.75 0.33,1.59 1.11,3.05 2.28,4.19 1.15,1.14 2.62,1.92 4.21,2.22 1.6,0.31 3.24,0.13 4.74,-0.5 1.5,-0.63 2.77,-1.7 3.66,-3.06 0.89,-1.35 1.36,-2.95 1.33,-4.57 0,-1.07 -0.21,-2.13 -0.62,-3.12 -0.42,-0.99 -1.02,-1.89 -1.78,-2.64 -0.77,-0.75 -1.67,-1.34 -2.66,-1.74 -0.99,-0.4 -2.06,-0.6 -3.13,-0.59l0 0zm-393.32 175.22c-1.62,-0.02 -3.22,0.45 -4.59,1.34 -1.36,0.89 -2.42,2.17 -3.06,3.67 -0.63,1.5 -0.79,3.16 -0.48,4.75 0.31,1.6 1.09,3.06 2.24,4.22 1.15,1.15 2.62,1.93 4.22,2.24 1.6,0.32 3.25,0.15 4.75,-0.48 1.5,-0.63 2.78,-1.69 3.67,-3.06 0.89,-1.36 1.36,-2.95 1.34,-4.58 0,-2.15 -0.86,-4.21 -2.37,-5.73 -1.52,-1.52 -3.58,-2.37 -5.73,-2.37l0 0zm131.16 0c-1.62,-0.02 -3.22,0.45 -4.58,1.34 -1.36,0.89 -2.43,2.17 -3.05,3.67 -0.63,1.5 -0.8,3.16 -0.49,4.75 0.31,1.6 1.1,3.06 2.25,4.22 1.15,1.15 2.62,1.93 4.22,2.24 1.59,0.32 3.25,0.15 4.75,-0.48 1.5,-0.63 2.78,-1.69 3.67,-3.06 0.89,-1.36 1.36,-2.95 1.34,-4.58 0,-2.15 -0.86,-4.21 -2.37,-5.73 -1.52,-1.52 -3.58,-2.37 -5.73,-2.37l0 0zm131.08 0c-1.62,-0.02 -3.22,0.45 -4.58,1.34 -1.36,0.89 -2.43,2.17 -3.06,3.67 -0.63,1.5 -0.8,3.16 -0.49,4.75 0.31,1.6 1.1,3.06 2.24,4.22 1.15,1.15 2.62,1.93 4.22,2.24 1.6,0.32 3.25,0.15 4.76,-0.48 1.5,-0.63 2.77,-1.69 3.67,-3.06 0.89,-1.36 1.36,-2.95 1.34,-4.58 0,-2.15 -0.85,-4.21 -2.37,-5.73 -1.52,-1.52 -3.58,-2.37 -5.73,-2.37l0 0zm-196.71 -84.01c-1.62,0 -3.2,0.48 -4.56,1.38 -1.35,0.91 -2.4,2.19 -3.02,3.69 -0.62,1.51 -0.77,3.16 -0.45,4.75 0.33,1.59 1.11,3.05 2.27,4.2 1.15,1.14 2.62,1.92 4.22,2.22 1.6,0.31 3.24,0.13 4.74,-0.5 1.5,-0.64 2.77,-1.7 3.66,-3.06 0.89,-1.36 1.35,-2.95 1.33,-4.58 -0.05,-2.13 -0.93,-4.16 -2.47,-5.64 -1.53,-1.49 -3.59,-2.3 -5.73,-2.28l0 -0.18zm131.17 0c-1.63,-0.02 -3.23,0.45 -4.59,1.34 -1.36,0.9 -2.42,2.17 -3.06,3.67 -0.63,1.5 -0.79,3.16 -0.48,4.75 0.31,1.6 1.09,3.06 2.24,4.22 1.15,1.15 2.62,1.93 4.22,2.25 1.6,0.31 3.25,0.14 4.76,-0.49 1.5,-0.63 2.78,-1.7 3.67,-3.05 0.9,-1.37 1.36,-2.97 1.35,-4.59 -0.03,-1.08 -0.27,-2.14 -0.71,-3.13 -0.44,-0.98 -1.07,-1.87 -1.86,-2.6 -0.79,-0.74 -1.72,-1.32 -2.73,-1.69 -1.01,-0.37 -2.09,-0.54 -3.17,-0.49l0.36 -0.18zm131.07 0c-1.62,0 -3.21,0.48 -4.56,1.38 -1.35,0.91 -2.39,2.19 -3.01,3.69 -0.62,1.51 -0.77,3.16 -0.45,4.75 0.32,1.59 1.11,3.05 2.27,4.2 1.16,1.14 2.62,1.92 4.22,2.22 1.59,0.31 3.24,0.13 4.74,-0.5 1.5,-0.64 2.77,-1.7 3.66,-3.06 0.88,-1.36 1.35,-2.95 1.33,-4.58 -0.05,-2.13 -0.94,-4.16 -2.47,-5.64 -1.53,-1.49 -3.59,-2.3 -5.72,-2.28l0 -0.18zm-327.69 259.42c-1.6,0 -3.17,0.47 -4.5,1.36 -1.34,0.89 -2.37,2.16 -2.98,3.63 -0.62,1.48 -0.78,3.11 -0.47,4.68 0.32,1.57 1.09,3.01 2.22,4.15 1.13,1.13 2.57,1.91 4.15,2.21 1.57,0.31 3.2,0.15 4.68,-0.46 1.48,-0.62 2.75,-1.66 3.64,-2.98 0.89,-1.34 1.36,-2.9 1.36,-4.5 -0.05,-2.14 -0.94,-4.17 -2.47,-5.64 -1.54,-1.49 -3.59,-2.31 -5.72,-2.28l0.09 -0.18zm131.16 0c-1.6,0 -3.16,0.47 -4.5,1.36 -1.33,0.89 -2.37,2.16 -2.98,3.63 -0.61,1.48 -0.77,3.11 -0.46,4.68 0.31,1.57 1.08,3.01 2.22,4.15 1.13,1.13 2.57,1.91 4.15,2.21 1.57,0.31 3.2,0.15 4.68,-0.46 1.48,-0.62 2.75,-1.66 3.64,-2.98 0.89,-1.34 1.36,-2.9 1.36,-4.5 -0.05,-2.14 -0.93,-4.17 -2.47,-5.64 -1.53,-1.49 -3.59,-2.31 -5.72,-2.28l0.09 -0.18zm131.08 0c-1.6,0 -3.17,0.47 -4.5,1.36 -1.33,0.89 -2.37,2.16 -2.99,3.63 -0.61,1.48 -0.77,3.11 -0.46,4.68 0.31,1.57 1.09,3.01 2.22,4.15 1.14,1.13 2.58,1.91 4.15,2.21 1.57,0.31 3.2,0.15 4.68,-0.46 1.48,-0.62 2.74,-1.66 3.63,-2.98 0.89,-1.34 1.36,-2.9 1.36,-4.5 -0.05,-2.14 -0.94,-4.17 -2.47,-5.64 -1.53,-1.49 -3.59,-2.31 -5.72,-2.28l0.09 -0.18zm-327.69 -84.02c-1.62,-0.02 -3.22,0.45 -4.59,1.35 -1.36,0.89 -2.42,2.16 -3.05,3.66 -0.64,1.5 -0.8,3.16 -0.49,4.76 0.31,1.59 1.1,3.07 2.25,4.22 1.15,1.15 2.62,1.93 4.22,2.24 1.59,0.31 3.25,0.14 4.75,-0.49 1.5,-0.63 2.78,-1.69 3.67,-3.05 0.89,-1.37 1.36,-2.96 1.34,-4.59 -0.02,-1.07 -0.26,-2.11 -0.68,-3.09 -0.43,-0.97 -1.05,-1.86 -1.82,-2.59 -0.77,-0.73 -1.68,-1.31 -2.67,-1.7 -0.99,-0.38 -2.05,-0.57 -3.12,-0.55l0.18 -0.18zm131.08 0c-1.62,0 -3.21,0.48 -4.56,1.38 -1.35,0.91 -2.4,2.19 -3.02,3.69 -0.62,1.51 -0.77,3.16 -0.45,4.75 0.32,1.59 1.11,3.05 2.27,4.19 1.15,1.14 2.62,1.92 4.22,2.22 1.59,0.3 3.24,0.12 4.74,-0.51 1.5,-0.64 2.77,-1.7 3.66,-3.06 0.89,-1.36 1.35,-2.95 1.34,-4.57 -0.03,-1.08 -0.26,-2.13 -0.69,-3.11 -0.44,-0.98 -1.06,-1.86 -1.85,-2.6 -0.77,-0.73 -1.69,-1.31 -2.7,-1.69 -1,-0.38 -2.07,-0.55 -3.15,-0.52l0.18 -0.18zm131.17 0c-1.63,-0.02 -3.22,0.45 -4.58,1.35 -1.36,0.89 -2.43,2.16 -3.06,3.66 -0.64,1.5 -0.8,3.16 -0.49,4.76 0.31,1.59 1.1,3.07 2.24,4.22 1.15,1.15 2.62,1.93 4.21,2.24 1.6,0.31 3.25,0.14 4.76,-0.49 1.5,-0.63 2.78,-1.69 3.67,-3.05 0.89,-1.37 1.36,-2.96 1.34,-4.59 -0.02,-1.1 -0.27,-2.18 -0.72,-3.18 -0.46,-0.99 -1.1,-1.9 -1.91,-2.63 -0.81,-0.74 -1.76,-1.31 -2.79,-1.67 -1.04,-0.36 -2.13,-0.51 -3.22,-0.44l0.54 -0.18zm131.08 0c-1.62,0 -3.21,0.48 -4.57,1.38 -1.34,0.91 -2.39,2.19 -3.01,3.69 -0.63,1.51 -0.77,3.16 -0.45,4.75 0.32,1.59 1.11,3.05 2.27,4.19 1.16,1.14 2.62,1.92 4.21,2.22 1.6,0.3 3.25,0.12 4.75,-0.51 1.49,-0.64 2.77,-1.7 3.65,-3.06 0.89,-1.36 1.36,-2.95 1.34,-4.57 -0.03,-1.08 -0.27,-2.13 -0.7,-3.11 -0.44,-0.98 -1.06,-1.86 -1.84,-2.6 -0.78,-0.73 -1.7,-1.31 -2.7,-1.69 -1,-0.38 -2.07,-0.55 -3.15,-0.52l0.18 -0.18zm-393.32 175.41c-1.62,-0.02 -3.22,0.45 -4.59,1.34 -1.36,0.89 -2.42,2.17 -3.05,3.67 -0.64,1.5 -0.8,3.16 -0.49,4.76 0.31,1.6 1.1,3.06 2.25,4.21 1.15,1.15 2.62,1.94 4.22,2.25 1.59,0.31 3.25,0.14 4.75,-0.49 1.5,-0.63 2.78,-1.69 3.67,-3.05 0.89,-1.36 1.36,-2.96 1.34,-4.58 -0.02,-1.07 -0.26,-2.12 -0.68,-3.09 -0.43,-0.97 -1.05,-1.85 -1.82,-2.59 -0.77,-0.74 -1.68,-1.31 -2.67,-1.7 -0.99,-0.38 -2.05,-0.57 -3.12,-0.55l0.18 -0.17zm131.08 0c-1.62,0 -3.21,0.48 -4.56,1.38 -1.35,0.9 -2.4,2.19 -3.02,3.7 -0.62,1.5 -0.77,3.15 -0.45,4.75 0.32,1.59 1.11,3.04 2.27,4.19 1.15,1.14 2.62,1.91 4.22,2.22 1.59,0.3 3.24,0.13 4.74,-0.51 1.5,-0.64 2.77,-1.7 3.66,-3.05 0.89,-1.36 1.35,-2.95 1.34,-4.57 -0.03,-1.08 -0.26,-2.14 -0.69,-3.11 -0.44,-0.98 -1.06,-1.87 -1.85,-2.6 -0.77,-0.73 -1.69,-1.31 -2.7,-1.69 -1,-0.38 -2.07,-0.56 -3.15,-0.53l0.18 -0.17z"/>
   <path class="fil1" d="M1739.12 1285.83c53.7,-12.2 106.68,-27.31 159.65,-42.42 52.98,-15.11 106.04,-30.22 158.65,-46.69 29.68,-9.1 59.44,-18.21 88.85,-28.86 0.81,0 0.54,-1.63 0,-1.46 -53.62,12.11 -106.78,27.31 -159.66,41.78 -52.88,14.47 -106.13,30.23 -158.93,46.06 -29.76,9.1 -59.44,18.2 -88.84,28.85 -1.73,0.55 -1.27,3.1 0.28,2.74z"/>
   <path class="fil1" d="M1740.49 1171.23c-7.46,0.72 -14.92,2.28 -22.3,3.73 -0.56,0.16 -1.07,0.46 -1.49,0.88 -0.41,0.4 -0.71,0.92 -0.88,1.49 -8.19,28.03 -14.02,56.89 -19.84,85.46 -5.83,28.59 -10.83,56.45 -15.47,84.84 -2.55,15.2 -4.74,30.58 -6.46,45.51 -9.29,18.57 -14.94,38.74 -16.66,59.44 0,0.24 0.1,0.48 0.27,0.64 0.17,0.17 0.4,0.27 0.65,0.27 0.24,0 0.48,-0.1 0.65,-0.27 0.17,-0.16 0.26,-0.4 0.26,-0.64 2.28,-18.36 7.03,-36.34 14.11,-53.43 -4.6,37.47 -3.58,75.42 3.01,112.6 -9.11,-55.52 4.55,-113.42 13.65,-168.03 4.55,-27.31 9.74,-54.62 15.11,-81.92 5.37,-27.31 11.64,-54.16 16.65,-81.38 6.37,-2.45 12.83,-4.82 18.93,-7.73 0.11,-0.1 0.18,-0.22 0.24,-0.35 0.05,-0.14 0.06,-0.28 0.05,-0.42 -0.02,-0.15 -0.07,-0.28 -0.15,-0.39 -0.08,-0.12 -0.19,-0.22 -0.31,-0.29l0 0z"/>
   <path class="fil2" d="M1252.68 702.27c-4.27,15.48 -82.74,114.24 -154.1,108.23 -23.22,-2 -18.2,-129.35 -18.2,-129.35l-1.73 -9.1 -24.58 -132.81 158.29 -93.66 22.85 -12.38c0,0 4.37,36.41 9.1,82.74 0,2.09 0.45,4.19 0.64,6.46 0.18,2.28 0.73,5.09 0.91,7.46 0.91,6.83 1.64,13.84 2.37,20.85 0.54,5.27 1,10.46 1.36,16.02 0.36,5.56 0.91,11.11 1.36,16.66 3.26,39.54 3.84,79.25 1.73,118.87l0 0z"/>
   <path class="fil1" d="M1244.49 515.67c-14.7,36.5 -37.17,69.35 -65.84,96.29 -28.67,26.94 -62.86,47.32 -100.19,59.73l-24.58 -132.8 158.47 -93.3 22.85 -12.38c0,0 4.37,36.59 9.29,82.47z"/>
   <path class="fil2" d="M886.85 323.97c-24.48,235.84 114.06,277.17 164.94,282.18 46.15,4.73 203.99,15.02 252.68,-217.1 48.7,-232.12 -53.25,-317.95 -158.29,-334.43 -105.04,-16.48 -234.85,33.5 -259.34,269.34z"/>
   <path class="fil1" d="M966.32 269.18c5.43,-0.37 10.84,-1 16.2,-1.91 5.82,0.12 11.51,-1.67 16.21,-5.1 1.3,-1.35 2.09,-3.11 2.28,-4.97 0.18,-1.87 -0.27,-3.74 -1.27,-5.32 -2.48,-2.76 -5.65,-4.82 -9.18,-5.97 -3.53,-1.15 -7.31,-1.35 -10.94,-0.57 -7.63,0.42 -14.84,3.66 -20.21,9.1 -1.05,1.33 -1.71,2.92 -1.9,4.6 -0.19,1.69 0.09,3.38 0.8,4.92 0.72,1.53 1.86,2.83 3.27,3.75 1.41,0.93 3.06,1.44 4.75,1.48z"/>
   <path class="fil1" d="M1135.44 267.9c-5.32,-1.21 -10.59,-2.73 -15.74,-4.55 -5.75,-0.84 -11.06,-3.56 -15.11,-7.73 -1.02,-1.55 -1.5,-3.38 -1.37,-5.23 0.13,-1.85 0.88,-3.59 2.1,-4.97 2.88,-2.38 6.33,-3.94 10.01,-4.53 3.68,-0.59 7.45,-0.19 10.93,1.16 7.38,1.7 13.87,6.08 18.2,12.29 0.84,1.47 1.26,3.14 1.2,4.83 -0.06,1.7 -0.58,3.33 -1.52,4.74 -0.93,1.41 -2.25,2.53 -3.78,3.23 -1.53,0.71 -3.23,0.97 -4.92,0.76z"/>
   <path class="fil1" d="M1093.3 338.72c0,-0.54 1.19,0.91 1.1,1.55 -2.1,16.02 -1.73,34.77 12.29,41.51 0,0 0,1 0,0.91 -17.85,-4.28 -17.85,-29.13 -13.39,-43.97z"/>
   <path class="fil1" d="M1109.32 323.33c26.04,0.64 22.94,52.61 -1.18,52.16 -24.12,-0.45 -20.66,-52.61 1.18,-52.16z"/>
   <path class="fil1" d="M1119.33 326.7c4.37,3.19 8.56,8.65 13.93,9.56 5.37,0.91 11.47,-4.19 15.93,-9.11 0.45,0 0.82,0 0.82,0.64 -0.46,10.01 -4.82,20.02 -15.66,20.84 -10.83,0.82 -16.29,-8.37 -18.2,-18.2 0,-2.37 1.46,-5.01 3.18,-3.74z"/>
   <path class="fil1" d="M995.09 327.25c0,-0.64 -1.36,0.64 -1.36,1.28 -0.55,16.21 -3.92,34.58 -18.84,38.96 -0.55,0 -0.55,0.91 0,0.91 18.02,-1.73 22.21,-26.12 20.21,-41.14z"/>
   <path class="fil1" d="M981.79 309.04c-25.76,-3.73 -31.31,48.15 -7.46,51.62 23.85,3.45 29.13,-48.43 7.46,-51.62z"/>
   <path class="fil1" d="M970.51 311.32c-4.46,2.28 -9.1,6.83 -13.92,6.65 -4.83,-0.18 -9.11,-6.28 -12.38,-12.02 0,-0.64 -0.73,0 -0.82,0.46 -1.36,9.83 0.82,20.57 10.1,23.48 9.29,2.91 15.85,-5.19 19.21,-14.74 0.83,-1.82 -0.27,-4.73 -2.18,-3.82z"/>
   <path class="fil1" d="M1067.82 464.33c-3.92,3.74 -7.83,9.11 -13.75,9.11 -6.01,-0.15 -11.91,-1.61 -17.3,-4.28 -0.11,-0.02 -0.22,-0.01 -0.32,0.03 -0.11,0.03 -0.21,0.1 -0.27,0.17 -0.07,0.09 -0.12,0.19 -0.15,0.29 -0.02,0.11 -0.02,0.23 0.02,0.33 2.24,3.23 5.33,5.79 8.92,7.39 3.6,1.6 7.56,2.19 11.47,1.71 3.32,-0.8 6.31,-2.57 8.62,-5.08 2.31,-2.52 3.81,-5.66 4.31,-9.03 0.28,-1.18 -1,-1.18 -1.54,-0.64z"/>
   <path class="fil1" d="M1004.55 401.34c0,0 -5.01,23.85 -5.83,35.22 0,1 2.64,1.73 6.46,2.28 0,0 0,0 0.46,0 9.61,2.48 19.72,2.25 29.22,-0.66 9.49,-2.91 18,-8.38 24.57,-15.82 0.92,-1 -0.45,-2.28 -1.54,-1.63 -15.18,8.84 -32.78,12.58 -50.25,10.65 -0.64,-3.19 9.92,-40.51 8.19,-40.78 -8.89,0.13 -17.71,1.48 -26.22,4 9.1,-49.88 25.94,-98.04 34.14,-147.83 0.12,-0.37 0.08,-0.78 -0.09,-1.13 -0.18,-0.35 -0.49,-0.62 -0.87,-0.74 -0.37,-0.12 -0.78,-0.08 -1.13,0.09 -0.35,0.18 -0.62,0.49 -0.73,0.86 -21.39,49.07 -32.95,106.32 -43.6,157.66 -1.46,6.38 22.57,-0.54 27.21,-2.18z"/>
   <path class="fil1" d="M1009.1 434.66c5.61,9.46 13.58,17.29 23.12,22.76 5.28,2.86 11.35,3.95 17.3,3.09 13.01,-1.82 14.65,-13.29 13.47,-23.48 -0.65,-5.38 -1.93,-10.67 -3.82,-15.74 -14.83,9.69 -32.37,14.38 -50.06,13.38z"/>
   <path class="fil6" d="M1032.22 457.42c5.28,2.86 11.35,3.95 17.3,3.09 13.01,-1.82 14.65,-13.29 13.47,-23.48 -6.67,-0.53 -13.32,1.2 -18.9,4.89 -5.58,3.7 -9.75,9.15 -11.87,15.5l0 0z"/>
   <path class="fil1" d="M1294.65 375.4c-54.61,-3.92 -46.88,-89.56 -46.88,-89.56 0,0 -61.17,-10.65 -57.44,-110.41 0,0 -34.59,57.62 -119.06,62.89 -18.2,1.19 45.52,-39.78 45.52,-39.78 0,0 -85.38,55.89 -215.09,20.66 -9.1,-2.46 31.31,-137.26 138.54,-176.22 107.23,-38.96 198.16,-4.28 256.69,66.17 0,0 72.82,41.14 75.46,113.6 2.64,72.45 -56.62,154.2 -77.73,152.64z"/>
   <path class="fil3" d="M1336.61 338.99c18.09,-29.8 28.58,-63.59 30.55,-98.39 1.97,-34.81 -4.64,-69.57 -19.26,-101.22 -49.88,-111.23 -228.83,-155.37 -346.9,-76.64 0,0 202.99,-36.41 271.62,55.16 68.63,91.57 63.99,221.1 63.99,221.1z"/>
   <path class="fil2" d="M1263.88 398.25c0,0 52.98,-72.82 86.2,-54.62 33.23,18.2 -7.37,125.71 -47.06,139.63 -4.96,2.15 -10.3,3.28 -15.7,3.31 -5.41,0.03 -10.77,-1.03 -15.75,-3.12 -4.98,-2.09 -9.49,-5.17 -13.25,-9.05 -3.76,-3.89 -6.7,-8.49 -8.64,-13.54l14.2 -62.62z"/>
   <path class="fil1" d="M1337.7 374.4c0.64,0 0.73,0.81 0,1.09 -27.85,10.65 -42.77,36.41 -53.43,62.44 8.37,-10.01 19.66,-15.47 33.23,-5.46 0.73,0.54 0,1.63 -0.82,1.46 -4.84,-1.65 -10.07,-1.74 -14.97,-0.27 -4.89,1.47 -9.2,4.43 -12.34,8.46 -5.17,6.74 -9.63,14 -13.29,21.67 -1.36,2.45 -5.83,1.09 -4.83,-1.73l0 -0.64c0.27,-35.23 28.49,-84.11 66.45,-87.02z"/>
  </g>
 </g>
</svg>
