<?xml version="1.0" encoding="UTF-8"?>
<!DOCTYPE svg PUBLIC "-//W3C//DTD SVG 1.1//EN" "http://www.w3.org/Graphics/SVG/1.1/DTD/svg11.dtd">
<!-- Creator: CorelDRAW -->
<svg xmlns="http://www.w3.org/2000/svg" xml:space="preserve" width="22.6076mm" height="22.7201mm" version="1.1" style="shape-rendering:geometricPrecision; text-rendering:geometricPrecision; image-rendering:optimizeQuality; fill-rule:evenodd; clip-rule:evenodd"
viewBox="0 0 446.09 448.31"
 xmlns:xlink="http://www.w3.org/1999/xlink"
 xmlns:xodm="http://www.corel.com/coreldraw/odm/2003">
 <defs>
  <style type="text/css">
   <![CDATA[
    .str0 {stroke:white;stroke-width:13.92;stroke-linecap:round;stroke-linejoin:round;stroke-miterlimit:2.61313}
    .fil4 {fill:none}
    .fil3 {fill:#4D4D4D}
    .fil2 {fill:#54BC7E}
    .fil1 {fill:#E6E6E6}
    .fil0 {fill:white}
   ]]>
  </style>
 </defs>
 <g id="Layer_x0020_1">
  <metadata id="CorelCorpID_0Corel-Layer"/>
  <g id="_105553187491104">
   <circle class="fil0" cx="215.91" cy="215.91" r="215.91"/>
   <circle class="fil1" cx="215.91" cy="215.91" r="200.99"/>
   <circle class="fil0" cx="356.24" cy="358.46" r="89.85"/>
   <circle class="fil2" cx="356.24" cy="358.46" r="74.23"/>
   <path class="fil3" d="M163.92 172.22c25.58,-0.32 75.06,-0.1 100.53,0.11 25.48,0.21 26.96,0.42 28.33,1 1.37,0.58 2.64,1.53 3.38,3.96 0.74,2.43 0.95,6.33 1.11,8.44 0.16,2.11 0.26,2.43 0.26,3.85 0,1.42 -0.1,3.96 -0.42,5.17 -0.32,1.21 -0.84,1.11 -11.18,7.33 -10.34,6.23 -30.49,18.78 -41.73,26.06 -11.23,7.28 -13.56,9.28 -15.61,10.82 -2.06,1.53 -3.85,2.58 -5.59,3.32 -1.74,0.74 -3.43,1.16 -5.38,1.32 -1.95,0.16 -4.17,0.05 -6.49,-0.21 -2.32,-0.26 -4.75,-0.69 -8.33,-3.17 -3.59,-2.48 -8.33,-7.01 -16.61,-13.77 -8.28,-6.75 -20.1,-15.72 -29.01,-21.78 -8.91,-6.07 -14.93,-9.23 -18.04,-11.18 -3.11,-1.95 -3.32,-2.69 -3.43,-3.17 -0.1,-0.48 -0.1,-0.69 -0.26,-2.27 -0.16,-1.58 -0.48,-4.54 -0.58,-7.07 -0.1,-2.53 0,-4.64 0.9,-6.12 0.9,-1.48 2.58,-2.32 28.17,-2.64z"/>
   <path class="fil3" d="M144.17 201.98c7.16,5.64 20.46,15.64 32.38,24.36 11.93,8.72 22.48,16.14 28.25,19.86 5.78,3.72 6.79,3.72 8.26,3.81 1.47,0.09 3.4,0.28 5.59,0.14 2.2,-0.14 4.68,-0.6 7.89,-2.43 3.21,-1.83 7.15,-5.05 18.16,-13.03 11.01,-7.98 29.08,-20.73 38.81,-27.43 9.72,-6.7 11.1,-7.34 11.79,-7.25 0.69,0.09 0.69,0.92 0.83,12.75 0.14,11.84 0.41,34.68 0.32,46.47 -0.09,11.79 -0.55,12.52 -2.02,13.39 -1.47,0.87 -3.95,1.88 -29.36,2.29 -25.41,0.41 -73.76,0.23 -99.22,0.09 -25.46,-0.14 -28.03,-0.23 -29.49,-1.19 -1.47,-0.96 -1.83,-2.8 -1.88,-14.72 -0.05,-11.93 0.23,-33.94 0.37,-46.51 0.14,-12.57 0.14,-15.69 0.64,-16.61 0.51,-0.92 1.51,0.37 8.67,6.01z"/>
   <g>
    <path class="fil4 str0" d="M325.21 352.71c7.79,9.03 15.57,18.06 19.38,22.5 3.82,4.44 3.66,4.28 9.97,-3.31 6.31,-7.59 19.07,-22.62 25.42,-30.13 6.35,-7.51 6.27,-7.51 6.19,-7.51"/>
   </g>
  </g>
 </g>
</svg>
